<?xml version="1.0" encoding="utf-8"?>
<!-- Generator: Adobe Illustrator 25.2.0, SVG Export Plug-In . SVG Version: 6.00 Build 0)  -->
<svg version="1.1" id="calque_2" xmlns="http://www.w3.org/2000/svg" xmlns:xlink="http://www.w3.org/1999/xlink" x="0px" y="0px"
	 viewBox="0 0 160 56.5" style="enable-background:new 0 0 160 56.5;" xml:space="preserve">
<style type="text/css">
	.st0{fill:#B5117D;}
	.st1{fill:#E62C33;}
	.st2{fill:#5E2364;}
</style>
<g>
	<g>
		<g>
			<path class="st0" d="M27.6,49.9c10.2,0,18.6-8.3,18.6-18.6c0-3.1-0.9-9-6.5-9c-4.7,0-6.2,4-7.3,9c-1.5,6.7-3.2,8.5-7,8.5
				c-3.5,0-6.7-3-6.7-8.5c0-6.6,5.2-11.7,7.1-13.9H15.3c-3.8,3.4-5.8,8.4-5.8,13.9C9.5,41.6,17.4,49.9,27.6,49.9z"/>
			<path class="st1" d="M33.6,6.3c-10.2,0-18.6,8.3-18.6,18.6c0,3.1,0.9,9,6.5,9c4.7,0,6.2-4,7.3-9c1.5-6.7,3.2-8.5,7-8.5
				c3.5,0,6.7,3,6.7,8.5c0,6.6-5.2,11.7-7.1,13.9h10.5c3.8-3.4,5.8-8.4,5.8-13.9C51.7,14.6,43.9,6.3,33.6,6.3z"/>
			<path class="st2" d="M44.6,38.7h-9.3c1.9-2.1,7.1-7.3,7.1-13.9c0-0.7,0-1.3-0.1-1.9c3.2,1.5,3.8,5.9,3.8,8.4
				C46.2,34,45.6,36.4,44.6,38.7z M15.1,24.8c0,2.5,0.6,6.9,3.8,8.4c-0.1-0.6-0.1-1.2-0.1-1.9c0-6.6,5.2-11.7,7.1-13.9h-9.2
				C15.6,19.7,15.1,22.2,15.1,24.8z"/>
		</g>
		<g>
			<path class="st0" d="M63.4,13.2h4.3l9.1,21.4h-4.9l-2-4.8h-9l-2,4.8h-4.8L63.4,13.2z M68.3,25.7l-2.8-6.9l-2.8,6.9H68.3z"/>
			<path class="st0" d="M78.8,13.3h5.3l2.1-2h4.9l-1.7,2h5.4v4.2H83.4v4.3h10V26h-10v4.5H95v4.1H78.8L78.8,13.3L78.8,13.3z"/>
			<path class="st0" d="M119.3,13.3h4.7v21.3h-4.7V13.3z"/>
			<path class="st0" d="M127.8,24L127.8,24c0-6.1,4.8-11,11.3-11c6.6,0,11.3,4.9,11.3,10.9v0.1c0,6-4.8,11-11.3,11
				C132.5,35,127.8,30.1,127.8,24z M145.5,24L145.5,24c0-3.7-2.7-6.7-6.4-6.7s-6.4,3-6.4,6.6V24c0,3.6,2.7,6.7,6.4,6.7
				C142.9,30.6,145.5,27.7,145.5,24z"/>
			<path class="st0" d="M108.1,21.8c-3.8-1-4.7-1.5-4.7-2.9v-0.1c0-1.1,1-1.9,2.8-1.9c1.2,0,2.5,0.4,3.8,1l0,0
				c1.4,0.6,2.8,0.9,3.6-0.3c0.8-1.1,0.1-2.6-0.9-3.3c-0.5-0.4-2-1.2-3.7-1.5h0c-0.8-0.2-1.7-0.3-2.7-0.3c-4.5,0-7.7,2.6-7.7,6.6
				v0.1c0,4.4,2.8,5.6,7.3,6.7c3.7,0.9,4.4,1.6,4.4,2.8v0.1c0,1.3-1.2,2.1-3.2,2.1c-0.5,0-1,0-1.5-0.1c-2.2-0.4-4.1-1.7-4.6-2.1
				c-0.3-0.3-1.4-1.2-2.3-2v5.3c1.4,1.6,3.5,2.7,6.7,3c0.5,0.1,1.1,0.1,1.6,0.1c4.7,0,8.1-2.5,8.1-6.8v-0.1
				C115.1,24.5,112.6,22.9,108.1,21.8z"/>
		</g>
		<g>
			<path class="st0" d="M57.1,38.7l3.3,6.9l3.2-6.9h2.8v11.2h-2.3v-7.6l-3,6.4h-1.7l-3-6.4v7.6h-2.3V38.7
				C54.3,38.7,57.1,38.7,57.1,38.7z"/>
			<path class="st0" d="M74.3,47.8c1.5,0,2.5-1,2.5-2.6v-6.5h2.5v6.5c0,3-2,4.8-5,4.8c-3.1,0-5.1-1.9-5.1-4.8v-6.5h2.5v6.5
				C71.8,46.8,72.8,47.8,74.3,47.8z"/>
			<path class="st0" d="M90.4,38.7v2.2H87v9.1h-2.5v-9.1H81v-2.2C81,38.7,90.4,38.7,90.4,38.7z"/>
			<path class="st0" d="M97.1,47.8c1.5,0,2.5-1,2.5-2.6v-6.5h2.5v6.5c0,3-2,4.8-5,4.8C94,50,92,48.2,92,45.2v-6.5h2.5v6.5
				C94.6,46.8,95.6,47.8,97.1,47.8z"/>
			<path class="st0" d="M113.5,38.7v2.1h-6v2.5h5.4v2.1h-5.4v2.5h6.2v2.1h-8.7V38.6L113.5,38.7L113.5,38.7z"/>
			<path class="st0" d="M118.6,38.7v9h4.8v2.2h-7.4V38.7C116.1,38.7,118.6,38.7,118.6,38.7z"/>
			<path class="st0" d="M128,38.7v9h4.8v2.2h-7.4V38.7C125.4,38.7,128,38.7,128,38.7z"/>
			<path class="st0" d="M143.3,38.7v2.1h-6v2.5h5.4v2.1h-5.4v2.5h6.2v2.1h-8.7V38.6L143.3,38.7L143.3,38.7z"/>
		</g>
	</g>
</g>
</svg>
