<svg width="224" height="51" viewBox="0 0 224 51" fill="none" xmlns="http://www.w3.org/2000/svg">
<g clip-path="url(#clip0_1893_23698)">
<path d="M9.76782 40.3205L12.5219 37.5664L25.0439 50.0884L9.76782 40.3205Z" fill="#00E8FF"/>
<path d="M40.32 9.76787L37.5659 12.522L25.0439 0L40.32 9.76787Z" fill="#381A0A"/>
<path d="M37.5659 12.522L50.0878 25.0439L37.5659 37.5659L12.5219 12.522L9.76782 9.76787L25.0439 0L37.5659 12.522Z" fill="#00E8FF"/>
<path d="M37.5659 37.5654L40.32 40.3195L25.0439 50.0874L12.522 37.5654L0 25.0435L12.522 12.5215L37.5659 37.5654Z" fill="#381A0A"/>
<path d="M67.7415 37.3827L66.6674 34.2522H62.2333L61.1592 37.3827C61.1482 37.4362 61.1176 37.4837 61.0735 37.5159C61.0294 37.5481 60.9749 37.5628 60.9206 37.5571H58.9927C58.9678 37.5596 58.9427 37.5571 58.9189 37.5496C58.8951 37.542 58.873 37.5297 58.8541 37.5134C58.8352 37.4971 58.8198 37.4771 58.8089 37.4546C58.798 37.4321 58.7918 37.4077 58.7907 37.3827C58.7833 37.3464 58.7833 37.3089 58.7907 37.2725L63.1973 25.2188C63.1973 25.0902 63.2799 25.0352 63.4084 25.0352H65.4465C65.575 25.0352 65.6209 25.0902 65.6668 25.2188L70.0825 37.2725C70.0899 37.3089 70.0899 37.3464 70.0825 37.3827C70.0814 37.4077 70.0752 37.4321 70.0643 37.4546C70.0534 37.4771 70.038 37.4971 70.0191 37.5134C70.0002 37.5297 69.9782 37.542 69.9543 37.5496C69.9305 37.5571 69.9054 37.5596 69.8806 37.5571H67.9343C67.8058 37.5479 67.7783 37.4929 67.7415 37.3827ZM64.4458 27.8076L62.9494 32.1775H65.9514L64.4458 27.8076Z" fill="#381A0A"/>
<path d="M128.938 37.3821L127.864 34.2516H123.429L122.355 37.3821C122.35 37.4102 122.339 37.4368 122.323 37.4605C122.307 37.4841 122.286 37.5043 122.262 37.5198C122.238 37.5352 122.211 37.5456 122.183 37.5504C122.155 37.5551 122.126 37.5541 122.098 37.5474H120.17C120.146 37.5499 120.12 37.5473 120.097 37.5398C120.073 37.5323 120.051 37.52 120.032 37.5036C120.013 37.4873 119.998 37.4673 119.987 37.4448C119.976 37.4224 119.97 37.3979 119.968 37.3729C119.961 37.3366 119.961 37.2991 119.968 37.2628L124.366 25.209C124.366 25.0805 124.458 25.0254 124.586 25.0254H126.688C126.817 25.0254 126.854 25.0805 126.9 25.209L131.279 37.2719C131.286 37.3083 131.286 37.3458 131.279 37.3821C131.278 37.4071 131.271 37.4315 131.26 37.454C131.249 37.4765 131.234 37.4965 131.215 37.5128C131.196 37.5292 131.174 37.5415 131.15 37.549C131.127 37.5565 131.102 37.5591 131.077 37.5565H129.13C129.011 37.5474 128.974 37.4923 128.938 37.3821ZM125.651 27.807L124.146 32.1769H127.147L125.651 27.807Z" fill="#381A0A"/>
<path d="M201.802 37.3827L200.728 34.2522H196.294L195.22 37.3827C195.211 37.4354 195.182 37.4828 195.139 37.5152C195.097 37.5476 195.043 37.5625 194.99 37.5571H193.053C193.029 37.5584 193.005 37.5548 192.982 37.5467C192.959 37.5386 192.938 37.5261 192.921 37.5099C192.903 37.4937 192.888 37.4741 192.878 37.4523C192.867 37.4305 192.861 37.4068 192.86 37.3827C192.853 37.3464 192.853 37.3089 192.86 37.2725L197.258 25.2188C197.304 25.0902 197.349 25.0352 197.478 25.0352H199.516C199.635 25.0352 199.681 25.0902 199.727 25.2188L204.134 37.2725C204.142 37.3088 204.142 37.3465 204.134 37.3827C204.134 37.4072 204.129 37.4315 204.119 37.454C204.109 37.4764 204.095 37.4965 204.076 37.513C204.058 37.5295 204.037 37.5419 204.013 37.5495C203.99 37.5571 203.965 37.5597 203.941 37.5571H201.995C201.875 37.5479 201.839 37.4929 201.802 37.3827ZM198.515 27.8076L197.01 32.1775H200.012L198.515 27.8076Z" fill="#381A0A"/>
<path d="M177.805 37.3827V25.2188C177.805 25.0902 177.805 25.0352 177.979 25.0352H181.771C184.956 25.0352 187.655 27.064 187.655 31.2961C187.655 35.5283 184.956 37.5479 181.771 37.5479H177.979C177.851 37.5479 177.805 37.5479 177.805 37.3827ZM181.67 27.1099H180.054V35.4824H181.67C183.79 35.4824 185.342 34.1604 185.342 31.2961C185.342 28.4319 183.79 27.1099 181.67 27.1099Z" fill="#381A0A"/>
<path d="M217.923 32.0397V35.5099H223.826C223.945 35.5099 224 35.565 224 35.6935V37.4102C224 37.5388 223.945 37.5847 223.826 37.5847H215.839C215.719 37.5847 215.664 37.5847 215.664 37.4102V25.2188C215.664 25.0902 215.719 25.0352 215.839 25.0352H223.55C223.679 25.0352 223.734 25.0902 223.734 25.2188V26.9355C223.734 27.064 223.679 27.1099 223.55 27.1099H217.923V29.9375H223.018C223.137 29.9375 223.192 29.9925 223.192 30.1211V31.8378C223.192 31.9663 223.137 32.0122 223.018 32.0122L217.923 32.0397Z" fill="#381A0A"/>
<path d="M76.4629 30.9932H81.8517C81.9802 30.9932 82.0261 31.0483 82.0261 31.1768V34.2706C82.0264 34.5081 81.9664 34.7419 81.8517 34.9499C81.2976 35.7999 80.5392 36.4973 79.6459 36.9785C78.7526 37.4596 77.7529 37.7091 76.7383 37.704C73.3875 37.704 70.5232 35.5558 70.5232 31.2778C70.5232 26.9998 73.4793 24.8516 76.4812 24.8516C79.2353 24.8516 81.4937 26.3939 81.8517 28.8542C81.8517 29.0011 81.7966 29.0378 81.6498 29.0378H79.8137C79.7035 29.0378 79.6393 28.9827 79.5934 28.8542C79.375 28.2319 78.9518 27.7023 78.393 27.352C77.8343 27.0018 77.1732 26.8517 76.5179 26.9263C74.6819 26.9263 72.8458 28.3952 72.8458 31.287C72.8458 34.1788 74.434 35.6568 76.5179 35.6568C77.1431 35.7044 77.7697 35.5869 78.3352 35.3163C78.9007 35.0456 79.3852 34.6312 79.7402 34.1145V33.068H76.4629C76.4392 33.0709 76.4153 33.0685 76.3927 33.0608C76.3702 33.0531 76.3497 33.0403 76.3329 33.0235C76.3161 33.0066 76.3033 32.9862 76.2956 32.9637C76.2879 32.9411 76.2854 32.9171 76.2884 32.8935V31.1768C76.2884 31.0483 76.3435 30.9932 76.4629 30.9932Z" fill="#381A0A"/>
<path d="M191.548 25.043H189.638C189.542 25.043 189.464 25.1211 189.464 25.2174V37.3905C189.464 37.4868 189.542 37.5649 189.638 37.5649H191.548C191.644 37.5649 191.722 37.4868 191.722 37.3905V25.2174C191.722 25.1211 191.644 25.043 191.548 25.043Z" fill="#381A0A"/>
<path d="M110.504 37.3827V25.2188C110.504 25.0902 110.559 25.0352 110.678 25.0352H112.578C112.698 25.0352 112.753 25.0902 112.753 25.2188V35.4824H118.858C118.977 35.4824 119.032 35.5375 119.032 35.666V37.3827C119.032 37.5112 118.977 37.5571 118.858 37.5571H110.678C110.559 37.5479 110.504 37.5479 110.504 37.3827Z" fill="#381A0A"/>
<path d="M205.382 37.3827V25.2188C205.382 25.0902 205.437 25.0352 205.557 25.0352H207.475C207.595 25.0352 207.65 25.0902 207.65 25.2188V35.4824H213.755C213.874 35.4824 213.929 35.5375 213.929 35.666V37.3827C213.929 37.5112 213.874 37.5571 213.755 37.5571H205.575C205.437 37.5479 205.382 37.5479 205.382 37.3827Z" fill="#381A0A"/>
<path d="M149.19 25.2179V37.3818C149.19 37.5104 149.135 37.5563 149.006 37.5563H147.115C146.986 37.5563 146.931 37.5563 146.931 37.3818V29.1195L144.287 35.252C144.271 35.3056 144.238 35.3527 144.194 35.3872C144.149 35.4216 144.095 35.4417 144.039 35.4448H142.571C142.514 35.4446 142.459 35.4255 142.414 35.3906C142.369 35.3558 142.337 35.307 142.323 35.252L139.67 29.1195V37.3818C139.67 37.5104 139.615 37.5563 139.495 37.5563H137.595C137.466 37.5563 137.42 37.5563 137.42 37.3818V25.2179C137.42 25.0894 137.466 25.0343 137.595 25.0343H139.835C139.895 25.0318 139.955 25.0481 140.006 25.081C140.057 25.1138 140.097 25.1617 140.119 25.2179L143.305 32.5622L146.491 25.2179C146.511 25.16 146.55 25.1105 146.601 25.0772C146.653 25.0439 146.714 25.0288 146.775 25.0343H149.006C149.135 25.0343 149.19 25.0894 149.19 25.2179Z" fill="#381A0A"/>
<path d="M175.243 37.5473H173.334C173.278 37.555 173.221 37.5461 173.171 37.5216C173.12 37.4971 173.078 37.4581 173.049 37.4096L167.77 28.9269V37.3728C167.77 37.5014 167.715 37.5473 167.587 37.5473H165.659C165.53 37.5473 165.475 37.5473 165.475 37.3728V25.2181C165.475 25.0896 165.53 25.0345 165.659 25.0345H167.568C167.626 25.0292 167.684 25.0402 167.736 25.0662C167.788 25.0921 167.832 25.132 167.862 25.1814L173.132 33.664V25.2181C173.132 25.0896 173.187 25.0345 173.315 25.0345H175.243C175.372 25.0345 175.427 25.0896 175.427 25.2181V37.382C175.427 37.5473 175.344 37.5473 175.243 37.5473Z" fill="#381A0A"/>
<path d="M157.36 37.7394C156.521 37.7616 155.686 37.6086 154.91 37.2903C154.133 36.972 153.431 36.4953 152.849 35.8907C152.267 35.2861 151.817 34.5667 151.528 33.7786C151.24 32.9905 151.118 32.1508 151.172 31.3132C151.127 30.4723 151.253 29.6309 151.543 28.8403C151.833 28.0497 152.281 27.3266 152.861 26.7152C153.44 26.1037 154.137 25.6166 154.911 25.2838C155.684 24.951 156.518 24.7793 157.36 24.7793C158.202 24.7793 159.035 24.951 159.809 25.2838C160.583 25.6166 161.28 26.1037 161.859 26.7152C162.438 27.3266 162.887 28.0497 163.177 28.8403C163.467 29.6309 163.593 30.4723 163.547 31.3132C163.601 32.1508 163.48 32.9905 163.191 33.7786C162.903 34.5667 162.453 35.2861 161.871 35.8907C161.289 36.4953 160.587 36.972 159.81 37.2903C159.033 37.6086 158.199 37.7616 157.36 37.7394ZM157.36 35.6647C159.361 35.6647 161.225 34.2325 161.225 31.2948C161.225 28.3571 159.389 26.9342 157.36 26.9342C155.331 26.9342 153.495 28.3663 153.495 31.2948C153.495 34.2234 155.359 35.7106 157.36 35.7106V35.6647Z" fill="#381A0A"/>
<path d="M94.5574 37.3827V25.2188C94.5574 25.0902 94.6125 25.0352 94.7318 25.0352H99.6157C101.892 25.0352 103.444 26.2745 103.444 28.4594C103.427 29.1713 103.199 29.8621 102.789 30.4441C102.379 31.0261 101.805 31.4728 101.14 31.7276L103.802 37.3827C103.809 37.4067 103.809 37.4321 103.802 37.4561C103.802 37.5296 103.729 37.5571 103.646 37.5571H101.59C101.533 37.5617 101.477 37.5469 101.43 37.5152C101.384 37.4835 101.349 37.4367 101.332 37.3827L98.6518 31.8745H96.8157V37.3827C96.8157 37.5112 96.7606 37.5571 96.6413 37.5571H94.741C94.64 37.5479 94.5574 37.5479 94.5574 37.3827ZM96.8066 27.1099V29.7997H99.7075C99.8935 29.8151 100.081 29.7918 100.257 29.7312C100.434 29.6706 100.596 29.574 100.733 29.4476C100.87 29.3212 100.98 29.1677 101.055 28.9969C101.13 28.826 101.168 28.6414 101.168 28.4548C101.168 28.2682 101.13 28.0837 101.055 27.9128C100.98 27.7419 100.87 27.5884 100.733 27.462C100.596 27.3357 100.434 27.2391 100.257 27.1785C100.081 27.1179 99.8935 27.0945 99.7075 27.1099H96.8066Z" fill="#381A0A"/>
<path d="M83.8164 37.3815V35.9678C83.8166 35.889 83.8339 35.8113 83.8672 35.7399C83.9005 35.6686 83.949 35.6054 84.0092 35.5547L88.7003 31.1756C89.0639 30.8962 89.3646 30.5433 89.5829 30.14C89.8012 29.7366 89.9321 29.2919 89.9672 28.8347C89.9786 28.5842 89.9363 28.3342 89.8434 28.1013C89.7504 27.8685 89.6088 27.6582 89.4281 27.4844C89.2474 27.3106 89.0316 27.1774 88.7953 27.0936C88.559 27.0098 88.3075 26.9774 88.0577 26.9986C87.797 26.9837 87.5359 27.0219 87.2904 27.1109C87.0448 27.1999 86.82 27.3379 86.6294 27.5165C86.4388 27.695 86.2865 27.9105 86.1816 28.1497C86.0768 28.3889 86.0217 28.6469 86.0197 28.9081C86.0197 29.1284 85.9462 29.1835 85.781 29.1835H84.0459C83.9266 29.1835 83.8256 29.1101 83.8348 28.9081C83.8381 28.367 83.9499 27.832 84.1636 27.3348C84.3773 26.8377 84.6884 26.3884 85.0787 26.0135C85.4689 25.6386 85.9304 25.3458 86.4358 25.1524C86.9411 24.9589 87.4802 24.8687 88.021 24.8871C90.5639 24.8871 92.1154 26.4569 92.1154 28.7337C92.1154 30.3586 91.4912 31.3317 90.1508 32.5986L87.0938 35.472H92.3174C92.4367 35.472 92.4918 35.5271 92.4918 35.6556V37.4091C92.4918 37.5376 92.4367 37.5835 92.3174 37.5835H83.9908C83.8715 37.5468 83.8164 37.5468 83.8164 37.3815Z" fill="#381A0A"/>
</g>
<defs>
<clipPath id="clip0_1893_23698">
<rect width="224" height="50.0879" fill="white"/>
</clipPath>
</defs>
</svg>
