<svg xmlns="http://www.w3.org/2000/svg" xmlns:xlink="http://www.w3.org/1999/xlink" xmlns:serif="http://www.serif.com/" width="100%" height="100%" viewBox="0 0 1140 279" version="1.1" xml:space="preserve" style="fill-rule:evenodd;clip-rule:evenodd;stroke-linejoin:round;stroke-miterlimit:2;">
    <g transform="matrix(1,0,0,1,-198.53,-190.34)">
        <path d="M591.67,279.39C586.39,267.77 579.11,257.63 569.84,248.94C560.57,240.26 549.95,233.51 537.98,228.7C526.01,223.89 513.46,221.48 500.32,221.48C487.18,221.48 474.62,223.89 462.66,228.7C450.69,233.51 440.07,240.26 430.8,248.94C421.53,257.62 414.25,267.77 408.97,279.39C403.69,291.01 401.05,303.39 401.05,316.53C401.05,316.68 401.06,316.83 401.06,316.99L401.05,316.99L401.05,469.3L443.29,463.91L443.29,394.08C449.3,398.15 455.74,401.59 462.65,404.37C474.62,409.18 487.17,411.59 500.31,411.59C513.45,411.59 526.01,409.18 537.97,404.37C549.94,399.56 560.55,392.81 569.83,384.13C579.1,375.45 586.38,365.3 591.66,353.68C596.94,342.06 599.58,329.69 599.58,316.54C599.58,303.4 596.94,291.02 591.66,279.4L591.67,279.39ZM552.77,337.64C549.72,344.21 545.49,350.02 540.1,355.06C534.7,360.11 528.6,363.98 521.8,366.68C514.99,369.38 507.84,370.73 500.33,370.73C492.82,370.73 485.66,369.38 478.86,366.68C472.05,363.98 465.95,360.11 460.56,355.06C455.16,350.02 450.93,344.21 447.89,337.64C444.84,331.07 443.31,324.03 443.31,316.52C443.31,309.01 444.83,301.97 447.89,295.4C450.94,288.83 455.16,283.02 460.56,277.97C465.96,272.93 472.05,269.05 478.86,266.35C485.66,263.65 492.82,262.3 500.33,262.3C507.84,262.3 514.99,263.65 521.8,266.35C528.6,269.05 534.7,272.92 540.1,277.97C545.5,283.02 549.72,288.83 552.77,295.4C555.82,301.97 557.35,309.01 557.35,316.52C557.35,324.03 555.82,331.07 552.77,337.64Z" style="fill:rgb(255,133,0);fill-rule:nonzero;"/>
        <path d="M1329.64,279.39C1324.36,267.77 1317.08,257.63 1307.81,248.94C1298.54,240.26 1287.92,233.51 1275.95,228.7C1263.98,223.89 1251.43,221.48 1238.29,221.48C1225.15,221.48 1212.59,223.89 1200.63,228.7C1188.66,233.51 1178.04,240.26 1168.77,248.94C1159.5,257.62 1152.22,267.77 1146.94,279.39C1141.66,291.01 1139.02,303.39 1139.02,316.53C1139.02,316.68 1139.03,316.83 1139.03,316.99L1139.02,316.99L1139.02,469.3L1181.26,463.91L1181.26,394.08C1187.27,398.15 1193.71,401.59 1200.62,404.37C1212.59,409.18 1225.14,411.59 1238.28,411.59C1251.42,411.59 1263.98,409.18 1275.94,404.37C1287.91,399.56 1298.52,392.81 1307.8,384.13C1317.07,375.45 1324.35,365.3 1329.63,353.68C1334.91,342.06 1337.55,329.69 1337.55,316.54C1337.55,303.4 1334.91,291.02 1329.63,279.4L1329.64,279.39ZM1290.74,337.64C1287.69,344.21 1283.46,350.02 1278.07,355.06C1272.67,360.11 1266.57,363.98 1259.77,366.68C1252.96,369.38 1245.81,370.73 1238.3,370.73C1230.79,370.73 1223.63,369.38 1216.83,366.68C1210.02,363.98 1203.92,360.11 1198.53,355.06C1193.13,350.02 1188.9,344.21 1185.86,337.64C1182.81,331.07 1181.28,324.03 1181.28,316.52C1181.28,309.01 1182.8,301.97 1185.86,295.4C1188.91,288.83 1193.13,283.02 1198.53,277.97C1203.93,272.93 1210.02,269.05 1216.83,266.35C1223.63,263.65 1230.79,262.3 1238.3,262.3C1245.81,262.3 1252.96,263.65 1259.77,266.35C1266.57,269.05 1272.67,272.92 1278.07,277.97C1283.47,283.02 1287.69,288.83 1290.74,295.4C1293.79,301.97 1295.32,309.01 1295.32,316.52C1295.32,324.03 1293.79,331.07 1290.74,337.64Z" style="fill:rgb(255,133,0);fill-rule:nonzero;"/>
        <path d="M737.15,366.68C730.34,369.38 723.19,370.73 715.68,370.73C708.17,370.73 701.01,369.38 694.21,366.68C687.4,363.98 681.3,360.11 675.91,355.06C670.51,350.02 666.28,344.21 663.24,337.64C660.19,331.07 658.66,324.03 658.66,316.52C658.66,309.01 660.18,301.97 663.24,295.4C666.29,288.83 670.51,283.02 675.91,277.97C681.31,272.93 687.4,269.05 694.21,266.35C701.01,263.65 708.17,262.3 715.68,262.3C723.19,262.3 730.34,263.65 737.15,266.35C742.08,268.31 746.64,270.89 750.84,274.08L777.8,242.64C770.39,236.92 762.24,232.27 753.34,228.69C741.37,223.88 728.82,221.47 715.68,221.47C702.54,221.47 689.98,223.88 678.02,228.69C666.05,233.5 655.43,240.25 646.16,248.93C636.89,257.61 629.61,267.76 624.33,279.38C619.05,291 616.41,303.38 616.41,316.52C616.41,329.66 619.05,342.04 624.33,353.66C629.61,365.28 636.88,375.43 646.16,384.11C655.43,392.79 666.05,399.54 678.02,404.35C689.99,409.16 702.54,411.57 715.68,411.57C728.82,411.57 741.38,409.16 753.34,404.35C762.29,400.75 770.49,396.07 777.93,390.3L750.91,358.9C746.69,362.12 742.11,364.72 737.15,366.68Z" style="fill:rgb(255,133,0);fill-rule:nonzero;"/>
        <path d="M340.43,197.52L340.43,319.49C340.43,322.54 340.14,325.52 339.61,328.42C336.86,351.96 315.87,370.28 290.37,370.28C263,370.28 240.82,349.19 240.82,323.18C240.82,322.85 240.84,322.53 240.85,322.21C240.8,321.31 240.77,320.41 240.77,319.5L240.77,190.34L198.53,197.53L198.53,319.5C198.53,370.35 239.75,411.57 290.6,411.57C341.45,411.57 382.67,370.35 382.67,319.5L382.67,190.34L340.43,197.53L340.43,197.52Z" style="fill:rgb(255,133,0);fill-rule:nonzero;"/>
        <path d="M1121.43,316.36C1121.43,368.99 1077.07,411.81 1022.54,411.81C1003.26,411.81 984.58,406.45 968.5,396.31C956.72,388.88 942.08,388.88 930.29,396.31C914.21,406.45 895.53,411.81 876.25,411.81C821.72,411.81 777.36,368.99 777.36,316.36C777.36,263.73 821.72,220.91 876.25,220.91C895.53,220.91 914.21,226.27 930.29,236.41C942.07,243.84 956.71,243.84 968.5,236.41C984.58,226.27 1003.26,220.91 1022.54,220.91C1077.07,220.91 1121.43,263.73 1121.43,316.36ZM1080.03,316.36C1080.03,286.55 1054.24,262.31 1022.54,262.31C1011.09,262.31 1000.05,265.46 990.59,271.43C965.18,287.46 933.61,287.46 908.21,271.43C898.76,265.47 887.71,262.31 876.26,262.31C844.56,262.31 818.77,286.56 818.77,316.36C818.77,346.16 844.56,370.41 876.26,370.41C887.71,370.41 898.75,367.26 908.21,361.29C933.62,345.26 965.19,345.26 990.59,361.29C1000.04,367.25 1011.09,370.41 1022.54,370.41C1054.24,370.41 1080.03,346.16 1080.03,316.36Z" style="fill:rgb(255,133,0);fill-rule:nonzero;"/>
    </g>
</svg>