<svg width="175" height="52" viewBox="0 0 175 52" fill="none" xmlns="http://www.w3.org/2000/svg">
<g clip-path="url(#clip0_1_214)">
<path d="M57.6852 39.0475V31.6825H62.393V33.3667H59.9299V34.3503H62.393V35.9448H59.9299V37.3667H62.393V39.0509H57.6852V39.0475Z" fill="url(#paint0_linear_1_214)"/>
<path d="M66.6711 33.5289V39.0475H64.4263V33.5289H63.0003V31.6825H68.0971V33.5289H66.6711Z" fill="url(#paint1_linear_1_214)"/>
<path d="M66.6472 28.7455C60.4587 28.7455 54.492 26.3986 54.492 20.0656C54.492 13.3184 61.4753 11.3857 66.6472 11.3857C70.3214 11.3857 73.3917 11.8999 76.387 13.2701L75.4693 16.7662C73.054 15.6652 70.0791 15.006 67.06 15.006C62.0826 15.006 59.2306 16.8628 59.2306 20.0897C59.2306 23.3167 62.2259 25.1251 67.06 25.1493C70.5397 25.1493 73.054 24.4141 75.4932 23.4133L76.4109 26.8611C73.4872 28.0828 70.6352 28.7455 66.6472 28.7455Z" fill="url(#paint2_linear_1_214)"/>
<path d="M83.7559 28.7455C79.1879 28.7455 77.5197 24.6385 77.5197 20.0656C77.5197 15.4927 79.2356 11.3857 83.7559 11.3857C88.2761 11.3857 89.9921 15.396 89.9921 20.0656C89.9921 24.7351 88.2523 28.7455 83.7559 28.7455ZM83.7559 14.7852C82.0638 14.7852 81.6544 16.9111 81.6544 20.0656C81.6544 23.22 82.0877 25.346 83.7559 25.346C85.4241 25.346 85.8574 23.22 85.8574 20.0656C85.8574 16.6902 85.3968 14.7852 83.7559 14.7852Z" fill="url(#paint3_linear_1_214)"/>
<path d="M102.751 28.3072V20.3865L99.7524 23.5651H99.4386L96.5149 20.459V28.3072H92.3836V11.6307H92.9874L99.633 18.4297L106.279 11.6307H106.882V28.3072H102.751Z" fill="url(#paint4_linear_1_214)"/>
<path d="M120.44 28.3072V20.3865L117.441 23.5651H117.127L114.204 20.459V28.3072H110.072V11.6307H110.676L117.322 18.4297L123.967 11.6307H124.571V28.3072H120.44Z" fill="url(#paint5_linear_1_214)"/>
<path d="M127.761 28.3072V11.8274H137.549V15.1786H131.892V17.8671H137.549V21.0457H131.892V24.956H137.549V28.3072H127.761Z" fill="url(#paint6_linear_1_214)"/>
<path d="M148.012 28.3072L145.231 22.0984H144.337V28.3072H140.206V11.8274H146.343C149.728 11.8274 151.952 13.5876 151.952 16.7903C151.952 18.9405 150.621 20.604 148.933 21.2148L152.607 28.3037H148.015L148.012 28.3072ZM145.644 15.1027H144.337V18.9405H145.207C146.899 18.9405 147.817 18.3054 147.817 16.9111C147.817 15.7135 146.947 15.1027 145.641 15.1027H145.644Z" fill="url(#paint7_linear_1_214)"/>
<path d="M160.965 28.4763C155.769 28.4763 153.136 24.6385 153.136 19.8447C153.136 14.7092 156.182 11.6549 161.16 11.6549C161.716 11.6549 162.272 11.679 162.923 11.7515L162.681 15.2235C162.415 15.1993 162.125 15.1993 161.907 15.1993C158.717 15.1993 157.386 17.1562 157.386 19.8447C157.386 22.5332 158.86 24.9525 161.832 24.9525C162.098 24.9525 162.34 24.9525 162.606 24.9284L162.8 28.4003C162.197 28.4245 161.569 28.4728 160.965 28.4728V28.4763Z" fill="url(#paint8_linear_1_214)"/>
<path d="M165.049 28.3072V11.8274H174.836V15.1786H169.18V17.8671H174.836V21.0457H169.18V24.956H174.836V28.3072H165.049Z" fill="url(#paint9_linear_1_214)"/>
<path d="M80.9243 49.0078C77.4446 49.0078 74.132 48.6661 71.1845 47.6376L72.1738 44.1657C74.5414 45.0216 77.5401 45.56 80.9482 45.56C85.3695 45.56 87.1606 44.9249 87.1606 43.7998C87.1606 42.6747 85.5674 42.3814 81.1904 42.0397C74.5926 41.5255 71.2595 40.4763 71.2595 36.8076C71.2595 33.4081 75.2953 31.648 82.1115 31.648C85.4002 31.648 88.88 31.9655 91.2475 32.9456L90.2821 36.4176C88.0339 35.5134 85.2058 35.0958 82.0876 35.0958C78.1474 35.0958 75.9504 35.4858 75.9504 36.4901C75.9504 37.4944 77.3047 37.8361 81.4361 38.1536C88.1328 38.6437 91.7797 39.3995 91.7797 43.2407C91.7797 47.472 87.3823 49.0112 80.9277 49.0112L80.9243 49.0078Z" fill="url(#paint10_linear_1_214)"/>
<path d="M94.335 48.566V32.0863H104.123V35.4374H98.4663V38.126H104.123V41.3046H98.4663V45.2148H104.123V48.566H94.335Z" fill="url(#paint11_linear_1_214)"/>
<path d="M114.589 48.566L111.809 42.3572H110.915V48.566H106.784V32.0863H112.921C116.305 32.0863 118.529 33.8464 118.529 37.0492C118.529 39.1993 117.199 40.8628 115.51 41.4737L119.184 48.5626H114.592L114.589 48.566ZM112.218 35.365H110.911V39.2028H111.781C113.473 39.2028 114.391 38.5677 114.391 37.1734C114.391 35.9758 113.521 35.365 112.215 35.365H112.218Z" fill="url(#paint12_linear_1_214)"/>
<path d="M128.58 48.7144H124.059L119.71 32.0897H123.988L126.355 42.8714L128.795 32.0897H132.926L128.576 48.7144H128.58Z" fill="url(#paint13_linear_1_214)"/>
<path d="M134.983 48.566V32.0863H139.114V48.566H134.983Z" fill="url(#paint14_linear_1_214)"/>
<path d="M149.363 48.7386C144.167 48.7386 141.533 44.9008 141.533 40.107C141.533 34.9715 144.576 31.9172 149.557 31.9172C150.113 31.9172 150.669 31.9413 151.321 32.0138L151.079 35.4858C150.812 35.4616 150.522 35.4616 150.304 35.4616C147.114 35.4616 145.784 37.4185 145.784 40.107C145.784 42.7955 147.258 45.2148 150.229 45.2148C150.495 45.2148 150.737 45.2148 151.003 45.1907L151.198 48.6626C150.594 48.6868 149.966 48.7351 149.363 48.7351V48.7386Z" fill="url(#paint15_linear_1_214)"/>
<path d="M153.446 48.566V32.0863H163.234V35.4374H157.577V38.126H163.234V41.3046H157.577V45.2148H163.234V48.566H153.446Z" fill="url(#paint16_linear_1_214)"/>
<path d="M167.171 48.7386C166.519 48.7386 165.864 48.7144 165.141 48.6661L165.311 45.0733C166.011 45.1941 166.881 45.2942 167.536 45.2942C170.026 45.2942 170.848 44.635 170.848 43.8516C170.848 43.0682 170.197 42.5298 168.409 41.4806C166.499 40.4038 165.049 39.0371 165.049 36.7869C165.049 33.9016 167.467 31.9206 172.131 31.9206C172.905 31.9206 173.676 31.9689 174.475 32.0656L174.304 35.5858C173.577 35.4651 172.759 35.3891 171.96 35.3891C169.883 35.3891 169.204 35.8033 169.204 36.4383C169.204 37.1976 169.978 37.6117 171.5 38.516C173.577 39.6894 175.003 41.0078 175.003 43.4547C175.003 46.9025 171.957 48.7351 167.174 48.7351L167.171 48.7386Z" fill="url(#paint17_linear_1_214)"/>
<path d="M29.2571 9.2321C29.2571 9.47368 29.2605 9.67041 29.2571 9.86713C29.2434 10.516 29.2332 11.1682 29.2093 11.8171C29.2059 11.8999 29.1445 12.0138 29.0763 12.0518C27.5411 12.8732 26.0025 13.6842 24.4639 14.4953C24.3172 14.5746 24.2422 14.6609 24.2456 14.8438C24.2558 15.7688 24.249 16.6937 24.249 17.6497C25.8319 16.7938 27.391 15.9551 28.9739 15.0958C28.9841 15.1821 28.9978 15.2338 28.9944 15.2856C28.9432 16.6419 28.8886 18.0017 28.8409 19.3581C28.8375 19.4892 28.7863 19.5479 28.6805 19.6066C26.6063 20.7213 24.5355 21.8395 22.4648 22.9577C21.8166 23.3063 21.1684 23.6583 20.5202 24.0069C20.4622 24.038 20.4076 24.0656 20.3087 24.1139C20.3053 24.0138 20.295 23.9379 20.295 23.8654C20.3053 22.5298 20.3189 21.1941 20.3292 19.855C20.3496 17.5462 20.3701 15.2407 20.3872 12.9318C20.3906 12.3693 20.4008 11.8067 20.4076 11.2442C20.411 10.8611 20.4144 10.4745 20.411 10.0915L20.353 9.92925L20.3223 9.89474C20.5236 9.74978 20.4076 9.53581 20.411 9.36324C20.4383 8.52459 20.4349 7.68249 20.4554 6.84383C20.4554 6.76445 20.527 6.65746 20.5953 6.6195C21.5505 6.09491 22.5091 5.57722 23.4677 5.05953C24.921 4.27265 26.3743 3.48576 27.8276 2.69888C28.3667 2.40897 28.9057 2.11907 29.4652 1.81536L29.4788 1.95341C29.4618 3.24418 29.4379 4.53839 29.4379 5.82916C29.4379 6.06385 29.3526 6.17429 29.1615 6.27783C27.6503 7.08197 26.1492 7.89991 24.6413 8.70751C24.5117 8.77653 24.4639 8.85246 24.4673 8.99396C24.481 9.41846 24.4844 9.84297 24.4912 10.2675C24.4946 10.7092 24.4912 11.151 24.4912 11.6514C24.597 11.6307 24.7368 11.6342 24.846 11.5755C26.2311 10.8438 27.6093 10.1053 28.991 9.3667C29.066 9.32528 29.1445 9.29077 29.2571 9.23555" fill="#211E1F"/>
<path d="M35.1453 26.6057C35.1453 27.113 35.1521 27.5928 35.1453 28.0725C35.1146 30.0362 35.0839 32 35.0498 33.9638C35.043 34.3952 35.043 34.8266 35.0225 35.258C35.0225 35.3408 34.9577 35.4547 34.8895 35.4927C33.4396 36.2865 31.9931 37.0906 30.5296 37.8568C30.0076 38.1294 29.414 38.2951 28.8375 38.0777C28.4008 37.912 27.9812 37.6566 27.6025 37.3736C26.5176 36.5729 25.808 35.472 25.327 34.2192C24.73 32.6592 24.4161 31.0371 24.498 29.3632C24.5355 28.6178 24.6515 27.8689 24.8051 27.1372C25.0814 25.8326 25.559 24.604 26.3198 23.4996C26.9338 22.6057 27.698 21.8844 28.6601 21.3736C30.5841 20.352 32.498 19.3063 34.4153 18.2744C34.4903 18.233 34.5654 18.1984 34.6609 18.1536L34.6916 18.264C34.7052 19.6963 34.7121 21.1251 34.7325 22.5574C34.7325 22.7265 34.6882 22.8162 34.5381 22.8956C33.1837 23.6204 31.8191 24.3382 30.4784 25.094C29.2264 25.7981 28.4895 26.8921 28.2234 28.321C27.9914 29.5738 27.9743 30.8197 28.3155 32.0518C28.452 32.5453 28.5918 33.0492 28.9807 33.4254C29.3594 33.7947 29.8438 33.8533 30.3044 33.5807C30.5569 33.4288 30.8093 33.277 31.072 33.1355C31.2187 33.0561 31.2664 32.9594 31.2664 32.7903C31.2801 31.4616 31.3108 30.1329 31.3244 28.8041C31.3244 28.6178 31.3961 28.5246 31.5564 28.4418C32.7027 27.8585 33.8421 27.2649 34.9816 26.6782C35.0293 26.654 35.0839 26.6402 35.1521 26.616" fill="#211E1F"/>
<path d="M10.6575 29.4392C10.6575 28.8766 10.6507 28.3313 10.6575 27.786C10.6951 25.7774 10.7394 23.7722 10.7769 21.7636C10.8145 19.755 10.8384 17.7429 10.8725 15.7343C10.8861 14.9232 10.8998 14.1122 10.9134 13.3011C10.9202 12.8835 10.9271 12.4625 10.9236 12.0449C10.9236 11.9068 10.9612 11.8309 11.0942 11.7619C12.4418 11.0406 13.7825 10.3089 15.13 9.58067C16.6209 8.77308 18.1117 7.96204 19.6025 7.15444C19.6605 7.12338 19.7185 7.09577 19.797 7.05781L19.8208 7.20966C19.7936 8.30371 19.7629 9.39776 19.7356 10.4918C19.7287 10.7403 19.7219 10.9922 19.7287 11.2442C19.7287 11.3719 19.6844 11.4409 19.5752 11.4996C18.1356 12.2657 16.6993 13.0457 15.2494 13.7947C14.9185 13.9672 14.7855 14.1536 14.7991 14.5367C14.8298 15.3236 14.7991 16.1139 14.7991 16.9008C14.7991 16.9802 14.8059 17.0561 14.8093 17.1596C16.4366 16.3037 18.0127 15.3995 19.6469 14.5229V15.2166C19.6469 15.7343 19.64 16.2485 19.6469 16.7662C19.6469 16.8904 19.6093 16.9594 19.4968 17.0216C18.0025 17.8257 16.5117 18.6402 15.0174 19.4443C14.823 19.5479 14.7377 19.6652 14.7309 19.9103C14.6899 21.7084 14.6251 23.503 14.5705 25.2977C14.5501 25.9258 14.5398 26.5539 14.516 27.1821C14.516 27.2614 14.458 27.3684 14.3966 27.4029C13.1786 28.0828 11.9573 28.7524 10.7326 29.4219L10.6575 29.4392Z" fill="#211E1F"/>
<path d="M24.3036 23.9344C24.3104 24.0276 24.3172 24.0897 24.3138 24.1519C24.2899 24.7351 24.266 25.3184 24.2422 25.9016C24.2217 26.3848 24.2046 26.8714 24.191 27.3546C24.1842 27.5479 24.1876 27.7412 24.1842 27.931C24.1842 28.1139 24.1193 28.2347 23.9385 28.3141C22.9833 28.7489 22.0724 29.2701 21.2127 29.8775C20.4349 30.4262 19.7151 31.0337 19.1624 31.8309C18.7838 32.3762 18.6644 33.0009 18.5995 33.6428C18.446 35.1959 18.5381 36.7317 18.9884 38.233C19.101 38.6126 19.2648 38.9508 19.6912 39.0682C19.9334 39.1372 20.1654 39.1061 20.3803 38.9888C21.646 38.3123 22.9083 37.6324 24.1739 36.9525C24.3923 36.8352 24.6174 36.7282 24.8767 36.5971V37.4806C24.8767 38.585 24.8699 39.6859 24.8767 40.7903C24.8767 40.9491 24.8324 41.0354 24.6891 41.1113C23.3176 41.8395 21.9496 42.5746 20.5816 43.3097C20.0119 43.6135 19.449 43.5272 18.8656 43.3408C17.3884 42.8645 16.5526 41.7429 15.9488 40.3934C15.4609 39.3097 15.188 38.1605 15.0789 36.9836C14.9936 36.0759 14.9356 35.1648 14.9458 34.2571C14.9595 32.918 15.2767 31.6307 15.8055 30.4055C16.3923 29.0492 17.2622 27.9103 18.4767 27.082C19.1078 26.6506 19.7936 26.2985 20.4656 25.9362C21.6392 25.3011 22.823 24.6868 24.0068 24.0656C24.0921 24.0207 24.1876 23.9862 24.3002 23.9379" fill="#211E1F"/>
<path d="M9.31341 12.849C9.31341 13.377 9.32365 13.8913 9.31341 14.4021C9.29294 15.22 9.24859 16.038 9.22812 16.8525C9.22471 17.0319 9.16331 17.1182 9.00296 17.1941C7.57696 17.874 6.20553 18.6506 5.04903 19.7515C4.72153 20.0621 4.44178 20.4314 4.16886 20.7972C3.85841 21.2148 3.7356 21.7187 3.69807 22.2295C3.64349 22.9784 3.59914 23.7308 3.61279 24.4797C3.62984 25.4564 3.80724 26.4159 4.12792 27.3408C4.32579 27.9103 4.92622 28.1346 5.48229 27.8274C6.72408 27.1406 7.98634 26.4953 9.24177 25.8361C9.46352 25.7187 9.68186 25.6014 9.92407 25.4737C9.93089 25.5565 9.93772 25.6014 9.93772 25.6497C9.93772 27.0026 9.93089 28.352 9.93772 29.7049C9.93772 29.8533 9.88655 29.9223 9.76373 29.9879C8.39913 30.7161 7.03794 31.4478 5.67675 32.176C5.07973 32.4935 4.48954 32.4072 3.87547 32.2036C2.49722 31.7481 1.6887 30.7161 1.09851 29.4633C0.597015 28.3969 0.310448 27.2649 0.184222 26.0949C0.0784656 25.2321 0.00682398 24.3658 9.7329e-07 23.4996C-0.0102335 22.0121 0.300214 20.5833 0.897227 19.22C1.47718 17.8982 2.31982 16.78 3.51726 15.9896C4.31214 15.4651 5.1582 15.0233 5.99402 14.5677C7.0277 14.0086 8.07504 13.4737 9.11896 12.9284C9.18719 12.8939 9.25883 12.8697 9.31 12.849" fill="#211E1F"/>
<path d="M44.1688 26.0431C44.1688 26.5436 44.1688 27.0026 44.1688 27.4616C44.1654 28.39 44.1551 29.3184 44.1585 30.2468C44.1585 30.4021 44.104 30.478 43.9709 30.5505C42.9577 31.1061 41.9411 31.6583 40.9381 32.2312C40.4025 32.5349 39.8635 32.5453 39.2903 32.39C37.8745 32.0104 36.9944 31.0267 36.3598 29.7636C35.7731 28.5971 35.466 27.3477 35.3296 26.0604C35.2409 25.2183 35.1556 24.3658 35.176 23.5203C35.2238 21.698 35.6332 19.962 36.585 18.3848C37.3389 17.1389 38.3624 16.2002 39.6417 15.5272C41.0677 14.7783 42.4767 13.9983 43.8924 13.2355C44.0903 13.1286 44.3018 13.0388 44.5133 12.9387C44.5133 13.2908 44.5236 13.6186 44.5133 13.9431C44.4758 14.9784 44.428 16.0138 44.3973 17.0526C44.3939 17.2114 44.2984 17.2459 44.1961 17.2942C43.1487 17.7912 42.1423 18.3607 41.2076 19.0509C40.6481 19.4651 40.133 19.9275 39.6758 20.459C39.1402 21.0906 38.9116 21.8292 38.8434 22.6437C38.7684 23.5479 38.7206 24.4556 38.8571 25.3529C38.9662 26.0777 39.1334 26.799 39.3415 27.4996C39.5052 28.0621 40.1193 28.2588 40.6345 27.9758C41.7671 27.3546 42.8997 26.7334 44.0357 26.1122C44.0664 26.0949 44.0971 26.0846 44.1722 26.05" fill="#231F20"/>
<path d="M45.2809 33.9431C45.2809 34.616 45.2877 35.2304 45.2741 35.8412C45.2741 35.9137 45.1752 36.0104 45.1001 36.0518C43.541 36.9111 41.982 37.767 40.4195 38.6195C34.4221 41.8982 28.4281 45.1803 22.4306 48.459C21.2946 49.0802 20.1586 49.698 19.0226 50.3227C18.9031 50.3883 18.8076 50.4021 18.6814 50.3365C18.1799 50.0777 17.6716 49.8361 17.1667 49.5841C17.1121 49.5565 17.0609 49.522 16.9688 49.4633C26.4119 44.283 35.8208 39.1234 45.2741 33.9362" fill="#145FA9"/>
<path d="M45.199 36.9422C45.199 37.5979 45.2059 38.195 45.1888 38.7921C45.1888 38.8542 45.0762 38.9267 45.0012 38.9715C43.5138 39.7929 42.0229 40.6074 40.5321 41.4254C34.1492 44.9249 27.7663 48.4245 21.3867 51.931C21.1991 52.0345 21.0831 52.0242 20.9159 51.8999C20.4759 51.572 20.0153 51.2718 19.5343 50.937C28.0938 46.2709 36.6259 41.6186 45.199 36.9422Z" fill="#E44F36"/>
<path d="M33.0711 0.227782C33.211 -0.0552202 33.2144 -0.0552202 33.443 0.117342C35.3739 1.57722 37.3082 3.0371 39.2391 4.49698C40.4877 5.43917 41.7364 6.38136 42.9884 7.32355C44.5747 8.51769 46.1645 9.71527 47.744 10.9163C47.8191 10.975 47.8771 11.1061 47.8771 11.2028C47.8771 14.1743 47.8771 17.1458 47.8703 20.1173C47.86 23.8792 47.8464 27.6376 47.8327 31.3995C47.8259 33.4254 47.8088 35.4512 47.8054 37.4771C47.8054 37.6946 47.6826 37.7394 47.4984 37.7981C47.4984 37.3667 47.4984 36.9594 47.4984 36.5522C47.512 32.7317 47.5291 28.9146 47.5393 25.094C47.553 20.528 47.5632 15.962 47.5769 11.396C47.5769 11.2407 47.5359 11.1441 47.4097 11.0509C45.489 9.61173 43.5718 8.16566 41.6579 6.71959C39.1709 4.83865 36.6839 2.95427 34.1969 1.07334C33.8217 0.790336 33.443 0.510785 33.0711 0.231234" fill="#211E1F"/>
</g>
<defs>
<linearGradient id="paint0_linear_1_214" x1="51.3909" y1="36.0897" x2="177.964" y2="25.6983" gradientUnits="userSpaceOnUse">
<stop offset="0.03" stop-color="#213A8F"/>
<stop offset="0.4" stop-color="#154FE5"/>
<stop offset="0.53" stop-color="#0E60B1"/>
<stop offset="0.68" stop-color="#08737C"/>
<stop offset="0.81" stop-color="#038055"/>
<stop offset="0.91" stop-color="#01883D"/>
<stop offset="0.97" stop-color="#008C35"/>
</linearGradient>
<linearGradient id="paint1_linear_1_214" x1="51.425" y1="36.4901" x2="177.998" y2="26.0986" gradientUnits="userSpaceOnUse">
<stop offset="0.03" stop-color="#213A8F"/>
<stop offset="0.4" stop-color="#154FE5"/>
<stop offset="0.53" stop-color="#0E60B1"/>
<stop offset="0.68" stop-color="#08737C"/>
<stop offset="0.81" stop-color="#038055"/>
<stop offset="0.91" stop-color="#01883D"/>
<stop offset="0.97" stop-color="#008C35"/>
</linearGradient>
<linearGradient id="paint2_linear_1_214" x1="50.1901" y1="21.4702" x2="176.763" y2="11.0754" gradientUnits="userSpaceOnUse">
<stop offset="0.03" stop-color="#213A8F"/>
<stop offset="0.4" stop-color="#154FE5"/>
<stop offset="0.53" stop-color="#0E60B1"/>
<stop offset="0.68" stop-color="#08737C"/>
<stop offset="0.81" stop-color="#038055"/>
<stop offset="0.91" stop-color="#01883D"/>
<stop offset="0.97" stop-color="#008C35"/>
</linearGradient>
<linearGradient id="paint3_linear_1_214" x1="50.3061" y1="22.8783" x2="176.879" y2="12.4835" gradientUnits="userSpaceOnUse">
<stop offset="0.03" stop-color="#213A8F"/>
<stop offset="0.4" stop-color="#154FE5"/>
<stop offset="0.53" stop-color="#0E60B1"/>
<stop offset="0.68" stop-color="#08737C"/>
<stop offset="0.81" stop-color="#038055"/>
<stop offset="0.91" stop-color="#01883D"/>
<stop offset="0.97" stop-color="#008C35"/>
</linearGradient>
<linearGradient id="paint4_linear_1_214" x1="50.405" y1="24.107" x2="176.981" y2="13.7122" gradientUnits="userSpaceOnUse">
<stop offset="0.03" stop-color="#213A8F"/>
<stop offset="0.4" stop-color="#154FE5"/>
<stop offset="0.53" stop-color="#0E60B1"/>
<stop offset="0.68" stop-color="#08737C"/>
<stop offset="0.81" stop-color="#038055"/>
<stop offset="0.91" stop-color="#01883D"/>
<stop offset="0.97" stop-color="#008C35"/>
</linearGradient>
<linearGradient id="paint5_linear_1_214" x1="50.5278" y1="25.5807" x2="177.101" y2="15.1892" gradientUnits="userSpaceOnUse">
<stop offset="0.03" stop-color="#213A8F"/>
<stop offset="0.4" stop-color="#154FE5"/>
<stop offset="0.53" stop-color="#0E60B1"/>
<stop offset="0.68" stop-color="#08737C"/>
<stop offset="0.81" stop-color="#038055"/>
<stop offset="0.91" stop-color="#01883D"/>
<stop offset="0.97" stop-color="#008C35"/>
</linearGradient>
<linearGradient id="paint6_linear_1_214" x1="50.6404" y1="26.9577" x2="177.213" y2="16.5663" gradientUnits="userSpaceOnUse">
<stop offset="0.03" stop-color="#213A8F"/>
<stop offset="0.4" stop-color="#154FE5"/>
<stop offset="0.53" stop-color="#0E60B1"/>
<stop offset="0.68" stop-color="#08737C"/>
<stop offset="0.81" stop-color="#038055"/>
<stop offset="0.91" stop-color="#01883D"/>
<stop offset="0.97" stop-color="#008C35"/>
</linearGradient>
<linearGradient id="paint7_linear_1_214" x1="50.736" y1="28.107" x2="177.309" y2="17.7122" gradientUnits="userSpaceOnUse">
<stop offset="0.03" stop-color="#213A8F"/>
<stop offset="0.4" stop-color="#154FE5"/>
<stop offset="0.53" stop-color="#0E60B1"/>
<stop offset="0.68" stop-color="#08737C"/>
<stop offset="0.81" stop-color="#038055"/>
<stop offset="0.91" stop-color="#01883D"/>
<stop offset="0.97" stop-color="#008C35"/>
</linearGradient>
<linearGradient id="paint8_linear_1_214" x1="50.8383" y1="29.3494" x2="177.411" y2="18.958" gradientUnits="userSpaceOnUse">
<stop offset="0.03" stop-color="#213A8F"/>
<stop offset="0.4" stop-color="#154FE5"/>
<stop offset="0.53" stop-color="#0E60B1"/>
<stop offset="0.68" stop-color="#08737C"/>
<stop offset="0.81" stop-color="#038055"/>
<stop offset="0.91" stop-color="#01883D"/>
<stop offset="0.97" stop-color="#008C35"/>
</linearGradient>
<linearGradient id="paint9_linear_1_214" x1="50.8962" y1="30.0707" x2="177.469" y2="19.6793" gradientUnits="userSpaceOnUse">
<stop offset="0.03" stop-color="#213A8F"/>
<stop offset="0.4" stop-color="#154FE5"/>
<stop offset="0.53" stop-color="#0E60B1"/>
<stop offset="0.68" stop-color="#08737C"/>
<stop offset="0.81" stop-color="#038055"/>
<stop offset="0.91" stop-color="#01883D"/>
<stop offset="0.97" stop-color="#008C35"/>
</linearGradient>
<linearGradient id="paint10_linear_1_214" x1="51.9436" y1="42.8128" x2="178.517" y2="32.4213" gradientUnits="userSpaceOnUse">
<stop offset="0.03" stop-color="#213A8F"/>
<stop offset="0.4" stop-color="#154FE5"/>
<stop offset="0.53" stop-color="#0E60B1"/>
<stop offset="0.68" stop-color="#08737C"/>
<stop offset="0.81" stop-color="#038055"/>
<stop offset="0.91" stop-color="#01883D"/>
<stop offset="0.97" stop-color="#008C35"/>
</linearGradient>
<linearGradient id="paint11_linear_1_214" x1="52.063" y1="44.2934" x2="178.639" y2="33.8985" gradientUnits="userSpaceOnUse">
<stop offset="0.03" stop-color="#213A8F"/>
<stop offset="0.4" stop-color="#154FE5"/>
<stop offset="0.53" stop-color="#0E60B1"/>
<stop offset="0.68" stop-color="#08737C"/>
<stop offset="0.81" stop-color="#038055"/>
<stop offset="0.91" stop-color="#01883D"/>
<stop offset="0.97" stop-color="#008C35"/>
</linearGradient>
<linearGradient id="paint12_linear_1_214" x1="52.1585" y1="45.4392" x2="178.732" y2="35.0478" gradientUnits="userSpaceOnUse">
<stop offset="0.03" stop-color="#213A8F"/>
<stop offset="0.4" stop-color="#154FE5"/>
<stop offset="0.53" stop-color="#0E60B1"/>
<stop offset="0.68" stop-color="#08737C"/>
<stop offset="0.81" stop-color="#038055"/>
<stop offset="0.91" stop-color="#01883D"/>
<stop offset="0.97" stop-color="#008C35"/>
</linearGradient>
<linearGradient id="paint13_linear_1_214" x1="52.2403" y1="46.4435" x2="178.813" y2="36.052" gradientUnits="userSpaceOnUse">
<stop offset="0.03" stop-color="#213A8F"/>
<stop offset="0.4" stop-color="#154FE5"/>
<stop offset="0.53" stop-color="#0E60B1"/>
<stop offset="0.68" stop-color="#08737C"/>
<stop offset="0.81" stop-color="#038055"/>
<stop offset="0.91" stop-color="#01883D"/>
<stop offset="0.97" stop-color="#008C35"/>
</linearGradient>
<linearGradient id="paint14_linear_1_214" x1="52.3224" y1="47.4478" x2="178.899" y2="37.0564" gradientUnits="userSpaceOnUse">
<stop offset="0.03" stop-color="#213A8F"/>
<stop offset="0.4" stop-color="#154FE5"/>
<stop offset="0.53" stop-color="#0E60B1"/>
<stop offset="0.68" stop-color="#08737C"/>
<stop offset="0.81" stop-color="#038055"/>
<stop offset="0.91" stop-color="#01883D"/>
<stop offset="0.97" stop-color="#008C35"/>
</linearGradient>
<linearGradient id="paint15_linear_1_214" x1="52.411" y1="48.5039" x2="178.984" y2="38.1124" gradientUnits="userSpaceOnUse">
<stop offset="0.03" stop-color="#213A8F"/>
<stop offset="0.4" stop-color="#154FE5"/>
<stop offset="0.53" stop-color="#0E60B1"/>
<stop offset="0.68" stop-color="#08737C"/>
<stop offset="0.81" stop-color="#038055"/>
<stop offset="0.91" stop-color="#01883D"/>
<stop offset="0.97" stop-color="#008C35"/>
</linearGradient>
<linearGradient id="paint16_linear_1_214" x1="52.4689" y1="49.2252" x2="179.042" y2="38.8304" gradientUnits="userSpaceOnUse">
<stop offset="0.03" stop-color="#213A8F"/>
<stop offset="0.4" stop-color="#154FE5"/>
<stop offset="0.53" stop-color="#0E60B1"/>
<stop offset="0.68" stop-color="#08737C"/>
<stop offset="0.81" stop-color="#038055"/>
<stop offset="0.91" stop-color="#01883D"/>
<stop offset="0.97" stop-color="#008C35"/>
</linearGradient>
<linearGradient id="paint17_linear_1_214" x1="52.5474" y1="50.1708" x2="179.12" y2="39.7794" gradientUnits="userSpaceOnUse">
<stop offset="0.03" stop-color="#213A8F"/>
<stop offset="0.4" stop-color="#154FE5"/>
<stop offset="0.53" stop-color="#0E60B1"/>
<stop offset="0.68" stop-color="#08737C"/>
<stop offset="0.81" stop-color="#038055"/>
<stop offset="0.91" stop-color="#01883D"/>
<stop offset="0.97" stop-color="#008C35"/>
</linearGradient>
<clipPath id="clip0_1_214">
<rect width="175" height="52" fill="white"/>
</clipPath>
</defs>
</svg>
