<svg preserveAspectRatio="none" width="100%" height="100%" overflow="visible" style="display: block;" viewBox="0 0 229 77" fill="none" xmlns="http://www.w3.org/2000/svg">
<g id="uuid-92e57eb7-6cd3-413c-b65a-c84b5278b552" clip-path="url(#clip0_0_15)">
<path id="Vector" d="M47.633 72.1751C47.633 72.2128 47.633 72.2505 47.6285 72.2788C47.6285 72.3071 47.6196 72.3306 47.6062 72.3495C47.5973 72.3683 47.5839 72.3825 47.5705 72.3872C47.5571 72.3966 47.5437 72.4013 47.5303 72.4013H46.1196V73.7866H47.4544C47.4544 73.7866 47.4812 73.7866 47.4946 73.796C47.508 73.8054 47.5169 73.8148 47.5303 73.8337C47.5393 73.8525 47.5482 73.8714 47.5526 73.8996C47.5571 73.9279 47.5571 73.9656 47.5571 74.008C47.5571 74.0457 47.5571 74.0834 47.5526 74.1117C47.5482 74.1399 47.5437 74.1635 47.5303 74.1824C47.5214 74.2012 47.508 74.2153 47.4946 74.2248C47.4812 74.2342 47.4678 74.2389 47.4544 74.2389H46.1196V75.9351C46.1196 75.9351 46.1196 75.9634 46.1062 75.9775C46.0973 75.9917 46.0839 76.0011 46.0661 76.0105C46.0482 76.02 46.0214 76.0247 45.9902 76.0294C45.9589 76.0341 45.9188 76.0388 45.8652 76.0388C45.8161 76.0388 45.7759 76.0388 45.7446 76.0294C45.7089 76.0247 45.6821 76.02 45.6643 76.0105C45.6464 76.0011 45.6286 75.9917 45.6241 75.9775C45.6152 75.9634 45.6107 75.9493 45.6107 75.9351V72.1657C45.6107 72.0856 45.633 72.0291 45.6732 71.9961C45.7134 71.9631 45.758 71.949 45.8027 71.949H47.5393C47.5393 71.949 47.566 71.949 47.5794 71.9631C47.5928 71.9725 47.6018 71.9867 47.6151 72.0055C47.6241 72.0244 47.633 72.0479 47.6375 72.0809C47.6375 72.1092 47.6419 72.1469 47.6419 72.1846L47.633 72.1751Z" fill="var(--fill-0, white)"/>
<path id="Vector_2" d="M50.5526 74.3944C50.5526 74.4745 50.5347 74.5357 50.4946 74.5687C50.4544 74.6017 50.4097 74.6206 50.3606 74.6206H48.5928C48.5928 74.776 48.6062 74.9174 48.6374 75.0446C48.6687 75.1718 48.7178 75.2802 48.7892 75.3697C48.8607 75.4593 48.9499 75.5299 49.0615 75.577C49.1732 75.6242 49.3115 75.6477 49.4723 75.6477C49.6017 75.6477 49.7133 75.6383 49.8115 75.6147C49.9097 75.5912 49.999 75.5676 50.0705 75.5394C50.1419 75.5111 50.2044 75.4875 50.249 75.464C50.2937 75.4404 50.3294 75.431 50.3562 75.431C50.3696 75.431 50.3829 75.431 50.3919 75.4404C50.4008 75.4498 50.4097 75.4592 50.4187 75.4734C50.4231 75.4875 50.4276 75.5064 50.4321 75.5346C50.4365 75.5629 50.4365 75.5912 50.4365 75.6289C50.4365 75.6571 50.4365 75.6807 50.4365 75.6996C50.4365 75.7184 50.4321 75.7372 50.4276 75.7514C50.4276 75.7655 50.4187 75.7797 50.4142 75.7938C50.4097 75.8079 50.3963 75.8173 50.3874 75.8315C50.3785 75.8409 50.3428 75.8598 50.2892 75.888C50.2356 75.9163 50.1642 75.9399 50.0794 75.9634C49.9946 75.987 49.8964 76.0105 49.7847 76.0294C49.6731 76.0482 49.5526 76.0576 49.4276 76.0576C49.2089 76.0576 49.0124 76.0247 48.8473 75.9587C48.6821 75.8927 48.5437 75.7985 48.4276 75.6713C48.316 75.5441 48.2267 75.3839 48.1732 75.1907C48.1151 74.9975 48.0884 74.7713 48.0884 74.5169C48.0884 74.2625 48.1196 74.0551 48.1776 73.862C48.2357 73.6688 48.325 73.5039 48.4366 73.3672C48.5482 73.2306 48.6866 73.1269 48.8428 73.0562C49.0035 72.9856 49.1776 72.9479 49.374 72.9479C49.5839 72.9479 49.7624 72.9856 49.9142 73.0562C50.066 73.1269 50.1821 73.2259 50.2803 73.3437C50.374 73.4662 50.4454 73.6075 50.4901 73.7677C50.5347 73.9326 50.5571 74.1023 50.5571 74.2907V74.385L50.5526 74.3944ZM50.0571 74.2389C50.0615 73.9656 50.0035 73.7536 49.883 73.5981C49.7624 73.4426 49.5839 73.3672 49.3428 73.3672C49.2223 73.3672 49.1151 73.3908 49.0214 73.4379C48.9276 73.485 48.8517 73.551 48.7892 73.6311C48.7267 73.7112 48.6776 73.8054 48.6464 73.9091C48.6107 74.0127 48.5928 74.1258 48.5883 74.2436H50.0526L50.0571 74.2389ZM49.5749 71.7181C49.5749 71.7181 49.6017 71.6757 49.6151 71.6616C49.6285 71.6474 49.6508 71.638 49.6731 71.6286C49.6955 71.6191 49.7222 71.6144 49.758 71.6097C49.7937 71.6097 49.8339 71.605 49.8785 71.605C49.9321 71.605 49.9812 71.605 50.0124 71.6144C50.0481 71.6239 50.0705 71.6333 50.0838 71.6474C50.0972 71.6616 50.1017 71.6757 50.1017 71.6945C50.1017 71.7134 50.0928 71.7322 50.0749 71.7511L49.5348 72.4861C49.5348 72.4861 49.5035 72.5238 49.4901 72.5379C49.4767 72.5521 49.4633 72.5615 49.4455 72.5662C49.4276 72.5756 49.4053 72.5803 49.3785 72.5803C49.3517 72.5803 49.3205 72.5803 49.2803 72.5803C49.2357 72.5803 49.1999 72.5804 49.1776 72.5709C49.1553 72.5615 49.133 72.5568 49.124 72.5474C49.1151 72.5379 49.1107 72.5238 49.1107 72.505C49.1107 72.4861 49.124 72.4673 49.1374 72.4437L49.5705 71.7181H49.5749Z" fill="var(--fill-0, white)"/>
<path id="Vector_3" d="M53.5972 75.9351C53.5972 75.9351 53.5972 75.9681 53.5882 75.9775C53.5793 75.987 53.5704 76.0011 53.5525 76.0058C53.5347 76.0152 53.5124 76.02 53.4856 76.0247C53.4588 76.0247 53.4231 76.0294 53.3829 76.0294C53.3427 76.0294 53.307 76.0294 53.2802 76.0247C53.2534 76.0247 53.2311 76.0152 53.2132 76.0058C53.1954 75.9964 53.182 75.987 53.1731 75.9775C53.1641 75.9634 53.1597 75.9493 53.1597 75.9351V75.5629C53.0168 75.7231 52.874 75.8503 52.7222 75.9398C52.5704 76.0294 52.4052 76.0765 52.2222 76.0765C52.0258 76.0765 51.8561 76.0341 51.7177 75.954C51.5794 75.8739 51.4677 75.7655 51.3785 75.6289C51.2892 75.4922 51.2311 75.332 51.191 75.1436C51.1508 74.9598 51.1329 74.7619 51.1329 74.5546C51.1329 74.3096 51.1597 74.0928 51.2088 73.8949C51.2579 73.697 51.3338 73.5321 51.4276 73.3955C51.5258 73.2588 51.6463 73.1505 51.7892 73.0751C51.932 72.9997 52.1017 72.962 52.2892 72.962C52.4454 72.962 52.5883 72.9997 52.7177 73.0704C52.8472 73.141 52.9766 73.2494 53.1016 73.3908V71.7464C53.1016 71.7464 53.1016 71.7181 53.1106 71.7039C53.1195 71.6898 53.1329 71.6804 53.1508 71.671C53.1686 71.6615 53.1954 71.6568 53.2266 71.6521C53.2579 71.6474 53.2981 71.6427 53.3427 71.6427C53.3874 71.6427 53.432 71.6427 53.4632 71.6521C53.4945 71.6568 53.5213 71.6663 53.5391 71.671C53.557 71.6757 53.5704 71.6898 53.5793 71.7039C53.5882 71.7181 53.5927 71.7322 53.5927 71.7464V75.9351H53.5972ZM53.1061 73.942C52.9722 73.7677 52.8427 73.6358 52.7222 73.5463C52.5972 73.4567 52.4677 73.4096 52.3338 73.4096C52.2088 73.4096 52.1017 73.4426 52.0168 73.5039C51.932 73.5651 51.8606 73.6499 51.8026 73.7536C51.7445 73.8572 51.7088 73.975 51.682 74.1023C51.6552 74.2295 51.6463 74.3661 51.6463 74.498C51.6463 74.6394 51.6552 74.7807 51.6776 74.9174C51.6999 75.054 51.7356 75.1765 51.7847 75.2802C51.8338 75.3839 51.9052 75.4687 51.9901 75.5346C52.0749 75.5959 52.182 75.6289 52.3115 75.6289C52.3784 75.6289 52.4409 75.6194 52.499 75.6006C52.5615 75.5818 52.6195 75.5488 52.6865 75.5064C52.749 75.464 52.8159 75.4074 52.8874 75.3367C52.9588 75.2661 53.0302 75.1812 53.1061 75.0776V73.9468V73.942Z" fill="var(--fill-0, white)"/>
<path id="Vector_4" d="M56.798 74.3944C56.798 74.4745 56.7801 74.5357 56.74 74.5687C56.6998 74.6017 56.6551 74.6206 56.606 74.6206H54.8382C54.8382 74.776 54.8516 74.9174 54.8829 75.0446C54.9141 75.1718 54.9632 75.2802 55.0346 75.3697C55.1061 75.4593 55.1954 75.5299 55.307 75.577C55.4186 75.6242 55.557 75.6477 55.7177 75.6477C55.8471 75.6477 55.9587 75.6383 56.0569 75.6147C56.1552 75.5912 56.2444 75.5676 56.3159 75.5394C56.3873 75.5111 56.4498 75.4875 56.4944 75.464C56.5391 75.4404 56.5748 75.431 56.6016 75.431C56.615 75.431 56.6284 75.431 56.6373 75.4404C56.6462 75.4498 56.6551 75.4592 56.6641 75.4734C56.6685 75.4875 56.673 75.5064 56.6775 75.5346C56.6819 75.5629 56.6819 75.5912 56.6819 75.6289C56.6819 75.6571 56.6819 75.6807 56.6819 75.6996C56.6819 75.7184 56.6775 75.7372 56.673 75.7514C56.673 75.7655 56.6641 75.7797 56.6596 75.7938C56.6551 75.8079 56.6418 75.8173 56.6328 75.8315C56.6239 75.8409 56.5882 75.8598 56.5346 75.888C56.481 75.9163 56.4096 75.9399 56.3248 75.9634C56.24 75.987 56.1418 76.0105 56.0302 76.0294C55.9186 76.0482 55.798 76.0576 55.673 76.0576C55.4543 76.0576 55.2579 76.0247 55.0927 75.9587C54.9275 75.8927 54.7891 75.7985 54.673 75.6713C54.5614 75.5441 54.4722 75.3839 54.4186 75.1907C54.3605 74.9975 54.3338 74.7713 54.3338 74.5169C54.3338 74.2625 54.365 74.0551 54.423 73.862C54.4811 73.6688 54.5704 73.5039 54.682 73.3672C54.7936 73.2306 54.932 73.1269 55.0882 73.0562C55.2489 72.9856 55.423 72.9479 55.6195 72.9479C55.8293 72.9479 56.0078 72.9856 56.1596 73.0562C56.3114 73.1269 56.4275 73.2259 56.5257 73.3437C56.6194 73.4662 56.6909 73.6075 56.7355 73.7677C56.7801 73.9326 56.8025 74.1023 56.8025 74.2907V74.385L56.798 74.3944ZM56.3025 74.2389C56.3069 73.9656 56.2489 73.7536 56.1284 73.5981C56.0078 73.4426 55.8293 73.3672 55.5882 73.3672C55.4677 73.3672 55.3605 73.3908 55.2668 73.4379C55.173 73.485 55.0971 73.551 55.0346 73.6311C54.9721 73.7112 54.923 73.8054 54.8918 73.9091C54.8561 74.0127 54.8382 74.1258 54.8338 74.2436H56.298L56.3025 74.2389ZM55.8203 71.7181C55.8203 71.7181 55.8471 71.6757 55.8605 71.6616C55.8739 71.6474 55.8962 71.638 55.9186 71.6286C55.9409 71.6191 55.9677 71.6144 56.0034 71.6097C56.0391 71.6097 56.0793 71.605 56.1239 71.605C56.1775 71.605 56.2266 71.605 56.2578 71.6144C56.2935 71.6239 56.3159 71.6333 56.3293 71.6474C56.3427 71.6616 56.3471 71.6757 56.3471 71.6945C56.3471 71.7134 56.3382 71.7322 56.3203 71.7511L55.7802 72.4861C55.7802 72.4861 55.7489 72.5238 55.7355 72.5379C55.7221 72.5521 55.7087 72.5615 55.6909 72.5662C55.673 72.5756 55.6507 72.5803 55.6239 72.5803C55.5971 72.5803 55.5659 72.5803 55.5257 72.5803C55.4811 72.5803 55.4453 72.5804 55.423 72.5709C55.4007 72.5615 55.3784 72.5568 55.3695 72.5474C55.3605 72.5379 55.3561 72.5238 55.3561 72.505C55.3561 72.4861 55.3695 72.4673 55.3828 72.4437L55.8159 71.7181H55.8203Z" fill="var(--fill-0, white)"/>
<path id="Vector_5" d="M59.1105 73.2871C59.1105 73.3342 59.1105 73.3719 59.1105 73.4049C59.1105 73.4379 59.106 73.4615 59.0971 73.4803C59.0926 73.4991 59.0837 73.5133 59.0747 73.5227C59.0658 73.5321 59.0524 73.5368 59.039 73.5368C59.0256 73.5368 59.0033 73.5368 58.981 73.5227C58.9587 73.5086 58.9319 73.5039 58.9051 73.4944C58.8783 73.485 58.8426 73.4756 58.8069 73.4662C58.7712 73.4567 58.731 73.452 58.6908 73.452C58.6417 73.452 58.5926 73.4615 58.5435 73.485C58.4944 73.5039 58.4453 73.5416 58.3917 73.5887C58.3382 73.6358 58.2846 73.7018 58.2265 73.7819C58.1685 73.862 58.106 73.9609 58.0346 74.074V75.9351C58.0346 75.9351 58.0346 75.9681 58.0212 75.9775C58.0123 75.987 57.9989 75.9964 57.981 76.0058C57.9632 76.0152 57.9364 76.02 57.9051 76.0247C57.8739 76.0247 57.8337 76.0294 57.7846 76.0294C57.7355 76.0294 57.6953 76.0294 57.6641 76.0247C57.6328 76.0247 57.606 76.0152 57.5882 76.0058C57.5703 75.9964 57.5569 75.987 57.548 75.9775C57.5391 75.9634 57.5391 75.954 57.5391 75.9351V73.1034C57.5391 73.1034 57.5391 73.0704 57.548 73.061C57.5525 73.0515 57.5658 73.0374 57.5837 73.028C57.6016 73.0185 57.6239 73.0138 57.6507 73.0091C57.6774 73.0091 57.7132 73.0044 57.7623 73.0044C57.8114 73.0044 57.8426 73.0044 57.8694 73.0091C57.8962 73.0091 57.9185 73.0185 57.9364 73.028C57.9542 73.0374 57.9632 73.0468 57.9721 73.061C57.981 73.0751 57.981 73.0845 57.981 73.1034V73.5133C58.0524 73.4002 58.1239 73.306 58.1864 73.2353C58.2489 73.1646 58.3114 73.1081 58.3694 73.0657C58.4274 73.0233 58.4855 72.995 58.539 72.9809C58.5971 72.9667 58.6506 72.9573 58.7087 72.9573C58.7355 72.9573 58.7623 72.9573 58.798 72.9573C58.8292 72.9573 58.8649 72.9667 58.9006 72.9761C58.9364 72.9856 58.9676 72.995 58.9989 73.0044C59.0301 73.0138 59.048 73.0233 59.0614 73.0374C59.0747 73.0468 59.0792 73.0562 59.0837 73.0657C59.0837 73.0751 59.0926 73.0892 59.0926 73.1034C59.0926 73.1175 59.0971 73.141 59.0971 73.1693C59.0971 73.1976 59.0971 73.2353 59.0971 73.2824L59.1105 73.2871Z" fill="var(--fill-0, white)"/>
<path id="Vector_6" d="M61.5658 75.9351C61.5658 75.9587 61.5568 75.9775 61.5434 75.9917C61.5301 76.0058 61.5077 76.0152 61.4765 76.0199C61.4497 76.0247 61.4095 76.0294 61.3559 76.0294C61.3024 76.0294 61.2622 76.0294 61.231 76.0199C61.1997 76.0152 61.1774 76.0058 61.164 75.9917C61.1506 75.9775 61.1417 75.9587 61.1417 75.9351V75.6524C61.0256 75.7844 60.8917 75.888 60.7488 75.9587C60.606 76.0341 60.4542 76.0671 60.2935 76.0671C60.1506 76.0671 60.0256 76.0482 59.9095 76.0105C59.7935 75.9728 59.6997 75.9163 59.6194 75.8409C59.539 75.7655 59.4765 75.676 59.4319 75.5723C59.3872 75.4687 59.3649 75.3414 59.3649 75.2095C59.3649 75.0493 59.3962 74.9127 59.4587 74.7949C59.5212 74.6771 59.6104 74.5781 59.7221 74.5028C59.8381 74.4227 59.9765 74.3661 60.1461 74.3284C60.3113 74.2907 60.4988 74.2719 60.7086 74.2719H61.0792V74.0504C61.0792 73.9421 61.0702 73.8431 61.0479 73.763C61.0256 73.6829 60.9899 73.6075 60.9408 73.5557C60.8917 73.5039 60.8292 73.4567 60.7533 73.4285C60.6774 73.4002 60.5792 73.3861 60.4676 73.3861C60.347 73.3861 60.2354 73.4002 60.1417 73.4332C60.0479 73.4662 59.9631 73.4991 59.8872 73.5321C59.8158 73.5698 59.7533 73.6028 59.7042 73.6311C59.6551 73.6593 59.6194 73.6782 59.5971 73.6782C59.5792 73.6782 59.5658 73.6782 59.5569 73.6641C59.5479 73.6499 59.5346 73.6452 59.5256 73.6264C59.5167 73.6075 59.5122 73.5887 59.5078 73.5604C59.5078 73.5321 59.5033 73.5039 59.5033 73.4756C59.5033 73.4238 59.5033 73.3813 59.5122 73.3531C59.5212 73.3248 59.5346 73.2918 59.5613 73.2683C59.5881 73.24 59.6328 73.207 59.6997 73.174C59.7667 73.1363 59.8426 73.1034 59.9274 73.0751C60.0122 73.0468 60.106 73.0185 60.2086 72.9997C60.3113 72.9808 60.414 72.9714 60.5167 72.9714C60.7086 72.9714 60.8738 72.995 61.0077 73.0421C61.1417 73.0892 61.2533 73.1552 61.3336 73.2447C61.4184 73.3342 61.4765 73.4426 61.5167 73.5792C61.5568 73.7159 61.5747 73.8667 61.5747 74.041V75.9493L61.5658 75.9351ZM61.0792 74.6441H60.6595C60.5256 74.6441 60.4051 74.6582 60.3069 74.6818C60.2086 74.7054 60.1238 74.7431 60.0613 74.7902C59.9944 74.8373 59.9497 74.8938 59.9185 74.9598C59.8872 75.0258 59.8738 75.1012 59.8738 75.186C59.8738 75.332 59.9185 75.4498 60.0078 75.5346C60.097 75.6242 60.2176 75.6666 60.3783 75.6666C60.5078 75.6666 60.6283 75.6336 60.7354 75.5629C60.847 75.4922 60.9631 75.3886 61.0836 75.2472V74.6441H61.0792Z" fill="var(--fill-0, white)"/>
<path id="Vector_7" d="M64.7487 73.0185C64.8068 73.0185 64.847 73.0327 64.8693 73.0609C64.8916 73.0892 64.9005 73.1316 64.9005 73.1835V75.9304C64.9005 75.9304 64.9005 75.9634 64.8871 75.9728C64.8782 75.9823 64.8648 75.9917 64.847 76.0011C64.8291 76.0105 64.8023 76.0152 64.7711 76.0199C64.7398 76.0199 64.6996 76.0247 64.655 76.0247C64.6059 76.0247 64.5657 76.0247 64.5345 76.0199C64.5032 76.0199 64.4764 76.0105 64.4586 76.0011C64.4407 75.9917 64.4273 75.9823 64.4184 75.9728C64.4095 75.9587 64.405 75.9493 64.405 75.9304V73.4473H63.0211V75.0258C63.0211 75.2189 63.0479 75.3697 63.1015 75.4687C63.155 75.5676 63.2532 75.6194 63.3961 75.6194C63.4407 75.6194 63.4809 75.6194 63.5166 75.6053C63.5523 75.5959 63.5836 75.5865 63.6104 75.577C63.6372 75.5676 63.6639 75.5582 63.6818 75.5488C63.6997 75.5393 63.7175 75.5346 63.7354 75.5346C63.7443 75.5346 63.7532 75.5346 63.7622 75.5441C63.7711 75.5488 63.78 75.5582 63.7845 75.5723C63.7889 75.5865 63.7934 75.6053 63.7979 75.6336C63.7979 75.6571 63.8023 75.6901 63.8023 75.7278C63.8023 75.7891 63.8023 75.8362 63.7889 75.8692C63.7755 75.9022 63.7711 75.9304 63.7532 75.9493C63.7354 75.9681 63.713 75.9822 63.6818 75.9964C63.6505 76.0105 63.6148 76.0247 63.5747 76.0341C63.5345 76.0435 63.4898 76.0529 63.4452 76.0576C63.4006 76.0624 63.3559 76.0671 63.3068 76.0671C63.1684 76.0671 63.0479 76.0482 62.9497 76.0105C62.8515 75.9728 62.7666 75.9116 62.7041 75.8362C62.6416 75.7561 62.5925 75.6571 62.5657 75.5393C62.539 75.4216 62.5211 75.2755 62.5211 75.1153V73.4614H62.1461C62.1149 73.4614 62.0925 73.4426 62.0747 73.4096C62.0568 73.3766 62.0479 73.3201 62.0479 73.2447C62.0479 73.207 62.0479 73.1693 62.0568 73.1458C62.0613 73.1175 62.0702 73.0939 62.0747 73.0798C62.0836 73.0609 62.0925 73.0515 62.1059 73.0421C62.1193 73.0327 62.1327 73.0327 62.1506 73.0327H62.5211V72.3589C62.5211 72.3589 62.5211 72.3306 62.53 72.3165C62.539 72.3023 62.5479 72.2929 62.5702 72.2835C62.5881 72.2741 62.6149 72.2647 62.6461 72.2647C62.6774 72.2647 62.7175 72.2599 62.7666 72.2599C62.8157 72.2599 62.8559 72.2599 62.8872 72.2647C62.9184 72.2647 62.9452 72.2741 62.9631 72.2835C62.9809 72.2929 62.9943 72.3023 63.0032 72.3165C63.0122 72.3306 63.0166 72.34 63.0166 72.3589V73.0327H64.7398L64.7487 73.0185ZM64.9586 72.1469C64.9586 72.2694 64.9362 72.3495 64.8916 72.3966C64.847 72.439 64.7666 72.4625 64.6505 72.4625C64.5345 72.4625 64.4541 72.4437 64.4139 72.3966C64.3693 72.3542 64.3514 72.2741 64.3514 72.1516C64.3514 72.0291 64.3738 71.949 64.4184 71.9018C64.463 71.8594 64.5434 71.8359 64.6595 71.8359C64.7755 71.8359 64.8559 71.8594 64.8961 71.9018C64.9407 71.9443 64.9586 72.0244 64.9586 72.1469Z" fill="var(--fill-0, white)"/>
<path id="Vector_8" d="M68.3067 74.4839C68.3067 74.7148 68.2799 74.9268 68.2219 75.12C68.1639 75.3132 68.079 75.4828 67.963 75.6195C67.8469 75.7561 67.704 75.8692 67.5344 75.9493C67.3603 76.0294 67.1639 76.0671 66.9362 76.0671C66.7085 76.0671 66.5255 76.0341 66.3603 75.9634C66.1951 75.8927 66.0612 75.7938 65.9496 75.6619C65.838 75.5299 65.7576 75.3697 65.7041 75.1813C65.6505 74.9928 65.6237 74.7808 65.6237 74.5405C65.6237 74.3001 65.6505 74.0975 65.7085 73.9044C65.7666 73.7112 65.8514 73.5416 65.963 73.4049C66.0791 73.2636 66.2219 73.1552 66.3916 73.0751C66.5612 72.9997 66.7621 72.9573 66.9898 72.9573C67.2174 72.9573 67.4005 72.9903 67.5656 73.061C67.7308 73.1316 67.8647 73.2306 67.9764 73.3625C68.0835 73.4944 68.1683 73.6546 68.2219 73.8431C68.2755 74.0316 68.3022 74.2436 68.3022 74.4792L68.3067 74.4839ZM67.7978 74.5216C67.7978 74.3708 67.7844 74.2248 67.7576 74.0881C67.7308 73.9515 67.6862 73.8337 67.6237 73.73C67.5612 73.6264 67.4764 73.5463 67.3692 73.485C67.2621 73.4238 67.1326 73.3955 66.9719 73.3955C66.8246 73.3955 66.6996 73.4238 66.5924 73.4756C66.4853 73.5321 66.4005 73.6075 66.3335 73.7065C66.2666 73.8054 66.213 73.9232 66.1817 74.0598C66.1505 74.1965 66.1326 74.3473 66.1326 74.5075C66.1326 74.6677 66.146 74.809 66.1728 74.9457C66.1996 75.0823 66.2442 75.2001 66.3067 75.3038C66.3692 75.4074 66.4541 75.4875 66.5612 75.5441C66.6683 75.6053 66.7978 75.6336 66.9585 75.6336C67.1014 75.6336 67.2264 75.6053 67.3335 75.5535C67.4406 75.5017 67.5255 75.4216 67.5969 75.3226C67.6639 75.2237 67.7174 75.1059 67.7487 74.9692C67.7799 74.8326 67.7978 74.6818 67.7978 74.5169V74.5216Z" fill="var(--fill-0, white)"/>
<path id="Vector_9" d="M71.3424 75.9351C71.3424 75.9351 71.3424 75.9681 71.329 75.9775C71.32 75.987 71.3067 75.9964 71.2888 76.0058C71.2709 76.0152 71.2442 76.02 71.2129 76.0247C71.1817 76.0247 71.1415 76.0294 71.0924 76.0294C71.0433 76.0294 71.0031 76.0294 70.9718 76.0247C70.9406 76.0247 70.9138 76.0152 70.8959 76.0058C70.8781 75.9964 70.8647 75.987 70.8558 75.9775C70.8468 75.9634 70.8424 75.954 70.8424 75.9351V74.2766C70.8424 74.1164 70.829 73.9845 70.8067 73.8855C70.7843 73.7866 70.7486 73.7018 70.704 73.6311C70.6593 73.5604 70.6013 73.5039 70.5254 73.4662C70.4495 73.4285 70.3692 73.4096 70.2754 73.4096C70.1504 73.4096 70.0299 73.4567 69.9049 73.5463C69.7799 73.6405 69.6504 73.7724 69.5165 73.9515V75.9304C69.5165 75.9304 69.5165 75.9634 69.5031 75.9728C69.4942 75.9823 69.4808 75.9917 69.4629 76.0011C69.4451 76.0105 69.4183 76.0152 69.387 76.02C69.3558 76.02 69.3156 76.0247 69.2665 76.0247C69.2174 76.0247 69.1772 76.0247 69.146 76.02C69.1147 76.02 69.0879 76.0105 69.0701 76.0011C69.0522 75.9917 69.0388 75.9823 69.0299 75.9728C69.021 75.9587 69.021 75.9493 69.021 75.9304V73.0986C69.021 73.0986 69.021 73.0657 69.0299 73.0562C69.0344 73.0468 69.0478 73.0327 69.0656 73.0233C69.0835 73.0138 69.1058 73.0091 69.1326 73.0044C69.1594 73.0044 69.1951 72.9997 69.2442 72.9997C69.2933 72.9997 69.3245 72.9997 69.3513 73.0044C69.3781 73.0044 69.4004 73.0138 69.4183 73.0233C69.4362 73.0327 69.4451 73.0421 69.454 73.0562C69.4629 73.0704 69.4629 73.0798 69.4629 73.0986V73.4709C69.6147 73.2918 69.7665 73.1646 69.9138 73.0798C70.0611 72.995 70.2174 72.9573 70.3692 72.9573C70.5477 72.9573 70.6995 72.9903 70.8201 73.0515C70.9406 73.1175 71.0433 73.2023 71.1147 73.306C71.1861 73.4096 71.2442 73.5368 71.2754 73.6829C71.3067 73.8243 71.3245 73.9986 71.3245 74.2012V75.9304L71.3424 75.9351Z" fill="var(--fill-0, white)"/>
<path id="Vector_10" d="M175.836 75.9351C175.836 75.9587 175.827 75.9775 175.814 75.9917C175.796 76.0058 175.778 76.0152 175.747 76.0199C175.72 76.0247 175.68 76.0294 175.626 76.0294C175.572 76.0294 175.532 76.0294 175.501 76.0199C175.47 76.0152 175.447 76.0058 175.434 75.9917C175.421 75.9775 175.412 75.9587 175.412 75.9351V75.6524C175.296 75.7844 175.166 75.888 175.019 75.9587C174.876 76.0341 174.72 76.0671 174.559 76.0671C174.416 76.0671 174.291 76.0482 174.175 76.0105C174.059 75.9728 173.965 75.9163 173.885 75.8409C173.805 75.7655 173.742 75.676 173.698 75.5723C173.653 75.464 173.631 75.3414 173.631 75.2095C173.631 75.0493 173.662 74.9127 173.724 74.7949C173.787 74.6771 173.876 74.5781 173.988 74.5028C174.099 74.4274 174.242 74.3661 174.412 74.3284C174.577 74.2907 174.764 74.2719 174.974 74.2719H175.345V74.0504C175.345 73.9421 175.336 73.8431 175.314 73.763C175.291 73.6829 175.256 73.6075 175.206 73.5557C175.157 73.4991 175.095 73.4567 175.019 73.4285C174.943 73.4002 174.845 73.3861 174.733 73.3861C174.613 73.3861 174.501 73.4002 174.407 73.4332C174.314 73.4662 174.229 73.4991 174.153 73.5321C174.081 73.5698 174.019 73.6028 173.97 73.6311C173.921 73.6593 173.885 73.6782 173.863 73.6782C173.845 73.6782 173.831 73.6782 173.823 73.6641C173.809 73.6546 173.8 73.6452 173.791 73.6264C173.782 73.6075 173.778 73.5887 173.773 73.5604C173.773 73.5321 173.769 73.5039 173.769 73.4756C173.769 73.4238 173.769 73.3813 173.778 73.3531C173.787 73.3248 173.8 73.2918 173.827 73.2683C173.854 73.24 173.898 73.207 173.965 73.174C174.032 73.1363 174.108 73.1034 174.193 73.0751C174.278 73.0468 174.372 73.0185 174.474 72.9997C174.577 72.9808 174.68 72.9714 174.782 72.9714C174.974 72.9714 175.139 72.995 175.273 73.0421C175.407 73.0892 175.519 73.1552 175.599 73.2447C175.684 73.3342 175.742 73.4426 175.782 73.5792C175.818 73.7112 175.84 73.8667 175.84 74.041V75.9493L175.836 75.9351ZM175.345 74.6441H174.925C174.791 74.6441 174.671 74.6582 174.572 74.6818C174.474 74.7054 174.389 74.7431 174.327 74.7902C174.26 74.8373 174.215 74.8938 174.184 74.9598C174.153 75.0258 174.139 75.1012 174.139 75.186C174.139 75.332 174.184 75.4498 174.273 75.5346C174.363 75.6242 174.483 75.6666 174.644 75.6666C174.773 75.6666 174.894 75.6336 175.001 75.5629C175.113 75.4922 175.229 75.3886 175.349 75.2472V74.6441H175.345Z" fill="var(--fill-0, white)"/>
<path id="Vector_11" d="M179.037 75.9351C179.037 75.9351 179.037 75.9681 179.028 75.9775C179.019 75.987 179.01 75.9964 178.992 76.0058C178.974 76.0152 178.952 76.02 178.921 76.0247C178.894 76.0247 178.858 76.0294 178.813 76.0294C178.769 76.0294 178.729 76.0294 178.702 76.0247C178.675 76.0247 178.648 76.0152 178.635 76.0058C178.617 75.9964 178.608 75.987 178.599 75.9775C178.595 75.9634 178.59 75.954 178.59 75.9351V75.5629C178.438 75.742 178.287 75.8692 178.135 75.954C177.988 76.0341 177.836 76.0765 177.684 76.0765C177.505 76.0765 177.354 76.0435 177.233 75.9823C177.113 75.921 177.01 75.8315 176.939 75.7278C176.863 75.6194 176.809 75.4922 176.778 75.3509C176.747 75.2095 176.729 75.0305 176.729 74.8279V73.1081C176.729 73.1081 176.729 73.0751 176.738 73.0657C176.747 73.0562 176.76 73.0421 176.778 73.0327C176.796 73.0233 176.822 73.0185 176.854 73.0138C176.885 73.0138 176.925 73.0091 176.974 73.0091C177.023 73.0091 177.064 73.0091 177.095 73.0138C177.126 73.0138 177.153 73.0233 177.171 73.0327C177.189 73.0421 177.202 73.0515 177.211 73.0657C177.22 73.0798 177.224 73.0892 177.224 73.1081V74.7572C177.224 74.9221 177.238 75.054 177.26 75.153C177.282 75.2519 177.318 75.3367 177.363 75.4074C177.407 75.4781 177.47 75.5299 177.541 75.5723C177.613 75.61 177.697 75.6289 177.791 75.6289C177.916 75.6289 178.037 75.5818 178.157 75.4922C178.278 75.398 178.407 75.2661 178.546 75.087V73.1081C178.546 73.1081 178.546 73.0751 178.555 73.0657C178.563 73.0562 178.577 73.0421 178.595 73.0327C178.613 73.0233 178.639 73.0185 178.671 73.0138C178.702 73.0138 178.742 73.0091 178.791 73.0091C178.84 73.0091 178.88 73.0091 178.912 73.0138C178.943 73.0138 178.97 73.0233 178.988 73.0327C179.005 73.0421 179.019 73.0515 179.028 73.0657C179.037 73.0751 179.041 73.0892 179.041 73.1081V75.9398L179.037 75.9351Z" fill="var(--fill-0, white)"/>
<path id="Vector_12" d="M183.005 75.1624C183.005 75.3085 182.979 75.4357 182.929 75.5488C182.88 75.6619 182.809 75.7561 182.715 75.8362C182.621 75.9163 182.51 75.9728 182.38 76.0105C182.251 76.0482 182.108 76.0718 181.956 76.0718C181.863 76.0718 181.769 76.0624 181.684 76.0482C181.599 76.0341 181.519 76.0105 181.452 75.987C181.385 75.9634 181.327 75.9398 181.278 75.9116C181.229 75.888 181.197 75.8598 181.175 75.8409C181.153 75.8221 181.139 75.7891 181.126 75.7514C181.117 75.7137 181.113 75.6619 181.113 75.5959C181.113 75.5582 181.113 75.5205 181.117 75.4969C181.117 75.4687 181.126 75.4498 181.13 75.431C181.135 75.4121 181.144 75.4027 181.157 75.3933C181.171 75.3839 181.18 75.3839 181.193 75.3839C181.215 75.3839 181.246 75.398 181.291 75.4263C181.336 75.4545 181.385 75.4875 181.447 75.5205C181.51 75.5535 181.586 75.5865 181.671 75.6147C181.755 75.643 181.854 75.6571 181.965 75.6571C182.05 75.6571 182.126 75.6477 182.193 75.6289C182.26 75.61 182.318 75.5818 182.367 75.5441C182.416 75.5064 182.456 75.4592 182.483 75.4027C182.51 75.3462 182.523 75.2802 182.523 75.2001C182.523 75.12 182.505 75.054 182.465 74.9975C182.425 74.9409 182.376 74.8938 182.313 74.8514C182.251 74.809 182.18 74.7713 182.099 74.7383C182.019 74.7054 181.938 74.6724 181.854 74.6347C181.769 74.597 181.688 74.5593 181.608 74.5122C181.528 74.4651 181.456 74.4132 181.394 74.3473C181.331 74.2813 181.278 74.2059 181.242 74.1164C181.202 74.0269 181.184 73.9185 181.184 73.7913C181.184 73.6782 181.202 73.5745 181.246 73.4709C181.287 73.3672 181.349 73.2777 181.43 73.2023C181.51 73.1269 181.613 73.0657 181.733 73.0185C181.854 72.9714 181.996 72.9479 182.162 72.9479C182.233 72.9479 182.304 72.9526 182.376 72.9667C182.447 72.9808 182.51 72.995 182.568 73.0138C182.626 73.0327 182.675 73.0515 182.715 73.0751C182.755 73.0986 182.787 73.1175 182.809 73.1316C182.831 73.1505 182.845 73.1646 182.849 73.174C182.858 73.1882 182.863 73.2023 182.863 73.2164C182.863 73.2306 182.867 73.2541 182.871 73.273C182.871 73.2965 182.871 73.3248 182.871 73.3578C182.871 73.3955 182.871 73.4238 182.871 73.452C182.871 73.4756 182.863 73.4991 182.858 73.518C182.849 73.5368 182.84 73.5463 182.831 73.5557C182.822 73.5651 182.809 73.5651 182.8 73.5651C182.782 73.5651 182.755 73.5557 182.724 73.5321C182.688 73.5086 182.648 73.485 182.595 73.4567C182.541 73.4332 182.479 73.4049 182.407 73.3814C182.336 73.3578 182.251 73.3484 182.157 73.3484C182.072 73.3484 182.001 73.3578 181.938 73.3766C181.876 73.3955 181.822 73.4238 181.782 73.4615C181.742 73.4991 181.711 73.5416 181.688 73.5934C181.666 73.6452 181.657 73.697 181.657 73.7583C181.657 73.8384 181.675 73.9091 181.715 73.9656C181.755 74.0222 181.805 74.0693 181.871 74.1117C181.934 74.1541 182.005 74.1918 182.09 74.2248C182.171 74.2577 182.255 74.2954 182.34 74.3284C182.425 74.3661 182.51 74.4038 182.59 74.4462C182.671 74.4886 182.746 74.5452 182.809 74.6064C182.871 74.6677 182.925 74.7431 182.961 74.8326C183.001 74.9221 183.019 75.0258 183.019 75.1483L183.005 75.1624Z" fill="var(--fill-0, white)"/>
<path id="Vector_13" d="M185.996 74.3944C185.996 74.4745 185.979 74.5357 185.938 74.5687C185.898 74.6017 185.854 74.6205 185.804 74.6205H184.037C184.037 74.776 184.05 74.9174 184.081 75.0446C184.113 75.1718 184.162 75.2802 184.233 75.3697C184.304 75.4592 184.394 75.5299 184.505 75.577C184.617 75.6242 184.755 75.6477 184.916 75.6477C185.046 75.6477 185.157 75.6383 185.255 75.6147C185.354 75.5912 185.443 75.5676 185.514 75.5394C185.586 75.5111 185.648 75.4875 185.693 75.464C185.742 75.4404 185.773 75.431 185.8 75.431C185.813 75.431 185.827 75.431 185.836 75.4404C185.845 75.4498 185.854 75.4592 185.862 75.4734C185.867 75.4875 185.871 75.5064 185.876 75.5346C185.88 75.5629 185.88 75.5912 185.88 75.6289C185.88 75.6571 185.88 75.6807 185.88 75.6995C185.88 75.7184 185.876 75.7372 185.871 75.7514C185.871 75.7655 185.862 75.7796 185.858 75.7938C185.854 75.8079 185.84 75.8173 185.831 75.8315C185.822 75.8409 185.787 75.8597 185.733 75.888C185.679 75.9163 185.608 75.9398 185.523 75.9634C185.438 75.987 185.34 76.0105 185.229 76.0294C185.117 76.0482 184.996 76.0576 184.871 76.0576C184.653 76.0576 184.456 76.0247 184.291 75.9587C184.126 75.8927 183.988 75.7985 183.871 75.6713C183.76 75.5441 183.671 75.3839 183.617 75.1907C183.559 74.9975 183.532 74.7713 183.532 74.5169C183.532 74.2625 183.563 74.0551 183.621 73.8619C183.679 73.6688 183.769 73.5039 183.88 73.3672C183.992 73.2306 184.126 73.1269 184.287 73.0562C184.447 72.9856 184.621 72.9479 184.818 72.9479C185.028 72.9479 185.206 72.9856 185.358 73.0562C185.505 73.1269 185.626 73.2259 185.724 73.3437C185.818 73.4662 185.889 73.6075 185.934 73.7677C185.979 73.9326 186.001 74.1023 186.001 74.2907V74.385L185.996 74.3944ZM185.505 74.2389C185.51 73.9656 185.452 73.7536 185.331 73.5981C185.211 73.4426 185.032 73.3672 184.791 73.3672C184.671 73.3672 184.563 73.3908 184.47 73.4379C184.376 73.485 184.3 73.551 184.238 73.6311C184.175 73.7112 184.126 73.8054 184.095 73.9091C184.063 74.0127 184.041 74.1258 184.037 74.2436H185.501L185.505 74.2389Z" fill="var(--fill-0, white)"/>
<path id="Vector_14" d="M188.313 73.2871C188.313 73.3342 188.313 73.3719 188.313 73.4049C188.313 73.4379 188.309 73.4615 188.3 73.4803C188.295 73.4991 188.287 73.5133 188.278 73.5227C188.269 73.5321 188.255 73.5368 188.242 73.5368C188.228 73.5368 188.206 73.5368 188.184 73.5227C188.162 73.5133 188.135 73.5039 188.108 73.4944C188.081 73.485 188.045 73.4756 188.01 73.4662C187.974 73.4567 187.934 73.452 187.894 73.452C187.845 73.452 187.795 73.4615 187.746 73.485C187.697 73.5086 187.648 73.5416 187.595 73.5887C187.541 73.6358 187.487 73.7018 187.429 73.7819C187.371 73.862 187.309 73.9609 187.237 74.074V75.9351C187.237 75.9351 187.237 75.9681 187.224 75.9775C187.215 75.987 187.202 75.9964 187.184 76.0058C187.166 76.0152 187.139 76.02 187.108 76.0247C187.077 76.0247 187.037 76.0294 186.987 76.0294C186.938 76.0294 186.898 76.0294 186.867 76.0247C186.836 76.0247 186.809 76.0152 186.791 76.0058C186.773 75.9964 186.76 75.987 186.751 75.9775C186.742 75.9634 186.742 75.954 186.742 75.9351V73.1034C186.742 73.1034 186.742 73.0704 186.751 73.061C186.755 73.0515 186.769 73.0374 186.787 73.028C186.804 73.0185 186.827 73.0138 186.854 73.0091C186.88 73.0091 186.916 73.0044 186.965 73.0044C187.014 73.0044 187.045 73.0044 187.072 73.0091C187.099 73.0091 187.126 73.0185 187.139 73.028C187.157 73.0374 187.166 73.0468 187.175 73.061C187.184 73.0751 187.184 73.0845 187.184 73.1034V73.5133C187.255 73.4002 187.327 73.306 187.389 73.2353C187.452 73.1646 187.514 73.1081 187.572 73.0657C187.63 73.0233 187.688 72.995 187.742 72.9809C187.8 72.9667 187.853 72.9573 187.912 72.9573C187.938 72.9573 187.965 72.9573 188.001 72.9573C188.032 72.9573 188.068 72.9667 188.103 72.9761C188.139 72.9856 188.17 72.995 188.202 73.0044C188.233 73.0138 188.251 73.0233 188.264 73.0374C188.278 73.0515 188.282 73.0562 188.287 73.0657C188.287 73.0751 188.295 73.0892 188.295 73.1034C188.295 73.1175 188.3 73.141 188.3 73.1693C188.3 73.1976 188.3 73.2353 188.3 73.2824L188.313 73.2871Z" fill="var(--fill-0, white)"/>
<path id="Vector_15" d="M191.13 73.0986C191.13 73.0986 191.13 73.1175 191.13 73.1269C191.13 73.1363 191.13 73.1458 191.13 73.1552C191.13 73.1646 191.126 73.1787 191.121 73.1882C191.121 73.2023 191.117 73.2117 191.112 73.2306L190.197 75.921C190.197 75.921 190.179 75.9634 190.166 75.9775C190.153 75.9917 190.135 76.0058 190.108 76.0105C190.081 76.02 190.05 76.0247 190.01 76.0294C189.97 76.0294 189.92 76.0294 189.862 76.0294C189.804 76.0294 189.751 76.0294 189.715 76.0247C189.675 76.0247 189.644 76.0152 189.617 76.0058C189.59 75.9964 189.572 75.987 189.559 75.9728C189.545 75.9587 189.532 75.9399 189.528 75.921L188.617 73.2306C188.608 73.207 188.603 73.1835 188.599 73.1646C188.595 73.1458 188.59 73.1316 188.59 73.1222C188.59 73.1128 188.59 73.1034 188.59 73.0986C188.59 73.0798 188.59 73.0657 188.603 73.0562C188.612 73.0421 188.626 73.0327 188.644 73.028C188.662 73.0185 188.688 73.0138 188.72 73.0138C188.751 73.0138 188.787 73.0138 188.836 73.0138C188.894 73.0138 188.938 73.0138 188.974 73.0185C189.01 73.0185 189.037 73.028 189.054 73.0374C189.072 73.0468 189.086 73.0562 189.095 73.0704C189.103 73.0845 189.112 73.0986 189.121 73.1175L189.88 75.4498L189.894 75.4875L189.903 75.4498L190.653 73.1175C190.653 73.1175 190.661 73.0845 190.675 73.0704C190.684 73.0562 190.697 73.0468 190.72 73.0374C190.737 73.028 190.764 73.0233 190.795 73.0185C190.827 73.0185 190.871 73.0138 190.925 73.0138C190.97 73.0138 191.01 73.0138 191.036 73.0138C191.068 73.0138 191.09 73.0233 191.108 73.028C191.126 73.0374 191.135 73.0468 191.144 73.0562C191.153 73.0657 191.153 73.0798 191.153 73.0986H191.13Z" fill="var(--fill-0, white)"/>
<path id="Vector_16" d="M192.237 72.1469C192.237 72.2694 192.215 72.3495 192.17 72.3966C192.126 72.439 192.045 72.4625 191.929 72.4625C191.813 72.4625 191.737 72.4437 191.693 72.3966C191.648 72.3542 191.63 72.2741 191.63 72.1516C191.63 72.0291 191.653 71.949 191.697 71.9018C191.742 71.8594 191.822 71.8359 191.938 71.8359C192.054 71.8359 192.13 71.8594 192.175 71.9018C192.219 71.9443 192.237 72.0244 192.237 72.1469ZM192.179 75.9351C192.179 75.9351 192.179 75.9681 192.166 75.9775C192.157 75.987 192.144 75.9964 192.126 76.0058C192.108 76.0152 192.081 76.0199 192.05 76.0247C192.019 76.0247 191.978 76.0294 191.929 76.0294C191.88 76.0294 191.84 76.0294 191.809 76.0247C191.778 76.0247 191.751 76.0152 191.733 76.0058C191.715 75.9964 191.702 75.987 191.693 75.9775C191.684 75.9634 191.684 75.954 191.684 75.9351V73.1033C191.684 73.1033 191.684 73.0751 191.693 73.0609C191.697 73.0468 191.711 73.0374 191.733 73.028C191.751 73.0185 191.778 73.0138 191.809 73.0091C191.84 73.0044 191.88 73.0044 191.929 73.0044C191.978 73.0044 192.019 73.0044 192.05 73.0091C192.081 73.0138 192.108 73.0185 192.126 73.028C192.144 73.0374 192.157 73.0468 192.166 73.0609C192.175 73.0751 192.179 73.0892 192.179 73.1033V75.9351Z" fill="var(--fill-0, white)"/>
<path id="Vector_17" d="M195.014 75.5017C195.014 75.5393 195.014 75.5676 195.014 75.5959C195.014 75.6242 195.01 75.643 195.005 75.6619C195.001 75.6807 194.996 75.6948 194.987 75.709C194.978 75.7231 194.965 75.742 194.938 75.7702C194.911 75.7985 194.871 75.8268 194.813 75.8692C194.755 75.9069 194.688 75.9446 194.612 75.9728C194.536 76.0011 194.456 76.0294 194.371 76.0482C194.282 76.0671 194.193 76.0765 194.099 76.0765C193.907 76.0765 193.737 76.0435 193.586 75.9775C193.438 75.9116 193.313 75.8126 193.211 75.6854C193.108 75.5582 193.032 75.398 192.983 75.2095C192.934 75.021 192.902 74.8043 192.902 74.5593C192.902 74.2813 192.934 74.041 193.001 73.8384C193.063 73.6405 193.152 73.4756 193.264 73.3484C193.376 73.2211 193.51 73.1269 193.661 73.0657C193.813 73.0044 193.978 72.9714 194.152 72.9714C194.237 72.9714 194.322 72.9808 194.402 72.995C194.483 73.0138 194.559 73.0327 194.626 73.0609C194.693 73.0892 194.755 73.1175 194.804 73.1552C194.858 73.1929 194.894 73.2211 194.92 73.2447C194.947 73.2683 194.96 73.2918 194.969 73.306C194.978 73.3201 194.987 73.3389 194.992 73.3578C194.996 73.3766 195.001 73.4002 195.005 73.4238C195.005 73.4473 195.005 73.4803 195.005 73.518C195.005 73.5981 194.996 73.6546 194.978 73.6876C194.96 73.7206 194.938 73.7347 194.911 73.7347C194.88 73.7347 194.849 73.7159 194.809 73.6829C194.769 73.6499 194.719 73.6122 194.661 73.5698C194.603 73.5274 194.532 73.4897 194.447 73.4567C194.362 73.4238 194.264 73.4049 194.148 73.4049C193.911 73.4049 193.728 73.4991 193.603 73.6923C193.478 73.8855 193.416 74.1635 193.416 74.5263C193.416 74.7101 193.434 74.8703 193.465 75.0069C193.496 75.1436 193.545 75.2613 193.608 75.3509C193.67 75.4451 193.751 75.5111 193.84 75.5582C193.934 75.6053 194.036 75.6242 194.157 75.6242C194.269 75.6242 194.371 75.6053 194.456 75.5676C194.541 75.5299 194.617 75.4875 194.679 75.4451C194.742 75.398 194.795 75.3603 194.835 75.3226C194.88 75.2849 194.911 75.2661 194.934 75.2661C194.947 75.2661 194.96 75.2661 194.969 75.2802C194.978 75.2896 194.987 75.3038 194.996 75.3226C195.005 75.3415 195.01 75.3697 195.01 75.398C195.01 75.4263 195.01 75.464 195.01 75.5064L195.014 75.5017Z" fill="var(--fill-0, white)"/>
<path id="Vector_18" d="M197.956 74.3944C197.956 74.4745 197.938 74.5357 197.898 74.5687C197.858 74.6017 197.813 74.6205 197.764 74.6205H195.996C195.996 74.776 196.01 74.9174 196.041 75.0446C196.072 75.1718 196.121 75.2802 196.188 75.3697C196.26 75.4592 196.349 75.5299 196.46 75.577C196.572 75.6242 196.71 75.6477 196.871 75.6477C197.001 75.6477 197.112 75.6383 197.21 75.6147C197.309 75.5912 197.398 75.5676 197.469 75.5394C197.541 75.5111 197.603 75.4875 197.648 75.464C197.693 75.4404 197.728 75.431 197.755 75.431C197.768 75.431 197.782 75.431 197.791 75.4404C197.804 75.4498 197.809 75.4592 197.818 75.4734C197.822 75.4875 197.827 75.5064 197.831 75.5346C197.835 75.5629 197.831 75.5912 197.831 75.6289C197.831 75.6571 197.831 75.6807 197.831 75.6995C197.831 75.7184 197.831 75.7372 197.822 75.7514C197.813 75.7655 197.813 75.7796 197.809 75.7938C197.804 75.8079 197.791 75.8173 197.782 75.8315C197.773 75.8409 197.737 75.8597 197.684 75.888C197.63 75.9163 197.559 75.9398 197.474 75.9634C197.389 75.987 197.291 76.0105 197.179 76.0294C197.068 76.0482 196.947 76.0576 196.822 76.0576C196.603 76.0576 196.407 76.0247 196.242 75.9587C196.077 75.8927 195.938 75.7985 195.822 75.6713C195.706 75.5441 195.621 75.3839 195.568 75.1907C195.51 74.9975 195.483 74.7713 195.483 74.5169C195.483 74.2625 195.514 74.0551 195.572 73.8619C195.63 73.6688 195.719 73.5039 195.831 73.3672C195.943 73.2306 196.081 73.1269 196.237 73.0562C196.398 72.9856 196.572 72.9479 196.773 72.9479C196.983 72.9479 197.161 72.9856 197.313 73.0562C197.46 73.1269 197.581 73.2259 197.679 73.3437C197.777 73.4615 197.844 73.6075 197.889 73.7677C197.934 73.9326 197.956 74.1023 197.956 74.2907V74.385V74.3944ZM197.465 74.2389C197.469 73.9656 197.411 73.7536 197.291 73.5981C197.17 73.4426 196.992 73.3672 196.751 73.3672C196.63 73.3672 196.523 73.3908 196.429 73.4379C196.335 73.485 196.26 73.551 196.197 73.6311C196.135 73.7112 196.085 73.8054 196.054 73.9091C196.019 74.0127 196.001 74.1258 195.996 74.2436H197.46L197.465 74.2389Z" fill="var(--fill-0, white)"/>
<path id="Vector_19" d="M202.384 75.9351C202.384 75.9351 202.384 75.9681 202.376 75.9775C202.367 75.987 202.358 76.0011 202.34 76.0058C202.322 76.0105 202.3 76.02 202.273 76.0247C202.246 76.0247 202.21 76.0294 202.17 76.0294C202.13 76.0294 202.094 76.0294 202.068 76.0247C202.041 76.0247 202.018 76.0152 202.001 76.0058C201.983 75.9964 201.969 75.987 201.96 75.9775C201.951 75.9634 201.947 75.9493 201.947 75.9351V75.5629C201.804 75.7231 201.661 75.8503 201.509 75.9398C201.358 76.0294 201.193 76.0765 201.009 76.0765C200.813 76.0765 200.643 76.0341 200.505 75.954C200.367 75.8739 200.255 75.7655 200.166 75.6289C200.076 75.4922 200.018 75.332 199.978 75.1436C199.938 74.9598 199.92 74.7619 199.92 74.5546C199.92 74.3096 199.947 74.0928 199.996 73.8949C200.045 73.697 200.121 73.5321 200.215 73.3955C200.313 73.2588 200.434 73.1505 200.576 73.0751C200.719 72.9997 200.889 72.962 201.076 72.962C201.233 72.962 201.376 72.9997 201.505 73.0704C201.634 73.141 201.764 73.2494 201.889 73.3908V71.7464C201.889 71.7464 201.889 71.7181 201.898 71.7039C201.907 71.6898 201.92 71.6804 201.938 71.671C201.956 71.6615 201.983 71.6568 202.014 71.6521C202.045 71.6474 202.085 71.6427 202.13 71.6427C202.175 71.6427 202.219 71.6427 202.251 71.6521C202.282 71.6568 202.309 71.6663 202.326 71.671C202.344 71.6757 202.358 71.6898 202.367 71.7039C202.376 71.7181 202.38 71.7322 202.38 71.7464V75.9351H202.384ZM201.889 73.942C201.755 73.7677 201.626 73.6358 201.505 73.5463C201.38 73.4567 201.251 73.4096 201.117 73.4096C200.992 73.4096 200.884 73.4426 200.8 73.5039C200.71 73.5651 200.643 73.6499 200.585 73.7536C200.532 73.8572 200.492 73.975 200.465 74.1023C200.438 74.2295 200.429 74.3661 200.429 74.498C200.429 74.6394 200.438 74.7807 200.46 74.9174C200.483 75.054 200.518 75.1765 200.568 75.2802C200.621 75.3839 200.688 75.4687 200.773 75.5346C200.858 75.5959 200.965 75.6289 201.094 75.6289C201.161 75.6289 201.224 75.6194 201.282 75.6006C201.344 75.5818 201.402 75.5488 201.469 75.5064C201.532 75.464 201.599 75.4074 201.67 75.3367C201.742 75.2661 201.813 75.1812 201.889 75.0776V73.9468V73.942Z" fill="var(--fill-0, white)"/>
<path id="Vector_20" d="M205.581 74.3944C205.581 74.4745 205.563 74.5357 205.523 74.5687C205.483 74.6017 205.438 74.6205 205.389 74.6205H203.621C203.621 74.776 203.634 74.9174 203.666 75.0446C203.697 75.1718 203.746 75.2802 203.817 75.3697C203.889 75.4592 203.978 75.5299 204.09 75.577C204.201 75.6242 204.34 75.6477 204.5 75.6477C204.63 75.6477 204.742 75.6383 204.84 75.6147C204.938 75.5912 205.027 75.5676 205.099 75.5394C205.17 75.5111 205.233 75.4875 205.277 75.464C205.326 75.4404 205.358 75.431 205.384 75.431C205.398 75.431 205.411 75.431 205.42 75.4404C205.429 75.4498 205.438 75.4592 205.447 75.4734C205.451 75.4875 205.456 75.5064 205.46 75.5346C205.465 75.5629 205.465 75.5912 205.465 75.6289C205.465 75.6571 205.465 75.6807 205.465 75.6995C205.465 75.7184 205.46 75.7372 205.456 75.7514C205.456 75.7655 205.447 75.7796 205.442 75.7938C205.438 75.8079 205.425 75.8173 205.416 75.8315C205.407 75.8409 205.371 75.8597 205.317 75.888C205.264 75.9163 205.192 75.9398 205.108 75.9634C205.023 75.987 204.925 76.0105 204.813 76.0294C204.701 76.0482 204.581 76.0576 204.456 76.0576C204.237 76.0576 204.041 76.0247 203.875 75.9587C203.71 75.8927 203.572 75.7985 203.456 75.6713C203.344 75.5441 203.255 75.3839 203.201 75.1907C203.143 74.9975 203.117 74.7713 203.117 74.5169C203.117 74.2625 203.148 74.0551 203.206 73.8619C203.264 73.6688 203.353 73.5039 203.465 73.3672C203.576 73.2306 203.71 73.1269 203.871 73.0562C204.032 72.9856 204.206 72.9479 204.402 72.9479C204.612 72.9479 204.791 72.9856 204.942 73.0562C205.09 73.1269 205.21 73.2259 205.309 73.3437C205.402 73.4662 205.474 73.6075 205.518 73.7677C205.563 73.9326 205.585 74.1023 205.585 74.2907V74.385L205.581 74.3944ZM205.085 74.2389C205.09 73.9656 205.032 73.7536 204.911 73.5981C204.791 73.4426 204.612 73.3672 204.371 73.3672C204.25 73.3672 204.143 73.3908 204.05 73.4379C203.956 73.485 203.88 73.551 203.817 73.6311C203.755 73.7112 203.706 73.8054 203.675 73.9091C203.643 74.0127 203.621 74.1258 203.617 74.2436H205.081L205.085 74.2389Z" fill="var(--fill-0, white)"/>
<path id="Vector_21" d="M208.014 75.1624C208.014 75.3085 207.987 75.4357 207.938 75.5488C207.889 75.6619 207.813 75.7561 207.724 75.8362C207.634 75.9163 207.518 75.9728 207.389 76.0105C207.259 76.0482 207.117 76.0718 206.96 76.0718C206.867 76.0718 206.773 76.0624 206.688 76.0482C206.603 76.0341 206.523 76.0105 206.456 75.987C206.389 75.9634 206.331 75.9398 206.282 75.9116C206.233 75.888 206.201 75.8598 206.179 75.8409C206.157 75.8221 206.143 75.7891 206.13 75.7514C206.117 75.7137 206.117 75.6619 206.117 75.5959C206.117 75.5582 206.117 75.5205 206.121 75.4969C206.121 75.4687 206.13 75.4498 206.134 75.431C206.139 75.4121 206.148 75.4027 206.161 75.3933C206.175 75.3839 206.183 75.3839 206.197 75.3839C206.219 75.3839 206.25 75.398 206.295 75.4263C206.34 75.4545 206.389 75.4875 206.451 75.5205C206.514 75.5535 206.59 75.5865 206.675 75.6147C206.759 75.643 206.858 75.6571 206.969 75.6571C207.054 75.6571 207.13 75.6477 207.197 75.6289C207.264 75.61 207.322 75.5818 207.371 75.5441C207.42 75.5064 207.46 75.4592 207.487 75.4027C207.514 75.3462 207.527 75.2802 207.527 75.2001C207.527 75.12 207.509 75.054 207.469 74.9975C207.429 74.9409 207.38 74.8938 207.317 74.8514C207.255 74.809 207.183 74.7713 207.103 74.7383C207.023 74.7054 206.942 74.6724 206.858 74.6347C206.773 74.597 206.692 74.5593 206.612 74.5122C206.532 74.4651 206.46 74.4132 206.398 74.3473C206.335 74.2813 206.282 74.2059 206.246 74.1164C206.206 74.0269 206.188 73.9185 206.188 73.7913C206.188 73.6782 206.21 73.5745 206.25 73.4709C206.291 73.3672 206.353 73.2777 206.433 73.2023C206.514 73.1269 206.617 73.0657 206.737 73.0185C206.858 72.9714 207 72.9479 207.166 72.9479C207.237 72.9479 207.308 72.9526 207.38 72.9667C207.451 72.9808 207.514 72.995 207.572 73.0138C207.63 73.0327 207.679 73.0515 207.719 73.0751C207.759 73.0986 207.791 73.1175 207.813 73.1316C207.835 73.1458 207.849 73.1646 207.853 73.174C207.862 73.1882 207.866 73.2023 207.866 73.2164C207.866 73.2306 207.871 73.2541 207.875 73.273C207.875 73.2965 207.875 73.3248 207.875 73.3578C207.875 73.3955 207.875 73.4238 207.875 73.452C207.875 73.4756 207.866 73.4991 207.862 73.518C207.853 73.5368 207.849 73.5463 207.835 73.5557C207.822 73.5651 207.813 73.5651 207.804 73.5651C207.786 73.5651 207.759 73.5557 207.728 73.5321C207.692 73.5086 207.652 73.485 207.599 73.4567C207.545 73.4332 207.483 73.4049 207.411 73.3814C207.34 73.3578 207.255 73.3484 207.161 73.3484C207.076 73.3484 207.005 73.3578 206.942 73.3766C206.88 73.3955 206.826 73.4238 206.786 73.4615C206.746 73.4991 206.715 73.5416 206.692 73.5934C206.67 73.6452 206.661 73.697 206.661 73.7583C206.661 73.8384 206.679 73.9091 206.719 73.9656C206.759 74.0222 206.813 74.0693 206.875 74.1117C206.938 74.1541 207.009 74.1918 207.094 74.2248C207.175 74.2577 207.259 74.2954 207.344 74.3284C207.429 74.3661 207.514 74.4038 207.594 74.4462C207.679 74.4886 207.75 74.5452 207.813 74.6064C207.875 74.6677 207.929 74.7431 207.965 74.8326C208 74.9221 208.023 75.0258 208.023 75.1483L208.014 75.1624Z" fill="var(--fill-0, white)"/>
<path id="Vector_22" d="M211.777 75.1624C211.777 75.3085 211.75 75.4357 211.701 75.5488C211.652 75.6619 211.576 75.7561 211.487 75.8362C211.398 75.9163 211.282 75.9728 211.152 76.0105C211.023 76.0482 210.88 76.0718 210.724 76.0718C210.63 76.0718 210.536 76.0624 210.451 76.0482C210.366 76.0341 210.286 76.0105 210.219 75.987C210.152 75.9634 210.094 75.9398 210.045 75.9116C209.996 75.888 209.965 75.8598 209.942 75.8409C209.92 75.8221 209.907 75.7891 209.893 75.7514C209.88 75.7137 209.88 75.6619 209.88 75.5959C209.88 75.5582 209.88 75.5205 209.884 75.4969C209.884 75.4687 209.893 75.4498 209.898 75.431C209.902 75.4121 209.911 75.4027 209.924 75.3933C209.938 75.3839 209.947 75.3839 209.96 75.3839C209.983 75.3839 210.014 75.398 210.058 75.4263C210.103 75.4545 210.152 75.4875 210.215 75.5205C210.277 75.5535 210.353 75.5865 210.438 75.6147C210.523 75.643 210.621 75.6571 210.733 75.6571C210.817 75.6571 210.893 75.6477 210.96 75.6289C211.027 75.61 211.085 75.5818 211.134 75.5441C211.183 75.5064 211.224 75.4592 211.25 75.4027C211.277 75.3462 211.291 75.2802 211.291 75.2001C211.291 75.12 211.273 75.054 211.233 74.9975C211.192 74.9409 211.143 74.8938 211.081 74.8514C211.018 74.809 210.947 74.7713 210.866 74.7383C210.786 74.7054 210.706 74.6724 210.621 74.6347C210.536 74.597 210.456 74.5593 210.375 74.5122C210.295 74.4651 210.224 74.4132 210.161 74.3473C210.099 74.2813 210.045 74.2059 210.009 74.1164C209.969 74.0269 209.951 73.9185 209.951 73.7913C209.951 73.6782 209.974 73.5745 210.014 73.4709C210.054 73.3672 210.116 73.2777 210.197 73.2023C210.277 73.1269 210.38 73.0657 210.5 73.0185C210.621 72.9714 210.764 72.9479 210.929 72.9479C211 72.9479 211.072 72.9526 211.143 72.9667C211.215 72.9808 211.277 72.995 211.335 73.0138C211.393 73.0327 211.442 73.0515 211.483 73.0751C211.523 73.0986 211.554 73.1175 211.576 73.1316C211.599 73.1458 211.612 73.1646 211.616 73.174C211.625 73.1882 211.63 73.2023 211.63 73.2164C211.63 73.2306 211.634 73.2541 211.639 73.273C211.639 73.2965 211.639 73.3248 211.639 73.3578C211.639 73.3955 211.639 73.4238 211.639 73.452C211.639 73.4756 211.63 73.4991 211.625 73.518C211.616 73.5368 211.612 73.5463 211.599 73.5557C211.585 73.5651 211.576 73.5651 211.567 73.5651C211.549 73.5651 211.523 73.5557 211.491 73.5321C211.456 73.5086 211.416 73.485 211.362 73.4567C211.308 73.4332 211.246 73.4049 211.174 73.3814C211.103 73.3578 211.018 73.3484 210.924 73.3484C210.84 73.3484 210.768 73.3578 210.706 73.3766C210.643 73.3955 210.59 73.4238 210.549 73.4615C210.509 73.4991 210.478 73.5416 210.456 73.5934C210.433 73.6452 210.424 73.697 210.424 73.7583C210.424 73.8384 210.442 73.9091 210.483 73.9656C210.523 74.0222 210.576 74.0693 210.639 74.1117C210.701 74.1541 210.773 74.1918 210.858 74.2248C210.938 74.2577 211.023 74.2954 211.108 74.3284C211.192 74.3661 211.277 74.4038 211.358 74.4462C211.442 74.4886 211.514 74.5452 211.576 74.6064C211.639 74.6677 211.692 74.7431 211.728 74.8326C211.764 74.9221 211.786 75.0258 211.786 75.1483L211.777 75.1624Z" fill="var(--fill-0, white)"/>
<path id="Vector_23" d="M214.505 75.9351C214.505 75.9587 214.496 75.9775 214.482 75.9917C214.465 76.0058 214.447 76.0152 214.415 76.0199C214.389 76.0247 214.349 76.0294 214.295 76.0294C214.241 76.0294 214.201 76.0294 214.17 76.0199C214.139 76.0152 214.116 76.0058 214.103 75.9917C214.09 75.9775 214.081 75.9587 214.081 75.9351V75.6524C213.965 75.7844 213.835 75.888 213.688 75.9587C213.545 76.0341 213.389 76.0671 213.228 76.0671C213.085 76.0671 212.96 76.0482 212.844 76.0105C212.728 75.9728 212.634 75.9163 212.554 75.8409C212.474 75.7655 212.411 75.676 212.366 75.5723C212.322 75.464 212.299 75.3414 212.299 75.2095C212.299 75.0493 212.331 74.9127 212.393 74.7949C212.456 74.6771 212.545 74.5781 212.657 74.5028C212.768 74.4274 212.911 74.3661 213.081 74.3284C213.246 74.2907 213.433 74.2719 213.643 74.2719H214.014V74.0504C214.014 73.9421 214.005 73.8431 213.982 73.763C213.96 73.6829 213.924 73.6075 213.875 73.5557C213.826 73.4991 213.764 73.4567 213.688 73.4285C213.612 73.4002 213.514 73.3861 213.402 73.3861C213.282 73.3861 213.17 73.4002 213.076 73.4332C212.982 73.4662 212.898 73.4991 212.822 73.5321C212.75 73.5698 212.688 73.6028 212.639 73.6311C212.59 73.6593 212.554 73.6782 212.532 73.6782C212.514 73.6782 212.5 73.6782 212.491 73.6641C212.478 73.6546 212.469 73.6452 212.46 73.6264C212.451 73.6075 212.447 73.5887 212.442 73.5604C212.442 73.5321 212.438 73.5039 212.438 73.4756C212.438 73.4238 212.438 73.3813 212.447 73.3531C212.456 73.3248 212.469 73.2918 212.496 73.2683C212.523 73.24 212.567 73.207 212.634 73.174C212.701 73.1363 212.777 73.1034 212.862 73.0751C212.947 73.0468 213.041 73.0185 213.143 72.9997C213.246 72.9808 213.349 72.9714 213.451 72.9714C213.643 72.9714 213.808 72.995 213.942 73.0421C214.076 73.0892 214.188 73.1552 214.268 73.2447C214.353 73.3342 214.411 73.4426 214.451 73.5792C214.487 73.7112 214.509 73.8667 214.509 74.041V75.9493L214.505 75.9351ZM214.014 74.6441H213.594C213.46 74.6441 213.34 74.6582 213.241 74.6818C213.143 74.7054 213.058 74.7431 212.996 74.7902C212.929 74.8373 212.884 74.8938 212.853 74.9598C212.822 75.0258 212.808 75.1012 212.808 75.186C212.808 75.332 212.853 75.4498 212.942 75.5346C213.032 75.6242 213.152 75.6666 213.313 75.6666C213.442 75.6666 213.563 75.6336 213.67 75.5629C213.782 75.4922 213.898 75.3886 214.018 75.2472V74.6441H214.014Z" fill="var(--fill-0, white)"/>
<path id="Vector_24" d="M215.898 75.9351C215.898 75.9351 215.898 75.9681 215.884 75.9775C215.875 75.987 215.862 75.9964 215.844 76.0058C215.826 76.0152 215.799 76.02 215.768 76.0247C215.737 76.0247 215.697 76.0294 215.648 76.0294C215.598 76.0294 215.558 76.0294 215.527 76.0247C215.496 76.0247 215.469 76.0152 215.451 76.0058C215.433 75.9964 215.42 75.987 215.411 75.9775C215.402 75.9634 215.402 75.954 215.402 75.9351V71.7322C215.402 71.7322 215.402 71.6992 215.411 71.6898C215.42 71.6804 215.429 71.6663 215.451 71.6568C215.469 71.6474 215.496 71.6427 215.527 71.638C215.558 71.638 215.598 71.6333 215.648 71.6333C215.697 71.6333 215.737 71.6333 215.768 71.638C215.799 71.638 215.826 71.6474 215.844 71.6568C215.862 71.6663 215.875 71.6757 215.884 71.6898C215.893 71.704 215.898 71.7181 215.898 71.7322V75.9351Z" fill="var(--fill-0, white)"/>
<path id="Vector_25" d="M218.826 75.9351C218.826 75.9587 218.817 75.9775 218.804 75.9917C218.786 76.0058 218.768 76.0152 218.737 76.0199C218.71 76.0247 218.67 76.0294 218.616 76.0294C218.563 76.0294 218.523 76.0294 218.491 76.0199C218.46 76.0152 218.438 76.0058 218.424 75.9917C218.411 75.9775 218.402 75.9587 218.402 75.9351V75.6524C218.286 75.7844 218.152 75.888 218.009 75.9587C217.866 76.0341 217.715 76.0671 217.554 76.0671C217.411 76.0671 217.286 76.0482 217.17 76.0105C217.054 75.9728 216.96 75.9163 216.88 75.8409C216.799 75.7655 216.737 75.676 216.692 75.5723C216.648 75.464 216.625 75.3414 216.625 75.2095C216.625 75.0493 216.657 74.9127 216.719 74.7949C216.782 74.6771 216.871 74.5781 216.982 74.5028C217.098 74.4227 217.237 74.3661 217.406 74.3284C217.576 74.2907 217.759 74.2719 217.969 74.2719H218.34V74.0504C218.34 73.9421 218.326 73.8431 218.308 73.763C218.29 73.6829 218.25 73.6075 218.201 73.5557C218.152 73.4991 218.09 73.4567 218.014 73.4285C217.938 73.4002 217.84 73.3861 217.728 73.3861C217.607 73.3861 217.5 73.4002 217.402 73.4332C217.304 73.4662 217.219 73.4991 217.148 73.5321C217.076 73.5698 217.014 73.6028 216.965 73.6311C216.915 73.6593 216.88 73.6782 216.857 73.6782C216.84 73.6782 216.826 73.6782 216.817 73.6641C216.804 73.6546 216.795 73.6452 216.786 73.6264C216.777 73.6075 216.773 73.5887 216.768 73.5604C216.768 73.5321 216.764 73.5039 216.764 73.4756C216.764 73.4238 216.764 73.3813 216.773 73.3531C216.782 73.3248 216.795 73.2918 216.822 73.2683C216.848 73.24 216.893 73.207 216.96 73.174C217.027 73.1363 217.103 73.1034 217.188 73.0751C217.273 73.0468 217.366 73.0185 217.469 72.9997C217.572 72.9808 217.674 72.9714 217.777 72.9714C217.969 72.9714 218.134 72.995 218.268 73.0421C218.402 73.0892 218.514 73.1552 218.594 73.2447C218.679 73.3342 218.737 73.4426 218.777 73.5792C218.813 73.7112 218.835 73.8667 218.835 74.041V75.9493L218.826 75.9351ZM218.34 74.6441H217.92C217.786 74.6441 217.665 74.6582 217.567 74.6818C217.469 74.7054 217.384 74.7431 217.322 74.7902C217.255 74.8373 217.21 74.8938 217.179 74.9598C217.148 75.0258 217.134 75.1012 217.134 75.186C217.134 75.332 217.179 75.4498 217.268 75.5346C217.357 75.6242 217.478 75.6666 217.639 75.6666C217.768 75.6666 217.889 75.6336 217.996 75.5629C218.107 75.4922 218.223 75.3886 218.344 75.2472V74.6441H218.34Z" fill="var(--fill-0, white)"/>
<path id="Vector_26" d="M221.299 73.2871C221.299 73.3342 221.299 73.3719 221.299 73.4049C221.299 73.4379 221.295 73.4615 221.286 73.4803C221.277 73.4991 221.272 73.5133 221.264 73.5227C221.255 73.5321 221.241 73.5368 221.228 73.5368C221.214 73.5368 221.192 73.5368 221.17 73.5227C221.147 73.5133 221.121 73.5039 221.094 73.4944C221.067 73.485 221.031 73.4756 220.996 73.4662C220.96 73.4567 220.92 73.452 220.88 73.452C220.831 73.452 220.781 73.4615 220.732 73.485C220.683 73.5039 220.634 73.5416 220.581 73.5887C220.527 73.6358 220.473 73.7018 220.415 73.7819C220.357 73.862 220.295 73.9609 220.223 74.074V75.9351C220.223 75.9351 220.223 75.9681 220.21 75.9775C220.201 75.987 220.188 75.9964 220.17 76.0058C220.152 76.0152 220.125 76.02 220.094 76.0247C220.063 76.0247 220.023 76.0294 219.973 76.0294C219.924 76.0294 219.884 76.0294 219.853 76.0247C219.822 76.0247 219.795 76.0152 219.777 76.0058C219.759 75.9964 219.746 75.987 219.737 75.9775C219.728 75.9634 219.728 75.954 219.728 75.9351V73.1034C219.728 73.1034 219.728 73.0704 219.737 73.061C219.746 73.0515 219.755 73.0374 219.773 73.028C219.79 73.0185 219.813 73.0138 219.839 73.0091C219.866 73.0091 219.902 73.0044 219.951 73.0044C220 73.0044 220.031 73.0044 220.058 73.0091C220.085 73.0091 220.107 73.0185 220.125 73.028C220.143 73.0374 220.152 73.0468 220.161 73.061C220.17 73.0751 220.17 73.0845 220.17 73.1034V73.5133C220.246 73.4002 220.313 73.306 220.375 73.2353C220.438 73.1646 220.5 73.1081 220.558 73.0657C220.616 73.0233 220.674 72.995 220.728 72.9809C220.786 72.9667 220.839 72.9573 220.897 72.9573C220.924 72.9573 220.951 72.9573 220.987 72.9573C221.018 72.9573 221.054 72.9667 221.089 72.9761C221.125 72.9856 221.156 72.995 221.188 73.0044C221.219 73.0138 221.237 73.0233 221.25 73.0374C221.264 73.0468 221.268 73.0562 221.272 73.0657C221.277 73.0751 221.281 73.0892 221.281 73.1034C221.281 73.1175 221.286 73.141 221.286 73.1693C221.286 73.1976 221.286 73.2353 221.286 73.2824L221.299 73.2871Z" fill="var(--fill-0, white)"/>
<path id="Vector_27" d="M222.406 72.1469C222.406 72.2694 222.384 72.3495 222.339 72.3966C222.295 72.439 222.214 72.4625 222.098 72.4625C221.982 72.4625 221.902 72.4437 221.862 72.3966C221.817 72.3542 221.799 72.2741 221.799 72.1516C221.799 72.0291 221.822 71.949 221.866 71.9018C221.911 71.8594 221.991 71.8359 222.107 71.8359C222.223 71.8359 222.304 71.8594 222.344 71.9018C222.389 71.9443 222.406 72.0244 222.406 72.1469ZM222.348 75.9351C222.348 75.9351 222.348 75.9681 222.335 75.9775C222.326 75.987 222.313 75.9964 222.295 76.0058C222.277 76.0152 222.25 76.0199 222.219 76.0247C222.188 76.0247 222.147 76.0294 222.098 76.0294C222.049 76.0294 222.009 76.0294 221.978 76.0247C221.947 76.0247 221.92 76.0152 221.902 76.0058C221.884 75.9964 221.871 75.987 221.862 75.9775C221.853 75.9634 221.853 75.954 221.853 75.9351V73.1033C221.853 73.1033 221.853 73.0751 221.862 73.0609C221.871 73.0468 221.88 73.0374 221.902 73.028C221.924 73.0185 221.947 73.0138 221.978 73.0091C222.009 73.0044 222.049 73.0044 222.098 73.0044C222.147 73.0044 222.188 73.0044 222.219 73.0091C222.25 73.0138 222.277 73.0185 222.295 73.028C222.313 73.0374 222.326 73.0468 222.335 73.0609C222.344 73.0751 222.348 73.0892 222.348 73.1033V75.9351Z" fill="var(--fill-0, white)"/>
<path id="Vector_28" d="M225.545 74.3944C225.545 74.4745 225.527 74.5357 225.487 74.5687C225.447 74.6017 225.402 74.6206 225.353 74.6206H223.585C223.585 74.776 223.598 74.9174 223.63 75.0446C223.661 75.1718 223.71 75.2802 223.777 75.3697C223.848 75.4593 223.938 75.5299 224.049 75.577C224.161 75.6242 224.299 75.6477 224.46 75.6477C224.589 75.6477 224.701 75.6383 224.799 75.6147C224.897 75.5912 224.987 75.5676 225.058 75.5394C225.13 75.5111 225.192 75.4875 225.237 75.464C225.281 75.4404 225.317 75.431 225.344 75.431C225.357 75.431 225.371 75.431 225.38 75.4404C225.393 75.4498 225.397 75.4592 225.406 75.4734C225.411 75.4875 225.415 75.5064 225.42 75.5346C225.424 75.5629 225.42 75.5912 225.42 75.6289C225.42 75.6571 225.42 75.6807 225.42 75.6996C225.42 75.7184 225.42 75.7372 225.411 75.7514C225.402 75.7655 225.402 75.7797 225.397 75.7938C225.393 75.8079 225.38 75.8173 225.371 75.8315C225.362 75.8409 225.326 75.8598 225.272 75.888C225.219 75.9163 225.147 75.9399 225.063 75.9634C224.978 75.987 224.88 76.0105 224.768 76.0294C224.656 76.0482 224.536 76.0576 224.411 76.0576C224.192 76.0576 223.996 76.0247 223.83 75.9587C223.665 75.8927 223.527 75.7985 223.411 75.6713C223.295 75.5441 223.21 75.3839 223.156 75.1907C223.098 74.9975 223.072 74.7713 223.072 74.5169C223.072 74.2625 223.103 74.0551 223.161 73.862C223.219 73.6688 223.308 73.5039 223.42 73.3672C223.531 73.2306 223.67 73.1269 223.826 73.0562C223.987 72.9856 224.161 72.9479 224.362 72.9479C224.572 72.9479 224.75 72.9856 224.902 73.0562C225.049 73.1269 225.17 73.2259 225.268 73.3437C225.366 73.4615 225.433 73.6075 225.478 73.7677C225.522 73.9326 225.545 74.1023 225.545 74.2907V74.385V74.3944ZM225.054 74.2389C225.058 73.9656 225 73.7536 224.88 73.5981C224.759 73.4426 224.58 73.3672 224.339 73.3672C224.219 73.3672 224.112 73.3908 224.018 73.4379C223.924 73.485 223.848 73.551 223.786 73.6311C223.723 73.7112 223.674 73.8054 223.643 73.9091C223.607 74.0127 223.589 74.1258 223.585 74.2436H225.049L225.054 74.2389ZM224.572 71.7181C224.572 71.7181 224.598 71.6757 224.612 71.6616C224.63 71.6474 224.647 71.638 224.67 71.6286C224.692 71.6191 224.719 71.6144 224.755 71.6097C224.79 71.6097 224.83 71.605 224.875 71.605C224.929 71.605 224.978 71.605 225.009 71.6144C225.04 71.6239 225.067 71.6333 225.08 71.6474C225.094 71.6616 225.098 71.6757 225.098 71.6945C225.098 71.7134 225.089 71.7322 225.072 71.7511L224.531 72.4861C224.531 72.4861 224.5 72.5238 224.487 72.5379C224.473 72.5521 224.46 72.5615 224.442 72.5662C224.424 72.5709 224.402 72.5803 224.375 72.5803C224.348 72.5803 224.317 72.5803 224.277 72.5803C224.232 72.5803 224.197 72.5804 224.174 72.5709C224.152 72.5615 224.13 72.5568 224.121 72.5474C224.112 72.5379 224.107 72.5238 224.107 72.505C224.107 72.4861 224.121 72.4673 224.134 72.4437L224.567 71.7181H224.572Z" fill="var(--fill-0, white)"/>
<path id="Vector_29" d="M227.978 75.1624C227.978 75.3085 227.951 75.4357 227.902 75.5488C227.853 75.6619 227.781 75.7561 227.688 75.8362C227.594 75.9163 227.482 75.9728 227.353 76.0105C227.223 76.0482 227.08 76.0718 226.929 76.0718C226.835 76.0718 226.741 76.0624 226.656 76.0482C226.571 76.0341 226.491 76.0105 226.424 75.987C226.357 75.9634 226.299 75.9398 226.25 75.9116C226.201 75.888 226.17 75.8598 226.147 75.8409C226.125 75.8221 226.112 75.7891 226.098 75.7514C226.089 75.7137 226.085 75.6619 226.085 75.5959C226.085 75.5582 226.085 75.5205 226.089 75.4969C226.089 75.4687 226.098 75.4498 226.103 75.431C226.107 75.4121 226.116 75.4027 226.13 75.3933C226.143 75.3839 226.152 75.3839 226.165 75.3839C226.188 75.3839 226.219 75.398 226.263 75.4263C226.308 75.4545 226.357 75.4875 226.42 75.5205C226.482 75.5535 226.558 75.5865 226.643 75.6147C226.728 75.643 226.826 75.6571 226.938 75.6571C227.022 75.6571 227.098 75.6477 227.165 75.6289C227.232 75.61 227.29 75.5818 227.339 75.5441C227.388 75.5064 227.429 75.4592 227.455 75.4027C227.482 75.3462 227.496 75.2802 227.496 75.2001C227.496 75.12 227.478 75.054 227.438 74.9975C227.397 74.9409 227.348 74.8938 227.286 74.8514C227.223 74.809 227.152 74.7713 227.071 74.7383C226.991 74.7054 226.911 74.6724 226.826 74.6347C226.741 74.597 226.661 74.5593 226.58 74.5122C226.5 74.4651 226.429 74.4132 226.366 74.3473C226.304 74.2813 226.25 74.2059 226.214 74.1164C226.174 74.0269 226.156 73.9185 226.156 73.7913C226.156 73.6782 226.174 73.5745 226.219 73.4709C226.259 73.3672 226.321 73.2777 226.402 73.2023C226.482 73.1269 226.585 73.0657 226.705 73.0185C226.826 72.9714 226.969 72.9479 227.134 72.9479C227.205 72.9479 227.277 72.9526 227.348 72.9667C227.42 72.9808 227.482 72.995 227.54 73.0138C227.598 73.0327 227.647 73.0515 227.688 73.0751C227.728 73.0986 227.759 73.1175 227.781 73.1316C227.804 73.1505 227.817 73.1646 227.821 73.174C227.83 73.1882 227.835 73.2023 227.835 73.2164C227.835 73.2306 227.839 73.2541 227.844 73.273C227.844 73.2965 227.844 73.3248 227.844 73.3578C227.844 73.3955 227.844 73.4238 227.844 73.452C227.844 73.4756 227.835 73.4991 227.83 73.518C227.821 73.5368 227.813 73.5463 227.804 73.5557C227.795 73.5651 227.781 73.5651 227.772 73.5651C227.754 73.5651 227.728 73.5557 227.696 73.5321C227.661 73.5086 227.621 73.485 227.567 73.4567C227.513 73.4332 227.451 73.4049 227.379 73.3814C227.308 73.3578 227.223 73.3484 227.13 73.3484C227.045 73.3484 226.973 73.3578 226.911 73.3766C226.848 73.3955 226.795 73.4238 226.755 73.4615C226.714 73.4991 226.683 73.5416 226.661 73.5934C226.638 73.6452 226.63 73.697 226.63 73.7583C226.63 73.8384 226.647 73.9091 226.688 73.9656C226.728 74.0222 226.777 74.0693 226.844 74.1117C226.906 74.1541 226.978 74.1918 227.063 74.2248C227.143 74.2577 227.228 74.2954 227.313 74.3284C227.397 74.3661 227.482 74.4038 227.563 74.4462C227.643 74.4886 227.719 74.5452 227.781 74.6064C227.844 74.6677 227.897 74.7431 227.933 74.8326C227.973 74.9221 227.991 75.0258 227.991 75.1483L227.978 75.1624Z" fill="var(--fill-0, white)"/>
<path id="Vector_30" d="M74.9673 75.9728V73.9326H73.7575V75.9728H72.9272V71.36H73.7575V73.1835H74.9673V71.36H75.7976V75.9728H74.9673Z" fill="var(--fill-0, white)"/>
<path id="Vector_31" d="M78.1592 76.0529C77.7931 76.0529 77.503 75.9917 77.2887 75.8692C77.0744 75.7467 76.9181 75.5535 76.8244 75.2896C76.7307 75.0258 76.6815 74.6771 76.6815 74.2342V71.3647H77.5119V74.3096C77.5119 74.5028 77.5253 74.6677 77.5565 74.809C77.5878 74.9504 77.6458 75.0682 77.7351 75.1577C77.8244 75.2472 77.9538 75.2943 78.119 75.2943C78.2619 75.2943 78.3735 75.2661 78.4628 75.2142C78.552 75.1624 78.619 75.0682 78.6637 74.9315C78.7083 74.7949 78.7306 74.6017 78.7306 74.3567V71.3694H79.561V74.4038C79.561 74.9692 79.4449 75.3886 79.2172 75.6571C78.9851 75.9257 78.6369 76.0576 78.1637 76.0576L78.1592 76.0529Z" fill="var(--fill-0, white)"/>
<path id="Vector_32" d="M83.5921 75.9728V72.3071L82.7618 75.9728H81.9582L81.1904 72.3071V75.9728H80.4404V71.36H81.6547L82.3734 74.531L83.1323 71.36H84.3376V75.9728H83.5877H83.5921Z" fill="var(--fill-0, white)"/>
<path id="Vector_33" d="M85.8376 75.0587L85.6323 75.9728H84.7751L86.0251 71.36H86.9269L88.1679 75.9728H87.3063L87.1054 75.0587H85.8421H85.8376ZM86.476 72.2175L86.0073 74.3049H86.9358L86.476 72.2175Z" fill="var(--fill-0, white)"/>
<path id="Vector_34" d="M88.5965 75.9728V71.36H89.4268V75.9728H88.5965Z" fill="var(--fill-0, white)"/>
<path id="Vector_35" d="M92.3911 75.9728L91.0429 72.9526H91.0384L91.0786 75.9728H90.3197V71.36H91.1679L92.4268 74.2625H92.4312V71.36H93.2035V75.9728H92.3911Z" fill="var(--fill-0, white)"/>
<path id="Vector_36" d="M94.9223 72.0903V73.1787H96.2437V73.9091H94.9223V75.2425H96.458V75.9728H94.0919V71.36H96.3821V72.0903H94.9223Z" fill="var(--fill-0, white)"/>
<path id="Vector_37" d="M97.3017 77L97.1365 76.656C97.2927 76.6042 97.4133 76.5194 97.4981 76.4016C97.5829 76.2885 97.6231 76.1425 97.6231 75.9728H97.2615V75.1059H98.0383V75.9116C98.0383 76.1896 97.9758 76.411 97.8552 76.5854C97.7347 76.7597 97.5472 76.8963 97.3017 77Z" fill="var(--fill-0, white)"/>
<path id="Vector_38" d="M103.328 72.6275L102.494 72.8206C102.431 72.3071 102.252 72.0479 101.953 72.0479C101.77 72.0479 101.632 72.1186 101.547 72.2599C101.458 72.4013 101.404 72.5803 101.382 72.7924C101.36 73.0044 101.346 73.2824 101.346 73.6311C101.346 73.9797 101.355 74.2624 101.377 74.4886C101.4 74.7148 101.453 74.9033 101.543 75.0587C101.632 75.2142 101.77 75.2896 101.958 75.2896C102.293 75.2896 102.489 74.9692 102.552 74.3237L103.364 74.6017C103.239 75.5676 102.775 76.0529 101.971 76.0529C101.476 76.0529 101.105 75.8597 100.855 75.4734C100.605 75.087 100.48 74.5028 100.48 73.7206C100.48 73.2306 100.516 72.8112 100.592 72.4578C100.668 72.1045 100.815 71.8265 101.034 71.6097C101.253 71.393 101.565 71.2846 101.962 71.2846C102.36 71.2846 102.645 71.393 102.869 71.6003C103.092 71.8076 103.244 72.1516 103.328 72.6275Z" fill="var(--fill-0, white)"/>
<path id="Vector_39" d="M107.007 73.73C107.007 74.2106 106.958 74.6205 106.864 74.9598C106.77 75.299 106.605 75.5676 106.368 75.7608C106.132 75.954 105.819 76.0482 105.418 76.0482C104.993 76.0482 104.668 75.9351 104.431 75.709C104.194 75.4828 104.038 75.1907 103.953 74.8326C103.869 74.4745 103.828 74.0693 103.828 73.6075C103.828 72.0573 104.355 71.2846 105.409 71.2846C105.949 71.2846 106.351 71.4825 106.614 71.8783C106.877 72.2741 107.007 72.8913 107.007 73.73ZM104.69 73.6075C104.69 74.0269 104.712 74.3567 104.761 74.6017C104.81 74.8467 104.886 75.021 104.993 75.1294C105.101 75.2378 105.243 75.2896 105.422 75.2896C105.627 75.2896 105.784 75.2237 105.886 75.087C105.989 74.9504 106.06 74.7666 106.092 74.5263C106.123 74.2907 106.141 73.9703 106.141 73.5745C106.141 73.0798 106.087 72.7029 105.976 72.439C105.864 72.1751 105.677 72.0432 105.409 72.0432C105.203 72.0432 105.047 72.1233 104.94 72.2788C104.833 72.4343 104.766 72.6227 104.735 72.8489C104.703 73.0704 104.685 73.3248 104.685 73.6122L104.69 73.6075Z" fill="var(--fill-0, white)"/>
<path id="Vector_40" d="M109.815 75.9728L108.467 72.9526H108.462L108.502 75.9728H107.743V71.36H108.592L109.851 74.2625H109.855V71.36H110.627V75.9728H109.815Z" fill="var(--fill-0, white)"/>
<path id="Vector_41" d="M112.725 72.0055C112.596 72.0055 112.489 72.0479 112.404 72.128C112.319 72.2081 112.275 72.3212 112.275 72.4531C112.275 72.5474 112.292 72.6275 112.328 72.6981C112.364 72.7688 112.431 72.8442 112.538 72.9243C112.645 73.0044 112.801 73.0986 113.007 73.1976C113.324 73.3531 113.565 73.5039 113.739 73.6499C113.909 73.796 114.029 73.9468 114.096 74.1023C114.163 74.2577 114.194 74.4462 114.194 74.6582C114.194 74.9268 114.136 75.1671 114.02 75.3744C113.904 75.5865 113.739 75.7467 113.529 75.8645C113.315 75.9823 113.065 76.0435 112.775 76.0435C112.324 76.0435 111.976 75.9116 111.734 75.6524C111.493 75.3886 111.359 74.9975 111.342 74.4745L112.181 74.3944C112.19 74.6253 112.221 74.8043 112.27 74.9362C112.319 75.0682 112.391 75.1624 112.48 75.2189C112.569 75.2755 112.681 75.3038 112.81 75.3038C112.931 75.3038 113.034 75.2755 113.118 75.2237C113.203 75.1671 113.27 75.0964 113.315 75.0116C113.359 74.9221 113.382 74.8279 113.382 74.7242C113.382 74.6205 113.355 74.5216 113.306 74.4321C113.257 74.3426 113.167 74.253 113.038 74.1635C112.909 74.0693 112.725 73.9703 112.489 73.8619C112.127 73.6923 111.864 73.5039 111.703 73.2918C111.542 73.0798 111.462 72.8254 111.462 72.5332C111.462 72.2882 111.516 72.0715 111.623 71.883C111.73 71.6945 111.882 71.5438 112.074 71.4401C112.266 71.3364 112.493 71.2799 112.752 71.2799C113.181 71.2799 113.502 71.3977 113.712 71.6333C113.922 71.8689 114.047 72.2081 114.087 72.6557L113.257 72.7029C113.221 72.2364 113.047 72.0008 112.734 72.0008L112.725 72.0055Z" fill="var(--fill-0, white)"/>
<path id="Vector_42" d="M116.257 72.0809V75.9728H115.426V72.0809H114.417V71.36H117.252V72.0809H116.252H116.257Z" fill="var(--fill-0, white)"/>
<path id="Vector_43" d="M120.618 72.6746C120.618 72.9809 120.547 73.24 120.408 73.452C120.266 73.6641 120.051 73.8196 119.766 73.9185C119.837 73.9421 119.899 73.975 119.962 74.0222C120.024 74.0693 120.091 74.1494 120.167 74.2625C120.243 74.3755 120.324 74.5357 120.408 74.7478L120.962 75.9823H120.024L119.52 74.8797C119.399 74.6206 119.306 74.4368 119.234 74.3237C119.163 74.2106 119.105 74.14 119.047 74.107C118.989 74.074 118.917 74.0598 118.828 74.0598H118.641V75.9823H117.81V71.3694H119.221C119.703 71.3694 120.056 71.4825 120.283 71.704C120.507 71.9301 120.618 72.2552 120.618 72.6793V72.6746ZM119.774 72.717C119.774 72.5003 119.716 72.3495 119.596 72.2552C119.475 72.161 119.297 72.1139 119.065 72.1139H118.641V73.3531H118.993C119.266 73.3531 119.462 73.3013 119.587 73.1929C119.712 73.0845 119.774 72.929 119.774 72.717Z" fill="var(--fill-0, white)"/>
<path id="Vector_44" d="M122.85 76.0529C122.484 76.0529 122.194 75.9917 121.98 75.8692C121.765 75.7467 121.609 75.5535 121.515 75.2896C121.422 75.0258 121.373 74.6771 121.373 74.2342V71.3647H122.203V74.3096C122.203 74.5028 122.216 74.6677 122.248 74.809C122.279 74.9504 122.337 75.0682 122.426 75.1577C122.515 75.2472 122.645 75.2943 122.81 75.2943C122.953 75.2943 123.065 75.2661 123.154 75.2142C123.243 75.1624 123.306 75.0682 123.355 74.9315C123.399 74.7949 123.422 74.6017 123.422 74.3567V71.3694H124.252V74.4038C124.252 74.9692 124.136 75.3886 123.908 75.6571C123.676 75.9257 123.328 76.0576 122.855 76.0576L122.85 76.0529Z" fill="var(--fill-0, white)"/>
<path id="Vector_45" d="M127.828 72.6275L126.993 72.8206C126.931 72.3071 126.752 72.0479 126.453 72.0479C126.27 72.0479 126.131 72.1186 126.047 72.2599C125.957 72.4013 125.904 72.5803 125.881 72.7924C125.859 73.0044 125.846 73.2824 125.846 73.6311C125.846 73.9797 125.855 74.2624 125.877 74.4886C125.899 74.7148 125.953 74.9033 126.042 75.0587C126.131 75.2142 126.27 75.2896 126.457 75.2896C126.792 75.2896 126.989 74.9692 127.051 74.3237L127.864 74.6017C127.739 75.5676 127.274 76.0529 126.471 76.0529C125.975 76.0529 125.605 75.8597 125.355 75.4734C125.105 75.087 124.98 74.5028 124.98 73.7206C124.98 73.2306 125.015 72.8112 125.091 72.4578C125.167 72.1045 125.315 71.8265 125.533 71.6097C125.752 71.393 126.065 71.2846 126.462 71.2846C126.859 71.2846 127.145 71.393 127.368 71.6003C127.591 71.8076 127.743 72.1516 127.828 72.6275Z" fill="var(--fill-0, white)"/>
<path id="Vector_46" d="M129.841 72.0809V75.9728H129.011V72.0809H128.002V71.36H130.841V72.0809H129.841Z" fill="var(--fill-0, white)"/>
<path id="Vector_47" d="M131.395 75.9728V71.36H132.225V75.9728H131.395Z" fill="var(--fill-0, white)"/>
<path id="Vector_48" d="M133.935 75.9728L132.698 71.36H133.6L134.127 73.4615C134.221 73.8243 134.283 74.1117 134.323 74.3143C134.363 74.5216 134.39 74.6865 134.399 74.8137C134.471 74.4556 134.56 74.0504 134.667 73.5934L135.207 71.36H136.087L134.814 75.9728H133.935Z" fill="var(--fill-0, white)"/>
<path id="Vector_49" d="M137.354 72.0903V73.1787H138.676V73.9091H137.354V75.2425H138.895V75.9728H136.529V71.36H138.819V72.0903H137.359H137.354Z" fill="var(--fill-0, white)"/>
<path id="Vector_50" d="M141.944 72.0903V73.1787H143.265V73.9091H141.944V75.2425H143.484V75.9728H141.118V71.36H143.408V72.0903H141.948H141.944Z" fill="var(--fill-0, white)"/>
<path id="Vector_51" d="M145.68 72.0809V75.9728H144.85V72.0809H143.841V71.36H146.68V72.0809H145.68Z" fill="var(--fill-0, white)"/>
<path id="Vector_52" d="M149.591 72.0903V73.1787H150.912V73.9091H149.591V75.2425H151.131V75.9728H148.765V71.36H151.055V72.0903H149.595H149.591Z" fill="var(--fill-0, white)"/>
<path id="Vector_53" d="M153.899 75.9728L152.551 72.9526H152.546L152.586 75.9728H151.827V71.36H152.676L153.935 74.2625H153.939V71.36H154.711V75.9728H153.899Z" fill="var(--fill-0, white)"/>
<path id="Vector_54" d="M158.501 72.6086L157.676 72.7924C157.591 72.2929 157.381 72.0432 157.042 72.0432C156.823 72.0432 156.662 72.1139 156.555 72.2552C156.448 72.3966 156.376 72.5756 156.35 72.7924C156.318 73.0091 156.305 73.2777 156.305 73.6028C156.305 74.0363 156.327 74.3755 156.376 74.6158C156.426 74.8561 156.506 75.0305 156.622 75.1341C156.738 75.2378 156.903 75.2943 157.113 75.2943C157.345 75.2943 157.555 75.2095 157.738 75.0399V74.2672H157.082V73.5368H158.564V75.4781C158.376 75.6289 158.202 75.7467 158.042 75.8268C157.876 75.9069 157.716 75.9634 157.559 75.9964C157.399 76.0294 157.225 76.0435 157.028 76.0435C156.51 76.0435 156.118 75.855 155.845 75.4828C155.573 75.1106 155.439 74.5263 155.439 73.7347C155.439 73.1505 155.501 72.6793 155.626 72.3165C155.751 71.9537 155.934 71.6898 156.18 71.5249C156.421 71.36 156.725 71.2752 157.091 71.2752C157.367 71.2752 157.6 71.3223 157.792 71.4118C157.984 71.5013 158.135 71.6427 158.256 71.8406C158.372 72.0338 158.452 72.2882 158.497 72.6039L158.501 72.6086Z" fill="var(--fill-0, white)"/>
<path id="Vector_55" d="M159.961 75.0587L159.756 75.9728H158.899L160.149 71.36H161.05L162.292 75.9728H161.43L161.229 75.0587H159.966H159.961ZM160.6 72.2175L160.131 74.3049H161.059L160.595 72.2175H160.6Z" fill="var(--fill-0, white)"/>
<path id="Vector_56" d="M165.541 72.6086L164.716 72.7924C164.631 72.2929 164.421 72.0432 164.082 72.0432C163.863 72.0432 163.702 72.1139 163.595 72.2552C163.488 72.3966 163.416 72.5756 163.39 72.7924C163.358 73.0091 163.345 73.2777 163.345 73.6028C163.345 74.0363 163.367 74.3755 163.416 74.6158C163.466 74.8561 163.546 75.0305 163.662 75.1341C163.778 75.2378 163.943 75.2943 164.153 75.2943C164.385 75.2943 164.595 75.2095 164.778 75.0399V74.2672H164.122V73.5368H165.604V75.4781C165.416 75.6289 165.242 75.7467 165.082 75.8268C164.916 75.9069 164.756 75.9634 164.599 75.9964C164.439 76.0294 164.265 76.0435 164.068 76.0435C163.55 76.0435 163.158 75.855 162.885 75.4828C162.613 75.1106 162.479 74.5263 162.479 73.7347C162.479 73.1505 162.541 72.6793 162.666 72.3165C162.791 71.9537 162.975 71.6898 163.22 71.5249C163.461 71.36 163.765 71.2752 164.131 71.2752C164.408 71.2752 164.64 71.3223 164.832 71.4118C165.024 71.5013 165.175 71.6427 165.296 71.8406C165.412 72.0338 165.492 72.2882 165.537 72.6039L165.541 72.6086Z" fill="var(--fill-0, white)"/>
<path id="Vector_57" d="M167.229 72.0903V73.1787H168.55V73.9091H167.229V75.2425H168.769V75.9728H166.403V71.36H168.693V72.0903H167.233H167.229ZM167.171 71.1385L167.461 70.2103H168.354L167.666 71.1385H167.171Z" fill="var(--fill-0, white)"/>
<path id="Vector_58" d="M170.296 72.0903V73.1787H171.617V73.9091H170.296V75.2425H171.836V75.9728H169.47V71.36H171.76V72.0903H170.3H170.296Z" fill="var(--fill-0, white)"/>
<path id="Vector_59" d="M75.4851 53.3091V43.2542H81.6457V45.5535H78.4226V46.8964H81.6457V49.0733H78.4226V51.0145H81.6457V53.3139H75.4851V53.3091Z" fill="var(--fill-0, white)"/>
<path id="Vector_60" d="M87.2438 45.775V53.3091H84.3064V45.775H82.4404V43.2542H89.1099V45.775H87.2438Z" fill="var(--fill-0, white)"/>
<path id="Vector_61" d="M87.2126 39.2445C79.1145 39.2445 71.3066 36.0404 71.3066 27.3943C71.3066 18.1828 80.4449 15.5442 87.2126 15.5442C92.0205 15.5442 96.0383 16.2462 99.9579 18.1168L98.757 22.8899C95.5964 21.3868 91.7036 20.4868 87.7528 20.4868C81.2395 20.4868 77.5074 23.0218 77.5074 27.4273C77.5074 31.8328 81.427 34.3018 87.7528 34.3348C92.3062 34.3348 95.5964 33.3312 98.7883 31.9648L99.9891 36.6718C96.1633 38.3398 92.4312 39.2445 87.2126 39.2445Z" fill="var(--fill-0, white)"/>
<path id="Vector_62" d="M109.601 39.2445C103.623 39.2445 101.44 33.6374 101.44 27.3943C101.44 21.1512 103.685 15.5442 109.601 15.5442C115.516 15.5442 117.761 21.0193 117.761 27.3943C117.761 33.7694 115.484 39.2445 109.601 39.2445ZM109.601 20.1853C107.386 20.1853 106.851 23.0877 106.851 27.3943C106.851 31.7009 107.418 34.6034 109.601 34.6034C111.784 34.6034 112.35 31.7009 112.35 27.3943C112.35 22.7862 111.748 20.1853 109.601 20.1853Z" fill="var(--fill-0, white)"/>
<path id="Vector_63" d="M134.457 38.6461V27.8325L130.533 32.1721H130.122L126.297 27.9315V38.6461H120.891V15.8787H121.681L130.377 25.1609L139.073 15.8787H139.863V38.6461H134.457Z" fill="var(--fill-0, white)"/>
<path id="Vector_64" d="M157.604 38.6461V27.8325L153.68 32.1721H153.269L149.444 27.9315V38.6461H144.037V15.8787H144.828L153.524 25.1609L162.22 15.8787H163.01V38.6461H157.604Z" fill="var(--fill-0, white)"/>
<path id="Vector_65" d="M167.184 38.6461V16.1473H179.992V20.7224H172.59V24.3929H179.992V28.7325H172.59V34.0709H179.992V38.6461H167.184Z" fill="var(--fill-0, white)"/>
<path id="Vector_66" d="M193.684 38.6461L190.045 30.1696H188.876V38.6461H183.47V16.1473H191.501C195.929 16.1473 198.84 18.5503 198.84 22.9228C198.84 25.8583 197.099 28.1294 194.889 28.9633L199.697 38.6414H193.688L193.684 38.6461ZM190.586 20.6188H188.876V25.8583H190.014C192.228 25.8583 193.429 24.9913 193.429 23.0878C193.429 21.4528 192.291 20.6188 190.581 20.6188H190.586Z" fill="var(--fill-0, white)"/>
<path id="Vector_67" d="M210.634 38.8769C203.835 38.8769 200.389 33.6374 200.389 27.0928C200.389 20.0816 204.375 15.9117 210.889 15.9117C211.616 15.9117 212.344 15.9447 213.197 16.0436L212.88 20.7837C212.532 20.7507 212.152 20.7507 211.866 20.7507C207.692 20.7507 205.951 23.4223 205.951 27.0928C205.951 30.7632 207.88 34.0662 211.768 34.0662C212.116 34.0662 212.433 34.0662 212.782 34.0332L213.036 38.7733C212.246 38.8063 211.424 38.8722 210.634 38.8722V38.8769Z" fill="var(--fill-0, white)"/>
<path id="Vector_68" d="M215.978 38.6461V16.1473H228.786V20.7224H221.384V24.3929H228.786V28.7325H221.384V34.0709H228.786V38.6461H215.978Z" fill="var(--fill-0, white)"/>
<path id="Vector_69" d="M105.895 66.9074C101.342 66.9074 97.007 66.4409 93.15 65.0368L94.4446 60.2967C97.5427 61.4652 101.467 62.2003 105.927 62.2003C111.712 62.2003 114.056 61.3333 114.056 59.7973C114.056 58.2612 111.971 57.8607 106.243 57.3943C97.6097 56.6922 93.2482 55.2598 93.2482 50.2512C93.2482 45.6101 98.5293 43.2071 107.449 43.2071C111.752 43.2071 116.306 43.6406 119.404 44.9787L118.141 49.7188C115.199 48.4843 111.498 47.9141 107.418 47.9141C102.261 47.9141 99.3865 48.4466 99.3865 49.8177C99.3865 51.1888 101.159 51.6553 106.565 52.0888C115.328 52.7579 120.1 53.7897 120.1 59.034C120.1 64.8106 114.346 66.9121 105.9 66.9121L105.895 66.9074Z" fill="var(--fill-0, white)"/>
<path id="Vector_70" d="M123.444 66.3042V43.8055H136.252V48.3806H128.85V52.0511H136.252V56.3906H128.85V61.7291H136.252V66.3042H123.444Z" fill="var(--fill-0, white)"/>
<path id="Vector_71" d="M149.948 66.3042L146.31 57.8277H145.14V66.3042H139.734V43.8055H147.765C152.193 43.8055 155.104 46.2085 155.104 50.581C155.104 53.5165 153.363 55.7875 151.153 56.6215L155.961 66.2995H149.952L149.948 66.3042ZM146.845 48.2817H145.136V53.5212H146.274C148.488 53.5212 149.689 52.6542 149.689 50.7506C149.689 49.1157 148.551 48.2817 146.841 48.2817H146.845Z" fill="var(--fill-0, white)"/>
<path id="Vector_72" d="M168.256 66.5069H162.341L156.649 43.8102H162.247L165.345 58.5298L168.537 43.8102H173.943L168.251 66.5069H168.256Z" fill="var(--fill-0, white)"/>
<path id="Vector_73" d="M176.635 66.3042V43.8055H182.041V66.3042H176.635Z" fill="var(--fill-0, white)"/>
<path id="Vector_74" d="M195.452 66.5398C188.653 66.5398 185.206 61.3003 185.206 54.7557C185.206 47.7445 189.188 43.5746 195.706 43.5746C196.434 43.5746 197.161 43.6076 198.014 43.7065L197.697 48.4466C197.349 48.4136 196.969 48.4136 196.684 48.4136C192.51 48.4136 190.769 51.0852 190.769 54.7557C190.769 58.4261 192.697 61.7291 196.585 61.7291C196.934 61.7291 197.251 61.7291 197.599 61.6961L197.853 66.4362C197.063 66.4692 196.242 66.5351 195.452 66.5351V66.5398Z" fill="var(--fill-0, white)"/>
<path id="Vector_75" d="M200.795 66.3042V43.8055H213.603V48.3806H206.201V52.0511H213.603V56.3906H206.201V61.7291H213.603V66.3042H200.795Z" fill="var(--fill-0, white)"/>
<path id="Vector_76" d="M218.755 66.5398C217.902 66.5398 217.045 66.5069 216.098 66.4409L216.322 61.5359C217.237 61.7008 218.375 61.8375 219.232 61.8375C222.491 61.8375 223.567 60.9375 223.567 59.8679C223.567 58.7984 222.714 58.0633 220.375 56.631C217.875 55.1609 215.978 53.295 215.978 50.2229C215.978 46.2839 219.143 43.5793 225.246 43.5793C226.259 43.5793 227.268 43.6453 228.313 43.7772L228.089 48.5832C227.138 48.4183 226.067 48.3147 225.022 48.3147C222.304 48.3147 221.415 48.8801 221.415 49.747C221.415 50.7836 222.429 51.349 224.42 52.5835C227.138 54.1855 229.004 55.9854 229.004 59.3261C229.004 64.0332 225.018 66.5351 218.759 66.5351L218.755 66.5398Z" fill="var(--fill-0, white)"/>
<path id="Vector_77" d="M38.285 12.604C38.285 12.9339 38.2894 13.2024 38.285 13.471C38.2671 14.3568 38.2537 15.2473 38.2225 16.1332C38.218 16.2462 38.1377 16.4017 38.0484 16.4536C36.0395 17.575 34.0261 18.6822 32.0128 19.7895C31.8208 19.8979 31.7226 20.0157 31.7271 20.2654C31.7405 21.5281 31.7315 22.7909 31.7315 24.0961C33.8029 22.9275 35.8431 21.7826 37.9144 20.6094C37.9278 20.7271 37.9457 20.7978 37.9412 20.8685C37.8743 22.7202 37.8028 24.5767 37.7403 26.4284C37.7359 26.6075 37.6689 26.6876 37.5305 26.7677C34.8163 28.2896 32.1065 29.8162 29.3967 31.3428C28.5486 31.8187 27.7004 32.2993 26.8522 32.7752C26.7763 32.8176 26.7048 32.8553 26.5754 32.9212C26.5709 32.7846 26.5575 32.6809 26.5575 32.582C26.5709 30.7585 26.5888 28.9351 26.6022 27.1069C26.6289 23.9547 26.6557 20.8072 26.6781 17.6551C26.6825 16.887 26.6959 16.119 26.7048 15.351C26.7093 14.828 26.7138 14.3003 26.7093 13.7773L26.6334 13.5558L26.5932 13.5087C26.8566 13.3108 26.7048 13.0187 26.7093 12.7831C26.745 11.6381 26.7406 10.4884 26.7673 9.34347C26.7673 9.2351 26.8611 9.08903 26.9504 9.03721C28.2003 8.32101 29.4548 7.61425 30.7092 6.90748C32.611 5.83319 34.5127 4.7589 36.4145 3.68462C37.1198 3.28883 37.8252 2.89304 38.5573 2.4784L38.5751 2.66687C38.5528 4.42908 38.5216 6.196 38.5216 7.95821C38.5216 8.27861 38.41 8.42938 38.16 8.57074C36.1823 9.66858 34.2181 10.7853 32.2449 11.8878C32.0753 11.9821 32.0128 12.0857 32.0172 12.2789C32.0351 12.8585 32.0396 13.438 32.0485 14.0176C32.0529 14.6207 32.0485 15.2238 32.0485 15.907C32.1869 15.8787 32.3699 15.8834 32.5128 15.8033C34.3252 14.8044 36.1288 13.7961 37.9368 12.7878C38.035 12.7312 38.1377 12.6841 38.285 12.6087" fill="var(--fill-0, white)"/>
<path id="Vector_78" d="M45.9902 36.3232C45.9902 37.0158 45.9991 37.6707 45.9902 38.3257C45.95 41.0067 45.9098 43.6877 45.8652 46.3687C45.8563 46.9577 45.8563 47.5466 45.8295 48.1356C45.8295 48.2487 45.7446 48.4042 45.6554 48.456C43.7581 49.5397 41.8653 50.6376 39.9501 51.6836C39.2671 52.0558 38.4903 52.282 37.7359 51.9851C37.1645 51.759 36.6154 51.4103 36.1198 51.0239C34.7002 49.9308 33.7717 48.4277 33.1422 46.7174C32.361 44.5876 31.9503 42.3731 32.0574 40.0879C32.1065 39.0701 32.2583 38.0477 32.4592 37.0488C32.8208 35.2677 33.4458 33.5903 34.4413 32.0825C35.2449 30.8622 36.2448 29.8774 37.5037 29.1801C40.0215 27.7854 42.526 26.3577 45.0348 24.9489C45.1331 24.8924 45.2313 24.8452 45.3563 24.784L45.3964 24.9348C45.4143 26.8902 45.4232 28.8408 45.45 30.7962C45.45 31.0271 45.392 31.1496 45.1956 31.258C43.4233 32.2475 41.6376 33.2275 39.8832 34.2594C38.2448 35.2206 37.2805 36.7142 36.9323 38.6649C36.6288 40.3753 36.6064 42.0762 37.0529 43.7584C37.2314 44.4321 37.4145 45.1201 37.9234 45.6336C38.4189 46.1378 39.0528 46.2179 39.6555 45.8457C39.9858 45.6384 40.3162 45.431 40.6599 45.2379C40.8519 45.1295 40.9144 44.9976 40.9144 44.7667C40.9322 42.9526 40.9724 41.1386 40.9903 39.3246C40.9903 39.0701 41.084 38.9429 41.2938 38.8298C42.7938 38.0335 44.2849 37.2231 45.7759 36.4221C45.8384 36.3891 45.9098 36.3703 45.9991 36.3373" fill="var(--fill-0, white)"/>
<path id="Vector_79" d="M13.9462 40.1915C13.9462 39.4235 13.9372 38.679 13.9462 37.9346C13.9953 35.1923 14.0533 32.4548 14.1024 29.7125C14.1515 26.9703 14.1828 24.2233 14.2274 21.481C14.2453 20.3738 14.2631 19.2665 14.281 18.1592C14.2899 17.5891 14.2988 17.0143 14.2944 16.4441C14.2944 16.2557 14.3435 16.152 14.5176 16.0578C16.2809 15.073 18.0354 14.0741 19.7987 13.0799C21.7496 11.9774 23.7004 10.8701 25.6513 9.76753C25.7272 9.72513 25.8031 9.68743 25.9057 9.6356L25.937 9.84292C25.9013 11.3366 25.8611 12.8302 25.8254 14.3238C25.8165 14.6631 25.8075 15.007 25.8165 15.351C25.8165 15.5253 25.7584 15.6196 25.6156 15.6997C23.7317 16.7457 21.8523 17.8106 19.955 18.833C19.5219 19.0686 19.3478 19.323 19.3657 19.846C19.4059 20.9203 19.3657 21.9993 19.3657 23.0736C19.3657 23.182 19.3746 23.2856 19.3791 23.427C21.5085 22.2585 23.571 21.024 25.7093 19.8272V20.7743C25.7093 21.481 25.7004 22.1831 25.7093 22.8899C25.7093 23.0595 25.6602 23.1537 25.5129 23.2385C23.5576 24.3364 21.6067 25.4484 19.6514 26.5462C19.3969 26.6876 19.2853 26.8478 19.2764 27.1823C19.2228 29.6371 19.138 32.0873 19.0666 34.5374C19.0398 35.3949 19.0264 36.2525 18.9952 37.11C18.9952 37.2184 18.9193 37.3645 18.8389 37.4116C17.2452 38.3398 15.647 39.2539 14.0444 40.168L13.9462 40.1915Z" fill="var(--fill-0, white)"/>
<path id="Vector_80" d="M31.803 32.6762C31.8119 32.8035 31.8208 32.8883 31.8163 32.9731C31.7851 33.7694 31.7538 34.5657 31.7226 35.362C31.6958 36.0216 31.6735 36.686 31.6556 37.3456C31.6467 37.6095 31.6512 37.8733 31.6467 38.1325C31.6467 38.3822 31.5619 38.5471 31.3253 38.6555C30.0753 39.2492 28.8834 39.9607 27.7584 40.7899C26.7406 41.5391 25.7986 42.3684 25.0754 43.4568C24.5799 44.2013 24.4236 45.0541 24.3388 45.9305C24.1379 48.0508 24.2585 50.1475 24.8477 52.1972C24.9951 52.7155 25.2093 53.1772 25.7674 53.3374C26.0843 53.4316 26.3879 53.3892 26.6691 53.229C28.3253 52.3055 29.9771 51.3773 31.6333 50.4491C31.919 50.2889 32.2137 50.1428 32.5529 49.9638V51.17C32.5529 52.6778 32.544 54.1808 32.5529 55.6886C32.5529 55.9053 32.4949 56.0231 32.3074 56.1268C30.5128 57.121 28.7227 58.1246 26.9325 59.1282C26.187 59.5428 25.4504 59.425 24.687 59.1706C22.754 58.5204 21.6603 56.989 20.8701 55.1467C20.2318 53.6672 19.8746 52.0982 19.7318 50.4915C19.6202 49.2523 19.5443 48.0084 19.5577 46.7692C19.5755 44.941 19.9907 43.1835 20.6826 41.5108C21.4505 39.6591 22.5888 38.1042 24.1781 36.9734C25.004 36.3844 25.9013 35.9038 26.7807 35.4091C28.3164 34.5421 29.8655 33.7034 31.4146 32.8553C31.5262 32.794 31.6512 32.7469 31.7985 32.6809" fill="var(--fill-0, white)"/>
<path id="Vector_81" d="M12.1873 17.542C12.1873 18.2629 12.2007 18.9649 12.1873 19.6623C12.1605 20.779 12.1024 21.8957 12.0757 23.0076C12.0712 23.2527 11.9908 23.3705 11.781 23.4741C9.91499 24.4023 8.12038 25.4625 6.60701 26.9655C6.17845 27.3896 5.81239 27.8938 5.45525 28.3932C5.04901 28.9633 4.8883 29.6513 4.83919 30.3486C4.76776 31.3711 4.70973 32.3982 4.72759 33.4207C4.74991 34.7541 4.98205 36.064 5.40168 37.3268C5.6606 38.1042 6.4463 38.4105 7.17397 37.9911C8.79894 37.0535 10.4507 36.1724 12.0935 35.2724C12.3837 35.1122 12.6694 34.952 12.9864 34.7777C12.9953 34.8908 13.0042 34.952 13.0042 35.018C13.0042 36.865 12.9953 38.7073 13.0042 40.5543C13.0042 40.7569 12.9373 40.8512 12.7765 40.9407C10.9909 41.9349 9.20964 42.9338 7.42843 43.928C6.64719 44.3615 5.87489 44.2437 5.07133 43.9657C3.26779 43.3437 2.20978 41.9349 1.43747 40.2245C0.781235 38.7686 0.406242 37.2231 0.241067 35.6258C0.102677 34.4479 0.0089284 33.2652 0 32.0825C-0.0133926 30.0518 0.39285 28.1011 1.17408 26.2399C1.933 24.4353 3.03566 22.9087 4.60259 21.8297C5.64275 21.1135 6.74987 20.5104 7.8436 19.8884C9.19625 19.1251 10.5668 18.3948 11.9328 17.6503C12.0221 17.6032 12.1158 17.5702 12.1828 17.542" fill="var(--fill-0, white)"/>
<path id="Vector_82" d="M57.798 35.5551C57.798 36.2383 57.798 36.865 57.798 37.4917C57.7935 38.7591 57.7801 40.0266 57.7846 41.2941C57.7846 41.5061 57.7132 41.6098 57.5391 41.7087C56.2132 42.4673 54.8829 43.2212 53.5704 44.0034C52.8695 44.418 52.1642 44.4321 51.4142 44.2201C49.5615 43.7018 48.4098 42.359 47.5794 40.6344C46.8116 39.0419 46.4098 37.3362 46.2312 35.5787C46.1152 34.429 46.0036 33.2652 46.0304 32.1108C46.0929 29.623 46.6286 27.253 47.8741 25.0997C48.8607 23.3987 50.1999 22.1171 51.874 21.1983C53.74 20.1759 55.5837 19.111 57.4364 18.0697C57.6953 17.9236 57.9721 17.8011 58.2489 17.6645C58.2489 18.1451 58.2623 18.5927 58.2489 19.0356C58.1998 20.4492 58.1373 21.8627 58.0971 23.2809C58.0926 23.4977 57.9676 23.5448 57.8337 23.6108C56.4632 24.2893 55.1463 25.0667 53.9231 26.0091C53.1909 26.5745 52.5168 27.2059 51.9186 27.9315C51.2178 28.7937 50.9187 29.802 50.8294 30.914C50.7312 32.1485 50.6687 33.3877 50.8472 34.6128C50.9901 35.6023 51.2088 36.587 51.4811 37.5435C51.6954 38.3115 52.499 38.5801 53.1731 38.1937C54.6552 37.3456 56.1373 36.4975 57.6239 35.6494C57.6641 35.6258 57.7042 35.6117 57.8024 35.5646" fill="var(--fill-0, white)"/>
<path id="Vector_83" d="M59.2533 46.3404C59.2533 47.2592 59.2622 48.0979 59.2444 48.9319C59.2444 49.0308 59.1149 49.1628 59.0167 49.2193C56.9766 50.3925 54.9364 51.5611 52.8918 52.7249C45.0438 57.2011 37.2002 61.682 29.3521 66.1582C27.8655 67.0063 26.379 67.8497 24.8924 68.7025C24.7361 68.7921 24.6111 68.8109 24.446 68.7214C23.7897 68.368 23.1245 68.0382 22.4638 67.6942C22.3924 67.6565 22.3255 67.6094 22.2049 67.5293C34.5618 60.4569 46.8741 53.4128 59.2444 46.331" fill="var(--fill-0, white)"/>
<path id="Vector_84" d="M59.1462 50.435C59.1462 51.3302 59.1551 52.1453 59.1328 52.9605C59.1328 53.0453 58.9855 53.1442 58.8873 53.2055C56.9409 54.3269 54.99 55.4389 53.0391 56.5556C44.6866 61.3333 36.3341 66.1111 27.9861 70.8982C27.7405 71.0396 27.5887 71.0255 27.37 70.8558C26.7941 70.4082 26.1915 69.9983 25.562 69.5412C36.7627 63.1709 47.9276 56.8194 59.1462 50.435Z" fill="var(--fill-0, white)"/>
<path id="Vector_85" d="M43.2759 0.310978C43.459 -0.0753886 43.4634 -0.0753886 43.7625 0.160201C46.2893 2.15329 48.8205 4.14637 51.3472 6.13946C52.9811 7.42577 54.615 8.71209 56.2534 9.99841C58.3292 11.6287 60.4095 13.2637 62.4765 14.9034C62.5747 14.9835 62.6506 15.1625 62.6506 15.2945C62.6506 19.3513 62.6506 23.4082 62.6416 27.465C62.6283 32.6008 62.6104 37.732 62.5925 42.8678C62.5836 45.6336 62.5613 48.3995 62.5568 51.1653C62.5568 51.4621 62.3961 51.5234 62.155 51.6035C62.155 51.0145 62.155 50.4585 62.155 49.9025C62.1729 44.6866 62.1952 39.4753 62.2086 34.2594C62.2265 28.0257 62.2399 21.792 62.2577 15.5583C62.2577 15.3463 62.2042 15.2144 62.039 15.0871C59.5256 13.1223 57.0168 11.1481 54.5123 9.17385C51.2579 6.60592 48.0035 4.03329 44.7491 1.46537C44.2581 1.079 43.7625 0.697344 43.2759 0.31569" fill="var(--fill-0, white)"/>
</g>
<defs>
<clipPath id="clip0_0_15">
<rect width="229" height="77" fill="white"/>
</clipPath>
</defs>
</svg>
