<svg xmlns="http://www.w3.org/2000/svg" xmlns:xlink="http://www.w3.org/1999/xlink" xmlns:inkscape="http://www.inkscape.org/namespaces/inkscape" version="1.1" width="556.889" height="194.778" viewBox="0 0 556.889 194.778">
<defs>
<clipPath id="clip_1">
<path transform="matrix(1,0,0,-1,0,194.778)" d="M0 194.778H556.889V0H0Z"/>
</clipPath>
</defs>
<g inkscape:groupmode="layer" inkscape:label="Calque 1">
<path transform="matrix(1,0,0,-1,191.3631,135.4733)" d="M0 0V21.337H13.803V16.462H6.585V13.613H13.803V8.991H6.585V4.875H13.803V0Z"/>
<path transform="matrix(1,0,0,-1,217.7041,119.486)" d="M0 0V-15.987H-6.584V0H-10.764V5.35H4.179V0Z"/>
<g clip-path="url(#clip_1)">
<path transform="matrix(1,0,0,-1,217.6393,105.6328)" d="M0 0C-18.136 0-35.633 6.802-35.633 25.149-35.633 44.703-15.159 50.3 0 50.3 10.768 50.3 19.766 48.81 28.55 44.844L25.857 34.714C18.774 37.901 10.06 39.813 1.206 39.813-13.388 39.813-21.748 34.43-21.748 25.078-21.748 15.727-12.964 10.484 1.206 10.414 11.406 10.414 18.774 12.539 25.927 15.445L28.62 5.456C20.05 1.914 11.69 0 0 0"/>
<path transform="matrix(1,0,0,-1,267.7883,65.1819)" d="M0 0C-4.958 0-6.162-6.162-6.162-15.302-6.162-24.581-4.888-30.602 0-30.602 4.961-30.602 6.164-24.44 6.164-15.302 6.164-5.526 4.818 0 0 0M0-40.451C-13.388-40.451-18.276-28.55-18.276-15.302-18.276-1.982-13.247 9.849 0 9.849 13.531 9.849 18.279-1.771 18.279-15.302 18.279-28.336 13.177-40.451 0-40.451"/>
<path transform="matrix(1,0,0,-1,323.4685,104.3567)" d="M0 0V22.953L-8.786 13.742H-9.706L-18.279 22.74V0H-30.393V48.315H-28.623L-9.141 28.62 10.341 48.315H12.112V0Z"/>
<path transform="matrix(1,0,0,-1,375.3206,104.3567)" d="M0 0V22.953L-8.786 13.742H-9.706L-18.279 22.74V0H-30.393V48.315H-28.623L-9.141 28.62 10.341 48.315H12.112V0Z"/>
<path transform="matrix(1,0,0,-1,396.7794,104.3567)" d="M0 0V47.748H28.693V38.042H12.115V30.25H28.693V21.039H12.115V9.706H28.693V0Z"/>
<path transform="matrix(1,0,0,-1,449.1992,66.1013)" d="M0 0H-3.826V-11.122H-1.276C3.685-11.122 6.375-9.281 6.375-5.242 6.375-1.771 3.826 0 0 0M6.943-38.255-1.203-20.261H-3.826V-38.255H-15.94V9.492H2.055C11.971 9.492 18.49 4.391 18.49-4.888 18.49-11.122 14.594-15.94 9.635-17.711L20.404-38.255Z"/>
<path transform="matrix(1,0,0,-1,494.1111,104.8516)" d="M0 0C-15.232 0-22.953 11.12-22.953 25.005-22.953 39.883-14.026 48.737 .565 48.737 2.195 48.737 3.826 48.667 5.737 48.456L5.029 38.396C4.25 38.466 3.399 38.466 2.763 38.466-6.589 38.466-10.484 32.8-10.484 25.005-10.484 17.073-6.164 10.201 2.549 10.201 3.328 10.201 4.037 10.201 4.818 10.271L5.383 .211C3.612 .141 1.771 0 0 0"/>
<path transform="matrix(1,0,0,-1,506.0775,104.3567)" d="M0 0V47.748H28.693V38.042H12.115V30.25H28.693V21.039H12.115V9.706H28.693V0Z"/>
<path transform="matrix(1,0,0,-1,259.4913,164.3386)" d="M0 0C-10.201 0-19.906 .992-28.55 3.969L-25.646 14.029C-18.703 11.547-9.917 9.99 .07 9.99 13.034 9.99 18.276 11.831 18.276 15.091 18.276 18.419 13.602 19.198 .779 20.19-18.56 21.677-28.336 24.724-28.336 35.352-28.336 45.198-16.505 50.3 3.471 50.3 13.107 50.3 23.307 49.378 30.25 46.545L27.417 36.485C20.828 39.104 12.539 40.31 3.401 40.31-8.146 40.31-14.594 39.177-14.594 36.271-14.594 33.367-10.625 32.375 1.487 31.456 21.112 30.037 31.808 27.841 31.808 16.719 31.808 4.464 18.914 0 0 0"/>
<path transform="matrix(1,0,0,-1,298.8018,163.06259)" d="M0 0V47.748H28.693V38.042H12.115V30.25H28.693V21.039H12.115V9.706H28.693V0Z"/>
<path transform="matrix(1,0,0,-1,351.2216,124.8071)" d="M0 0H-3.826V-11.122H-1.276C3.685-11.122 6.375-9.281 6.375-5.242 6.375-1.771 3.826 0 0 0M6.943-38.255-1.203-20.261H-3.826V-38.255H-15.94V9.492H2.055C11.971 9.492 18.49 4.391 18.49-4.888 18.49-11.122 14.594-15.94 9.635-17.711L20.404-38.255Z"/>
<path transform="matrix(1,0,0,-1,399.1778,163.4871)" d="M0 0H-13.247L-25.998 48.172H-13.458L-6.516 16.93 .638 48.172H12.753Z"/>
<path transform="matrix(1,0,0,-1,0,194.778)" d="M417.946 79.463H430.061V31.714997H417.946Z"/>
<path transform="matrix(1,0,0,-1,460.0977,163.5574)" d="M0 0C-15.232 0-22.953 11.12-22.953 25.005-22.953 39.883-14.029 48.737 .565 48.737 2.195 48.737 3.826 48.667 5.737 48.456L5.029 38.396C4.25 38.466 3.399 38.466 2.763 38.466-6.589 38.466-10.484 32.8-10.484 25.005-10.484 17.073-6.164 10.201 2.55 10.201 3.328 10.201 4.037 10.201 4.818 10.271L5.383 .211C3.612 .141 1.771 0 0 0"/>
<path transform="matrix(1,0,0,-1,472.0641,163.06259)" d="M0 0V47.748H28.693V38.042H12.115V30.25H28.693V21.039H12.115V9.706H28.693V0Z"/>
<path transform="matrix(1,0,0,-1,512.299,163.5574)" d="M0 0C-1.911 0-3.826 .07-5.951 .211L-5.453 10.625C-3.401 10.271-.849 9.987 1.063 9.987 8.359 9.987 10.768 11.901 10.768 14.167 10.768 16.505 8.857 17.992 3.615 21.039-1.984 24.156-6.234 28.123-6.234 34.641-6.234 43 .852 48.737 14.524 48.737 16.789 48.737 19.057 48.597 21.396 48.313L20.899 38.112C18.774 38.466 16.365 38.677 14.026 38.677 7.935 38.677 5.951 37.474 5.951 35.633 5.951 33.435 8.219 32.232 12.682 29.61 18.774 26.211 22.953 22.386 22.953 15.3 22.953 5.313 14.026 0 0 0"/>
<path transform="matrix(1,0,0,-1,108.0347,49.090608)" d="M0 0C0-.698 .01-1.267-.002-1.835-.041-3.719-.073-5.601-.146-7.483-.156-7.718-.337-8.056-.536-8.161-5.032-10.538-9.541-12.893-14.054-15.24-14.488-15.465-14.702-15.715-14.695-16.249-14.665-18.928-14.681-21.606-14.681-24.375-10.043-21.899-5.475-19.46-.828-16.98-.802-17.225-.763-17.38-.769-17.532-.92-21.466-1.082-25.398-1.218-29.331-1.232-29.71-1.38-29.883-1.693-30.049-7.771-33.279-13.843-36.521-19.917-39.759-21.817-40.772-23.717-41.785-25.617-42.798-25.784-42.887-25.952-42.969-26.232-43.106-26.247-42.814-26.269-42.599-26.269-42.384-26.237-38.511-26.202-34.639-26.17-30.766-26.111-24.079-26.054-17.392-25.995-10.705-25.981-9.076-25.954-7.446-25.938-5.818-25.928-4.704-25.918-3.589-25.928-2.475L-26.099-2.002-26.192-1.898C-25.597-1.476-25.946-.863-25.93-.355-25.855 2.077-25.857 4.511-25.796 6.945-25.79 7.17-25.585 7.487-25.382 7.597-22.585 9.119-19.771 10.613-16.961 12.117-12.7 14.397-8.441 16.681-4.18 18.961-2.603 19.805-1.023 20.644 .619 21.519L.662 21.117C.615 17.373 .544 13.628 .538 9.882 .536 9.2 .29 8.881-.274 8.585-4.699 6.251-9.107 3.883-13.528 1.545-13.904 1.348-14.046 1.121-14.034 .713-13.997-.52-13.979-1.75-13.969-2.982-13.959-4.263-13.967-5.544-13.967-6.994-13.652-6.933-13.242-6.943-12.925-6.776-8.869-4.659-4.825-2.515-.779-.38-.56-.264-.333-.163 0 0"/>
<path transform="matrix(1,0,0,-1,125.3023,99.427)" d="M0 0C0-1.466 .018-2.857-.004-4.245-.091-9.935-.189-15.628-.284-21.32-.305-22.568-.307-23.817-.366-25.066-.376-25.303-.556-25.64-.757-25.75-5.004-28.054-9.245-30.376-13.539-32.597-15.071-33.389-16.811-33.864-18.502-33.234-19.787-32.758-21.012-32.01-22.126-31.198-25.309-28.874-27.386-25.685-28.795-22.061-30.549-17.542-31.464-12.84-31.223-7.987-31.115-5.824-30.774-3.656-30.323-1.537-29.515 2.243-28.113 5.804-25.888 9.003-24.087 11.596-21.846 13.681-19.026 15.16-13.385 18.123-7.775 21.147-2.152 24.144-1.933 24.261-1.707 24.363-1.429 24.497L-1.344 24.18C-1.305 20.035-1.281 15.887-1.226 11.74-1.22 11.253-1.358 10.995-1.801 10.761-5.776 8.66-9.767 6.577-13.699 4.393-17.374 2.351-19.531-.82-20.313-4.956-20.997-8.583-21.042-12.191-20.045-15.762-19.643-17.195-19.235-18.649-18.098-19.745-16.986-20.813-15.565-20.989-14.221-20.191-13.48-19.751-12.737-19.306-11.974-18.906-11.541-18.681-11.405-18.393-11.399-17.905-11.356-14.054-11.273-10.203-11.226-6.352-11.22-5.816-11.021-5.538-10.544-5.299-7.189-3.61-3.847-1.89-.5-.185-.359-.112-.203-.073 0 0"/>
<path transform="matrix(1,0,0,-1,53.5163,107.6358)" d="M0 0C0 1.632-.024 3.214 .004 4.793 .112 10.609 .248 16.425 .353 22.242 .459 28.066 .538 33.892 .63 39.717 .668 42.065 .713 44.414 .749 46.763 .767 47.977 .786 49.191 .78 50.407 .778 50.805 .893 51.028 1.277 51.231 5.228 53.322 9.162 55.444 13.102 57.555 17.473 59.898 21.846 62.24 26.217 64.581 26.383 64.668 26.555 64.747 26.785 64.859L26.856 64.423C26.775 61.249 26.687 58.079 26.604 54.908 26.586 54.183 26.563 53.456 26.582 52.729 26.59 52.36 26.452 52.155 26.133 51.986 21.908 49.767 17.704 47.504 13.453 45.336 12.481 44.838 12.089 44.301 12.134 43.184 12.227 40.904 12.144 38.616 12.136 36.33 12.136 36.103 12.154 35.876 12.168 35.583 16.941 38.068 21.559 40.687 26.353 43.222V41.208C26.348 39.712 26.336 38.218 26.348 36.722 26.35 36.365 26.237 36.164 25.906 35.987 21.525 33.657 17.156 31.3 12.773 28.969 12.201 28.665 11.951 28.326 11.935 27.617 11.817 22.412 11.628 17.209 11.468 12.008 11.411 10.187 11.383 8.366 11.309 6.549 11.3 6.324 11.141 6.007 10.957 5.906 7.387 3.939 3.802 1.996 .219 .051Z"/>
<path transform="matrix(1,0,0,-1,93.5218,91.6884)" d="M0 0C.016-.266 .041-.449 .035-.63-.032-2.321-.11-4.01-.176-5.701-.233-7.103-.284-8.506-.331-9.909-.349-10.467-.343-11.025-.349-11.584-.353-12.11-.542-12.459-1.072-12.696-3.875-13.953-6.537-15.471-9.058-17.223-11.338-18.809-13.451-20.577-15.069-22.879-16.183-24.463-16.531-26.265-16.718-28.129-17.17-32.631-16.9-37.075-15.574-41.426-15.242-42.522-14.763-43.509-13.514-43.85-12.799-44.045-12.121-43.955-11.492-43.622-7.779-41.666-4.078-39.688-.369-37.725 .274-37.386 .932-37.077 1.691-36.7V-39.264C1.687-42.459 1.675-45.655 1.689-48.852 1.691-49.311 1.557-49.558 1.135-49.78-2.887-51.887-6.894-54.02-10.901-56.15-12.568-57.035-14.225-56.777-15.932-56.235-20.266-54.855-22.708-51.6-24.478-47.695-25.904-44.556-26.705-41.229-27.024-37.81-27.27-35.185-27.444-32.542-27.414-29.909-27.369-26.03-26.448-22.301-24.891-18.746-23.171-14.82-20.621-11.519-17.064-9.111-15.217-7.861-13.205-6.846-11.232-5.792-7.789-3.957-4.318-2.174-.857-.374-.603-.242-.331-.142 0 0"/>
<path transform="matrix(1,0,0,-1,49.5732,59.565996)" d="M0 0C0-1.529 .033-3.017-.008-4.501-.071-6.87-.195-9.237-.26-11.604-.274-12.119-.453-12.375-.923-12.596-5.108-14.568-9.123-16.819-12.517-20.01-13.48-20.914-14.302-21.977-15.1-23.037-16.013-24.249-16.375-25.709-16.482-27.189-16.638-29.359-16.768-31.539-16.728-33.711-16.675-36.541-16.155-39.322-15.215-41.998-14.635-43.648-12.877-44.296-11.247-43.405-7.611-41.415-3.906-39.55-.229-37.633 .416-37.296 1.058-36.955 1.766-36.582 1.785-36.817 1.807-36.955 1.805-37.093 1.801-41.011 1.783-44.928 1.797-48.844 1.797-49.276 1.642-49.475 1.285-49.662-2.714-51.769-6.703-53.888-10.698-56.001-12.444-56.925-14.18-56.667-15.976-56.081-20.012-54.763-22.385-51.775-24.119-48.139-25.591-45.049-26.425-41.764-26.795-38.378-27.067-35.883-27.276-33.368-27.294-30.861-27.327-26.551-26.417-22.408-24.661-18.457-22.96-14.627-20.494-11.389-16.979-9.093-14.653-7.574-12.17-6.291-9.718-4.975-6.685-3.351-3.614-1.803-.556-.225-.359-.124-.142-.057 0 0"/>
<path transform="matrix(1,0,0,-1,151.7509,97.7942)" d="M0 0C0-1.452 .004-2.779-.002-4.107-.012-6.795-.042-9.482-.034-12.172-.033-12.623-.197-12.842-.58-13.049-3.555-14.655-6.53-16.257-9.474-17.917-11.043-18.8-12.623-18.825-14.308-18.376-18.455-17.272-21.036-14.43-22.897-10.763-24.612-7.387-25.514-3.768-25.918-.033-26.182 2.41-26.431 4.878-26.368 7.328-26.232 12.609-25.031 17.639-22.235 22.209-20.027 25.818-17.022 28.539-13.273 30.49-9.097 32.664-4.963 34.919-.808 37.128-.223 37.441 .39 37.7 1.011 37.993 1.011 36.97 1.038 36.026 1.005 35.084 .899 32.081 .76 29.079 .666 26.075 .652 25.618 .374 25.516 .071 25.374-2.998 23.937-5.946 22.286-8.686 20.287-10.329 19.089-11.841 17.751-13.175 16.202-14.748 14.373-15.418 12.235-15.617 9.876-15.84 7.254-15.975 4.622-15.577 2.024-15.256-.077-14.763-2.164-14.16-4.2-13.676-5.832-11.876-6.397-10.366-5.578-7.044-3.778-3.723-1.979-.4-.181-.314-.134-.219-.099 0 0"/>
<path transform="matrix(1,0,0,-1,155.0112,120.6833)" d="M0 0C0-1.951 .018-3.727-.022-5.504-.029-5.713-.309-5.991-.53-6.111-5.096-8.602-9.669-11.078-14.245-13.553-31.821-23.058-49.398-32.56-66.974-42.065-70.304-43.864-73.637-45.658-76.96-47.469-77.309-47.658-77.586-47.703-77.957-47.514-79.427-46.769-80.915-46.061-82.397-45.334-82.559-45.255-82.707-45.149-82.973-44.989-55.295-29.982-27.71-15.025 0 0"/>
<path transform="matrix(1,0,0,-1,154.7706,129.37329)" d="M0 0C0-1.902 .016-3.632-.026-5.359-.03-5.538-.357-5.753-.577-5.875-4.939-8.25-9.306-10.615-13.672-12.984-32.382-23.127-51.091-33.265-69.792-43.428-70.338-43.726-70.685-43.7-71.177-43.34-72.47-42.394-73.814-41.517-75.231-40.547-50.137-27.022-25.13-13.545 0 0"/>
<path transform="matrix(1,0,0,-1,119.2168,23.001496)" d="M0 0C.411 .817 .417 .823 1.086 .323 6.751-3.906 12.411-8.139 18.076-12.369 21.734-15.101 25.398-17.83 29.062-20.559 33.714-24.023 38.369-27.484 43.007-30.969 43.228-31.136 43.399-31.52 43.401-31.801 43.409-40.41 43.403-49.019 43.381-57.628 43.352-68.524 43.313-79.419 43.273-90.315 43.25-96.188 43.206-102.058 43.192-107.93 43.192-108.556 42.834-108.694 42.295-108.857 42.295-107.604 42.291-106.427 42.295-105.25 42.335-94.183 42.386-83.115 42.419-72.046 42.46-58.815 42.484-45.583 42.526-32.352 42.529-31.907 42.407-31.624 42.036-31.349 36.408-27.177 30.788-22.993 25.174-18.8 17.881-13.353 10.594-7.894 3.302-2.442 2.204-1.619 1.096-.809 0 0"/>
</g>
</g>
</svg>
