<?xml version="1.0" encoding="UTF-8"?>
<svg id="b" data-name="Calque 2" xmlns="http://www.w3.org/2000/svg" width="69.949" height="57.225" viewBox="0 0 69.949 57.225">
  <g id="c" data-name="Layer 1">
    <g>
      <path d="M51.339,13.234c-3.14-3.645-6.467-7.329-10.582-9.896-2.015-1.257-4.158-2.294-6.476-2.854-2.473-.598-5.037-.615-7.539-.198-5.035.84-9.645,3.495-13.311,6.986-3.686,3.511-6.454,7.845-8.812,12.323C2.083,24.413-.128,29.689.006,35.235c.116,4.798,1.995,9.325,4.915,13.086,1.444,1.86,3.175,3.451,5.1,4.805,1.982,1.395,4.247,2.409,6.569,3.089,4.934,1.444,10.274,1.3,15.182-.186,2.431-.736,4.822-1.749,6.979-3.096,2.022-1.262,3.89-2.776,5.55-4.487,3.287-3.387,5.871-7.603,7.386-12.075.175-.516.344-1.036.488-1.561.077-.28.139-.56.196-.845.055-.277.095-.633.16-.855.272-.938-1.189-1.339-1.46-.403-.071.245-.21.501-.332.775-.084.188-.171.373-.249.564.067-.165-.079.198-.072.18-.043.105-.084.21-.127.314-.031.075-.062.149-.093.224.059-.141-.02.047-.035.08-.057.132-.114.264-.173.395-.143.321-.291.641-.444.958-.559,1.159-1.14,2.302-1.805,3.405-.349.579-.715,1.148-1.098,1.705-.173.252-.35.502-.531.749-.085.117-.172.234-.258.35-.058.077-.117.154-.175.231-.162.216.149-.188-.032.042-.801,1.018-1.656,1.994-2.562,2.92s-1.872,1.797-2.891,2.6c-.026.021-.269.226-.075.06s-.049.036-.076.057c-.056.043-.331.308-.382.295l.153-.121c-.051.038-.102.077-.153.115-.256.191-.516.377-.778.559-.539.374-1.092.729-1.656,1.064-.59.35-1.193.682-1.806.991-.29.146-.583.287-.878.422-.155.071-.312.141-.468.209-.094.041-.336.134.045-.017-.095.038-.189.079-.284.117-1.301.528-2.648.928-4.02,1.227-.368.08-.738.152-1.109.217-.203.036-.405.068-.609.099-.068.01-.136.02-.203.03-.351.052.365-.045.039-.004-.779.096-1.559.165-2.343.196-1.563.061-3.137-.013-4.688-.219l.474.064c-1.682-.231-3.339-.629-4.934-1.212-.192-.07-.383-.143-.572-.218-.095-.038-.189-.077-.284-.115-.353-.143.408.18.06.025-.387-.172-.771-.348-1.149-.539-.686-.348-1.352-.735-2.002-1.146-.286-.181-.568-.368-.846-.562-.151-.106-.301-.214-.45-.323-.074-.055-.148-.111-.222-.166-.252-.188.38.3.004.003-.605-.478-1.185-.988-1.737-1.526s-1.08-1.099-1.578-1.686c-.119-.141-.237-.283-.353-.427-.058-.072-.115-.144-.172-.217-.218-.274.26.346.05.065-.24-.321-.476-.644-.701-.976-.414-.61-.797-1.241-1.148-1.889-.175-.323-.341-.651-.499-.983-.079-.166-.155-.332-.23-.5-.037-.083-.07-.17-.11-.252.238.497.04.094-.007-.022-.57-1.413-.988-2.895-1.237-4.398-.022-.133-.087-.768-.037-.212-.014-.152-.038-.304-.054-.457-.042-.397-.071-.795-.087-1.193-.036-.894-.007-1.79.081-2.681.022-.224.039-.451.077-.673-.067.391,0,.009.011-.06.017-.112.034-.224.053-.336.08-.485.174-.968.282-1.447.207-.925.463-1.838.756-2.74.282-.868.597-1.725.936-2.573.085-.212.172-.423.259-.634.144-.35-.102.235.048-.114.045-.105.09-.211.136-.316.197-.455.4-.907.608-1.357.739-1.604,1.539-3.177,2.417-4.709.855-1.492,1.78-2.945,2.794-4.334.519-.711.892-1.189,1.515-1.923.564-.666,1.154-1.31,1.769-1.93.591-.595,1.206-1.165,1.845-1.708.684-.581,1.189-.965,1.948-1.479,1.387-.94,2.999-1.814,4.451-2.39.77-.305,1.558-.563,2.358-.776.398-.106.799-.2,1.203-.282.201-.041.403-.079.606-.113.101-.017.202-.034.304-.05.039-.006.367-.053.263-.039.846-.111,1.701-.161,2.554-.153.829.009,1.702.081,2.415.2,3.225.539,6.047,1.895,8.667,3.853.581.434,1.151.883,1.775,1.41.641.54,1.26,1.104,1.864,1.686,1.212,1.169,2.364,2.398,3.485,3.654.533.597,1.059,1.201,1.581,1.808.299.347.892.307,1.199,0,.344-.344.3-.851,0-1.199h0Z" fill="#154fe5"/>
      <path d="M53.62,34.183c2.313-.051,4.626-.101,6.94-.152s4.625-.192,6.94-.294c.45-.02.823-.327.884-.78.059-.437-.209-.868-.645-.988-.908-.249-1.448-.494-2.285-1.002-.372-.226-.732-.472-1.082-.732-.044-.033-.088-.066-.131-.099-.112-.084.092.072-.019-.014-.076-.059-.152-.119-.227-.18-.184-.148-.365-.298-.544-.451-1.38-1.18-2.641-2.494-4.035-3.657-.727-.607-1.487-1.183-2.301-1.669-.395-.236-.898-.469-1.218-.745-.162-.139-.233-.251-.337-.432-.156-.272-.2-.354-.288-.615-.348-1.033-.605-2.092-.978-3.118-.394-1.084-.833-2.152-1.308-3.203-1.045-2.313-2.383-4.53-4.039-6.459-.481-.56-1.313.154-.988.763,1.068,2,2.133,3.993,3.099,6.046.934,1.982,1.663,4.021,2.374,6.177.194.587.427,1.166.866,1.615.398.406.816.678,1.313.979.403.244.815.473,1.206.738.406.275.689.491,1.005.748,1.43,1.166,2.695,2.515,4.062,3.751,1.574,1.425,3.309,2.702,5.376,3.296l.239-1.768c-2.314-.009-4.625-.057-6.94-.014s-4.626.086-6.94.129c-.557.01-1.092.483-1.066,1.066.025.567.469,1.079,1.066,1.066h0Z" fill="#154fe5"/>
      <path d="M22.907,13.402l-.024,2.63c-.004.411-.02.825-.008,1.236.015.505.136,1.057.53,1.409.217.194.481.34.767.399.237.049.479.065.72.076.433.02.866.038,1.298.062.873.049,1.747.097,2.62.146.982.055,1.963.11,2.945.164l-.201-.027c.105.015.214.025.316.053.494.135.999-.247.999-.761,0-.433-.09-.862-.148-1.291l.035.257c-.037-.28-.07-.558-.13-.834-.044-.205-.086-.409-.127-.615-.083-.418-.167-.835-.25-1.252-.165-.827-.303-1.659-.415-2.494l.038.286c-.15-1.123-.252-2.253-.306-3.385-.019-.389-.196-.739-.539-.94-.35-.205-.747-.181-1.098,0-.785.405-1.557.835-2.341,1.243l-2.372,1.234c-.22.114-.448.217-.648.364-.163.12-.306.228-.435.378l-.246.287c-.215.251-.299.561-.166.877.056.132.134.233.247.321.13.1.317.189.486.172.269-.026.572-.027.83-.103.29-.085.556-.22.822-.359l1.176-.612c.791-.411,1.578-.83,2.374-1.231.457-.23.918-.455,1.371-.692l-1.637-.94c.073,1.333.217,2.66.413,3.981.182,1.224.407,2.443.742,3.635.094.334.194.657.326.977.159.385.3.783.527,1.133l.681-1.187c-.245.031-.497-.005-.742-.025-.24-.02-.479-.039-.719-.059-.487-.04-.974-.079-1.461-.119-.974-.079-1.948-.159-2.922-.238-.539-.044-1.082-.081-1.619-.147l.229.031c-.132-.018-.26-.045-.383-.096l.208.088c-.054-.025-.103-.053-.151-.088l.177.137c-.045-.036-.084-.075-.121-.12l.137.178c-.04-.053-.071-.108-.098-.168l.089.21c-.038-.094-.06-.191-.074-.291l.032.235c-.036-.302-.009-.611,0-.913l.03-1.071c.02-.714.04-1.427.061-2.141.014-.483-.434-.945-.923-.923-.504.023-.918.405-.923.923h0Z" fill="#154fe5"/>
      <path d="M25.411,26.414c.892-.173,1.789-.316,2.692-.417.447-.05.894-.092,1.343-.126.41-.031.839-.088,1.25-.06.104.007.053-.024.142.031-.077-.048-.004-.018.009.031-.033-.123.034.134-.012.005.027.076.043.156.058.235-.027-.138.013.12.013.12.009.103.016.206.023.309.02.267.04.534.06.801.068.916.135,1.833.22,2.748.346,3.74.692,7.48,1.037,11.219.089.958.219,1.918.267,2.878.042.847,0,1.557-.431,2.233l.67-.384c-1.564-.043-3.128-.041-4.685.131-.785.087-1.568.204-2.342.357-.786.156-1.556.372-2.336.551l.894.681c.038-.767.076-1.535.124-2.302.045-.726.03-1.459.039-2.187l.056-4.547c.037-3.012.065-6.024.086-9.036l.017-2.475c.006-.866.044-1.729-.058-2.59-.069-.579-.465-1.148-1.119-1.119-.659.03-1.052.493-1.119,1.119-.081.768-.046,1.531-.03,2.302l.043,2.187.09,4.547c.059,3.012.148,6.024.224,9.036.021.824.023,1.651.062,2.475.04.863.12,1.727.174,2.59.027.426.434.843.894.681,1.166-.41,2.429-.633,3.653-.786,1.263-.158,2.537-.222,3.81-.19.292.007.582.021.872.051.41.042.87.18,1.202-.151.413-.413.663-1.051.771-1.612.227-1.181.076-2.395-.038-3.581-.508-5.298-.934-10.612-1.578-15.896-.082-.67-.245-1.376-.886-1.733-.622-.347-1.392-.218-2.069-.165-1.504.118-3.002.327-4.481.621-.389.077-.613.541-.513.904.112.407.513.589.904.513h0Z" fill="#154fe5"/>
    </g>
  </g>
</svg>