<?xml version="1.0" encoding="UTF-8"?>
<svg id="b" data-name="Calque 2" xmlns="http://www.w3.org/2000/svg" width="88.226" height="61.657" viewBox="0 0 88.226 61.657">
  <g id="c" data-name="Layer 1">
    <g>
      <path d="M22.471,39.049c.478-.198.957-.395,1.449-.553.244-.078.492-.147.743-.201.104-.022.208-.04.313-.058.206-.036-.149.01.06-.008.085-.007.169-.016.254-.021.214-.012.425-.005.638.014.169.014-.164-.033.002.001.048.01.096.017.143.027.111.024.221.053.33.088.061.02.18.042.229.083l-.078-.033c.03.013.059.026.089.04.044.021.087.043.13.065.085.045.168.094.249.147.04.026.079.054.118.082.133.093-.111-.1.009.009.07.063.141.125.207.193.032.034.062.07.094.104.11.116-.082-.125.007.007.044.064.087.127.126.195.023.04.043.082.065.123.031.068.027.056-.012-.036.012.029.023.058.033.087.032.09.052.181.075.274.044.177-.002-.138.008.043.002.046.007.092.008.139.002.094.011.21-.013.302.044-.165-.004.008-.01.039-.015.072-.033.144-.053.215-.016.053-.033.106-.052.159-.007.02-.077.193-.016.05-.038.087-.08.173-.124.257-.118.223-.258.433-.407.636-.074.101-.021.028-.005.008-.036.046-.073.092-.111.137-.074.09-.151.178-.229.264-.159.175-.325.345-.492.512-.339.337-.684.67-1.04.989-.163.146-.328.289-.495.43-.091.077-.183.153-.275.228-.122.1-.165.134-.264.206-.762.554-1.553,1.064-2.36,1.549-.827.497-1.671.967-2.518,1.429-.407.222-.813.449-1.225.661-.246.127-.343.177-.598.247-.059.016-.119.028-.179.041-.178.039.09.006-.065.008-.033,0-.066.004-.099.004-.035,0-.235-.028-.088,0-.112-.022-.222-.048-.331-.086-.027-.01-.171-.078-.033-.011-.044-.022-.089-.042-.132-.066-.103-.055-.199-.12-.294-.187.133.093-.001-.003-.024-.022-.051-.044-.1-.09-.148-.137-.072-.072-.143-.146-.211-.222-.031-.035-.077-.076-.1-.117.084.156-.023-.034-.045-.067-.067-.099-.128-.202-.183-.308-.024-.045-.045-.092-.067-.138-.063-.129.04.127-.007-.02-.088-.275-.165-.543-.213-.829-.033-.194.005.098-.002-.023-.005-.071-.014-.142-.019-.213-.01-.143-.015-.287-.015-.431,0-.27.027-.538.03-.807.004-.329-.011-.638-.075-.962-.045-.229-.28-.398-.496-.427-.214-.029-.499.07-.594.285-.062.139-.138.281-.178.427-.037.137-.053.283-.076.423-.048.302-.062.601-.059.906.005.57.067,1.157.234,1.704.304.991.962,1.863,1.933,2.272.467.197.967.268,1.47.2.57-.077,1.078-.344,1.576-.618.907-.498,1.814-.997,2.706-1.522.882-.518,1.75-1.061,2.587-1.651.863-.608,1.732-1.223,2.526-1.92.757-.665,1.536-1.446,1.962-2.373.445-.968.502-2.119-.158-3.01-.569-.77-1.443-1.298-2.392-1.45-1.146-.183-2.281.077-3.357.467-.263.095-.523.196-.783.298-.365.143-.659.51-.525.924.113.348.535.686.924.525h0Z" fill="#154fe5"/>
      <g>
        <path d="M27.029,54.224c1.118,1.559,2.928,2.509,4.852,2.534,1.974.026,3.741-1.025,4.875-2.603.628-.874,1.017-1.947,1.068-3.023l-1.477.612c1.732,1.356,4.055,1.719,6.085.816,1.811-.805,3.108-2.683,3.242-4.654l-1.225.332c.502.8,1.09,1.478,1.884,2.001.778.513,1.672.814,2.593.927,1.811.223,3.676-.554,4.825-1.967.665-.817,1.107-1.762,1.26-2.807h-1.113c.604,2.093,2.621,3.378,4.698,3.67,2.279.32,4.96-.511,6.16-2.607.652-1.14.662-2.503.17-3.703-.512-1.248-1.491-2.282-2.448-3.206-1.024-.987-2.06-1.954-3.042-2.984-.988-1.035-1.95-2.097-2.866-3.197-1.028-1.234-2.013-2.503-2.953-3.806-.957-1.326-1.788-2.76-2.86-3.996-.259-.298-.849.019-.689.401.527,1.259,1.31,2.366,2.086,3.485.781,1.125,1.595,2.226,2.437,3.306,1.648,2.113,3.404,4.141,5.262,6.072.884.919,1.823,1.799,2.628,2.791.654.806,1.3,1.846,1.334,2.85.068,2.054-2.216,3.305-4.017,3.416-1.954.121-4.198-.76-4.786-2.8-.145-.503-1.026-.594-1.113,0-.215,1.478-1.215,2.751-2.528,3.432-1.301.674-2.85.554-4.099-.176-.704-.412-1.344-1.018-1.686-1.767-.232-.508-1.093-.375-1.201.157-.309,1.521-1.236,2.768-2.643,3.376-.612.264-1.439.363-2.139.267-.717-.098-1.501-.422-2.031-.855-.589-.481-1.423-.171-1.477.612-.006.089-.014.178-.023.266-.003.037-.032.249-.011.123-.034.205-.079.407-.137.606-.05.17-.106.339-.176.502.038-.088-.05.1-.062.126-.046.093-.095.185-.146.275-.348.614-.823,1.14-1.402,1.514-1.212.782-2.645.868-4.004.311-.663-.272-1.373-.798-1.806-1.391-.239-.327-.652-.489-1.028-.27-.325.19-.507.696-.27,1.028h0Z" fill="#154fe5"/>
        <g>
          <path d="M8.845,27.94c2.081-2.998,4.443-5.785,7.038-8.434,2.572-2.625,5.375-5.025,8.379-7.143.861-.607,1.726-1.21,2.608-1.788s1.789-1.112,2.668-1.693c.333-.221.401-.775,0-.98-3.191-1.625-5.695-4.272-7.307-7.457-.171-.338-.682-.387-.934-.12-1.228,1.302-2.642,2.445-3.983,3.63s-2.71,2.364-4.075,3.535c-2.714,2.327-5.434,4.648-8.164,6.956-.764.646-1.53,1.291-2.297,1.934s-1.519,1.382-2.38,1.899c-.35.21-.348.621-.118.913.519.657,1.198,1.215,1.775,1.828.594.632,1.167,1.285,1.717,1.956,1.081,1.321,2.031,2.73,2.969,4.154.4.606,1.338.071.98-.573-.868-1.559-1.933-3.013-3.051-4.401-.556-.69-1.137-1.361-1.74-2.011s-1.215-1.363-1.945-1.867l.118.913c.596-.665,1.342-1.198,2.031-1.766.693-.573,1.385-1.147,2.076-1.722,1.382-1.151,2.76-2.306,4.134-3.467,2.731-2.307,5.401-4.684,8.097-7.031.755-.657,1.509-1.316,2.262-1.977.762-.669,1.503-1.364,2.316-1.97l-.814-.213c.401.867.856,1.669,1.419,2.444.547.753,1.148,1.467,1.805,2.126,1.322,1.325,2.861,2.435,4.537,3.266v-.98c-1.707.754-3.36,1.739-4.921,2.757-1.604,1.046-3.153,2.176-4.654,3.365-2.963,2.345-5.731,4.951-8.178,7.832-1.402,1.651-2.721,3.375-3.949,5.16-.28.408-.076,1.016.329,1.253.456.266.97.079,1.253-.329h0Z" fill="#154fe5"/>
          <path d="M65.1,11.28l2.734-2.263,1.32-1.092c.283-.234.677-.704,1.055-.403s.631.813.902,1.202c.344.496.688.991,1.033,1.487.677.975,1.37,1.938,2.059,2.905,2.779,3.9,5.535,7.815,8.282,11.738.765,1.093,1.546,2.172,2.33,3.251.392.54.784,1.079,1.177,1.619.403.555.852,1.087,1.213,1.67l.145-.553c-1.715.776-3.372,1.675-5.045,2.537-.827.426-1.654.852-2.481,1.279-.839.432-1.721.826-2.452,1.427-.35.288.028.854.43.738.908-.263,1.739-.784,2.568-1.232.818-.441,1.636-.883,2.454-1.324,1.653-.892,3.329-1.751,4.934-2.727.241-.147.244-.432.082-.634-.392-.49-.709-1.048-1.063-1.566-.352-.515-.704-1.03-1.055-1.546-.704-1.031-1.405-2.063-2.127-3.082-1.434-2.021-2.867-4.043-4.301-6.064s-2.839-4.059-4.255-6.091c-.714-1.025-1.425-2.051-2.152-3.067-.363-.508-.727-1.017-1.09-1.525-.3-.42-.581-.891-.991-1.214-.495-.391-1.078-.436-1.632-.13-.549.302-1.041.76-1.539,1.137-1.105.837-2.21,1.675-3.315,2.512-.305.231-.438.614-.181.947.25.324.665.311.962.065h0Z" fill="#154fe5"/>
          <path d="M63.829,11.97c2.032,3.087,3.92,6.267,5.654,9.53,1.704,3.207,3.104,6.534,4.456,9.901.39.971.796,1.871,1.191,2.852.199.495.396.988.62,1.472.11.238.207.488.329.72.129.244.323.449.5.661.338.406.998.061,1.002-.415.002-.247.021-.501-.028-.745-.045-.221-.123-.441-.185-.658-.136-.477-.29-.942-.462-1.407-.315-.857-.64-1.71-.975-2.559-.684-1.733-1.526-3.415-2.354-5.083-1.625-3.27-3.322-6.517-5.165-9.67-1.058-1.809-2.164-3.589-3.316-5.339-.217-.33-.647-.47-1.001-.263-.328.192-.481.67-.263,1.001h0Z" fill="#154fe5"/>
          <path d="M61.144,9.284c-4.132-1.98-8.868-4.053-13.447-2.265-3.786,1.478-6.443,4.768-8.574,8.097-2.574,4.021-4.712,8.293-6.558,12.692-.46,1.095-.901,2.197-1.316,3.31-.217.582-.46,1.172-.475,1.803-.013.584.202,1.14.582,1.578.629.726,1.628.993,2.55,1.067,1.044.083,2.152-.11,3.151-.403,4.468-1.31,7.479-5.056,9.96-8.772.31-.464.62-.927.934-1.388l-1.357.175c1.503,1.514,3.29,2.709,5.272,3.496,1.918.761,3.981,1.149,6.044,1.124.569-.007,1.138-.045,1.703-.115.319-.04.67-.058.98-.149.29-.085.577-.264.843-.404.527-.276.23-.997-.281-1.039-.224-.018-.448-.049-.672-.068-.255-.022-.518.032-.773.052-.469.037-.94.051-1.41.044-1.004-.015-1.776-.111-2.716-.292-.958-.184-1.9-.453-2.809-.807-.248-.096-.326-.13-.495-.205-.222-.099-.442-.204-.66-.313-.437-.218-.872-.434-1.294-.681-.965-.565-1.706-1.117-2.509-1.866-.415-.388-1.055-.307-1.357.175-2.17,3.455-4.66,7.052-8.432,8.839-.82.388-1.778.691-2.724.827-.083.012-.419.044-.588.054-.229.013-.459.02-.689.008-.047-.003-.296-.028-.135-.006-.094-.013-.188-.032-.281-.053s-.185-.045-.276-.072c-.048-.015-.314-.12-.167-.053-.082-.038-.163-.079-.241-.125-.049-.029-.225-.167-.1-.058-.065-.057-.124-.116-.183-.179-.068-.072.019.025.026.035-.032-.051-.063-.103-.092-.156-.047-.088.013.031.017.042-.015-.048-.03-.096-.042-.145.031.135-.005-.176-.007-.158.015-.208.131-.511.216-.737.382-1.014.801-2.046,1.217-3.028,1.759-4.156,3.833-8.193,6.118-12.083.479-.815.973-1.622,1.501-2.406.532-.791,1.015-1.451,1.589-2.136,1.159-1.383,2.408-2.58,3.95-3.427.772-.424,1.474-.7,2.371-.906,1.014-.233,2.06-.261,3.093-.158,2.153.214,4.233,1.048,6.186,1.936.512.233,1.02.473,1.527.714.399.19.884.11,1.121-.294.209-.358.107-.929-.294-1.121h0Z" fill="#154fe5"/>
          <path d="M28.112,10.751c3.729.469,7.472.603,11.226.496.515-.015,1.03-.035,1.544-.061.286-.015.566-.05.849-.096.292-.048.584-.071.846-.216.351-.194.238-.688-.105-.807-.242-.084-.495-.062-.748-.065-.234-.002-.467-.01-.701.009-.468.038-.935.07-1.404.098-.936.056-1.873.081-2.811.09-1.851.018-3.702-.039-5.549-.17-1.051-.075-2.101-.174-3.148-.296-.274-.032-.509.257-.509.509,0,.304.235.475.509.509h0Z" fill="#154fe5"/>
          <path d="M15.374,30.435c-1.928.209-3.8.876-5.397,1.984s-3.077,2.673-3.158,4.717c-.019.481.048.985.221,1.435.214.557.578,1.204,1.266,1.187.282-.007.54-.116.799-.217.244-.096.486-.197.726-.302.427-.187.847-.391,1.258-.612.818-.44,1.6-.947,2.337-1.512.039-.03.171-.13.075-.058.02-.015.04-.031.06-.046.061-.047.122-.094.183-.141.1-.077.199-.155.297-.235.177-.143.35-.289.521-.439.351-.308.69-.63,1.014-.966.663-.687,1.291-1.483,1.524-2.428.2-.812.131-1.781-.383-2.469-.088-.118-.188-.266-.323-.335-.104-.053-.222-.092-.335-.121-.324-.083-.654.288-.455.592.046.07.081.144.124.216.064.107.167.185.247.279.024.028.022.061.01.01l-.019-.025c.012.016.025.033.036.05.024.034.046.068.068.103.047.076.076.177.129.246-.007-.009-.039-.102-.011-.024.007.02.015.039.022.059.014.039.028.079.04.119.028.091.05.183.067.276.004.021.007.042.011.062.014.081,0-.013-.003-.022.015.039.011.102.013.144.006.096.008.191,0,.287-.002.021-.005.042-.006.064-.005.061.013-.078.003-.018-.008.047-.015.094-.025.141-.02.099-.046.196-.077.292-.015.047-.031.095-.049.141-.01.027-.06.15-.026.071-.044.103-.093.203-.146.301-.104.192-.223.376-.352.552-.015.02-.03.04-.045.06-.039.054.041-.051,0,.001-.035.044-.07.089-.106.132-.072.088-.147.173-.223.258-.582.645-1.239,1.23-1.922,1.765-.02.016-.04.031-.06.047.071-.056.017-.013.003-.002-.04.031-.08.061-.121.092-.091.068-.182.136-.275.201-.181.127-.364.25-.549.37-.366.236-.74.459-1.123.667-.389.212-.785.408-1.189.589-.092.041-.185.082-.278.122-.088.038.01-.004.023-.01-.029.013-.058.024-.087.036-.052.022-.105.043-.157.064-.205.082-.411.16-.619.235-.101.036-.202.071-.304.105-.048.016-.097.033-.145.048-.048.015-.156.021-.193.05.02-.016.129.003.034-.008-.042-.005-.087-.019.037.011-.099-.023.022.009.033.022.001.002-.051-.034-.056-.034.06,0,.088.08.041.026-.005-.005-.035-.045-.045-.05.065.029.068.094.022.021-.015-.024-.03-.048-.043-.072-.051-.089-.096-.182-.139-.275-.06-.132.041.109-.01-.026-.021-.056-.041-.113-.059-.17-.03-.098-.055-.197-.075-.297-.01-.047-.017-.095-.025-.142-.006-.039-.002-.105.006.048-.002-.036-.008-.072-.011-.108-.018-.206-.017-.413.001-.619.004-.047.017-.098.016-.146.003.146-.011.08-.002.029.004-.024.008-.048.012-.072.02-.108.044-.216.073-.322.027-.1.058-.199.093-.297.016-.046.034-.091.052-.137.013-.033.047-.096-.017.038.016-.033.029-.067.045-.101.087-.189.186-.372.297-.548.055-.088.113-.175.173-.259.028-.04.057-.08.087-.119.014-.019.056-.087.01-.014-.05.081.021-.026.034-.042.136-.168.28-.328.431-.482.147-.15.3-.294.458-.432.074-.065.149-.129.225-.191.043-.036.087-.071.131-.106.02-.016.04-.031.06-.047.071-.056.017-.032-.013.009.028-.038.098-.074.136-.103.041-.03.082-.06.123-.09.098-.07.196-.139.296-.206.179-.12.361-.234.546-.344.376-.221.766-.421,1.166-.596.029-.013.058-.025.087-.038.068-.029-.005-.023-.034.014.02-.026.108-.045.141-.057.106-.042.212-.083.319-.122.202-.074.406-.142.612-.204.424-.128.856-.23,1.292-.305.1-.017.2-.033.3-.048.02-.003.054-.003.075-.011-.111.038-.089.012-.04.006.063-.007.126-.015.189-.022.158-.017.292-.053.408-.169.1-.1.175-.264.169-.408-.013-.285-.256-.612-.577-.577h0Z" fill="#154fe5"/>
          <path d="M16.45,35.932c.053-.026.107-.051.161-.076.023-.01.047-.02.07-.031-.107.049-.026.011-.003.001.119-.047.238-.092.359-.132.226-.075.456-.135.69-.182.058-.012.117-.023.175-.032.025-.004.05-.008.075-.012.018-.003.125-.018.048-.008-.072.009.013-.001.023-.002.034-.004.068-.008.101-.011.068-.007.136-.012.203-.017.237-.015.476-.016.713-.002.119.007.237.018.355.032.114.013-.064-.011.049.007.059.01.119.02.178.032.104.021.206.047.307.081.021.007.042.016.064.023.078.024-.083-.044-.012-.005.052.029.105.053.156.085.019.012.037.025.055.037-.018-.012-.083-.075-.01-.005.03.029.059.059.089.089.067.069-.05-.08.018.027.014.022.026.044.039.066.013.021.059.072.013.019-.045-.052-.003-.011.007.022.006.018.012.036.018.054.013.043.019.087.031.13.017.064-.008-.056-.005-.052.007.011.007.07.007.078.004.053.005.106.003.159,0,.04-.003.081-.007.121-.002.024-.002.057-.008.081,0-.002.019-.107.005-.044-.023.103-.041.207-.07.309-.027.096-.059.191-.095.285-.017.044-.048.117-.01.03-.023.052-.046.104-.07.155-.193.405-.435.792-.682,1.166-.13.197-.265.391-.404.581-.067.092-.135.183-.204.274-.002.002-.05.066-.019.026s-.018.023-.02.025c-.04.051-.081.103-.121.153-.291.364-.597.716-.913,1.058-.635.688-1.309,1.341-2.011,1.961-.352.311-.707.617-1.064.922-.359.307-.704.63-1.068.932-.182.15-.303.246-.507.383-.096.065-.199.121-.302.174-.052.027-.103.053-.156.078-.023.011-.045.021-.068.031-.009.004-.101.043-.05.022-.222.091-.456.162-.694.198.011-.002.058-.007,0,0-.034.004-.069.006-.103.008-.06.004-.121.005-.181.003-.052-.001-.103-.005-.155-.01.08.007-.004,0-.018-.004-.034-.007-.067-.014-.101-.022-.056-.014-.11-.037-.166-.051-.077-.02.065.034-.006-.001-.021-.01-.042-.02-.063-.03-.106-.053-.202-.118-.299-.186-.05-.035.009.006.015.012-.024-.021-.048-.04-.072-.061-.036-.031-.07-.063-.104-.096-.084-.081-.157-.17-.236-.256-.055-.06.052.074.005.009-.013-.018-.026-.036-.039-.054-.03-.042-.06-.085-.088-.128-.061-.093-.118-.189-.17-.287-.046-.086-.086-.173-.127-.261-.036-.078.038.102.01.022-.007-.021-.016-.041-.024-.062-.021-.055-.04-.111-.059-.168-.067-.206-.112-.416-.147-.63-.012-.074.01.064.009.064-.003,0-.01-.094-.009-.088-.004-.044-.007-.088-.01-.133-.006-.111-.008-.222-.004-.334.003-.105.014-.208.023-.312.007-.078-.011.078-.011.076.009-.017.011-.072.014-.087.01-.058.022-.116.035-.174.044-.194.103-.389.17-.576.017-.047.036-.092.053-.139.028-.074-.036.082-.032.077.014-.019.026-.058.035-.077.042-.09.088-.178.137-.264s.102-.17.157-.252c.028-.041.057-.082.086-.121.098-.133-.092.111.016-.019.126-.153.267-.294.401-.44.067-.073.136-.143.209-.21s.178-.128.239-.204c-.018.022-.153.116,0-.002.038-.03.062-.049.094-.079.035-.033.068-.067.103-.099.035-.032.07-.063.106-.093.02-.017.041-.034.062-.051-.014.012-.085.064-.007.005.173-.13.303-.338.23-.564-.062-.19-.261-.396-.482-.367-.135.018-.27.035-.404.063-.047.01-.095.021-.142.032-.026.007-.054.013-.08.021-.04.01-.079.024-.116.043-.09.037-.102.043-.038.017.139-.061-.145.064-.193.089-.05.026-.099.053-.148.082-.097.056-.191.117-.283.182-.437.31-.784.731-1.054,1.192-.247.421-.435.889-.502,1.374-.076.549-.062,1.085.057,1.629.222,1.01.821,1.936,1.657,2.545.449.327,1.013.5,1.569.451.581-.051,1.128-.265,1.624-.568.898-.549,1.698-1.241,2.487-1.933.76-.667,1.517-1.342,2.238-2.051.741-.73,1.434-1.506,2.054-2.342.296-.4.573-.814.824-1.244.238-.406.447-.851.537-1.315.098-.505.085-1.041-.182-1.496-.287-.488-.802-.763-1.34-.884-1.074-.241-2.236-.176-3.283.158-.284.091-.561.205-.832.33-.289.133-.383.572-.217.829.189.293.523.366.829.217h0Z" fill="#154fe5"/>
          <path d="M22.102,51.349c.008-.159.021-.319.038-.477.004-.04.009-.079.014-.119-.003.026-.015.099.004-.021.012-.079.025-.157.039-.235.059-.322.138-.641.235-.954.044-.142.092-.284.143-.424.027-.075.056-.149.085-.223.015-.037.03-.074.045-.111-.034.082.016-.037.023-.051.133-.302.282-.596.445-.883.159-.279.331-.55.516-.813.046-.066.093-.131.141-.196.024-.032.048-.065.072-.097.006-.009.068-.089.017-.023.098-.127.201-.252.305-.374.432-.507.91-.974,1.421-1.401.287-.24.459-.371.767-.588.279-.197.565-.384.856-.563.585-.358,1.191-.679,1.811-.971.345-.163.57-.262.888-.39s.639-.25.961-.367c.348-.126.698-.248,1.055-.346.165-.045.332-.085.501-.117.045-.008.089-.016.134-.024.112-.019-.082.008.03-.005.1-.012.2-.02.301-.025.089-.004.178-.004.267-.001.044.002.088.005.133.008.002,0,.111.01.045.002-.073-.008.062.01.077.013.044.008.087.017.13.028.094.022.185.053.277.083.116.038.015.004-.009-.007.033.014.065.03.097.045.064.031.126.066.187.103s.12.077.178.118c.011.008.079.064.017.012-.071-.06.042.038.056.05.108.096.202.202.299.307.02.022.079.101-.005-.011.022.029.043.058.064.087.047.066.091.135.133.204.07.117.128.239.187.362-.069-.144.015.045.03.088.027.077.051.155.072.233.019.072.036.144.05.217.009.044.015.088.024.132.023.111-.006-.1.002.013.013.188.026.375.025.564,0,.167-.017.332-.029.498-.008.113.018-.097-.001.015-.008.044-.014.088-.022.132-.018.099-.038.198-.061.296-.038.164-.084.326-.136.485-.028.085-.057.17-.088.254-.016.042-.031.084-.048.125-.021.053-.056.137-.014.038-.117.274-.25.541-.398.8-.151.264-.316.519-.495.764-.038.052-.076.103-.115.155.073-.096-.048.06-.072.089-.099.122-.201.241-.306.357-.404.449-.85.86-1.323,1.236-.029.023-.059.047-.088.07.02-.015.077-.059-.015.011-.06.046-.121.091-.182.136-.122.09-.246.177-.371.263-.251.172-.508.337-.769.494-.532.321-1.081.613-1.641.883-.586.282-1.109.508-1.689.728-.698.265-1.412.501-2.149.631-.354.062-.713.091-1.072.086-.318-.005-.499-.025-.809-.097-.292-.068-.582-.166-.797-.27-.248-.12-.524-.3-.676-.423-.259-.211-.435-.316-.667-.571-.341-.377-.896.103-.678.523.15.29.349.619.606.825.266.213.55.397.861.538.64.29,1.319.439,2.021.471,1.58.073,3.095-.515,4.538-1.086,2.494-.988,4.934-2.338,6.575-4.518.869-1.154,1.543-2.637,1.514-4.106s-.836-2.949-2.228-3.536c-1.52-.641-3.193.076-4.608.668-1.393.583-2.754,1.245-3.991,2.117-2.344,1.652-4.309,4.068-4.805,6.958-.063.366-.106.735-.124,1.106-.015.307.281.6.587.587.332-.015.569-.258.587-.587h0Z" fill="#154fe5"/>
          <path d="M15.915,56.177c.049.273.153.519.262.773.074.172.166.336.276.488.156.218.323.433.521.616.197.181.414.349.644.485.082.048.166.092.253.131.162.072.326.145.495.199.266.085.549.122.827.125.273.003.552-.034.818-.09.262-.055.528-.15.762-.278.092-.051.182-.107.268-.168.102-.073.201-.151.299-.229.043-.034.076-.073.109-.116.172-.22.329-.436.438-.694l.067-.159c.028-.088.032-.177.012-.265,0-.06-.015-.116-.045-.168-.027-.082-.073-.154-.137-.214-.085-.078-.183-.135-.293-.171-.088-.028-.177-.032-.265-.012-.088.004-.171.03-.247.079-.107.067-.22.125-.336.174l.187-.079c-.06.025-.122.048-.184.068-.029.009-.059.018-.089.026-.105.029-.202.08-.302.123l.214-.09c-.138.058-.281.104-.427.137-.149.034-.297.07-.448.091l.264-.036c-.221.029-.444.029-.665,0l.275.037c-.253-.034-.508-.097-.744-.195l.251.106c-.199-.085-.386-.195-.558-.327l.213.164c-.176-.137-.333-.294-.47-.47l.164.213c-.136-.176-.249-.368-.336-.572l.106.251c-.069-.166-.121-.338-.153-.515-.033-.137-.095-.256-.188-.358-.074-.114-.172-.205-.295-.271-.121-.077-.251-.118-.391-.125-.14-.031-.279-.025-.419.019l-.251.106c-.158.093-.284.219-.377.377l-.106.251c-.05.186-.05.373,0,.559h0Z" fill="#154fe5"/>
          <path d="M15.439,61.122c.501.121,1.002.243,1.503.364l.424.103c.099.024.207.013.295-.039.045-.024.081-.057.108-.099.034-.037.057-.08.069-.13.022-.098.018-.208-.039-.295l-.06-.078c-.048-.048-.104-.08-.169-.099-.486-.175-.972-.35-1.459-.524l-.412-.148c-.065-.02-.13-.023-.195-.009-.065.003-.126.022-.182.058-.057.031-.103.073-.137.126-.043.047-.073.103-.088.167l-.017.13c0,.088.023.171.067.247l.077.099c.061.061.133.103.216.126h0Z" fill="#154fe5"/>
          <path d="M62.663,56.369c1.054.054,2.103-.197,3.05-.651.932-.447,1.719-1.148,2.324-1.982.331-.457.596-.96.752-1.504.055-.194-.052-.399-.233-.475-.179-.076-.405-.012-.503.165-.183.332-.39.658-.622.958l.077-.099c-.298.383-.644.724-1.027,1.022l.116-.089c-.459.354-.973.65-1.507.875l.154-.065c-.473.198-.97.336-1.479.406l.183-.025c-.426.057-.857.065-1.285.02-.173-.018-.393.094-.511.212-.125.125-.22.331-.212.511.008.187.07.38.212.511.145.133.312.201.511.212h0Z" fill="#154fe5"/>
          <path d="M66.48,60.264l.859-.493.242-.139c.037-.02.066-.047.089-.081.028-.03.047-.066.056-.107l.011-.084c.002-.043-.007-.084-.027-.122-.007-.027-.021-.05-.041-.07-.022-.034-.052-.061-.089-.081l-.075-.032c-.056-.015-.112-.015-.168,0l-.912.369-.257.104c-.068.019-.127.054-.178.104l-.063.082c-.036.063-.055.131-.055.203-.002.055.009.107.035.155.016.05.044.093.083.13.036.039.08.067.13.083.048.025.1.037.155.035.073,0,.14-.019.203-.055h0Z" fill="#154fe5"/>
          <path d="M78.073,29.857c0,.065.005.129.012.193.015.119.028.24.055.358.04.178.112.346.186.511.052.115.115.224.187.327.104.148.217.293.344.422.127.128.27.239.415.344.103.075.212.141.326.197.162.08.331.151.507.196.174.045.357.07.536.082.18.012.356-.01.534-.036.122-.018.241-.047.356-.091.157-.059.313-.126.455-.216.136-.086.265-.186.383-.295.12-.111.219-.237.317-.367.07-.092.138-.188.199-.286.075-.12.134-.246.189-.376s.105-.261.14-.398c.04-.159.063-.324.078-.488.011-.115.012-.231.003-.347-.009-.107-.018-.217-.041-.321-.015-.068-.066-.167-.088-.216-.011-.026-.023-.052-.035-.077-.059-.123-.135-.233-.218-.341-.054-.07-.078-.093-.163-.15-.011-.007-.021-.014-.032-.021-.022-.014-.045-.027-.068-.04-.144-.081-.321-.084-.465,0-.131.077-.242.24-.228.398.003.034.005.067.005.101.002.084.019.159.041.238.02.074.035.15.045.226l-.021-.155c.008.058.012.116.014.175.005.112.034.22.049.331l-.022-.163c.023.179.022.36-.001.539l.021-.16c-.026.195-.078.386-.154.568l.059-.14c-.059.14-.131.275-.218.4l.09-.117c-.103.125-.215.241-.343.341l.121-.094c-.122.094-.254.173-.396.233l.148-.062c-.138.058-.282.097-.43.117l.169-.023c-.154.02-.31.018-.464-.002l.175.023c-.174-.024-.343-.072-.505-.141l.163.069c-.198-.084-.384-.185-.555-.315l.139.108c-.15-.116-.286-.25-.403-.4l.108.14c-.108-.14-.198-.291-.267-.453l.07.166c-.062-.147-.105-.301-.127-.459l.025.186c-.01-.08-.016-.16-.015-.241.001-.179-.079-.37-.206-.497-.064-.069-.139-.117-.226-.145-.084-.044-.174-.064-.271-.061-.182.008-.37.068-.497.206-.126.137-.208.307-.206.497h0Z" fill="#154fe5"/>
          <path d="M20.233,9.112c-.596.488-1.179.991-1.749,1.508s-1.099,1.071-1.622,1.63c-.298.318-.591.64-.879.966-.087.098-.143.213-.143.346,0,.12.053.264.143.346.199.183.495.189.693,0,.558-.532,1.13-1.051,1.714-1.555.291-.251.588-.496.877-.749s.581-.502.876-.747c.335-.278.674-.552,1.016-.82.064-.059.109-.129.135-.211.041-.078.06-.162.056-.252,0-.161-.071-.352-.192-.463-.125-.114-.288-.199-.463-.192l-.174.023c-.111.031-.207.087-.289.168h0Z" fill="#154fe5"/>
        </g>
      </g>
    </g>
  </g>
</svg>