<?xml version="1.0" encoding="UTF-8"?>
<svg id="b" data-name="Calque 2" xmlns="http://www.w3.org/2000/svg" width="97.063" height="68.076" viewBox="0 0 97.063 68.076">
  <g id="c" data-name="Layer 1">
    <g>
      <path d="M19.168,20.388c-.345,4.917-.556,9.843-.631,14.771s.16,9.86.412,14.775c.07,1.364.132,2.728.21,4.092.08,1.404.14,2.815.313,4.211.039.316.243.589.589.589.309,0,.602-.27.589-.589-.05-1.241-.18-2.477-.276-3.716-.095-1.218-.181-2.438-.26-3.657-.158-2.458-.231-4.922-.28-7.384s-.023-4.926-.051-7.389-.02-4.927.021-7.389c.046-2.772.136-5.544.267-8.314.028-.583-.862-.575-.903,0h0Z" fill="#154fe5"/>
      <path d="M18.366,59.415c-.251.837-.547,1.66-.886,2.465l.066-.155c-.317.749-.67,1.483-1.06,2.197-.195.357-.399.71-.612,1.057s-.422.696-.632,1.045c-.12.199-.242.396-.367.592-.062.097-.135.191-.189.292s-.096.213-.145.318c-.12.26-.091.549.146.732.232.179.53.144.746-.044.108-.094.225-.184.313-.297.117-.149.233-.299.348-.449.177-.232.35-.467.519-.706.336-.475.614-.99.885-1.504.566-1.074,1.054-2.193,1.46-3.337.22-.619.414-1.247.583-1.882.082-.308-.103-.677-.426-.751-.329-.075-.653.099-.751.426h0Z" fill="#154fe5"/>
      <path d="M18.868,58.002c-.012,1.195-.024,2.389-.036,3.584l-.018,1.769c-.006.595-.039,1.197-.011,1.792l.048.998c.017.366.078.727.128,1.09.024.177.245.323.415.316.178-.008.38-.126.415-.316.06-.324.13-.648.16-.976l.081-.885c.055-.595.061-1.195.081-1.792.04-1.187.081-2.374.121-3.561.023-.673.046-1.346.069-2.019.013-.38-.344-.744-.727-.727-.397.018-.723.319-.727.727h0Z" fill="#154fe5"/>
      <path d="M19.933,58.427c.313,1.076.626,2.152.939,3.229.309,1.064.677,2.111,1.027,3.162.099.298.194.599.299.896.112.316.281.619.425.922.07.148.286.227.438.178s.301-.201.285-.374c-.027-.276-.047-.554-.081-.83-.038-.304-.121-.605-.187-.904l-.364-1.643c-.118-.535-.232-1.069-.371-1.599l-.426-1.626-.478-1.824c-.103-.395-.562-.673-.959-.545s-.667.54-.545.959h0Z" fill="#154fe5"/>
      <path d="M51.155,2.55c-3.756.026-7.499.577-11.106,1.618s-7.098,2.6-10.304,4.559-6.185,4.348-8.782,7.076c-.647.68-1.251,1.404-1.836,2.137-.606.76-1.286,1.543-1.75,2.401-.524.971-.602,2.244.305,3.025.485.418,1.075.599,1.708.425.541-.149,1.04-.508,1.517-.794,1.807-1.079,3.532-2.319,5.27-3.505s3.493-2.38,5.257-3.544c3.511-2.318,7.101-4.535,10.88-6.392.475-.234.953-.462,1.434-.684.216-.1.432-.198.648-.295.117-.052.234-.104.351-.156.091-.04.594-.276.166-.075.308-.145.628-.272.94-.407.117-.051.237-.097.353-.151-.035.016-.352.147-.088.037.067-.028.135-.056.202-.084.49-.203.982-.398,1.478-.586,2.022-.768,4.091-1.411,6.19-1.932s4.221-.888,6.347-1.261c.535-.094,1.071-.181,1.608-.263.259-.039.519-.077.779-.114.111-.016.223-.029.334-.046-.479.072.008,0,.123-.015,1.087-.139,2.177-.256,3.269-.351,2.176-.19,4.355-.252,6.536-.364,2.195-.113,4.384-.06,6.579.026s4.399.195,6.588.416c1.087.109,2.173.224,3.258.347.551.062,1.103.118,1.654.177.266.028.532.057.797.086.064.007.417.052.193.02.15.022.3.045.45.067.505.075,1.011.151,1.516.228.342.052.676.091,1.022.093.279.002.574-.025.849.005.611.067,1.198-.586,1.172-1.172-.031-.692-.517-1.1-1.172-1.172.221.024-.123-.051-.184-.064-.129-.028-.257-.055-.386-.083-.337-.072-.673-.115-1.017-.137-.53-.034-1.06-.069-1.59-.102-1.085-.068-2.164-.208-3.248-.297-2.136-.177-4.273-.338-6.408-.528-2.155-.192-4.313-.349-6.474-.454S72.289.007,70.135,0c-2.114-.006-4.228.058-6.337.207-2.227.158-4.463.382-6.655.809-4.246.827-8.371,2.109-12.335,3.84-3.758,1.641-7.308,3.781-10.726,6.035-3.474,2.291-6.821,4.765-10.167,7.237-.193.142-.385.285-.578.427-.104.077-.208.153-.311.23-.11.082-.218.169-.329.25.099-.073.039-.032-.025.016-.413.309-.824.622-1.237.932s-.825.619-1.239.926c-.249.185-.492.376-.734.571-.099.08-.198.159-.297.239-.042.034-.085.068-.127.102-.013.01-.132.103-.056.047-.058.043-.118.084-.179.121.007-.004-.143.067-.078.042.025-.01.134-.031.039-.016-.097.016.03.002.053.006.013.002.134.033.038.018-.087-.014.045.071-.003-.007-.052-.083.004.01.013.024-.012-.018-.11-.207-.069-.111.043.1-.049-.211-.028-.09.023.139.008-.206-.006-.091.029-.256.104-.367.243-.595.119-.196.255-.381.393-.564.175-.233.215-.282.36-.467.28-.356.567-.706.859-1.052,1.178-1.394,2.441-2.729,3.774-3.975.662-.619,1.344-1.215,2.045-1.79.175-.144.351-.286.529-.426.076-.06.152-.12.229-.18.051-.04.102-.08.153-.119-.076.058.018-.013.043-.032.362-.274.725-.545,1.094-.808,1.49-1.064,3.048-2.029,4.658-2.9.797-.432,1.608-.838,2.431-1.218.85-.393,1.558-.693,2.435-1.029,3.368-1.293,6.895-2.213,10.483-2.623.886-.101,1.776-.172,2.667-.214.78-.037.79-1.226,0-1.22h0Z" fill="#154fe5"/>
      <path d="M41.911,8.38c-.285,2.884-.512,5.772-.763,8.659-.25,2.871-.561,5.734-.731,8.611-.048.808-.057,1.608-.053,2.417.003.489.017.959.085,1.445.011.079.024.159.033.238l.017.119c-.016-.087-.02-.088-.011-.004-.012.224.042.457.044.682.009.861.915,1.323,1.648.945,2.239-1.155,4.566-2.14,6.878-3.141.588-.255,1.177-.508,1.766-.759.276-.118.553-.235.83-.352.025-.011.254-.107.131-.055s.105-.044.13-.055c.165-.07.331-.139.496-.208,1.158-.485,2.322-.955,3.489-1.418,4.698-1.863,9.359-3.812,14.109-5.543,1.314-.479,2.635-.936,3.948-1.418.676-.248,1.352-.494,2.03-.738.32-.115.641-.222.965-.324.518-.164.934-.454,1.358-.787l-.554.323c.151-.051.303-.102.455-.152.916-.306,1.216-1.387.556-2.107-.81-.882-1.595-1.787-2.352-2.715-.095-.116-.188-.233-.283-.349.183.225-.108-.14-.139-.18-.158-.208-.314-.417-.469-.627-.354-.48-.702-.965-1.042-1.455-.66-.951-1.311-1.911-1.943-2.881-.326-.502-.633-1.016-.957-1.519-.198-.309-.415-.658-.665-.924-.219-.234-.546-.463-.823-.637l.386.386c-.135-.224-.271-.448-.405-.673-.282-.474-.962-.689-1.444-.379-.499.322-.652.919-.379,1.444.121.232.243.464.368.694l-.147-.543c.012.343.052.715.148,1.044.101.347.316.714.497,1.028.298.517.631,1.019.957,1.519.7,1.075,1.445,2.106,2.233,3.118,1.466,1.883,3.028,3.705,4.674,5.433l.556-2.107c-.054.019-.495.179-.232.115-.142.035-.307.029-.453.044-.439.046-.764.172-1.169.32-.6.219-1.209.417-1.812.628-1.208.422-2.407.869-3.603,1.323-2.393.906-4.782,1.827-7.159,2.774-2.448.975-4.902,1.95-7.302,3.036-2.325,1.053-4.644,2.121-6.953,3.208-2.601,1.225-5.159,2.545-7.783,3.719l1.648.945c.006-.187.03-.372.047-.558.002-.024.03-.278.013-.153-.016.124.021-.121.025-.145.074-.439.12-.87.138-1.314.029-.723.077-1.446.07-2.17-.013-1.446,0-2.892-.041-4.338-.079-2.87-.01-5.739.139-8.606.084-1.629.182-3.257.293-4.884.027-.403-.363-.748-.748-.748-.438,0-.708.344-.748.748h0Z" fill="#154fe5"/>
      <path d="M46.178,9.188c-1.739,2.274-2.925,4.933-3.497,7.736-.137.671.665.96,1.057.446,1.268-1.664,2.565-3.304,3.914-4.904s2.789-3.135,4.269-4.629c.848-.856,1.711-1.699,2.585-2.529l-.975-.752c-3.62,5.014-6.722,10.366-9.4,15.938-.765,1.591-1.479,3.203-2.19,4.819-.143.325-.095.706.236.899.286.167.747.087.899-.236,1.47-3.116,3.286-6.054,5.299-8.847,1.988-2.757,4.198-5.332,6.374-7.939,1.252-1.501,2.526-2.984,3.8-4.466l-1.086-.838c-2,2.992-4.045,5.951-5.997,8.974-.976,1.511-1.939,3.032-2.887,4.56-.926,1.492-1.883,2.977-2.724,4.519-.977,1.791-1.895,3.615-2.922,5.377-.303.521.462,1.166.863.666,2.513-3.138,5.055-6.253,7.625-9.345,2.548-3.064,5.069-6.15,7.617-9.214,1.43-1.719,2.872-3.431,4.34-5.117.228-.262.281-.635.055-.919-.213-.267-.598-.364-.903-.18-1.283.774-2.224,1.947-3.022,3.194-.899,1.403-1.711,2.866-2.551,4.305-1.783,3.054-3.535,6.125-5.278,9.203-.988,1.746-1.972,3.494-2.965,5.237-.216.378-.089.882.289,1.103.407.238.847.065,1.103-.289,4.245-5.867,8.665-11.611,13.276-17.195,1.307-1.583,2.63-3.151,3.965-4.711l-1.34-1.034c-3.017,5.098-6.035,10.196-9.052,15.294-.858,1.449-1.715,2.898-2.573,4.347-.229.388-.088.915.299,1.141.415.243.884.072,1.141-.299,1.48-2.134,3.042-4.209,4.618-6.273,1.551-2.033,3.075-4.111,4.634-6.169.863-1.14,1.735-2.274,2.616-3.4l-1.382-1.067c-.522.808-1.045,1.615-1.564,2.426-.511.799-.968,1.612-1.393,2.461-.87,1.739-1.646,3.526-2.327,5.347-.383,1.023-.732,2.059-1.052,3.104-.119.389.109.825.477.973.402.162.786.007,1.03-.337,1.393-1.965,2.943-3.812,4.413-5.718,1.449-1.878,2.935-3.727,4.451-5.551l-1.285-.992c-1.496,2.925-2.644,6.108-3.204,9.351-.147.848.852,1.262,1.361.574,1.609-2.18,3.462-4.278,5.565-5.994l-1.021-.594c-.249,1.623-.902,3.061-1.885,4.368-.226.3-.048.777.249.951.356.208.725.052.951-.249,1.067-1.419,1.676-3.156,1.885-4.907.068-.573-.689-.741-1.043-.432-1.053.92-2.107,1.835-3.092,2.829s-1.908,2.036-2.778,3.127l1.244.724c.332-1.567.724-3.116,1.265-4.625.53-1.479,1.175-2.911,1.917-4.295.192-.358.121-.808-.211-1.056-.306-.228-.804-.249-1.075.064-1.598,1.848-3.162,3.724-4.691,5.63-1.551,1.933-2.951,3.983-4.44,5.964l1.507.635c.76-2.257,1.664-4.446,2.727-6.576.269-.539.548-1.074.835-1.604.144-.265.29-.529.438-.791.152-.27.304-.594.425-.8.306-.519.567-1.067.864-1.592s.637-1.025.976-1.524c.244-.359.102-.89-.227-1.136-.322-.24-.874-.275-1.156.069-1.652,2.02-3.278,4.06-4.877,6.123-1.626,2.098-3.152,4.265-4.658,6.451-.843,1.224-1.679,2.452-2.528,3.671l1.44.842c3.026-5.093,6.052-10.186,9.078-15.279.86-1.447,1.72-2.895,2.58-4.342.215-.363.115-.85-.22-1.1-.318-.238-.839-.261-1.12.067-4.796,5.585-9.416,11.338-13.786,17.262-1.23,1.667-2.443,3.346-3.64,5.036l1.392.814c1.691-3.035,3.402-6.059,5.115-9.082,1.701-3.002,3.369-6.025,5.104-9.008.759-1.305,1.602-2.639,2.912-3.453l-.848-1.1c-2.601,3.071-5.226,6.122-7.808,9.21-2.558,3.061-5.018,6.201-7.466,9.351-1.403,1.806-2.797,3.619-4.182,5.438l.949.555c.867-1.577,1.852-3.086,2.821-4.602s1.875-3.071,2.811-4.607c1.851-3.038,3.755-6.044,5.712-9.015,1.121-1.703,2.246-3.405,3.433-5.062.458-.639-.559-1.412-1.086-.838-2.368,2.579-4.736,5.151-6.917,7.892-2.165,2.72-4.22,5.535-6.005,8.52-.997,1.667-1.906,3.385-2.707,5.154l1.201.506c2.39-5.679,5.426-11.055,8.652-16.292.905-1.468,1.845-2.914,2.808-4.344.398-.591-.487-1.247-.975-.752-1.489,1.509-2.938,3.057-4.344,4.645s-2.821,3.162-4.18,4.787c-.772.923-1.535,1.856-2.274,2.807l.967.563c.539-2.643,1.684-5.171,3.34-7.304.537-.691-.42-1.444-.958-.739h0Z" fill="#154fe5"/>
      <path d="M10.379,9.888c-.608.632-1.104,1.372-1.471,2.167-.2.435-.381.882-.539,1.335-.134.385-.224.788-.364,1.17-.298.812-.544,1.64-.849,2.449-.173.46-.354.921-.475,1.398-.119.471-.223.946-.299,1.426-.106.669-.158,1.332-.126,2.009.025.524.046,1.093.308,1.558.241.428.608.778,1.09.916.14.04.354.066.45.066.271,0,.523-.069.757-.205.11-.085.22-.17.329-.255l-.314.243c.24-.182.463-.358.61-.629.143-.263.196-.486.235-.773.035-.263.037-.25.002-.514-.014-.107-.028-.21-.046-.315-.014-.086-.027-.172-.039-.258l.061.455c-.059-.443-.085-.889-.083-1.336.002-.457-.006-.914.017-1.371.023-.447.064-.892.086-1.339.022-.452.042-.907.089-1.357l-.044.328c.084-.621.169-1.241.279-1.858.106-.593.34-1.187.568-1.742l-.107.255c.27-.632.603-1.238,1.022-1.784l-.172.223c.187-.24.389-.467.608-.679.421-.408.44-1.178,0-1.582s-1.149-.45-1.582,0h0Z" fill="#154fe5"/>
      <path d="M1.943,13.223c-.687.921-1.198,1.975-1.525,3.075s-.481,2.273-.393,3.419c.026.344.054.702.132,1.039.035.15.09.299.14.445.063.183.128.359.233.522.103.159.307.264.498.203.194-.063.31-.223.324-.425.01-.156-.004-.301-.016-.456-.012-.153-.011-.308-.025-.461-.027-.3-.065-.597-.076-.899-.022-.611.006-1.23.086-1.836l-.022.163c.115-.855.341-1.691.676-2.486l-.061.143c.278-.655.627-1.276,1.046-1.851.085-.116.096-.321.059-.454-.038-.137-.143-.285-.271-.352-.137-.072-.302-.108-.454-.059-.155.05-.255.141-.352.271h0Z" fill="#154fe5"/>
    </g>
  </g>
</svg>