<?xml version="1.0" encoding="UTF-8"?>
<svg id="b" data-name="Calque 2" xmlns="http://www.w3.org/2000/svg" width="66.916" height="69.336" viewBox="0 0 66.916 69.336">
  <g id="c" data-name="Layer 1">
    <g>
      <path d="M23.488,16.536c-1.206-1.438-2.457-2.898-4.083-3.879-1.609-.97-3.675-1.453-5.493-.803s-3.212,2.131-4.201,3.746c-1.012,1.653-1.609,3.578-1.697,5.514-.084,1.869.386,3.801,1.488,5.331,1.064,1.478,2.504,2.562,4.199,3.217,3.329,1.284,7.306.167,9.546-2.584.634-.779,1.112-1.588,1.482-2.522.332-.838.498-1.737.561-2.633.064-.902-.026-1.824-.223-2.705-.193-.863-.512-1.711-1.015-2.443-.142-.207-.291-.421-.456-.609-.166-.189-.396-.341-.594-.492-.271-.207-.72-.121-.964.068-.263.203-.42.583-.311.913.049.149.087.302.136.452.039.119.102.239.154.356.017.038.034.076.05.114-.065-.157-.077-.184-.035-.081.106.276.206.555.292.839.18.589.348,1.166.431,1.779l-.044-.326c.092.72.092,1.447-.002,2.167l.046-.343c-.094.677-.27,1.336-.532,1.967l.136-.323c-.246.578-.562,1.118-.945,1.617l.22-.285c-.404.517-.871.978-1.389,1.38l.296-.229c-.612.467-1.292.865-2,1.166l.356-.15c-.661.275-1.34.482-2.051.581l.384-.052c-.605.079-1.216.086-1.821.006l.372.05c-.632-.089-1.247-.262-1.835-.509l.325.137c-.605-.26-1.173-.593-1.696-.994l.268.207c-.519-.405-.981-.87-1.384-1.39l.201.261c-.363-.476-.667-.99-.901-1.541l.125.297c-.252-.607-.413-1.244-.502-1.895l.043.318c-.102-.802-.092-1.61.01-2.411l-.041.302c.082-.607.214-1.205.4-1.789.045-.14.093-.279.145-.416.028-.074.056-.148.086-.221.013-.031.026-.063.038-.094.053-.132-.088.199-.029.07.128-.278.256-.555.403-.825.151-.278.315-.55.491-.814.082-.122.166-.243.253-.361.022-.031.158-.207.062-.085-.09.114-.015.019.002-.003.034-.043.069-.086.103-.129.185-.227.38-.445.587-.652.1-.099.202-.196.307-.29.048-.043.097-.085.147-.127.025-.021.05-.041.075-.062.013-.01.181-.145.051-.041-.119.095.05-.034.081-.056.061-.043.124-.086.187-.127.126-.082.255-.158.387-.229.057-.03.114-.059.171-.087.028-.014.262-.118.117-.056-.139.06.058-.02.093-.033.082-.03.165-.057.248-.081.137-.041.277-.074.417-.101.038-.007.291-.047.132-.024-.149.021.091-.007.134-.011.296-.023.593-.018.889.011.033.003.066.007.099.01.173.018-.033.002-.053-.007.054.024.139.022.197.033.153.028.305.063.456.103.14.037.279.079.417.126.074.025.148.051.221.079.038.014.25.103.141.054-.117-.053.017.008.046.021.031.014.061.028.092.042.061.028.122.058.182.088.14.07.278.144.414.222.279.161.548.34.808.531.028.021.056.042.084.063.016.012.136.106.05.038-.083-.066.009.008.021.018.045.037.091.074.135.111.135.112.267.228.397.345.26.236.512.482.757.735.507.523.986,1.072,1.464,1.622.289.332.894.318,1.186,0,.33-.359.302-.826,0-1.186h0Z" fill="#154fe5"/>
      <path d="M4.353,11.044l-.665-.849-.187-.238c-.025-.027-.054-.046-.089-.057-.033-.017-.068-.025-.106-.024l-.073.01c-.036.009-.067.025-.094.049-.021.012-.037.029-.049.049-.024.027-.041.058-.049.094l-.01.073c0,.05.013.096.038.139.21.292.42.585.629.877l.177.246c.027.046.063.082.109.109l.073.031c.054.015.108.015.162,0,.04-.009.074-.028.104-.055.033-.021.059-.05.078-.085.022-.035.034-.073.036-.113.009-.04.007-.081-.005-.121-.014-.052-.041-.096-.078-.134h0Z" fill="#154fe5"/>
      <path d="M16.93,4.097c.235-.735.464-1.472.714-2.203l.211-.618c.042-.134.048-.268.018-.402-.006-.134-.046-.259-.12-.374l-.157-.204c-.091-.098-.199-.168-.324-.208-.079-.046-.163-.068-.254-.069-.134-.03-.268-.024-.402.018l-.241.102c-.151.09-.272.21-.361.361-.161.349-.316.701-.483,1.047s-.337.695-.505,1.042l-.284.586c-.108.187-.163.388-.163.604l.043.318c.057.203.16.379.308.528.108.117.237.199.385.248.143.075.297.109.461.103.165.006.319-.028.461-.103.148-.048.277-.131.385-.248.148-.149.251-.326.308-.528h0Z" fill="#154fe5"/>
      <path d="M30.916,12.824c.179-.183.358-.367.537-.55l.266-.272.034-.035.015-.015s.006-.007.01-.01l.16-.207.004-.005c.018-.026.034-.052.052-.078l.101-.154.231-.35.088-.209c.036-.116.042-.233.016-.349,0-.079-.02-.153-.06-.221-.035-.109-.096-.202-.181-.282l-.177-.137-.209-.088c-.116-.036-.233-.042-.349-.016-.117.005-.225.04-.325.104l-.311.205-.154.101c-.123.081-.248.161-.355.265l-.547.535-.31.302c-.101.094-.173.205-.214.334-.065.124-.095.257-.089.399-.005.143.024.276.089.399.042.128.113.24.214.334l.21.162c.162.094.336.141.523.142l.276-.037c.176-.049.328-.138.457-.267h0Z" fill="#154fe5"/>
      <path d="M3.6,12.26c.225.129.45.259.674.388l.19.109c.052.033.108.051.168.054.06.013.12.011.18-.008.059-.014.11-.041.153-.081.049-.032.088-.074.116-.127l.045-.108c.021-.08.021-.16,0-.24l-.045-.108c-.04-.068-.094-.122-.162-.162-.207-.159-.415-.318-.622-.477l-.175-.134c-.059-.038-.123-.058-.192-.061-.069-.015-.137-.012-.206.009-.067.016-.126.047-.176.092-.056.036-.101.085-.133.145l-.052.123c-.025.092-.025.183,0,.275l.052.123c.046.078.108.139.185.185h0Z" fill="#154fe5"/>
      <path d="M56.89,22.754c-1.552-1.076-3.55-1.33-5.372-.947-1.858.391-3.418,1.52-4.528,3.036-1.081,1.475-1.633,3.331-1.641,5.152-.007,1.697.494,3.392,1.373,4.841.867,1.429,2.106,2.668,3.579,3.467s3.139,1.142,4.81.95c3.341-.385,6.49-2.805,7.31-6.144.45-1.834.147-3.802-.675-5.488-.408-.837-.996-1.609-1.603-2.309-.286-.33-.587-.641-.915-.93-.204-.18-.413-.365-.636-.52-.079-.055-.16-.112-.244-.159-.187-.103.186.165.019.029-.054-.044-.107-.088-.16-.132-.214-.174-.431-.345-.652-.508-.217-.16-.502-.244-.749-.346-.36-.148-.872.096-1.047.426-.202.382-.138.802.145,1.123.107.122.206.262.325.371.115.106.248.195.368.294.069.056.137.113.205.17.03.025.058.054.09.077.107.077-.016-.044-.041-.088.107.189.302.394.454.555.454.483.903.975,1.309,1.5l-.186-.241c.6.785,1.092,1.645,1.479,2.554l-.123-.291c.257.615.439,1.255.529,1.915l-.042-.311c.072.567.079,1.139.004,1.706l.04-.299c-.04.282-.097.56-.175.834-.035.124-.074.246-.116.367-.023.065-.046.129-.071.193-.012.032-.025.063-.038.095-.073.189.114-.254.029-.069-.234.505-.514.969-.843,1.418.197-.268.052-.069,0-.005-.044.054-.089.107-.135.16-.097.112-.197.221-.301.327-.201.206-.413.401-.635.583-.054.044-.109.086-.163.131.008-.006.2-.149.073-.058-.028.021-.056.042-.085.062-.113.082-.229.162-.347.238-.242.157-.493.301-.751.43-.117.058-.236.113-.356.166-.139.062.067-.029.078-.033-.033.011-.065.026-.097.039-.081.032-.163.063-.246.092-.263.093-.531.172-.803.235-.135.031-.272.059-.409.082-.068.012-.137.02-.206.032.013-.002.23-.025.08-.012-.043.004-.087.009-.13.011-.278.018-.558.017-.836,0-.07-.005-.14-.01-.209-.017-.032-.003-.284-.033-.117-.012s-.087-.015-.118-.02c-.079-.013-.157-.028-.235-.044-.277-.057-.55-.131-.818-.221-.134-.045-.266-.093-.397-.146-.032-.013-.065-.029-.098-.04.227.079.127.055.073.03-.072-.033-.144-.065-.215-.099-.262-.126-.516-.266-.763-.42-.112-.07-.223-.143-.331-.219-.058-.04-.116-.082-.173-.123-.029-.021-.057-.042-.085-.063-.092-.068.168.133.042.032-.228-.183-.449-.375-.659-.579s-.411-.42-.6-.645c-.04-.048-.08-.096-.119-.145-.022-.028-.044-.056-.067-.084-.075-.094.122.162.051.066-.09-.122-.18-.244-.265-.369-.161-.236-.31-.48-.448-.731-.069-.125-.135-.252-.197-.381-.031-.064-.062-.129-.092-.194-.018-.039-.128-.292-.059-.129.072.169-.029-.074-.041-.106-.026-.066-.051-.133-.075-.2-.051-.143-.099-.286-.143-.431-.082-.273-.151-.55-.205-.83-.013-.07-.026-.14-.038-.211-.006-.035-.011-.071-.017-.106-.027-.162.012.099.013.106-.026-.148-.035-.302-.046-.452-.022-.306-.025-.613-.012-.919.006-.144.017-.288.03-.432.007-.077.017-.153.025-.23.015-.132-.034.23-.013.099.008-.047.014-.095.022-.143.051-.314.123-.623.207-.93.082-.297.175-.59.288-.876.014-.036.029-.071.043-.107.047-.121-.089.204-.036.085.031-.07.062-.14.095-.21.069-.147.143-.293.221-.436.146-.268.309-.528.486-.776.044-.062.094-.121.136-.184-.167.251-.033.045.02-.019.103-.125.211-.246.323-.363.219-.23.463-.424.697-.636-.011.01-.199.148-.066.052.031-.022.061-.046.093-.068.054-.039.109-.077.164-.114.135-.09.273-.175.414-.254.133-.074.269-.144.407-.209.077-.036.305-.105.024-.015.081-.026.16-.064.24-.094.296-.109.599-.197.907-.262.14-.03.281-.053.422-.075.128-.02-.221.026-.092.013.038-.004.076-.009.114-.012.085-.009.171-.016.256-.021.303-.018.608-.016.91.01.074.006.152.023.226.023-.289.001-.075-.011.021.006.158.027.315.06.47.099.146.037.29.08.433.128.062.021.124.044.186.067.03.011.072.034.105.041-.222-.046-.114-.049-.024-.008.276.125.539.275.79.445.418.283,1.086.093,1.318-.346.26-.491.098-1.011-.346-1.318h0Z" fill="#154fe5"/>
      <path d="M.79,32.857c4.184,1.111,8.364,2.234,12.535,3.391s8.299,2.319,12.441,3.502,8.32,2.399,12.477,3.608,8.27,2.423,12.398,3.659,8.292,2.498,12.43,3.771c.512.158,1.025.315,1.537.474.917.283,2.041-.336,2.256-1.281.223-.978-.294-1.974-1.281-2.256-4.161-1.191-8.327-2.366-12.498-3.525s-8.306-2.292-12.466-3.414-8.367-2.227-12.558-3.312-8.347-2.143-12.527-3.191-8.401-2.103-12.605-3.138c-.521-.128-1.041-.256-1.562-.384-.552-.135-1.205.176-1.338.76-.13.571.171,1.182.76,1.338h0Z" fill="#154fe5"/>
      <path d="M30.328,41.893c-3.542,6.14-7.433,12.073-11.668,17.758-.581.78-1.148,1.57-1.729,2.35-.302.405-.615.803-.911,1.213-.136.188-.252.39-.386.58-.142.201-.325.372-.495.55-.38.399-.261,1.209.349,1.322,1.828.339,3.674.552,5.521.762,1.791.204,3.58.417,5.369.634.884.107,1.768.216,2.652.326.452.056.905.113,1.357.17.206.026.411.052.617.078.123.016.247.031.37.047.275.035-.142-.02.157.021,1.793.251,3.587.504,5.379.765.977.142,1.955.283,2.931.436.488.076.975.153,1.463.231.611.097,1.276.24,1.899.187s1.152-.344,1.406-.946c.259-.614.079-1.18-.318-1.68-.07-.088-.14-.177-.21-.265l-.07-.088c-.097-.117-.093-.118.012-.004-.091-.176-.201-.344-.3-.514-.241-.414-.477-.823-.683-1.256-.393-.827-.781-1.656-1.164-2.488-.719-1.561-1.38-3.187-2.067-4.887-1.366-3.378-2.68-6.764-3.863-10.211-.676-1.97-1.255-3.974-2.094-5.882-.138-.315-.587-.412-.874-.286-.335.147-.471.473-.405.826.34,1.809.959,3.546,1.537,5.29s1.197,3.474,1.795,5.212,1.208,3.466,1.85,5.185c.627,1.683,1.33,3.337,1.959,5.018.719,1.92,1.649,3.821,2.007,5.848l1.892-1.892c-.502-.17-1.12-.221-1.64-.262-.452-.035-.903-.074-1.355-.11-.904-.073-1.807-.151-2.71-.227-1.787-.151-3.574-.295-5.361-.434-3.599-.279-7.195-.6-10.795-.87-2.015-.151-4.03-.306-6.052-.289l.683,1.191c.48-.753,1.097-1.415,1.644-2.124s1.089-1.423,1.626-2.141c1.059-1.416,2.06-2.881,3.055-4.342,1.992-2.927,3.908-5.907,5.735-8.94,1.035-1.717,2.041-3.451,3.019-5.2.412-.737-.71-1.394-1.133-.662h0Z" fill="#154fe5"/>
    </g>
  </g>
</svg>