<svg role="img" aria-label="Macif - La Macif c'est vous (accueil)" class="mcf-d--block mcf-d-xl--none" width="47" height="48" viewBox="0 0 47 48" fill="none" xmlns="http://www.w3.org/2000/svg">
    <path d="M47 3.59631V44.4037C39.5059 46.4264 31.6304 47.5 23.4979 47.5C15.3655 47.5 7.48999 46.4264 0 44.4037V3.59631C7.48999 1.57771 15.3655 0.500012 23.4979 0.500012C31.6304 0.495867 39.5059 1.57771 47 3.59631Z" fill="#0A2D82"/>
    <path d="M28.3848 17.2252C28.3848 19.8324 26.2708 21.9463 23.6678 21.9463C21.0647 21.9463 18.9508 19.8324 18.9508 17.2252C18.9508 14.618 21.0647 12.504 23.6678 12.504C26.2708 12.504 28.3848 14.618 28.3848 17.2252Z" fill="#D3D62E"/>
    <path d="M34.1794 17.225H31.2862C31.0375 17.2664 30.8261 17.453 30.7681 17.6975C30.5235 21.4114 27.4355 24.3544 23.6594 24.3544C19.7258 24.3544 16.5301 21.1669 16.5301 17.225C16.5301 13.4945 19.3942 10.4355 23.046 10.1246V10.1205C23.3817 10.1205 23.6553 9.8262 23.6553 9.48631V6.81279C23.6553 6.4729 23.3817 6.19933 23.046 6.19933V6.19519C17.2347 6.51021 12.6172 11.3308 12.6172 17.225C12.6172 23.3264 17.5622 28.2755 23.6636 28.2755C29.566 28.2755 34.3867 23.6414 34.6934 17.8136C34.6809 17.5151 34.4654 17.2706 34.1794 17.225Z" fill="#D3D62E"/>
    <path d="M12.0495 37.8754C12.0495 37.4236 12.0495 36.864 12.0619 36.3666H12.0495C11.8132 36.6443 11.5521 36.9221 11.1707 37.2702L10.0308 38.3852H9.93137L8.80807 37.2702C8.44332 36.9221 8.1656 36.6443 7.94592 36.3666H7.9169C7.93348 36.864 7.94592 37.4195 7.94592 37.8754V40.694H5.92731V32.0973H6.19259L8.42673 34.1159C8.77906 34.4351 9.52101 35.1522 10.0474 35.7366H10.0764C10.5738 35.1936 11.3614 34.4351 11.7137 34.1159L13.8774 32.0973H14.1385V40.694H12.0495V37.8754Z" fill="white"/>
    <path d="M18.2295 37.9293H20.1694L20.0699 37.7262C19.8171 37.2039 19.5145 36.5407 19.2077 35.7117H19.1912C18.8844 36.5449 18.5777 37.2039 18.329 37.7262L18.2295 37.9293ZM20.9445 39.5707H17.442L16.899 40.694H14.6483L19.0171 32.0973H19.4606L23.8253 40.694H21.4999L20.9445 39.5707Z" fill="white"/>
    <path d="M31.0998 39.8443C30.3122 40.5323 29.363 40.9427 28.1776 40.9427C25.5455 40.9427 23.8253 39.0111 23.8253 36.5158C23.8253 33.8548 25.6823 32.0973 28.0781 32.0973C29.3506 32.0973 30.3122 32.5367 31.0749 33.1957L29.9184 34.6672C29.4749 34.2568 28.9112 33.9791 28.1941 33.9791C26.8221 33.9791 25.989 35.0651 25.989 36.5117C25.989 37.9998 26.8221 39.0526 28.2356 39.0526C28.9237 39.0526 29.5081 38.8205 29.9558 38.3811L31.0998 39.8443Z" fill="white"/>
    <path d="M34.2127 32.3501H32.1237V40.6981H34.2127V32.3501Z" fill="white"/>
    <path d="M38.0552 34.2319V36.1925H41.2385V37.9583H38.0552V40.6981H35.9661V32.3501H42.1297L41.7194 34.2319H38.0552Z" fill="white"/>
</svg>