<svg width="129" height="157" viewBox="0 0 129 157" fill="none" xmlns="http://www.w3.org/2000/svg">
<g clip-path="url(#clip0_1_418)">
<path d="M36.43 79.7801C36.49 79.7801 36.5 79.69 36.44 79.6701C34.48 79.1401 32.4 79.5301 30.62 80.4501C30.53 80.5001 30.61 80.6301 30.7 80.59C32.55 79.66 34.4 79.5201 36.42 79.7801H36.43ZM94.78 53.5601C94.49 52.0901 94.05 50.8401 92.76 49.9601C92.64 49.8801 92.76 49.6901 92.87 49.7701C94.07 50.5801 95.09 52.0601 94.88 53.5601C94.88 53.6101 94.78 53.6101 94.77 53.5601H94.78ZM94.58 49.5301C95.11 50.6501 95.68 52.3301 95.25 53.5701C95.22 53.6401 95.1 53.6601 95.08 53.5701C94.97 52.9601 95.04 52.3301 94.94 51.7101C94.82 51.0101 94.59 50.3501 94.29 49.7101C94.2 49.5201 94.49 49.3501 94.58 49.5401V49.5301ZM87.51 46.4601C87.46 46.3801 87.56 46.3001 87.63 46.3401C89.03 47.0701 89.41 49.1101 89.44 50.5401C89.49 53.0501 88.44 55.4201 88.25 57.9001C88.23 58.1101 87.9 58.1201 87.91 57.9001C88.07 55.7701 88.83 53.7401 89.02 51.6201C89.1 50.6901 89.07 49.7201 88.82 48.8101C88.56 47.8801 88.01 47.2501 87.51 46.4501V46.4601ZM88.08 44.8001C89.54 46.5001 90.47 48.7501 90.15 51.0101C90.14 51.0801 90.03 51.0601 90.02 50.9901C89.88 48.7301 89.36 46.7601 87.86 45.0101C87.73 44.8601 87.95 44.6501 88.07 44.8001H88.08ZM87.03 43.4601C88.26 44.2701 89.6 45.4801 90.1 46.9101C90.13 47.0001 90 47.0401 89.95 46.9701C89.5 46.3501 89.14 45.7001 88.63 45.1301C88.12 44.5701 87.54 44.0901 86.9 43.6801C86.76 43.5901 86.9 43.3701 87.03 43.4601ZM89.87 45.3501C89.23 44.3501 88.6 43.4401 87.67 42.6801C87.55 42.5801 87.72 42.4101 87.84 42.5101C88.73 43.2501 89.58 44.2001 90.01 45.3001C90.04 45.3801 89.92 45.4201 89.88 45.3601L89.87 45.3501ZM90.65 8.74005C89.72 8.58005 88.76 8.57005 87.83 8.57005C87.8 8.57005 87.8 8.52005 87.83 8.52005C88.84 8.51005 89.77 8.57005 90.65 8.74005ZM50.12 32.0901C50.74 32.8801 51.53 33.6801 51.99 34.5701C52.02 34.6301 51.95 34.7001 51.89 34.6501C51.14 33.9601 50.58 32.9901 49.97 32.1801C49.9 32.0901 50.05 32.0001 50.12 32.0901ZM79.05 3.17005C79.11 3.12005 79.2 3.20005 79.14 3.26005C78.12 4.19005 77.49 5.25005 76.91 6.48005C76.88 6.54005 76.79 6.50005 76.81 6.44005C77.19 5.18005 78.08 4.04005 79.05 3.17005ZM76.01 6.57005C76.2 5.82005 76.52 5.12005 76.96 4.48005C76.99 4.43005 77.08 4.48005 77.04 4.53005C76.6 5.16005 76.29 5.85005 76.1 6.59005C76.08 6.65005 75.99 6.62005 76.01 6.56005V6.57005ZM66.42 23.5801C66.31 23.8201 66.15 24.2001 66.24 24.4601C66.24 24.4801 66.27 24.4801 66.28 24.4601C66.31 24.4101 66.33 24.3501 66.35 24.2901C66.64 25.4101 67.02 26.5101 67.51 27.5501C67.83 28.2301 68.24 29.1801 69.08 29.3201C69.51 29.3901 70 29.2301 70.4 29.0901C70.81 28.9601 71.2 28.7801 71.52 28.4901C72.18 27.9001 72.36 26.9701 72.45 26.1301C72.52 25.5601 72.55 24.9901 72.56 24.4101C72.56 23.9401 72.57 23.4301 72.5 22.9601C72.5 22.9601 72.5 22.9501 72.5 22.9401C72.65 23.1101 72.78 23.3001 72.85 23.5201C72.85 23.5401 72.88 23.5301 72.88 23.5201C72.71 22.7001 72.04 22.2601 71.32 21.9401C70.92 21.7601 70.52 21.6001 70.07 21.5701C69.62 21.5401 69.13 21.6001 68.7 21.7401C68.64 21.7501 68.59 21.7601 68.53 21.7801C67.87 21.9601 67.28 22.3301 66.85 22.8601C66.67 23.0801 66.52 23.3101 66.41 23.5701L66.42 23.5801ZM66.38 24.1301C66.41 23.9801 66.44 23.8301 66.49 23.6901C66.61 23.3901 66.78 23.1201 66.99 22.8801C67.39 22.4201 67.92 22.0801 68.51 21.9101C69.21 21.7101 69.95 21.7201 70.65 21.9001C70.74 21.9201 70.84 21.9501 70.94 21.9801C71.02 22.0201 71.1 22.0501 71.18 22.0901C71.49 22.2301 71.83 22.4001 72.12 22.6101C72.21 22.7001 72.3 22.8001 72.37 22.9201C72.37 23.5201 72.42 24.1201 72.4 24.7201C72.38 25.3401 72.34 25.9601 72.24 26.5701C72.15 27.1401 71.99 27.7301 71.61 28.1801C71.25 28.6101 70.73 28.8501 70.2 29.0101C69.62 29.1801 69.01 29.3401 68.5 28.9101C68.09 28.5601 67.84 28.0301 67.61 27.5501C67.08 26.4601 66.67 25.3101 66.36 24.1301H66.38ZM64.65 29.8901C65.03 29.9501 65.4 30.0801 65.73 30.2801C65.77 30.3001 65.73 30.3701 65.69 30.3401C65.37 30.1501 65.01 30.0201 64.65 29.9701C64.46 29.9401 64.27 29.9301 64.08 29.9401C63.9 29.9401 63.72 29.9801 63.54 29.9901C63.52 29.9901 63.52 29.9601 63.54 29.9501C63.88 29.8101 64.3 29.8301 64.66 29.8901H64.65ZM61.98 30.7201C60.76 31.2101 59.5 31.6101 58.27 32.0801C57.18 32.5001 56.03 32.9501 54.85 32.9501C54.8 32.9501 54.8 32.8801 54.85 32.8801C56.1 32.8801 57.21 32.3501 58.37 31.9701C59.58 31.5701 60.76 31.0801 61.97 30.6801C61.99 30.6801 62 30.7101 61.97 30.7101L61.98 30.7201ZM55.7 31.0901C55.28 31.2701 54.86 31.4401 54.44 31.6201C54.39 31.6401 54.35 31.5701 54.4 31.5501C54.83 31.3701 55.25 31.1901 55.68 31.0101C56.09 30.8401 56.5 30.6401 56.93 30.5001C56.95 30.5001 56.96 30.5201 56.94 30.5301C56.54 30.7501 56.11 30.9001 55.69 31.0801L55.7 31.0901ZM70.79 13.0701C70.79 13.0701 70.81 13.1101 70.79 13.1101C69.95 13.1001 69.12 13.2101 68.31 13.3901C67.93 13.4701 67.55 13.5701 67.17 13.6801C66.8 13.7801 66.41 13.9501 66.03 13.9901C66.01 13.9901 66.01 13.9601 66.03 13.9601C66.37 13.7901 66.79 13.7201 67.16 13.6201C67.57 13.5101 67.98 13.4101 68.39 13.3201C69.18 13.1601 69.99 13.0601 70.8 13.0701H70.79ZM65.47 13.4001C65.93 13.2501 66.39 13.1001 66.85 12.9501C67.07 12.8801 67.3 12.8101 67.52 12.7501C67.76 12.6801 68 12.5901 68.24 12.5501C68.26 12.5501 68.27 12.5801 68.24 12.5801C68.01 12.6701 67.76 12.7301 67.52 12.8001C67.3 12.8701 67.07 12.9301 66.85 13.0001C66.39 13.1401 65.93 13.2901 65.47 13.4401C65.44 13.4401 65.43 13.4101 65.46 13.4001H65.47ZM47.25 18.2301C47.52 18.2601 47.78 18.2901 48.05 18.3201C48.31 18.3501 48.57 18.3701 48.82 18.4101C48.84 18.4101 48.84 18.4501 48.82 18.4501C48.56 18.4501 48.3 18.4001 48.04 18.3801C47.78 18.3501 47.52 18.3201 47.26 18.3001C47.22 18.3001 47.22 18.2401 47.26 18.2401L47.25 18.2301ZM50.69 35.1401V35.1601C50.37 35.1101 50.05 35.0701 49.73 35.0201C49.72 35.0201 49.73 35.0001 49.73 35.0001C50.05 35.0501 50.37 35.0901 50.69 35.1401ZM48.53 34.4201C47.02 34.7801 45.45 34.3201 43.94 34.7301C42.49 35.1301 41.4 36.1401 40.26 37.0701C40.24 37.0801 40.22 37.0701 40.23 37.0401C41.24 36.1101 42.4 35.1701 43.72 34.7401C45.28 34.2401 46.93 34.7401 48.51 34.3701C48.54 34.3701 48.55 34.4001 48.52 34.4101L48.53 34.4201ZM20.39 73.2001C20.74 73.2801 21.1 73.2401 21.43 73.1101C21.45 73.1101 21.47 73.1401 21.45 73.1501C21.11 73.2901 20.74 73.3301 20.38 73.2601C20.34 73.2601 20.36 73.19 20.4 73.2001H20.39ZM88.13 82.7801C88.13 82.7801 88.09 82.8301 88.07 82.8501C87.65 83.7601 87.08 84.6101 86.52 85.4401C85.88 86.4101 85.24 87.3801 84.62 88.3601C84.58 88.4201 84.48 88.3601 84.52 88.3001C85.12 87.3101 85.71 86.3101 86.29 85.3101C86.4 85.1301 86.5 84.9401 86.61 84.7601C86.24 85.2701 85.89 85.7901 85.55 86.3301C85.51 86.3901 85.41 86.33 85.45 86.2701C85.9 85.5301 86.39 84.8201 86.9 84.1201C87.13 83.8101 87.36 83.5001 87.6 83.2001C87.74 83.0001 87.9 82.8101 88.05 82.6201C88.03 82.5201 88.12 82.4401 88.22 82.4301C88.29 82.3501 88.37 82.2701 88.46 82.2101C88.5 82.1801 88.54 82.23 88.52 82.2701C88.49 82.3501 88.44 82.4201 88.38 82.4901C88.38 82.4901 88.4 82.5001 88.4 82.5101C89.05 83.4301 89.43 84.4801 89.78 85.5401C90.16 86.7001 90.53 87.8701 90.87 89.0501C91.57 91.4201 92.24 93.8 92.83 96.2001C92.83 96.22 92.8 96.2401 92.79 96.2101C92.18 93.8601 91.51 91.5201 90.74 89.2101C90.36 88.0701 89.96 86.9301 89.54 85.8001C89.16 84.7601 88.76 83.7001 88.12 82.7801H88.13ZM84.9 8.55005L84.26 8.69005C84.26 8.69005 84.2 8.64005 84.24 8.62005C84.45 8.56005 84.66 8.50005 84.87 8.45005C84.93 8.43005 84.96 8.53005 84.9 8.55005ZM37.43 47.5501C36.34 48.3401 34.96 48.6701 33.67 48.9601C32.29 49.2601 30.88 49.5101 29.58 50.0801C29.58 50.0801 29.57 50.0801 29.58 50.0701C30.83 49.5101 32.18 49.2501 33.5 48.9501C34.88 48.6401 36.2 48.2501 37.42 47.5101C37.44 47.5001 37.46 47.5301 37.44 47.5401L37.43 47.5501ZM39.45 46.9701C39.17 47.0101 38.89 47.0401 38.61 47.0801C38.58 47.0801 38.58 47.0301 38.61 47.0301C38.89 47.0001 39.17 46.9701 39.45 46.9401C39.47 46.9401 39.47 46.9701 39.45 46.9701ZM40.81 46.1301C40.19 45.7901 39.46 45.6601 38.76 45.7901C38.75 45.7901 38.74 45.7701 38.76 45.7701C39.47 45.6401 40.2 45.7501 40.84 46.0901C40.87 46.1001 40.84 46.1401 40.82 46.1301H40.81ZM103.31 16.2901C101.45 15.1601 99.74 13.8801 97.45 13.9001C97.41 13.9001 97.41 13.8301 97.45 13.8301C99.63 13.7801 101.67 14.9101 103.37 16.1901C103.43 16.2301 103.37 16.3301 103.31 16.2901ZM18.97 52.2801C18.68 51.5601 18.52 50.7701 18.4 50.0101C18.28 49.2601 18.22 48.5101 18.22 47.7501C18.22 47.7201 18.26 47.7201 18.27 47.7501C18.28 48.5301 18.35 49.3101 18.49 50.0701C18.62 50.8201 18.84 51.5301 19.03 52.2601C19.03 52.2901 18.99 52.3001 18.98 52.2701L18.97 52.2801ZM34.38 29.8801C34.38 29.8801 34.34 29.8901 34.35 29.8801C34.42 29.4601 34.49 29.0401 34.57 28.6201C34.57 28.6101 34.59 28.6201 34.59 28.6201L34.38 29.8801ZM128.28 131.28C128.13 130.77 128.01 130.26 127.84 129.76C127.5 128.74 127.06 127.74 126.66 126.73C126.27 125.74 125.85 124.76 125.45 123.78C124.63 121.79 123.81 119.81 122.98 117.83C121.32 113.88 119.66 109.93 117.99 105.99C116.44 102.3 114.86 98.6201 113.42 94.8901C113.23 94.41 113.05 93.9201 112.87 93.4401C111.89 90.4001 111.02 87.3101 110.29 84.2101C109.85 82.34 109.41 80.4601 108.97 78.5801C108.81 77.9001 108.66 77.2201 108.51 76.5401C108.41 74.5401 108.18 72.5501 108.14 70.5501C109.08 67.8201 109.05 64.9201 108.71 62.0601C108.32 58.8101 107.45 55.6701 106.18 52.6501C104.96 49.7501 103.48 46.8001 101.62 44.2701C101.58 44.2101 101.53 44.1601 101.48 44.1101C101.4 43.8301 101.33 43.5501 101.25 43.2701C101.23 43.2101 101.2 43.1701 101.16 43.1401C101.43 42.6001 101.7 42.0601 101.96 41.5101C101.99 41.4501 102.03 41.3801 102.06 41.3201C103.21 39.2201 104.7 37.1901 105.32 34.8401C105.76 33.1601 105.63 31.3601 104.97 29.7701C104.91 29.4601 104.81 29.1501 104.76 28.8401C104.68 28.3501 104.63 27.8501 104.58 27.3601C104.63 27.2001 104.69 27.0401 104.74 26.8701C105.29 25.1401 106.16 21.8101 104.71 20.3301C104.69 20.3101 104.67 20.3001 104.65 20.2801C104.62 20.2201 104.59 20.1601 104.56 20.1001C104.56 20.0801 104.56 20.0601 104.55 20.0401C104.83 19.5701 104.85 18.9301 104.84 18.3501C104.84 18.0001 104.82 17.6501 104.79 17.3001C104.75 16.4501 104.62 15.5801 104.45 14.6801C104.43 14.5901 104.39 14.5201 104.33 14.4701C104.31 14.3801 104.29 14.2901 104.26 14.2001C104.14 13.7501 103.97 13.4001 103.75 13.1101C103.34 11.9801 101.89 11.3401 100.88 10.9101C99.69 10.4001 98.54 9.88005 97.43 9.28005C95.94 8.03005 93.93 7.40005 92.22 6.57005C91.23 6.09005 90.39 5.46005 89.34 5.10005C88.72 4.89005 88.1 4.69005 87.47 4.50005C87.21 4.34005 86.95 4.17005 86.69 4.00005C85.97 2.90005 84.51 1.93005 83.48 1.32005C82.16 0.510053 80.59 0.0200526 79 5.25858e-05C76.35 -0.0299474 74.1 1.19005 72.48 3.16005C71.21 4.10005 69.97 5.07005 68.46 5.66005C67.74 5.94005 66.97 6.24005 66.25 6.62005C65.7 6.79005 65.16 7.00005 64.71 7.35005C63.26 8.50005 63.26 10.6801 64 12.2501C63.43 12.9501 63.15 13.7101 63.08 14.5101C62.38 14.2501 61.58 14.1101 60.79 14.0001C60.21 13.8601 59.61 13.8001 59 13.7901C57.97 13.6801 56.92 13.6301 55.89 13.6901C54.04 13.7901 52.01 14.3301 51.04 16.0601C50.71 16.6501 50.55 17.2601 50.51 17.8801C48.89 16.8401 47.32 16.4101 45.28 16.6601C43.62 16.8701 41.98 17.4401 40.64 18.4601C40.5 18.4201 40.36 18.3701 40.22 18.3301C39.49 17.9301 38.58 17.7801 37.81 17.5301C36.79 17.2001 35.77 16.8601 34.75 16.5401C33.23 16.0601 31.85 15.9301 30.5 16.9201C30.03 17.2601 29.61 17.6701 29.22 18.1201C28.74 18.4701 28.3 18.8501 27.92 19.2701C26.42 20.9101 25.4 22.9201 24.41 24.9001C21.77 28.9201 19.16 33.2301 15.87 36.8001C15.67 36.9901 15.48 37.1801 15.27 37.3701C14.46 37.8201 13.64 38.2501 12.9 38.8101C12.46 39.1501 12.05 39.5401 11.75 40.0201C11.43 40.5201 11.26 41.0801 11.16 41.6601C10.96 42.7301 10.9 43.8201 11 44.9101C11.11 46.1501 11.37 47.4901 11.9 48.6701C12.34 49.8601 12.91 50.9801 13.55 52.0701C13.93 53.0801 14.48 54.0701 15.01 55.0201C14.89 55.0301 14.78 55.0501 14.66 55.0701C13.75 55.0601 12.84 55.3101 12.09 55.8401C10.97 56.6201 10.43 57.8501 10.22 59.1701C10.03 60.4101 9.98999 61.6701 10.27 62.8901C10.56 64.1401 11.32 65.1401 12.17 66.0801C13.06 67.0601 13.9 68.0701 14.67 69.1401C15.43 70.2001 16.08 71.3101 16.72 72.4401C17.04 73.0001 17.39 73.5501 17.84 74.0101C18.29 74.4601 18.81 74.84 19.33 75.2001C19.81 75.5301 20.29 75.8501 20.78 76.1701C21.26 76.48 21.69 76.8601 22.15 77.2101C22.64 77.5801 22.99 77.8901 23.51 78.2601C23.75 78.4301 23.99 78.6101 24.22 78.7901C24.28 78.8401 24.35 78.8901 24.41 78.9301C24.41 78.9301 24.43 78.9501 24.45 78.9601C24.55 79.0401 24.65 79.12 24.75 79.2001C24.91 79.33 25.06 79.4701 25.22 79.6001C25.37 80.98 25.52 82.3601 26.11 83.6401C26.39 84.2401 26.77 84.8101 27.25 85.2701C27.48 85.4901 27.8 85.7601 28.14 85.9401C27.43 87.4901 26.76 89.0501 26.08 90.6101C25.69 91.5001 25.28 92.3801 24.87 93.2601C24.65 93.7201 24.45 94.1901 24.21 94.6401C23.99 95.0601 23.75 95.4801 23.54 95.9001C23.61 95.8501 23.6 95.8701 23.51 95.9701C23.46 96.0301 23.42 96.0801 23.38 96.1401C23.35 96.1801 23.33 96.2201 23.3 96.2601C23.22 96.3701 23.16 96.47 23.1 96.59C23 96.8101 22.9 97.0201 22.79 97.2401C22.59 97.6701 22.38 98.1101 22.17 98.5401C21.74 99.4301 21.31 100.32 20.87 101.21C19.99 102.98 19.09 104.74 18.17 106.49C16.32 109.99 14.37 113.43 12.37 116.84C11.87 117.69 11.36 118.54 10.85 119.39C10.6 119.81 10.3 120.22 10.09 120.67C9.87999 121.12 9.65999 121.56 9.43999 122.01C8.55999 123.78 7.58999 125.51 6.50999 127.16C5.42999 128.81 4.30999 130.44 3.22999 132.1C2.14999 133.75 1.14999 135.45 0.00998584 137.06C-0.0400142 137.13 0.0699858 137.21 0.119986 137.15C0.379986 136.81 0.649986 136.48 0.909986 136.14C0.949986 136.14 0.979986 136.13 1.00999 136.09C1.23999 135.79 1.45999 135.49 1.68999 135.2C2.72999 133.95 3.75999 132.69 4.71999 131.37C5.88999 129.75 6.97999 128.08 8.11999 126.44C8.68999 125.63 9.31999 124.85 9.90999 124.06C10.5 123.28 11.04 122.58 11.64 121.81C12.28 121 12.78 120.06 13.32 119.18C13.84 118.34 14.35 117.49 14.85 116.64C16.85 113.23 18.76 109.76 20.58 106.25C20.71 106 20.84 105.74 20.97 105.49C21.23 105.01 21.48 104.52 21.74 104.04C19.47 109.41 16.83 114.63 13.86 119.65C10.78 124.87 7.34999 129.87 3.54999 134.6C3.54999 134.6 3.54999 134.62 3.55999 134.61C3.79999 134.32 4.03999 134.03 4.26999 133.73C6.14999 131.39 7.94999 128.98 9.67999 126.53C11.42 124.05 13.08 121.51 14.64 118.91C16.2 116.31 17.66 113.66 19.03 110.95C20.15 108.73 21.21 106.48 22.21 104.2C20.77 108.13 19.21 112.02 17.51 115.85C16.56 117.99 15.44 120.09 14.24 122.1C13.04 124.12 11.72 126.08 10.29 127.95C10.28 127.96 10.3 127.98 10.32 127.97C11.94 125.91 13.41 123.73 14.76 121.48C15.97 119.46 17.06 117.38 18.13 115.28C19.21 113.17 20.15 110.99 21.03 108.79C21.91 106.58 22.73 104.35 23.52 102.12C23.91 101 24.29 99.8801 24.66 98.7501C24.8 98.34 24.94 97.9201 25.07 97.5001C25.25 97.1301 25.43 96.7601 25.61 96.3901C22.51 105.61 19.2 114.76 15.75 123.85C15.7 123.99 15.91 124.04 15.97 123.91C21.14 110.97 25.93 97.8901 30.53 84.7401C30.59 84.6501 30.63 84.5501 30.65 84.4301C30.65 84.4001 30.65 84.3801 30.66 84.3601C30.88 83.7301 31.1 83.1101 31.32 82.4801C32.88 81.4101 34.57 80.8701 36.43 80.5701C36.48 80.5701 36.48 80.5101 36.46 80.4801C36.48 80.4801 36.49 80.48 36.51 80.4901C36.56 80.55 36.6 80.59 36.66 80.6401C36.72 80.6901 36.78 80.7401 36.84 80.7901C36.95 80.8901 37.06 81.0001 37.16 81.1201C37.37 81.3501 37.54 81.6101 37.69 81.8801C37.73 81.9501 37.83 81.8801 37.79 81.8201C37.65 81.5301 37.47 81.2601 37.26 81.0101C37.16 80.8901 37.05 80.7701 36.93 80.6601C36.87 80.6001 36.81 80.5501 36.75 80.5001C36.69 80.4501 36.63 80.41 36.55 80.3801C36.53 80.3801 36.52 80.3801 36.51 80.3801C35.97 80.2401 35.35 80.3801 34.81 80.4401C34.17 80.5001 33.55 80.5901 32.92 80.7201C32.31 80.8401 31.63 80.94 31.08 81.2401C31.01 81.2801 30.94 81.3201 30.87 81.3801C30.65 81.3801 30.43 81.5101 30.34 81.7801C30.26 82.0401 30.18 82.3101 30.09 82.5701C30.01 82.3701 29.91 82.1701 29.77 82.0101C29.9 81.6701 30.05 81.3501 30.19 81.0201C30.2 81.0001 30.17 80.9801 30.16 81.0001C30.01 81.3101 29.87 81.6401 29.71 81.9501C29.66 81.9 29.6 81.8501 29.54 81.8101C29.48 81.7701 29.42 81.7501 29.36 81.7201C29.36 81.7201 29.35 81.7001 29.31 81.6801C29.28 81.6601 29.25 81.65 29.22 81.6301C29.11 81.4601 29.13 81.29 29.06 81.09C28.98 80.86 29.03 80.5801 29.09 80.3501C29.11 80.2701 29.14 80.2001 29.17 80.1301C29.18 80.22 29.2 80.3101 29.21 80.3901C29.22 80.4601 29.34 80.4401 29.34 80.3701C29.33 80.2101 29.31 80.0501 29.29 79.8901C29.46 79.6101 29.69 79.3801 29.97 79.2101C29.97 79.2501 29.98 79.2901 29.99 79.3301C30 79.3801 30.08 79.3701 30.08 79.3201C30.08 79.2701 30.08 79.2101 30.07 79.1601C30.11 79.1401 30.09 79.0901 30.06 79.0801C30.02 78.6001 29.92 78.1201 29.83 77.6501C29.72 77.0801 29.59 76.51 29.44 75.9501C29.44 75.91 29.38 75.9301 29.39 75.9601C29.53 76.5201 29.65 77.0701 29.74 77.6401C29.83 78.1301 29.87 78.6301 29.95 79.1201C29.68 79.2701 29.45 79.4701 29.27 79.7201C29.07 78.1101 28.62 76.51 28.09 74.9901C28.07 74.94 27.99 74.9601 28 75.0101C28.29 75.8801 28.54 76.7701 28.74 77.6701C28.9 78.41 29.02 79.1601 29.13 79.9101C29.06 80.0301 28.99 80.1501 28.93 80.2801C28.81 80.5401 28.71 80.8201 28.6 81.09C28.5 81.33 28.5 81.5601 28.44 81.8001C28.38 81.8701 28.33 81.94 28.28 82.0201C28.22 81.8801 28.16 81.7401 28.1 81.6001C27.88 81.0301 27.69 80.4401 27.5 79.8601C27.5 79.8201 27.5 79.7801 27.48 79.7401C27.46 79.66 27.43 79.59 27.39 79.5301C27.32 79.3201 27.25 79.1001 27.18 78.8901C26.9 78.0501 26.61 77.2201 26.32 76.3901C26.17 75.7701 25.99 75.1701 25.78 74.5701C25.77 74.5101 25.75 74.4601 25.74 74.4001C24.69 70.5801 22.9 66.9101 21.13 63.3801C19.17 59.4601 17.14 55.5701 15.24 51.6201C14.82 50.7401 14.22 50.0001 13.79 49.1501C13.3 48.1801 13.16 47.1801 13.11 46.1201C13 44.1001 13.14 42.4501 13.87 40.5401C13.89 40.4901 13.89 40.4501 13.88 40.4001C15.02 39.2601 16.11 38.0901 17.14 36.8801C18.31 35.6801 19.33 34.3501 20.29 32.9601C21.39 31.5001 22.46 30.0001 23.5 28.4601C24.09 27.5901 24.64 26.6801 25.17 25.7701C25.32 25.5801 25.47 25.3801 25.63 25.2001C25.64 25.1801 25.65 25.1701 25.65 25.1501C26.3 24.3701 26.95 23.5801 27.6 22.8001C28.51 21.6901 29.4 20.5701 30.32 19.4601C30.35 19.4301 30.37 19.4001 30.4 19.3701C30.42 20.1501 30.52 20.9401 30.73 21.6901C30.73 21.7301 30.79 21.7101 30.78 21.6801C30.61 20.8801 30.49 20.0901 30.47 19.2801C30.7 19.0101 30.93 18.7501 31.19 18.5001C31.25 19.9301 31.59 21.3401 32.26 22.6001C33.37 24.6901 34.08 26.6301 33.86 29.0401C33.86 29.0501 33.88 29.0501 33.88 29.0401C34.07 27.2701 33.82 25.5101 33.07 23.8901C32.57 22.8101 31.94 21.8401 31.66 20.6701C31.47 19.8901 31.42 19.1001 31.39 18.3101C31.45 18.2601 31.51 18.2001 31.58 18.1501C31.65 18.0901 31.73 18.0301 31.81 17.9801C31.87 17.9601 31.92 17.9401 31.98 17.9201C31.98 21.2001 34.16 24.0201 34.49 27.2701C34.49 27.3101 34.55 27.3101 34.55 27.2701C34.23 24.0201 32.04 21.1801 32.09 17.8901C32.23 17.8501 32.36 17.8101 32.5 17.7701C32.55 17.8901 32.61 18.0001 32.66 18.1201C32.56 18.1001 32.45 18.0801 32.35 18.0701C32.28 18.0601 32.25 18.1701 32.32 18.1801C32.45 18.2001 32.59 18.2301 32.72 18.2501C32.83 18.5301 32.94 18.8101 33.03 19.0901C32.88 19.0501 32.72 19.0001 32.57 18.9601C32.5 18.9401 32.47 19.0501 32.54 19.0701C32.72 19.1201 32.9 19.1801 33.08 19.2401C33.3 19.9301 33.45 20.6401 33.53 21.3701C33.53 21.4001 33.58 21.4001 33.58 21.3701C33.5 20.6501 33.35 19.9501 33.14 19.2601C33.6 19.4101 34.05 19.5601 34.49 19.7301C34.56 20.0301 34.61 20.3401 34.64 20.6601C34.27 20.5401 33.89 20.4201 33.52 20.3201C33.44 20.3001 33.41 20.4201 33.49 20.4401C33.89 20.5501 34.28 20.6701 34.67 20.8101C34.71 21.2501 34.72 21.6901 34.71 22.1501C34.49 22.0801 34.27 22.0001 34.04 21.9301C33.95 21.9001 33.91 22.0401 34 22.0701C34.24 22.1501 34.47 22.2301 34.7 22.3101C34.7 22.6601 34.68 23.0201 34.67 23.3701C34.46 23.3101 34.25 23.2401 34.03 23.1801C33.96 23.1601 33.93 23.2701 34 23.2901C34.22 23.3501 34.44 23.4201 34.67 23.4901C34.67 23.7001 34.66 23.9001 34.66 24.1101C34.66 24.1401 34.71 24.1501 34.72 24.1101C34.75 23.9201 34.78 23.7201 34.8 23.5201C34.97 23.5701 35.14 23.6301 35.31 23.6801C35.31 24.0601 35.31 24.4501 35.31 24.8301C35.1 24.7701 34.88 24.7101 34.67 24.6701C34.6 24.6501 34.57 24.7601 34.64 24.7801C34.87 24.8301 35.09 24.9001 35.31 24.9701C35.31 26.0501 35.35 27.1301 35.46 28.2001C35.46 28.2301 35.51 28.2301 35.51 28.2001C35.49 27.1301 35.44 26.0701 35.41 25.0001C36.23 25.2801 36.98 25.6701 37.77 26.0801C37.77 26.1401 37.77 26.2001 37.77 26.2601C37.77 26.4701 37.79 26.6801 37.81 26.8801C37.6 26.7401 37.37 26.6301 37.16 26.5201C36.8 26.3301 36.42 26.1701 36.04 26.0401C35.95 26.0101 35.91 26.1501 36 26.1801C36.42 26.3301 36.83 26.5001 37.22 26.7201C37.43 26.8301 37.62 26.9801 37.83 27.1001C37.93 28.0901 38.12 29.0801 38.27 30.0701C38.27 30.0901 38.27 30.1201 38.28 30.1401C37.09 29.9801 35.81 30.0901 34.62 30.1801C33.3 30.2701 31.97 30.4401 30.67 30.6801C28.87 31.0101 27 31.7201 26.5 33.6701C26.2 34.8501 26.33 36.1601 26.39 37.3601C26.46 38.6901 26.57 40.0201 26.74 41.3501C26.91 42.6801 27.12 44.0101 27.37 45.3301C27.39 45.5401 27.42 45.7501 27.44 45.9601C27.53 46.7301 27.61 47.5101 27.7 48.2801C27.78 48.9601 27.87 49.6401 28.1 50.2801C28.5 51.4401 29.27 52.4101 30.04 53.3601C30.13 53.5001 30.23 53.6401 30.33 53.7801C30.96 54.6501 31.68 55.4701 32.29 56.3601C32.7 56.9601 33 57.6401 33.36 58.2701C33.62 59.4101 33.97 60.5401 34.49 61.5901C34.99 62.6201 35.69 63.4501 36.87 63.6401C39.45 64.0601 42.11 62.8601 43.11 60.4001C44.34 57.3601 43.89 53.8701 43.28 50.7401C42.93 48.9801 42.2 47.5101 41.52 45.8701C40.79 44.1201 40.52 42.3001 40.75 40.4301C41.38 41.4501 42.17 42.3901 42.87 43.3301C44.01 44.8701 45.17 46.4101 46.31 47.9401C46.71 48.4701 47.1 49.0501 47.5 49.6301C48.24 51.0901 49.34 52.6901 51.03 52.7101C52.93 52.7301 54.73 51.0401 55.66 49.5201C56.88 47.5401 56.28 44.9001 55.81 42.7601C55.53 41.4701 55.12 40.2101 54.68 38.9601C54.26 37.7301 53.93 36.4601 53.5 35.2301C53.63 34.5301 53.75 33.8401 53.78 33.1101C53.78 33.0201 53.78 32.9301 53.8 32.8301C53.82 32.8001 53.85 32.7701 53.86 32.7401C53.92 32.8801 53.97 33.0301 54.03 33.1701C55.33 36.2701 57.08 39.1701 58.89 41.9901C59.71 43.2701 60.51 45.0001 61.97 45.6701C63.12 46.2001 64.51 45.9301 65.52 45.2101C68.2 43.3101 67.92 38.9301 67.6 36.1001C67.38 34.1401 66.99 32.2001 66.65 30.2601C66.56 29.7401 66.48 29.2201 66.4 28.7001C66.43 28.6601 66.45 28.6201 66.48 28.5801C66.5 28.5601 66.51 28.5301 66.53 28.5101C66.53 28.5101 66.54 28.5001 66.54 28.4901C66.54 28.4801 66.56 28.4701 66.57 28.4501C66.61 28.4001 66.65 28.3501 66.69 28.3101C66.72 28.2801 66.75 28.2501 66.78 28.2301C66.83 28.4001 66.89 28.5701 66.94 28.7401C66.95 28.7801 67.02 28.7601 67.01 28.7201C66.96 28.5301 66.92 28.3401 66.87 28.1501C66.9 28.1201 66.93 28.0901 66.97 28.0601C67.03 28.2101 67.09 28.3601 67.15 28.5101C67.31 28.8801 67.48 29.2501 67.68 29.5701C67.86 30.1001 68.21 30.4201 68.64 30.5901C69.08 30.8601 69.62 30.9501 70.31 30.7801C71.13 30.5701 72.15 30.1601 72.83 29.5201C73.12 29.3001 73.37 29.0801 73.55 28.8601C74.09 28.1901 74.38 27.2801 74.56 26.3301C74.66 25.8801 74.72 25.4201 74.76 24.9601C74.8 24.6301 74.83 24.3101 74.86 24.0101C74.95 23.2401 75.01 22.4501 75.03 21.6501C75.07 21.5901 75.11 21.5401 75.15 21.4801C75.21 21.4001 75.27 21.3101 75.33 21.2301C75.36 21.1901 75.4 21.1401 75.43 21.1001C75.46 21.0501 75.48 21.0001 75.51 20.9501C75.52 20.9201 75.49 20.8901 75.47 20.9201C75.43 20.9601 75.39 20.9901 75.36 21.0301C75.33 21.0701 75.29 21.1201 75.26 21.1601C75.2 21.2501 75.13 21.3301 75.07 21.4201C75.07 21.4301 75.05 21.4501 75.04 21.4601C75.04 20.9201 75.02 20.3801 74.97 19.8501C76.07 18.4201 77.18 17.0001 78.3 15.5801C78.94 14.7701 79.59 13.9501 80.24 13.1501C80.86 12.3801 81.54 11.6401 82.11 10.8301C82.66 10.6401 83.23 10.5001 83.8 10.3601C83.44 10.5501 83.12 10.8301 82.81 11.0901C82.49 11.3601 82.18 11.6501 81.88 11.9501C80.8 13.0501 79.9 14.3101 79.04 15.5801C78.03 17.0801 77.03 18.5901 76.03 20.1001C76.62 19.2401 77.2 18.3801 77.79 17.5201C78.7 16.1801 79.6 14.8101 80.61 13.5401C81.09 12.9401 81.59 12.3701 82.15 11.8401C82.42 11.5801 82.71 11.3301 83.01 11.0901C83.31 10.8501 83.63 10.6501 83.93 10.4201C83.97 10.3901 83.95 10.3501 83.91 10.3301C84.13 10.2801 84.35 10.2201 84.56 10.1701C84.26 10.4501 83.97 10.7401 83.68 11.0201C83.18 11.5301 82.71 12.0601 82.27 12.6201C81.4 13.7301 80.64 14.9201 80.01 16.1901C79.99 16.2301 80.05 16.2601 80.07 16.2201C80.71 14.9601 81.48 13.7601 82.37 12.6601C82.81 12.1201 83.27 11.6001 83.77 11.1101C84.14 10.7401 84.54 10.4101 84.92 10.0601C85.11 10.0101 85.29 9.95005 85.48 9.89005C85.53 9.87005 85.52 9.80005 85.47 9.80005C85.39 9.80005 85.31 9.80005 85.22 9.80005C85.25 9.77005 85.28 9.75005 85.31 9.72005C85.36 9.67005 85.29 9.58005 85.23 9.62005C85.15 9.68005 85.07 9.74005 85 9.80005C83.47 9.80005 81.67 10.2101 80.35 11.0901C80.31 11.1001 80.27 11.1201 80.23 11.1301C80.23 11.1101 80.23 11.1001 80.25 11.0801C80.38 10.7601 80.58 10.4901 80.82 10.2401C80.97 10.0901 81.14 9.96005 81.32 9.84005C81.45 9.86005 81.57 9.88005 81.7 9.89005C81.76 9.89005 81.76 9.81005 81.71 9.80005C81.63 9.78005 81.55 9.76005 81.48 9.75005C81.9 9.50005 82.37 9.32005 82.82 9.14005C82.89 9.11005 82.86 9.01005 82.79 9.03005C82.59 9.10005 82.39 9.17005 82.18 9.25005C81.79 9.21005 81.4 9.18005 81.01 9.10005C80.63 9.02005 80.25 8.90005 79.89 8.76005C79.13 8.46005 78.43 8.01005 77.82 7.46005C77.78 7.42005 77.72 7.48005 77.76 7.52005C78.36 8.08005 79.04 8.52005 79.8 8.84005C80.43 9.11005 81.17 9.33005 81.87 9.37005C81.64 9.46005 81.42 9.57005 81.2 9.69005C80.81 9.61005 80.42 9.54005 80.03 9.44005C79.55 9.31005 79.07 9.18005 78.61 9.00005C77.88 8.72005 77.13 8.28005 76.79 7.56005C76.86 7.28005 76.94 7.02005 77.06 6.77005C77.08 6.72005 77.02 6.69005 76.99 6.73005C76.88 6.93005 76.78 7.13005 76.7 7.34005C76.7 7.31005 76.68 7.28005 76.67 7.25005C76.66 7.20005 76.57 7.22005 76.58 7.27005C76.6 7.34005 76.62 7.40005 76.65 7.47005C76.59 7.62005 76.55 7.78005 76.51 7.93005C76.49 7.94005 76.47 7.96005 76.47 7.99005C76.42 8.25005 76.38 8.50005 76.35 8.75005C76.32 8.72005 76.3 8.70005 76.27 8.68005C76.22 8.63005 76.14 8.71005 76.19 8.76005C76.24 8.81005 76.28 8.86005 76.33 8.90005C76.33 9.00005 76.31 9.11005 76.31 9.21005C76.28 9.18005 76.24 9.17005 76.21 9.21005C76.2 9.23005 76.18 9.24005 76.17 9.26005C76.06 8.53005 76.06 7.83005 76.17 7.27005C76.45 7.06005 76.72 6.85005 77 6.64005C77.02 6.62005 77 6.58005 76.98 6.60005C76.72 6.80005 76.46 6.99005 76.19 7.19005C76.19 7.18005 76.17 7.17005 76.16 7.19005C76.16 7.19005 76.16 7.21005 76.16 7.22005C74.39 8.53005 72.48 9.79005 70.35 10.2901C68.41 10.0401 66.22 10.3801 64.71 11.6001C64.65 11.5501 64.59 11.4901 64.54 11.4301C64.46 10.7101 64.35 9.98005 64.54 9.28005C64.83 8.20005 65.66 7.79005 66.63 7.40005C67.13 7.20005 67.6 6.96005 68.06 6.71005C68.28 6.63005 68.5 6.55005 68.72 6.47005C70.08 5.93005 71.07 5.13005 72.08 4.25005C72.1 4.24005 72.12 4.23005 72.13 4.21005C72.57 3.83005 73.01 3.43005 73.48 3.03005C74 2.60005 74.56 2.23005 75.15 1.93005C76.44 1.37005 77.88 1.10005 79.22 1.16005C79.65 1.21005 80.09 1.31005 80.52 1.46005C82.59 2.18005 84.25 3.50005 85.96 4.84005C87.48 6.03005 89.03 6.83005 90.77 7.64005C91.13 7.81005 91.46 7.99005 91.79 8.20005C91.89 8.27005 91.99 8.33005 92.1 8.40005C92.17 8.45005 92.23 8.49005 92.3 8.54005C91.26 8.35005 90.22 8.22005 89.16 8.15005C89.12 8.15005 89.12 8.21005 89.16 8.21005C90.28 8.30005 91.39 8.45005 92.49 8.68005C92.89 8.99005 93.27 9.33005 93.64 9.70005C93.81 9.88005 94 10.0601 94.19 10.2501C93.27 9.60005 92.31 9.17005 91.29 8.91005C91.42 8.95005 91.55 8.98005 91.68 9.03005C92.92 9.45005 93.82 10.3801 94.91 11.0401C95.16 11.3401 95.38 11.6601 95.55 12.0001C95.55 12.0301 95.57 12.0501 95.58 12.0801C93.97 11.3901 92.81 9.99005 91.13 9.41005C89.63 8.89005 88.04 8.90005 86.52 9.32005C86.4 9.35005 86.45 9.54005 86.57 9.50005C88.38 8.93005 90.31 9.03005 92.01 9.91005C93.29 10.5701 94.22 11.7201 95.55 12.3201C95.59 12.3401 95.63 12.3401 95.66 12.3201C95.66 12.3501 95.67 12.3701 95.68 12.3901C94.86 12.1901 94.14 11.9701 93.43 11.4701C92.71 10.9701 92.09 10.3601 91.47 9.75005C91.44 9.72005 91.4 9.77005 91.42 9.80005C92.54 10.9901 93.97 12.5401 95.71 12.7001C95.71 12.7001 95.72 12.7001 95.73 12.7001C95.79 13.0701 95.79 13.4501 95.73 13.8601C95.68 14.1701 95.6 14.4601 95.5 14.7501C95.44 14.9001 95.37 15.0401 95.3 15.1901C94.83 15.8401 94.41 16.5401 94 17.2401C93.52 17.9001 93.03 18.5101 92.68 19.0401C91.96 20.1001 91.26 21.1701 90.56 22.2401C90.12 22.8101 89.69 23.3901 89.26 23.9701C87.34 26.5401 85.6 29.2301 84.51 32.2401C84.39 32.4601 84.26 32.6701 84.14 32.8901C83.33 34.0201 82.72 35.2801 82.12 36.5301C82.1 36.5801 82.07 36.6301 82.05 36.6801C81.96 36.8401 81.88 37.0001 81.79 37.1601C81.77 37.2001 81.78 37.2401 81.8 37.2701C81.55 37.9201 81.43 38.5801 81.65 39.2901C82.04 40.5401 82.58 41.7401 83.21 42.8801C83.26 42.9701 83.39 42.8901 83.35 42.8001C82.63 41.2501 82.16 40.0601 82.71 38.3501C83.06 37.2601 83.62 36.2401 84.11 35.2001C84.55 34.2701 84.81 33.3101 85.18 32.3501C85.51 31.5001 85.95 30.6901 86.3 29.8501C87.16 28.4501 88.03 27.0701 88.92 25.6901C89.37 25.1101 89.83 24.5301 90.28 23.9601C91.45 22.4901 92.63 21.0201 93.72 19.4901C94.55 18.3201 95.5 17.0601 95.99 15.6701C96.32 15.0001 96.53 14.3001 96.59 13.5801C98.51 13.1001 100.49 13.2201 102.31 13.9301C102.62 14.2001 102.91 14.4901 103.19 14.7901C103.24 15.0301 103.29 15.2701 103.34 15.5101C102.29 14.5001 100.82 13.9301 99.4 13.7501C99.38 13.7501 99.37 13.7801 99.4 13.7901C100.97 14.0101 102.2 14.6901 103.38 15.6801C103.44 15.9901 103.5 16.3101 103.55 16.6201C103.66 17.2401 103.76 17.8601 103.85 18.4901C103.91 18.9101 103.91 19.3401 103.98 19.7501C103.6 21.1501 102.67 22.3901 101.96 23.6401C100.6 26.0501 99.36 28.5201 98.18 31.0301C97.5 32.4801 96.85 33.9401 96.23 35.4101C95.32 37.1101 94.41 38.8001 93.55 40.5201C92.85 41.9201 92.08 43.3001 91.51 44.7601C91.08 45.8401 90.63 47.3601 91.33 48.4201C91.32 50.2801 91.6 52.1901 91.88 53.9901C91.89 54.0901 92.06 54.0601 92.05 53.9701C91.8 51.8201 91.86 49.6901 91.75 47.5401C91.95 47.1301 92.04 46.6501 92.18 46.2001C92.22 46.0601 92.27 45.9301 92.31 45.7901C94.56 40.3401 96.89 34.9001 99.56 29.6401C100.86 27.0801 102.33 24.6301 103.74 22.1301C103.91 22.4401 104.06 22.7601 104.17 23.0901C104.2 23.4401 104.21 23.7901 104.17 24.1401C104.03 25.5001 103.65 26.8301 103.22 28.1301C102.37 30.7101 101.37 33.2401 100.53 35.8301C99.39 39.3501 98.41 42.9301 97.56 46.5401C97.53 46.6001 97.49 46.6601 97.46 46.7201C97.46 46.7301 97.47 46.7401 97.48 46.7201C97.5 46.6801 97.52 46.6401 97.55 46.6101C97.15 48.3001 96.78 50.0001 96.44 51.7101C96.37 51.8901 96.3 52.0601 96.24 52.2301C95.99 52.8601 95.78 53.5101 95.59 54.1601C95.48 53.9901 95.21 53.9901 95.14 54.2101C94.51 56.1401 94.33 58.1101 93.12 59.8201C91.88 61.5701 90.23 63.0101 88.65 64.4601C85.43 67.41 82.65 70.7301 80.04 74.2301C75.25 80.6701 71.03 87.6001 65.57 93.5101C65.52 93.5101 65.47 93.51 65.43 93.5201C65.75 92.83 65.9 92.04 65.95 91.34C66.03 90.22 65.84 89.09 65.37 88.0701C65.34 88.0001 65.24 88.0701 65.27 88.1301C65.71 89.1301 65.88 90.2201 65.79 91.3101C65.74 91.8501 65.62 92.3901 65.44 92.9101C65.38 93.0801 65.31 93.2401 65.23 93.4101C65.25 93.1601 65.25 92.91 65.23 92.6701C65.16 91.6401 64.84 90.5501 64.29 89.6801C64.28 89.6601 64.25 89.6801 64.26 89.7001C64.52 90.16 64.71 90.6501 64.8 91.1701C64.88 91.6801 64.85 92.1601 64.75 92.6601C64.73 92.7601 64.71 92.8601 64.68 92.9601C64.55 92.3601 64.37 91.7701 64.2 91.2101C63.95 90.3901 63.62 89.6301 63.21 88.9601C63.17 88.8801 63.14 88.7901 63.1 88.7101C63.07 88.6501 63.02 88.61 62.97 88.59C62.23 87.5201 61.25 86.66 59.94 86.0601C59.88 86.0301 59.84 86.1201 59.89 86.1401C60.9 86.6501 61.65 87.5301 62.23 88.5301C62.23 88.5301 62.23 88.5401 62.23 88.5501C62.29 88.9201 62.44 89.2901 62.55 89.6501C62.66 90.0101 62.77 90.3601 62.88 90.7201C63.1 91.4901 63.3 92.2801 63.39 93.0701C63.39 93.09 63.39 93.1101 63.39 93.1301C63.28 93.8601 63.08 94.5701 62.9 95.2801C62.87 95.34 62.83 95.4001 62.8 95.4601C62.57 95.9201 62.46 96.4401 62.28 96.9301C61.88 98.0101 61.39 99.0501 60.95 100.11C60.1 102.19 59.55 104.41 59.05 106.6C58.59 108.63 58.32 110.7 57.87 112.73C57.82 112.94 57.77 113.15 57.72 113.37C56.83 116.55 55.97 119.75 55.15 122.95C54.29 125.66 53.38 128.36 52.68 131.12C52.14 133.25 51.81 135.41 51.36 137.56C50.92 139.67 50.41 141.77 49.97 143.88C49.09 148.12 48.42 152.4 47.85 156.7C47.84 156.81 48.02 156.83 48.04 156.73C48.14 156.18 48.24 155.64 48.35 155.09C48.36 155.07 48.38 155.05 48.38 155.03C48.79 153 49.22 150.97 49.65 148.95C50.18 146.61 50.72 144.28 51.25 141.94C52.21 137.66 53.27 133.39 54.48 129.17C55.69 124.95 57.2 120.85 58.25 116.58C59.25 112.53 60.36 108.57 61.74 104.63C62.4 102.74 63.25 100.9 64.05 99.0701C64.45 98.16 65 97.11 65.02 96.09C65.02 95.7801 64.97 95.44 64.87 95.1001C65.12 94.8601 65.36 94.62 65.61 94.3801C67.64 95.1001 69.58 95.6801 71.76 95.7801C71.89 95.7801 72.03 95.7801 72.16 95.7801C73.23 97.66 73.99 99.7001 74.73 101.73C75.59 104.09 76.48 106.44 77.37 108.79C78.21 111.02 79.05 113.25 79.88 115.48C81.44 120.33 82.91 125.21 84.31 130.12C86.5 137.82 88.49 145.57 90.23 153.39C90.23 153.43 90.3 153.41 90.29 153.37C89.37 148.95 88.4 144.53 87.36 140.14C85.52 132.35 83.47 124.6 81.19 116.93C79.06 109.75 76.75 102.62 74.2 95.5801C75.62 95.0901 76.83 93.9301 77.8 92.8301C79.07 91.3901 80.3 89.9001 81.57 88.4601C81.97 88.0101 82.38 87.5601 82.78 87.1201C83.12 86.8101 83.46 86.4901 83.81 86.1801L85.8 84.3801C85.89 84.3101 85.98 84.2501 86.07 84.1801C86.09 84.1701 86.08 84.1401 86.07 84.1401C86.38 83.8601 86.7 83.5701 87.01 83.2901C87.32 83.0001 87.7 82.73 87.87 82.34C87.89 82.3 87.86 82.2301 87.8 82.2501C87.37 82.3901 87.04 82.7801 86.71 83.0801C86.34 83.4301 85.97 83.7701 85.6 84.1201C85.03 84.6501 84.47 85.1801 83.9 85.7101C81.76 87.4601 79.85 89.5001 77.62 91.1301C76.24 92.1401 74.81 93.0601 73.15 93.4901C73.09 93.4901 73.03 93.4901 72.97 93.4901C72.8 93.4901 72.63 93.5101 72.46 93.5101C72.1 93.5101 71.74 93.44 71.38 93.4501C69.94 93.51 68.63 93.4501 67.36 92.7101C67.34 92.7001 67.31 92.6901 67.29 92.6801C68.93 90.9201 70.47 89.0601 71.94 87.1501C75.48 82.5601 78.67 77.7001 82.23 73.1301C82.22 73.98 82.3 74.8301 82.43 75.6601C82.63 76.9401 83 78.1801 83.54 79.3501C83.55 79.3801 83.6 79.3501 83.59 79.3301C83.1 78.1501 82.76 76.91 82.6 75.6401C82.48 74.6301 82.53 73.6401 82.62 72.6401C82.71 72.5301 82.8 72.4101 82.89 72.3001C82.93 72.7101 82.98 73.1201 83.02 73.5001C83.11 74.34 83.25 75.1701 83.46 75.9801C83.87 77.5901 84.48 79.1201 85.55 80.4101C85.62 80.4901 85.73 80.3801 85.66 80.3001C84.64 79.0001 84 77.4301 83.72 75.8101C83.58 75.0001 83.5 74.1701 83.46 73.3501C83.44 72.94 83.43 72.5201 83.44 72.1101C83.44 71.9501 83.44 71.7801 83.44 71.6101C84.06 70.8501 84.69 70.1001 85.34 69.3701C87.63 66.7701 90.27 64.4801 92.49 61.8201C93.47 60.6401 94.79 59.1101 95.44 57.4701C95.84 57.3801 96.23 57.2901 96.62 57.1601C96.88 57.0801 97.14 56.9901 97.39 56.8901C97.62 56.8001 97.87 56.7101 98.07 56.5701C98.12 56.5301 98.09 56.4601 98.03 56.4701C97.78 56.5201 97.53 56.6501 97.29 56.7401C97.04 56.8301 96.8 56.9201 96.55 57.0001C96.21 57.1101 95.87 57.1901 95.52 57.2701C95.62 57.0001 95.69 56.7301 95.75 56.4601C96.81 56.1801 97.81 55.5901 98.46 54.7201C98.49 54.6801 98.43 54.6401 98.4 54.6701C97.65 55.4101 96.78 55.9801 95.79 56.2801C95.85 55.9301 95.86 55.5701 95.82 55.2201C96.01 54.5101 96.24 53.8001 96.5 53.1101C96.57 52.9301 96.64 52.7501 96.71 52.5701C96.97 51.9801 97.3 51.3901 97.52 50.7901C97.86 50.0601 98.2 49.3401 98.55 48.6101C99.05 47.6401 99.54 46.6801 100.02 45.7101C100.05 45.7501 100.08 45.7901 100.12 45.8301C101.76 48.0601 103.28 50.2801 104.44 52.8201C105.17 54.4101 105.8 56.0401 106.34 57.6901C107.03 59.9101 107.54 62.2101 107.76 64.5001C108.05 67.5201 107.63 70.5201 106.21 73.1901C105.22 74.7201 104.02 76.0601 102.5 77.2201C101.32 78.1201 100.08 78.94 98.84 79.7401C98.54 79.9301 98.24 80.12 97.94 80.3101C96.72 80.76 95.46 81.0401 94.18 81.3201C92.67 81.6401 91.14 81.98 90.02 83.1301C89.9 83.2501 90.05 83.4401 90.2 83.3601C91.8 82.4601 93.64 82.1901 95.38 81.6901C95.5 81.6501 95.63 81.6101 95.75 81.5701C96.51 81.4001 97.23 81.1001 97.94 80.7401C98.71 80.4001 99.46 80.0101 100.18 79.5701C100.33 79.4801 100.48 79.3801 100.63 79.2901C101.47 78.8101 102.29 78.3001 103.07 77.7201C104.17 76.9001 105.28 75.91 106.15 74.7801C106.19 74.7401 106.22 74.7101 106.26 74.6701C106.29 74.6401 106.32 74.6001 106.35 74.5701C106.31 75.1001 106.45 75.6401 106.57 76.2001C106.78 77.2101 107 78.2101 107.25 79.2101C107.71 81.09 108.25 82.9201 108.88 84.7501C110.14 88.4701 111.54 92.1401 112.97 95.8001C113.46 97.0501 113.96 98.2901 114.46 99.5301C115.55 102.3 116.69 105.04 117.85 107.78C119.53 111.76 121.2 115.74 122.88 119.73C123.72 121.72 124.58 123.71 125.43 125.7C125.85 126.68 126.28 127.65 126.71 128.62C126.93 129.12 127.15 129.63 127.4 130.12C127.64 130.59 127.92 131.04 128.18 131.5C128.23 131.59 128.37 131.53 128.34 131.43L128.28 131.28ZM15.53 55.9401C15.6 56.0601 15.66 56.1901 15.72 56.3101C16.85 58.5101 17.99 60.7201 19.21 62.8701C20.39 64.9401 21.59 66.9601 22.64 69.0501C22.81 69.5201 22.98 70.0001 23.14 70.4701C23.2 70.6601 23.26 70.8501 23.33 71.0501C23.28 71.1101 23.23 71.1701 23.17 71.2301C22.88 71.5401 22.58 71.8501 22.24 72.1101C21.88 72.3801 21.48 72.5601 21.04 72.6101C20.57 72.6701 20.09 72.6701 19.62 72.7001C19.56 72.7001 19.56 72.7901 19.62 72.7901C19.99 72.7901 20.37 72.7901 20.74 72.7801C20.74 72.7801 20.76 72.7901 20.77 72.7801C20.83 72.7801 20.9 72.7701 20.96 72.7601C21.04 72.7601 21.13 72.76 21.21 72.7401C21.63 72.69 22 72.5301 22.34 72.2801C22.38 72.2501 22.41 72.2201 22.45 72.1901C22.49 72.1601 22.53 72.1401 22.57 72.1101C22.83 71.9201 23.07 71.6901 23.27 71.4401C23.31 71.3901 23.35 71.34 23.39 71.2801C23.4 71.3201 23.42 71.3601 23.43 71.4001C23.43 71.4201 23.41 71.4401 23.41 71.4601C23.34 71.6401 23.26 71.8 23.15 71.9601C22.94 72.2801 22.64 72.5401 22.33 72.7501C22.3 72.7701 22.33 72.8201 22.36 72.8001C22.71 72.5801 23 72.2901 23.27 71.9901C23.36 71.9001 23.44 71.8 23.52 71.7001C23.83 72.7401 24.1 73.8001 24.34 74.8601C24.5 75.5701 24.67 76.2701 24.81 76.9801C24.81 77.0201 24.82 77.0601 24.83 77.09C24.32 76.7401 23.81 76.3901 23.29 76.0501C22.72 75.6801 22.14 75.3301 21.56 74.9801C21 74.6501 20.41 74.4301 19.83 74.1501C18.84 73.6901 18.2 72.8101 17.68 71.8801C17.16 70.9501 16.71 69.9901 16.17 69.0801C15.64 68.1801 15.03 67.3201 14.37 66.5101C13.76 65.7501 13.09 65.0401 12.51 64.2601C11.95 63.5001 11.45 62.6701 11.23 61.7501C11 60.8301 11.09 59.8601 11.41 58.9701C11.73 58.1001 12.33 57.3301 13.1 56.8001C13.84 56.3001 14.65 56.0401 15.53 55.9501V55.9401ZM76 8.43005C76 8.43005 75.93 8.36005 75.89 8.40005C74.81 9.43005 73.53 10.2401 72.15 10.7901C71.9 10.6401 71.6 10.5201 71.24 10.4301C71 10.3701 70.76 10.3301 70.51 10.2901C72.56 9.77005 74.4 8.56005 76.11 7.28005C76.03 7.66005 76 8.04005 76 8.42005V8.43005ZM76.07 9.35005C75.85 9.60005 75.63 9.85005 75.37 10.0701C75.06 10.3301 74.71 10.5501 74.35 10.7401C73.87 11.0001 73.36 11.2101 72.85 11.4001C72.67 11.1801 72.47 10.9901 72.23 10.8401C73.62 10.3101 74.89 9.51005 75.99 8.50005C75.99 8.50005 76 8.48005 76.01 8.48005C76.01 8.77005 76.04 9.06005 76.08 9.35005H76.07ZM76.66 11.7501C76.55 11.8501 76.43 11.9601 76.31 12.0501C76.07 12.2301 75.81 12.3901 75.55 12.5401C75.08 12.8001 74.58 12.9801 74.07 13.1101C73.99 13.0001 73.91 12.9001 73.84 12.7901C73.73 12.5801 73.6 12.3701 73.47 12.1601C73.48 12.1601 73.49 12.1601 73.51 12.1601C74.53 11.9401 75.48 11.4601 76.26 10.7601C76.33 10.7001 76.23 10.6001 76.16 10.6601C75.4 11.3501 74.48 11.8201 73.48 12.0301C73.45 12.0301 73.43 12.0601 73.43 12.0901C73.36 11.9901 73.29 11.9001 73.22 11.8001C73.14 11.7001 73.06 11.6101 72.97 11.5201C73.49 11.3301 74 11.1201 74.48 10.8601C75.07 10.5401 75.7 10.1301 76.13 9.59005C76.19 9.96005 76.27 10.3301 76.35 10.7001C76.43 11.0801 76.54 11.4301 76.68 11.7601L76.66 11.7501ZM79.94 10.5801C79.87 10.5801 79.79 10.5601 79.72 10.5501C79.53 10.5201 79.34 10.4701 79.16 10.4201C78.8 10.3201 78.44 10.1801 78.1 10.0201C77.57 9.76005 77.09 9.44005 76.65 9.05005C76.63 8.58005 76.65 8.12005 76.75 7.69005C77.09 8.32005 77.73 8.73005 78.39 9.01005C78.88 9.22005 79.38 9.37005 79.89 9.51005C80.25 9.61005 80.62 9.71005 81 9.79005C80.84 9.89005 80.69 9.99005 80.54 10.1101C80.49 10.1501 80.43 10.2001 80.37 10.2601C80.22 10.3501 80.07 10.4601 79.94 10.5801ZM77.45 11.6601C77.36 11.5201 77.28 11.3801 77.21 11.2301C77.43 11.3601 77.67 11.4901 77.91 11.5901C78.17 11.7001 78.43 11.7901 78.7 11.8701C78.79 11.8901 78.88 11.9201 78.98 11.9401C78.91 12.0101 78.84 12.0901 78.76 12.1701C78.59 12.1201 78.42 12.0701 78.25 12.0101C77.98 11.9101 77.71 11.7901 77.45 11.6601ZM78.2 12.1301C78.35 12.1901 78.5 12.2401 78.66 12.2801C78.6 12.3501 78.55 12.4201 78.49 12.4901C78.38 12.4601 78.27 12.4301 78.16 12.3901C78.1 12.3701 78.05 12.3401 78 12.3201C77.86 12.1801 77.73 12.0301 77.61 11.8701C77.8 11.9601 78 12.0501 78.21 12.1201L78.2 12.1301ZM74.94 14.3101C74.94 14.3101 74.94 14.3001 74.93 14.2901C74.87 14.2001 74.8 14.1101 74.73 14.0201C75.23 13.8101 75.73 13.5801 76.21 13.3201C76.49 13.1601 76.77 13.0001 77.04 12.8201C77.08 12.7901 77.12 12.7701 77.16 12.7401C77.2 12.8101 77.24 12.8801 77.28 12.9401C77.26 12.9801 77.23 13.0101 77.21 13.0501C76.7 13.4501 76.19 13.8101 75.64 14.1001C75.42 14.1901 75.19 14.2601 74.95 14.3101H74.94ZM76.54 14.4801C76.66 14.4201 76.76 14.3401 76.87 14.2501C77.05 14.1601 77.23 14.0601 77.41 13.9501C77 14.4901 76.64 15.0601 76.33 15.5701C76.22 15.7401 76.12 15.9101 76.01 16.0801C75.94 15.6401 75.64 15.2001 75.34 14.8101C75.77 14.7701 76.19 14.6601 76.55 14.4701L76.54 14.4801ZM74.68 13.9401C74.61 13.8401 74.54 13.7401 74.47 13.6501C74.89 13.4701 75.3 13.2801 75.71 13.0701C76.13 12.8601 76.57 12.6401 76.96 12.3701C77.01 12.4701 77.06 12.5701 77.11 12.6601C77.06 12.6901 77.02 12.7201 76.97 12.7501C76.72 12.9101 76.46 13.0701 76.19 13.2201C75.7 13.4901 75.2 13.7301 74.68 13.9401ZM76.83 10.1901C77.17 10.4501 77.54 10.6801 77.93 10.8601C78.27 11.0201 78.62 11.1501 78.98 11.2401C79.09 11.2701 79.21 11.3001 79.33 11.3301C79.25 11.4801 79.18 11.6301 79.12 11.7901C79.12 11.7901 79.11 11.8001 79.1 11.8101C78.97 11.7901 78.85 11.7601 78.73 11.7301C78.46 11.6601 78.2 11.5701 77.95 11.4601C77.65 11.3301 77.37 11.1801 77.1 11.0001C76.99 10.7401 76.89 10.4701 76.82 10.1901H76.83ZM76.77 9.97005C76.72 9.72005 76.68 9.47005 76.66 9.22005C77.08 9.59005 77.56 9.90005 78.06 10.1401C78.41 10.3101 78.78 10.4501 79.15 10.5501C79.33 10.6001 79.52 10.6501 79.71 10.6801C79.74 10.6801 79.77 10.6901 79.8 10.7001C79.66 10.8501 79.53 11.0101 79.42 11.1801C79.28 11.1501 79.13 11.1301 78.99 11.0901C78.64 11.0001 78.3 10.8801 77.97 10.7301C77.54 10.5301 77.14 10.2701 76.77 9.97005ZM74.95 19.6401C75.38 18.3101 76.25 17.0701 77.02 16.0001C77.43 15.4401 77.86 14.8901 78.31 14.3601C78.61 14.0701 78.91 13.7801 79.18 13.4701C79.29 13.3401 79.39 13.2101 79.48 13.0701C79.8 12.7101 80.09 12.3301 80.29 11.8601C80.29 11.8401 80.29 11.8301 80.29 11.8101C80.68 11.4001 81.19 11.1701 81.73 10.9601C81.13 11.6401 80.59 12.3801 80.03 13.0901C79.37 13.9201 78.72 14.7401 78.08 15.5801C77.02 16.9501 75.98 18.3401 74.95 19.7401C74.95 19.7101 74.95 19.6801 74.95 19.6501V19.6401ZM74.43 15.3601C74.68 15.8101 74.97 16.2301 75.34 16.6101C75.4 16.7201 75.47 16.8301 75.53 16.9401C75.32 17.3301 75.12 17.7201 74.92 18.1101C75.02 17.7301 75.11 17.3401 75.16 16.9401C75.18 16.7901 75.19 16.6401 75.21 16.4801C75.16 16.4601 75.12 16.4401 75.08 16.4101C75.05 16.5601 75.01 16.7101 74.96 16.8601C74.87 17.1601 74.78 17.4601 74.68 17.7501C74.67 17.5301 74.65 17.3101 74.63 17.0901C74.6 16.8401 74.57 16.5701 74.51 16.3101C74.49 15.9901 74.46 15.6701 74.42 15.3501L74.43 15.3601ZM74.39 13.5501C74.31 13.4401 74.23 13.3301 74.15 13.2201C74.66 13.0901 75.15 12.9001 75.61 12.6501C75.9 12.4901 76.17 12.3101 76.43 12.1101C76.52 12.0401 76.62 11.9601 76.72 11.8801C76.76 11.9601 76.8 12.0501 76.85 12.1201C76.87 12.1601 76.89 12.2101 76.9 12.2501C76.75 12.3301 76.61 12.4201 76.46 12.5101C76.2 12.6601 75.93 12.8001 75.67 12.9401C75.25 13.1601 74.82 13.3501 74.39 13.5401V13.5501ZM57.71 38.6501C57.87 38.0801 58.28 37.5801 58.76 37.2401C59.46 36.7501 60.35 36.6001 61.19 36.5501C62.04 36.5001 62.91 36.4401 63.76 36.5001C64.24 36.5301 64.7 36.6501 65.08 36.8801C65.08 36.8801 65.08 36.8901 65.08 36.9001C65.49 37.9901 65.74 39.1301 65.8 40.2901C65.83 40.8301 65.82 41.3801 65.77 41.9201C65.72 42.4801 65.65 43.0801 65.32 43.5501C64.71 44.4201 63.5 44.8101 62.48 44.6501C62 44.5801 61.59 44.3701 61.22 44.1001C60.97 43.8001 60.74 43.4601 60.53 43.1301C59.57 41.6601 58.61 40.1701 57.72 38.6501H57.71ZM44.9 45.1101C44.92 44.9501 44.95 44.7901 44.99 44.6401C45.1 44.2601 45.23 43.8701 45.46 43.5401C46 42.7601 47.17 42.7801 48.02 42.6601C49.34 42.4601 51.03 42.2301 52.24 42.9101C53.11 44.7101 53.79 46.6901 53.26 48.6901C53.02 49.6001 52.5 50.4601 51.71 50.9901C51.35 51.2301 50.93 51.4101 50.5 51.4901C50.24 51.5401 49.99 51.5001 49.74 51.4501C48.68 50.6101 47.83 49.0301 47.09 48.0301C46.36 47.0601 45.63 46.0801 44.9 45.1101ZM33.47 56.4601C33.4 55.9701 33.35 55.4601 33.72 55.0801C33.99 54.8101 34.38 54.6601 34.74 54.5401C35.18 54.3901 35.62 54.2601 36.07 54.1601C36.97 53.9701 37.94 53.9301 38.81 54.2701C39.18 54.4101 39.52 54.6201 39.82 54.8801C39.81 54.8801 39.8 54.8901 39.81 54.9101C40.22 55.3501 40.31 55.9501 40.37 56.5301C40.43 57.1601 40.45 57.7901 40.45 58.4201C40.45 59.43 40.37 60.6101 39.62 61.3701C38.87 62.1401 37.69 62.1901 36.69 62.1001C36.33 62.0701 36 62.0001 35.73 61.7401C35.53 61.5601 35.38 61.3301 35.22 61.1201C35.07 60.9001 34.93 60.6801 34.8 60.4501C34.43 59.4801 34.18 58.4201 33.77 57.5801C33.75 57.5301 33.72 57.4801 33.69 57.4301C33.6 57.1101 33.52 56.7901 33.48 56.4601H33.47ZM27.69 33.4401C29.57 33.2601 31.36 32.5901 33.1 31.8501C32.78 32.0001 32.47 32.1701 32.17 32.3601C31.43 32.8301 30.72 33.2601 29.85 33.4201C29.07 33.5701 28.27 33.6201 27.48 33.6901C27.54 33.6001 27.62 33.5201 27.69 33.4401ZM33.13 31.3801C31.45 31.8601 29.86 32.7401 28.14 33.0401C28.3 32.9201 28.47 32.8101 28.65 32.7101C28.69 32.6901 28.72 32.6701 28.76 32.6501C29.23 32.4701 29.75 32.3701 30.22 32.2301C30.62 32.1201 31.02 32.0001 31.42 31.8901C31.84 31.7801 32.23 31.5801 32.65 31.4801C32.81 31.4401 32.98 31.4101 33.14 31.3701L33.13 31.3801ZM35.39 31.2101C34.74 31.2801 34.1 31.4401 33.49 31.6801C33.77 31.5601 34.06 31.4301 34.34 31.3101C34.36 31.3101 34.34 31.2801 34.33 31.2901C32.22 32.2101 30.07 33.1201 27.77 33.3701C27.86 33.2801 27.95 33.2001 28.04 33.1301C29.96 32.8301 31.7 31.7601 33.59 31.3101C33.82 31.2701 34.06 31.2401 34.29 31.2101C34.66 31.2001 35.03 31.2101 35.4 31.2101H35.39ZM37.75 32.3101C37.92 32.5301 38.09 32.7601 38.24 32.9901C38.28 33.0501 38.32 33.1101 38.36 33.1601C38.7 36.0901 38.77 39.0201 38.98 41.9501C38.86 41.8801 38.75 41.8101 38.62 41.7601C38.49 39.6601 38.17 37.5701 37.79 35.5101C38.16 37.5801 38.37 39.6501 38.57 41.7301C38.33 41.6201 38.07 41.5401 37.81 41.4801C37.72 41.0501 37.62 40.6201 37.5 40.1901C37.5 40.1701 37.47 40.1801 37.47 40.1901C37.58 40.6101 37.67 41.0301 37.75 41.4601C37.65 41.4401 37.55 41.4201 37.45 41.4101C37.4 41.4101 37.38 41.4701 37.43 41.4801C37.55 41.5001 37.66 41.5401 37.78 41.5701C37.79 41.6301 37.8 41.6901 37.81 41.7501C37.81 41.7901 37.87 41.7701 37.87 41.7301C37.87 41.6801 37.85 41.6301 37.84 41.5801C38.11 41.6701 38.37 41.8101 38.6 41.9701C38.6 41.9801 38.6 42.0001 38.6 42.0101C38.6 42.0401 38.65 42.0401 38.65 42.0101C38.65 42.0101 38.65 42.0101 38.65 42.0001C38.74 42.0601 38.82 42.1301 38.9 42.2001C38.93 42.2401 38.97 42.2701 39.01 42.3101C39.01 42.4301 39.03 42.5601 39.04 42.6801C38.98 42.6401 38.92 42.6001 38.87 42.5601C38.74 42.4601 38.61 42.3601 38.5 42.2401C38.48 42.2201 38.44 42.2501 38.47 42.2701C38.59 42.3801 38.71 42.4901 38.84 42.5901C38.91 42.6401 38.97 42.6901 39.04 42.7301C39.04 42.7701 39.04 42.8001 39.04 42.8401C39.04 42.8701 39.09 42.8701 39.09 42.8401C39.09 42.8201 39.09 42.7901 39.09 42.7701C39.13 42.8001 39.18 42.8301 39.23 42.8401C39.25 42.8401 39.26 42.8201 39.25 42.8101C39.2 42.7701 39.15 42.7401 39.09 42.7001C39.09 42.6001 39.09 42.4901 39.09 42.3901C39.15 42.4501 39.22 42.5201 39.28 42.5901C39.39 42.7301 39.49 42.8701 39.57 43.0101C39.57 43.0101 39.57 43.0301 39.57 43.0401C39.57 43.0701 39.59 43.0901 39.59 43.1201C39.47 43.0601 39.35 43.0001 39.23 42.9601C39.01 42.8701 38.78 42.8001 38.54 42.7601C38.08 42.68 37.61 42.6901 37.16 42.7901C37.13 42.7901 37.14 42.8501 37.17 42.8401C37.62 42.7401 38.09 42.7401 38.54 42.8301C38.75 42.8701 38.96 42.9301 39.17 43.0201C39.33 43.0801 39.47 43.18 39.62 43.2601C39.83 43.9401 40.15 44.5801 40.45 45.2301C40.59 45.5301 40.73 45.8401 40.86 46.1401C40.87 46.1701 40.88 46.2001 40.9 46.2301C41.25 47.2601 41.63 48.2701 41.94 49.3101C42.42 50.9401 42.68 52.6501 42.82 54.3401C42.95 55.9901 42.87 57.6101 42.41 59.2001C42.13 60.1701 41.72 61.1001 41.12 61.8901C41.07 61.9501 41.01 62.0001 40.95 62.0501C40.18 62.6001 39.22 62.8801 38.26 62.9601C37.77 63.0001 37.21 63.0201 36.71 62.9001C35.89 62.5101 35.38 61.8201 35.01 61.0201C35.01 61.0301 35.03 61.0501 35.04 61.0601C35.3 61.4501 35.58 61.9001 36.03 62.0901C36.43 62.2501 36.92 62.2601 37.34 62.2601C37.8 62.2601 38.26 62.2101 38.7 62.0701C39.5 61.8001 40.06 61.1901 40.32 60.4001C40.64 59.4301 40.61 58.3501 40.57 57.3401C40.55 56.8401 40.57 56.1601 40.38 55.6201C40.43 55.7101 40.49 55.8001 40.55 55.9001C40.57 55.9201 40.6 55.9001 40.59 55.8801C40.46 55.0901 39.61 54.4701 38.92 54.1801C37.98 53.7901 36.94 53.8301 35.96 54.0401C35.42 54.1501 34.87 54.3001 34.35 54.5001C34.02 54.6301 33.69 54.8001 33.47 55.0801C33.21 55.4001 33.21 55.7601 33.26 56.1501C33.29 56.4001 33.34 56.6501 33.41 56.8901C33.37 56.8301 33.33 56.7701 33.29 56.7001C33.29 56.6701 33.27 56.6501 33.27 56.6201C33.26 56.5701 33.22 56.5401 33.18 56.5401C33.08 56.4001 32.97 56.2701 32.86 56.1301C32.56 55.7101 32.24 55.3101 31.92 54.9101C31.69 54.6001 31.46 54.2901 31.23 53.9801C30.88 53.5001 30.57 53.0001 30.22 52.5301C30 52.2301 29.77 51.9501 29.55 51.6501C29.32 51.1901 29.11 50.7201 28.95 50.2301C28.95 50.1201 28.94 50.0001 28.94 49.8901C29.25 49.5701 29.66 49.3501 30.08 49.1901C30.78 48.9201 31.52 48.7101 32.24 48.4901C32.98 48.2701 33.72 48.0501 34.46 47.8701C34.84 47.7701 35.22 47.6801 35.61 47.6001C35.99 47.5201 36.39 47.4701 36.76 47.3501C36.78 47.3501 36.77 47.3201 36.76 47.3201C36.37 47.3201 35.97 47.43 35.59 47.5101C35.17 47.6001 34.76 47.7001 34.35 47.8001C33.52 48.0101 32.71 48.2401 31.89 48.5001C31.13 48.7401 30.33 48.9401 29.62 49.3001C29.57 49.3201 29.53 49.3501 29.49 49.3701C29.77 49.1701 30.05 48.9801 30.35 48.8001C31 48.4201 31.67 48.1001 32.37 47.8301C33.77 47.2901 35.26 47.0001 36.76 46.9501C36.77 46.9501 36.77 46.9301 36.76 46.9301C35.24 46.9601 33.73 47.2501 32.31 47.7901C31.62 48.0501 30.95 48.3701 30.31 48.7301C29.84 49.0001 29.33 49.2801 28.88 49.6201C28.79 49.3501 28.71 49.0701 28.64 48.8001C29.35 48.0601 30.14 47.4201 30.99 46.8401C31.01 46.8301 30.99 46.7901 30.97 46.8101C30.1 47.3301 29.32 47.9901 28.62 48.7201C28.41 47.9201 28.25 47.1101 28.1 46.3101C28.04 46.0101 27.98 45.6901 27.92 45.3801C27.92 45.3401 27.92 45.2901 27.91 45.2501C27.82 44.4201 27.72 43.5801 27.62 42.7501C27.62 42.6701 27.61 42.5801 27.61 42.5001C27.52 40.8101 27.4 39.1201 27.27 37.4401C27.25 36.7201 27.25 36.0101 27.25 35.2901C27.25 34.7601 27.31 34.2501 27.46 33.7901C28.21 33.7301 28.96 33.6701 29.69 33.5501C30.52 33.4201 31.22 33.0901 31.92 32.6401C32.64 32.1801 33.35 31.7601 34.17 31.5201C34.72 31.3601 35.3 31.2701 35.87 31.2501C36.19 31.2601 36.51 31.2801 36.82 31.3001C37.15 31.6301 37.46 31.9701 37.75 32.3401V32.3101ZM39.33 36.5001C39.38 36.7401 39.44 36.9901 39.51 37.2301C39.53 37.3801 39.55 37.5301 39.56 37.6801C39.65 39.1101 39.72 40.5301 39.85 41.9501C39.83 42.0401 39.81 42.1301 39.78 42.2201C39.75 42.3301 39.71 42.4301 39.7 42.5301C39.64 42.4701 39.59 42.4201 39.55 42.3801C39.52 42.3501 39.49 42.3301 39.47 42.3101C39.57 40.3801 39.49 38.4301 39.34 36.5001H39.33ZM37.46 31.3201C37.7 31.6401 37.93 31.9601 38.14 32.3001C38.26 32.4901 38.37 32.6801 38.49 32.8701C38.59 33.0501 38.68 33.2501 38.81 33.4101C38.86 33.7001 38.9 33.9901 38.95 34.2701C39.04 34.8601 39.14 35.4701 39.25 36.0601C39.36 38.1201 39.37 40.1801 39.39 42.2501C39.3 42.1801 39.21 42.1101 39.12 42.0501C39.15 39.1301 38.79 36.1501 38.42 33.2701C38.44 33.3001 38.45 33.3201 38.47 33.3501C38.53 33.4601 38.56 33.5801 38.62 33.6901C38.62 33.7001 38.66 33.7001 38.66 33.6901C38.69 33.4801 38.52 33.2501 38.4 33.0801C38.4 33.0401 38.39 32.9901 38.38 32.9501C38.38 32.9301 38.34 32.9301 38.34 32.9501C38.34 32.9701 38.34 32.9901 38.34 33.0101C38.19 32.7901 38.04 32.5801 37.88 32.3801C37.59 32.0101 37.27 31.6501 36.93 31.3201C37.07 31.3201 37.21 31.3301 37.35 31.3401C37.38 31.3401 37.42 31.3401 37.45 31.3401L37.46 31.3201ZM38.48 31.3901C38.5 31.4901 38.51 31.5801 38.53 31.6801C38.45 31.5901 38.37 31.4901 38.29 31.4001L38.55 31.7101C38.63 32.2001 38.71 32.7001 38.79 33.1901C38.73 33.0501 38.64 32.9201 38.56 32.7901C38.45 32.6001 38.33 32.4101 38.21 32.2201C38.01 31.9101 37.79 31.6101 37.57 31.3101C37.88 31.3301 38.19 31.3601 38.49 31.3701L38.48 31.3901ZM35.37 23.7001C36.1 23.9401 36.83 24.2201 37.54 24.5201C37.58 24.8101 37.62 25.0901 37.67 25.3801C37.7 25.5401 37.73 25.7001 37.76 25.8601C37.76 25.8901 37.76 25.9301 37.76 25.9601C37.07 25.4501 36.24 25.1001 35.4 24.8501C35.39 24.4601 35.38 24.0801 35.37 23.6901V23.7001ZM34.86 20.8601C35.82 21.2001 36.76 21.6201 37.67 22.1001C37.55 22.4501 37.49 22.8201 37.47 23.1901C36.63 22.8201 35.78 22.4901 34.91 22.2001C34.92 21.7501 34.91 21.3101 34.86 20.8701V20.8601ZM34.82 23.3901C34.86 23.0501 34.89 22.7001 34.9 22.3501C35.77 22.6501 36.62 23.0001 37.46 23.3701C37.46 23.7001 37.48 24.0301 37.52 24.3701C36.81 24.0701 36.1 23.8001 35.37 23.5601C35.37 23.2801 35.37 22.9901 35.37 22.7101C35.37 22.6901 35.34 22.6901 35.34 22.7101C35.34 22.9901 35.34 23.2601 35.33 23.5401C35.16 23.4901 35 23.4301 34.83 23.3801L34.82 23.3901ZM34.67 19.7801C35 19.9101 35.33 20.0301 35.65 20.1701C36.46 20.5201 37.24 20.9901 38.07 21.3101C38.04 21.3501 38.02 21.3801 37.99 21.4201C37.88 21.5901 37.79 21.7701 37.72 21.9401C36.79 21.4501 35.82 21.0401 34.83 20.7001C34.79 20.3901 34.74 20.0801 34.66 19.7701L34.67 19.7801ZM34.29 18.6601C35.77 19.1601 37.11 19.9201 38.4 20.8801C38.32 20.9801 38.24 21.0701 38.17 21.1701C37.16 20.4501 35.88 19.9501 34.61 19.5401C34.52 19.2401 34.42 18.9401 34.29 18.6601ZM32.8 18.2501C33.25 18.3401 33.69 18.4601 34.12 18.6001C34.26 18.8901 34.36 19.1901 34.44 19.4901C33.98 19.3501 33.53 19.2201 33.1 19.0901C33.01 18.8101 32.91 18.5201 32.8 18.2501ZM33.7 17.8701C33.82 18.0501 33.93 18.2301 34.02 18.4201C33.6 18.3001 33.17 18.2001 32.74 18.1201C32.69 17.9901 32.63 17.8701 32.58 17.7401C32.64 17.7301 32.69 17.7101 32.75 17.7001C33.05 17.7101 33.36 17.7801 33.7 17.8701ZM38.93 20.3201C38.78 20.4601 38.64 20.6101 38.51 20.7601C37.26 19.7001 35.77 18.9401 34.19 18.4801C34.1 18.2901 34 18.1101 33.88 17.9301C33.88 17.9301 33.9 17.9301 33.91 17.9301C34.77 18.1701 35.61 18.5101 36.4 18.9301C37.22 19.3601 37.99 20.0701 38.86 20.2601C38.88 20.2801 38.9 20.3101 38.92 20.3301L38.93 20.3201ZM48.1 17.8601C46.78 17.6701 45.46 18.2101 44.27 18.7701C42.98 19.3801 41.68 20.0601 40.26 20.3001C40.38 20.1601 40.51 20.0201 40.64 19.8901C40.96 19.6601 41.28 19.4501 41.59 19.2401C41.96 19.1001 42.33 18.9601 42.7 18.8401C43.68 18.5201 44.68 18.2601 45.7 18.0701C45.73 18.0701 45.72 18.0101 45.69 18.0201C44.66 18.2101 43.64 18.4701 42.64 18.8001C42.37 18.8901 42.11 18.9801 41.84 19.0801C42.09 18.9201 42.35 18.7801 42.63 18.6601C42.87 18.5701 43.11 18.4801 43.33 18.3901C43.68 18.2601 44.04 18.1201 44.41 18.0001C44.73 17.9301 45.05 17.8801 45.37 17.8401C46.27 17.7201 47.21 17.6901 48.11 17.8601H48.1ZM51.87 25.6401C51.74 27.7801 51.45 29.8801 51.11 31.9901C51 31.8401 50.89 31.7001 50.78 31.5501C51.06 29.9801 51.26 28.4001 51.41 26.8201C51.41 26.8001 51.38 26.8001 51.38 26.8201C51.22 28.3801 50.98 29.9301 50.72 31.4801C50.58 31.3001 50.43 31.1201 50.28 30.9401C50.35 30.3101 50.46 29.6801 50.61 29.0601C50.61 29.0401 50.58 29.0301 50.57 29.0501C50.42 29.6601 50.3 30.2701 50.23 30.8901C49.97 30.5801 49.71 30.2701 49.47 29.9701C49.42 29.9101 49.31 29.9701 49.36 30.0401C49.64 30.4101 49.92 30.8001 50.2 31.2001C50.2 31.2901 50.18 31.3701 50.18 31.4601C50.18 31.4901 50.23 31.4901 50.23 31.4601C50.23 31.3901 50.24 31.3301 50.25 31.2601C50.39 31.4501 50.52 31.6401 50.67 31.8201C50.67 31.8401 50.67 31.8501 50.67 31.8701C50.67 31.9101 50.72 31.9201 50.73 31.8901C50.84 32.0301 50.95 32.1701 51.07 32.3101C51.03 32.5601 50.99 32.8201 50.95 33.0701C50.95 33.1001 50.99 33.1101 51 33.0801C51.05 32.8501 51.1 32.6201 51.15 32.3901C51.26 32.5201 51.38 32.6401 51.5 32.7601C51.54 32.8001 51.6 32.7501 51.57 32.7001C51.46 32.5001 51.33 32.3101 51.2 32.1201C51.62 30.0701 51.82 27.9601 51.92 25.8701C51.98 26.1501 52.03 26.4301 52.09 26.7101C52.25 28.9901 52.24 31.2701 52.07 33.5501C52.02 33.4301 51.97 33.3101 51.92 33.2001C51.88 33.1101 51.73 33.1501 51.77 33.2501C52.04 33.9801 52.25 34.7201 52.44 35.4601C52.2 35.1801 51.94 34.9301 51.67 34.6801C51.67 34.6801 51.65 34.6801 51.66 34.6901C52.03 35.1001 52.29 35.5801 52.52 36.0701C52.74 36.9801 53.18 37.8701 53.52 38.7401C53.95 39.8501 54.35 40.9801 54.68 42.1201C55.42 44.6701 56.22 47.7001 54.33 49.9501C54.31 49.9701 54.31 49.9901 54.3 50.0201C53.3 51.1201 51.8 52.4901 50.35 51.8301C50.27 51.7901 50.18 51.7501 50.1 51.7001C50.18 51.6801 50.26 51.6701 50.35 51.6501C50.79 51.5501 51.21 51.4201 51.6 51.1801C52.41 50.6901 52.98 49.9501 53.3 49.0701C54.04 47.0201 53.27 44.8401 52.35 42.9701C52.7 43.1901 53.01 43.5001 53.25 43.9301C53.27 43.9701 53.34 43.9301 53.32 43.8901C52.22 41.8701 49.57 42.3301 47.71 42.6001C46.75 42.7401 45.73 42.7601 45.23 43.7201C45.07 44.0201 44.86 44.4901 44.78 44.9401C43.77 43.6001 42.76 42.2501 41.78 40.8901C41.41 40.3801 41.12 39.8601 40.88 39.3301C40.84 39.3101 40.81 39.2901 40.77 39.2701C40.67 38.9801 40.58 38.6901 40.5 38.4001C41.19 37.3601 42.23 36.6201 43.36 36.1201C44.05 35.8201 44.78 35.6101 45.51 35.4501C46.23 35.2901 46.97 35.2301 47.68 35.0701C47.7 35.0701 47.7 35.0301 47.68 35.0301C46.91 35.0801 46.13 35.2401 45.38 35.4101C44.66 35.5701 43.96 35.7801 43.29 36.0801C42.18 36.5701 41.17 37.3201 40.49 38.3301C40.45 38.2001 40.41 38.0701 40.38 37.9401C40.18 37.2301 40.08 36.4901 39.94 35.7601C39.77 34.6001 39.67 33.4101 39.52 32.2101C39.48 31.8901 39.44 31.5701 39.4 31.2501L39.35 30.8701C39.29 30.4001 39.22 29.9201 39.16 29.4501C39.12 28.9401 39.09 28.4401 39.05 27.9301C38.97 26.8401 38.74 25.7501 38.69 24.6501C38.67 24.3101 38.69 23.9801 38.72 23.6601C38.94 22.6201 39.33 21.6301 39.93 20.7701C41.04 20.7501 42.12 20.3801 43.14 19.9201C43.77 19.6301 44.39 19.3201 45.02 19.0301C45.69 18.7301 46.36 18.5301 47.05 18.3001C47.07 18.3001 47.06 18.2701 47.05 18.2701C46.45 18.3301 45.84 18.5801 45.29 18.8201C44.67 19.0801 44.07 19.3901 43.47 19.6801C42.37 20.2001 41.2 20.6701 39.98 20.7101C40.07 20.5801 40.16 20.4601 40.26 20.3401C41.51 20.1401 42.69 19.6001 43.83 19.0501C45.36 18.3301 47.11 17.4701 48.82 18.0601C48.83 18.0601 48.84 18.0601 48.84 18.0501C48.94 18.0901 49.04 18.1301 49.14 18.1701C49.66 18.4701 50.14 18.8401 50.62 19.2001C50.64 19.3301 50.66 19.4601 50.69 19.5901C50.48 19.5101 50.26 19.4301 50.05 19.3601C49.65 19.2201 49.24 19.0901 48.82 19.0001C48.05 18.8301 47.26 18.8001 46.49 19.0001C46.46 19.0001 46.47 19.0501 46.5 19.0401C47.31 18.8601 48.13 18.9201 48.92 19.1301C49.29 19.2301 49.66 19.3501 50.02 19.4901C50.26 19.5801 50.5 19.7001 50.74 19.8101C50.85 20.3001 50.98 20.7901 51.13 21.2701C51.24 22.2401 51.46 23.2001 51.63 24.1301C51.72 24.6301 51.82 25.1301 51.92 25.6301L51.87 25.6401ZM52.71 33.0501C52.62 33.5701 52.5 34.1001 52.5 34.6201C52.38 34.3001 52.26 33.9901 52.13 33.6701C52.3 31.4701 52.31 29.2701 52.17 27.0701C52.24 27.3801 52.31 27.6801 52.38 27.9901C52.58 29.5901 52.73 31.2101 52.71 32.8201C52.71 32.8901 52.71 32.9701 52.71 33.0401V33.0501ZM56.06 15.0501C55.8 15.1301 55.55 15.2101 55.29 15.2801C54.79 15.4101 54.3 15.5301 53.79 15.6301C53.66 15.6601 53.53 15.6801 53.4 15.7001C54.17 15.2701 55.13 15.1001 56.05 15.0501H56.06ZM63.96 19.1501C64.44 20.7401 64.95 22.3201 65.45 23.9101C65.45 23.9501 65.46 24.0001 65.47 24.0401C65.47 24.0501 65.46 24.0701 65.46 24.0801C65.24 26.2401 65.61 28.4301 66.08 30.6201C65.93 30.5701 65.78 30.5301 65.63 30.5001C65.32 30.4401 65.01 30.4101 64.69 30.4301C64.66 30.4301 64.66 30.4801 64.69 30.4801C65.01 30.4701 65.32 30.4901 65.63 30.5501C65.78 30.5801 65.93 30.6201 66.08 30.6701C66.08 30.6701 66.08 30.6701 66.09 30.6701C66.55 32.8101 67.1 34.9401 67.27 37.0501C67.44 39.1501 67.5 41.5701 66.33 43.4201C65.7 44.4201 64.56 45.2301 63.34 45.2401C62.72 45.2401 62.22 45.0301 61.81 44.6901C61.86 44.7101 61.91 44.7301 61.96 44.7401C63.54 45.2101 65.53 44.4401 65.9 42.7301C66.3 40.8601 65.97 38.7801 65.28 37.0101C65.48 37.1701 65.66 37.3701 65.8 37.6301C65.84 37.7001 65.97 37.6501 65.94 37.5701C65.66 36.8301 64.86 36.4801 64.13 36.3801C63.63 36.3101 63.12 36.3401 62.61 36.3601C62.09 36.3801 61.56 36.3801 61.04 36.4201C60.13 36.4901 59.18 36.6401 58.43 37.1901C58.03 37.4801 57.72 37.8801 57.55 38.3301C56.45 36.4401 55.44 34.5001 54.64 32.4801C54.72 32.4301 54.8 32.3901 54.88 32.3501C55.16 32.2201 55.46 32.1101 55.76 32.0201C56.31 31.8501 56.88 31.7301 57.44 31.6001L61.15 30.7301C61.15 30.7301 61.15 30.7001 61.15 30.7101C59.87 31.0001 58.59 31.2901 57.3 31.5801C56.72 31.7101 56.14 31.8401 55.58 32.0101C55.29 32.1001 54.91 32.2001 54.59 32.3601C54.49 32.1001 54.39 31.8401 54.3 31.5801C53.98 30.6901 53.69 29.7801 53.42 28.8701C53.13 27.2701 52.84 25.6701 52.58 24.0701C52.24 22.0301 51.52 19.5501 52.05 17.4801C52.14 17.1301 52.28 16.8401 52.46 16.5801C53.38 16.3001 54.37 16.4001 55.31 16.2201C56.35 16.0301 57.37 15.6601 58.29 15.1401C58.31 15.1301 58.29 15.1001 58.27 15.1101C57.25 15.5901 56.21 15.9201 55.1 16.0901C54.27 16.2101 53.41 16.1901 52.6 16.4001C52.75 16.2201 52.92 16.0601 53.11 15.9201C53.33 15.8701 53.55 15.8201 53.76 15.7701C54.24 15.6601 54.72 15.5401 55.2 15.4101C55.6 15.3001 56 15.1601 56.4 15.0401C56.49 15.0401 56.59 15.0401 56.68 15.0401C57.66 15.0301 58.64 15.1201 59.61 15.1501C59.25 15.2701 58.9 15.4501 58.59 15.7301C58.59 15.7301 58.59 15.7501 58.6 15.7401C58.96 15.4401 59.36 15.2501 59.77 15.1601C60.44 15.1801 61.16 15.2801 61.87 15.3201C62.27 15.4501 62.66 15.6201 63.02 15.8201C63.1 15.8601 63.17 15.7401 63.09 15.7001C62.84 15.5601 62.57 15.4401 62.29 15.3401C62.47 15.3401 62.65 15.3401 62.82 15.3401C62.84 15.3501 62.86 15.3701 62.88 15.3801C62.95 15.4301 63.03 15.4901 63.12 15.5501C63.22 16.7601 63.64 18.0001 64 19.1701L63.96 19.1501ZM64.35 13.5401C64.63 13.2201 64.98 12.9401 65.36 12.6901C66.18 12.1501 67.07 11.6701 67.99 11.3401C68.06 11.3101 68.14 11.2901 68.22 11.2601C69.04 11.1701 69.87 11.2001 70.6 11.3201C70.6 11.3201 70.61 11.3301 70.62 11.3301C70.62 11.3301 70.63 11.3301 70.64 11.3301C70.75 11.3501 70.86 11.3701 70.96 11.3901C71.9 11.5901 72.61 12.1401 73.19 12.8601C73.23 12.9201 73.27 12.9701 73.3 13.0301C73.33 13.0801 73.35 13.1301 73.38 13.1901C73.43 13.2901 73.48 13.3901 73.52 13.4901C73.47 13.4601 73.43 13.4301 73.38 13.4101C73.14 13.2601 72.87 13.1301 72.58 13.1301C72.54 13.1301 72.54 13.1901 72.58 13.1901C72.84 13.1901 73.08 13.3201 73.3 13.4601C73.39 13.5201 73.51 13.5901 73.6 13.6801C73.62 13.7201 73.64 13.7701 73.66 13.8101C73.94 14.6001 74 15.4601 74.05 16.3601C74.11 17.3701 74.16 18.3701 74.22 19.3801C74.22 20.4901 74.25 21.6001 74.27 22.7101C74.27 22.7701 74.27 22.8301 74.27 22.9001C74.2 24.0301 74.04 25.1501 73.8 26.2501C73.66 26.8901 73.54 27.6301 73.2 28.2001C72.82 28.8301 72.16 29.1901 71.54 29.5401C70.9 29.9101 69.89 30.3401 69.05 30.3101C68.85 30.2501 68.65 30.1601 68.47 30.0301C67.86 29.6001 67.52 28.6601 67.24 27.8701C67.24 27.8701 67.24 27.8701 67.25 27.8701C67.34 27.8101 67.37 27.6901 67.32 27.5901C67.28 27.5201 67.19 27.4801 67.1 27.5001C67.08 27.4401 67.06 27.3801 67.03 27.3201C66.75 26.5701 66.5 25.8201 66.27 25.0501C65.96 24.0501 65.68 23.0501 65.4 22.0401C65.33 21.7301 65.26 21.4201 65.19 21.1201C64.9 19.8901 64.58 18.6801 64.3 17.4501C64.14 16.7501 63.98 16.0001 63.98 15.2601C64.17 15.0301 64.39 14.8201 64.64 14.6401C64.79 14.5301 64.96 14.4201 65.13 14.3301C65.22 14.2801 65.31 14.2401 65.4 14.2001C65.48 14.1701 65.58 14.1501 65.64 14.0801C65.65 14.0701 65.64 14.0501 65.63 14.0501C65.54 14.0401 65.44 14.1001 65.36 14.1301C65.26 14.1701 65.17 14.2201 65.08 14.2701C64.9 14.3701 64.73 14.4801 64.57 14.6001C64.36 14.7601 64.16 14.9501 63.99 15.1501C63.99 14.9901 64 14.8301 64.02 14.6701C64.1 14.6001 64.19 14.5401 64.27 14.4801C64.61 14.2401 64.97 14.0401 65.35 13.8801C66.17 13.5201 67.04 13.3101 67.94 13.2601C67.96 13.2601 67.96 13.2201 67.94 13.2201C67.04 13.2601 66.15 13.4601 65.32 13.8101C64.89 14.0001 64.46 14.2201 64.08 14.4901C64.07 14.4901 64.06 14.5101 64.05 14.5101C64.1 14.2001 64.19 13.9001 64.32 13.6101C64.32 13.5901 64.34 13.5701 64.35 13.5501V13.5401ZM91.06 6.58005C90.91 6.52005 90.76 6.47005 90.61 6.41005C90.59 6.40005 90.57 6.38005 90.54 6.37005C90.51 6.35005 90.48 6.33005 90.45 6.31005C90.53 6.34005 90.61 6.37005 90.7 6.39005C90.82 6.45005 90.94 6.51005 91.06 6.57005V6.58005ZM101.96 13.6401C100.21 13.0601 98.34 13.0001 96.54 13.4801C96.63 12.2601 96.27 11.0201 95.28 9.88005C95.14 9.71005 94.98 9.55005 94.83 9.40005C95.74 9.90005 96.64 10.3901 97.54 10.8901C98.48 11.4001 99.4 11.9001 100.28 12.4501C99.25 12.5001 98.24 12.6601 97.24 12.9001C97.22 12.9001 97.23 12.9301 97.24 12.9301C98.14 12.7401 99.27 12.5101 100.35 12.5001C100.91 12.8501 101.44 13.2301 101.95 13.6501L101.96 13.6401ZM103.88 30.9001C103.27 31.8401 102.7 32.8201 102.14 33.7901C102.62 32.5401 103.13 31.2901 103.62 30.0401C103.7 30.3301 103.79 30.6101 103.88 30.9001ZM104.13 31.7201C102.9 33.6301 101.79 35.6101 100.77 37.6401C101.06 36.7901 101.35 35.9501 101.66 35.1101C101.7 34.9901 101.75 34.8701 101.79 34.7501C102.51 33.5701 103.25 32.4001 103.98 31.2201C104.03 31.3901 104.08 31.5601 104.13 31.7301V31.7201ZM104.27 32.2801C102.8 35.0001 101.36 37.7301 99.84 40.4101C100.06 39.7201 100.29 39.0401 100.52 38.3601C101.64 36.1701 102.87 34.0501 104.2 31.9801C104.23 32.0801 104.25 32.1801 104.28 32.2801H104.27ZM104.39 32.8701C102.63 36.9201 100.66 40.8801 98.51 44.7301C98.91 43.3801 99.32 42.0401 99.75 40.7001C101.35 38.0001 102.92 35.2701 104.32 32.4701C104.35 32.6101 104.37 32.7401 104.39 32.8701ZM100.08 42.3501C98.98 44.5501 98.07 46.8001 97.28 49.0901C97.64 47.7101 98.03 46.3301 98.43 44.9601C100.63 41.1801 102.61 37.2801 104.38 33.2701C104.33 34.2701 104.05 35.2701 103.54 36.2301C102.45 38.3001 101.13 40.2501 100.07 42.3501H100.08ZM33.2 30.1901C33.2 30.1901 33.14 30.2301 33.14 30.1901C33.23 28.1901 33.07 26.2501 32.56 24.3001C32.56 24.2601 32.61 24.2501 32.61 24.2901C33.12 26.2201 33.34 28.2001 33.19 30.2001L33.2 30.1901ZM80.42 47.5801C80.01 49.2801 78.96 50.7301 77.78 51.9801C76.81 53.0101 75.71 53.9101 74.66 54.8501C74.38 55.2101 74.08 55.5701 73.81 55.9301C73.3 56.6001 72.78 57.2701 72.28 57.9401C71.28 59.2701 70.31 60.6401 69.43 62.0501C67.59 65.0201 66.17 68.2401 64.65 71.3901C63.77 73.2101 62.9 75.0201 62.02 76.84C62.01 76.87 61.97 76.84 61.98 76.8201C63.51 73.5601 65.04 70.3001 66.57 67.0401C67.31 65.4801 68.06 63.9201 68.95 62.4401C69.81 61.0101 70.76 59.6401 71.75 58.3001C72.3 57.5601 72.85 56.8401 73.43 56.1301C73.58 55.9501 73.72 55.7701 73.87 55.5901C73.82 55.6401 73.77 55.6901 73.72 55.7301C72.29 57.1001 70.96 58.5801 69.73 60.1401C68.33 61.9301 67.08 63.8501 65.99 65.8501C65.99 65.8601 65.96 65.8501 65.97 65.84C67.78 62.3801 70.05 59.1601 72.72 56.3201C73.38 55.6201 74.05 54.9101 74.74 54.2501C75.37 53.6501 76.02 53.0701 76.64 52.4601C77.87 51.2501 79.09 49.9401 79.71 48.3001C80.12 47.2401 80.22 46.1101 80.13 44.9801C80.08 44.3801 79.98 43.7701 79.86 43.1801C79.74 42.5901 79.56 42.0001 79.5 41.3901C79.49 41.2701 79.68 41.2201 79.72 41.3301C79.94 41.8201 80.06 42.3601 80.2 42.8801C80.33 43.4001 80.45 43.9301 80.52 44.4601C80.66 45.5101 80.67 46.5701 80.42 47.6101V47.5801ZM79.5 46.4901C79.45 45.1501 79.37 43.8201 79.25 42.4801C79.19 41.8201 79.12 41.1601 79.05 40.5101C79.01 40.1701 78.97 39.8401 78.93 39.5001C78.89 39.1701 78.8 38.8301 78.83 38.4901C78.83 38.4501 78.88 38.4501 78.89 38.4901C78.99 38.7801 79 39.1001 79.04 39.4101C79.08 39.7501 79.12 40.0801 79.16 40.4201C79.23 41.09 79.3 41.7701 79.35 42.4401C79.46 43.7901 79.53 45.1401 79.57 46.5001C79.57 46.5401 79.51 46.5401 79.51 46.5001L79.5 46.4901ZM80.9 47.7601C80.9 47.7601 80.84 47.8001 80.84 47.7601C80.92 46.8801 80.95 46.0001 80.93 45.1201C80.93 44.6901 80.9 44.2601 80.86 43.8301C80.83 43.3901 80.73 42.9301 80.75 42.4901C80.75 42.4601 80.79 42.4601 80.8 42.4901C80.93 42.9001 80.93 43.3601 80.96 43.7801C80.99 44.2101 81.01 44.6401 81.01 45.0701C81.02 45.9701 80.98 46.8601 80.89 47.7601H80.9ZM71.37 51.8701C70.92 52.9301 70.51 54.0401 69.95 55.0501C69.92 55.1001 69.83 55.0701 69.85 55.0101C70.16 54.0801 70.61 53.1901 71 52.3001C71.41 51.3601 71.82 50.4201 72.22 49.4801C73.03 47.5801 73.83 45.6801 74.61 43.7701C75.04 42.7101 75.47 41.6501 75.89 40.5801C75.91 40.5401 75.98 40.5601 75.96 40.6001C74.49 44.3901 72.96 48.1501 71.37 51.8901V51.8701ZM74.29 42.8001C72.71 46.2501 71.23 49.7401 69.87 53.2801C69.48 54.2801 69.14 55.3101 68.73 56.3001C68.7 56.3801 68.57 56.3501 68.6 56.2601C68.89 55.3501 69.27 54.4501 69.62 53.5601C69.96 52.6801 70.32 51.8001 70.67 50.9301C71.38 49.1901 72.12 47.4701 72.89 45.7501C73.34 44.7501 73.79 43.7601 74.26 42.7701C74.27 42.7501 74.31 42.7701 74.29 42.7901V42.8001ZM70.84 49.1801C69.87 50.8701 69.12 52.6701 68.44 54.4901C68.1 55.3901 67.79 56.3001 67.47 57.2001C67.14 58.1501 66.84 59.1301 66.38 60.0201C66.36 60.0601 66.3 60.0301 66.31 59.9901C66.54 58.9701 66.96 57.9801 67.32 57.0001C67.65 56.1001 67.98 55.2001 68.33 54.3101C69.03 52.5301 69.8 50.7801 70.77 49.1301C70.8 49.0801 70.87 49.1301 70.85 49.1701L70.84 49.1801ZM66.67 56.7101C66.25 57.5001 65.84 58.2901 65.42 59.0901C65.22 59.4801 65.01 59.8701 64.81 60.2601C64.6 60.6501 64.42 61.1001 64.17 61.4601C64.16 61.4801 64.12 61.4601 64.13 61.4401C64.28 61.0301 64.54 60.6501 64.74 60.2701C64.95 59.8801 65.15 59.5001 65.36 59.1101C65.79 58.3101 66.22 57.5101 66.65 56.7001C66.65 56.6801 66.69 56.7001 66.68 56.7201L66.67 56.7101ZM85.08 46.7101C84.57 48.5901 84 50.4601 83.37 52.3001C83.1 53.1001 82.82 53.9101 82.47 54.6801C82.13 55.4301 81.72 56.1901 81.08 56.7301C81.05 56.7601 80.99 56.7301 81.02 56.6801C81.47 55.9701 81.92 55.2801 82.27 54.5101C82.63 53.7301 82.91 52.9101 83.2 52.1001C83.83 50.3101 84.4 48.5001 84.92 46.6701C84.95 46.5701 85.11 46.6101 85.08 46.7101ZM83.13 50.3701C82.54 51.7401 81.95 53.1101 81.36 54.4801C81.07 55.1601 80.78 55.8401 80.48 56.5101C80.33 56.8601 80.18 57.2001 80.03 57.5501C79.88 57.8901 79.76 58.2601 79.55 58.5701C79.53 58.6001 79.48 58.5801 79.49 58.5501C79.57 58.2101 79.74 57.9001 79.88 57.5901C80.03 57.2501 80.19 56.9001 80.34 56.5601C80.65 55.8701 80.95 55.1801 81.26 54.4901C81.87 53.1101 82.48 51.7301 83.09 50.3501C83.09 50.3301 83.13 50.3501 83.12 50.3701H83.13ZM81.66 52.5801C81.09 53.6601 80.51 54.7301 79.92 55.7901C79.63 56.3101 79.35 56.8301 79.06 57.3401C78.76 57.8801 78.48 58.4601 78.11 58.9601C78.07 59.0201 77.98 58.9601 78.01 58.9001C78.27 58.3501 78.61 57.8401 78.91 57.3101C79.22 56.7801 79.52 56.2601 79.82 55.7301C80.42 54.6701 81.02 53.6101 81.6 52.5401C81.62 52.5101 81.67 52.5401 81.65 52.5701L81.66 52.5801ZM81.18 61.9801C80.62 62.6701 79.96 63.2801 79.33 63.9101C78.7 64.5401 78.08 65.1801 77.46 65.8201C76.23 67.09 75.01 68.3601 73.8 69.6501C71.37 72.2401 68.97 74.8501 66.62 77.5101C65.29 79.0201 63.96 80.5401 62.66 82.0701C62.61 82.1301 62.52 82.0401 62.57 81.9801C64.86 79.2701 67.19 76.59 69.56 73.9501C71.93 71.3101 74.35 68.7201 76.81 66.1601C77.51 65.4301 78.21 64.7101 78.92 63.9901C79.62 63.2701 80.3 62.5101 81.08 61.8801C81.14 61.8301 81.22 61.9101 81.17 61.9701L81.18 61.9801ZM81.87 63.4201C80.58 64.8601 79.23 66.2401 77.89 67.6201C76.55 69.0001 75.18 70.3701 73.81 71.7301C73.03 72.5001 72.24 73.26 71.45 74.0201C71.42 74.05 71.37 74.0001 71.4 73.9701C74.17 71.2801 76.87 68.5201 79.51 65.7001C80.26 64.9 81 64.0801 81.75 63.2801C81.83 63.2001 81.95 63.3201 81.88 63.4101L81.87 63.4201ZM82.86 63.8601C82.62 64.1901 82.33 64.4701 82.04 64.7601C81.73 65.0701 81.42 65.3901 81.12 65.7001C80.51 66.3201 79.91 66.94 79.3 67.5601C79.25 67.6101 79.17 67.5301 79.22 67.4801C79.82 66.8601 80.43 66.2301 81.03 65.6101C81.33 65.3001 81.62 64.9901 81.92 64.6901C82.21 64.3901 82.49 64.0801 82.82 63.8201C82.84 63.8001 82.87 63.8401 82.86 63.8601ZM28.36 81.5401C28.25 80.7401 28.19 79.9401 28.06 79.1401C27.93 78.34 27.76 77.55 27.55 76.7701C27.13 75.1801 26.53 73.6401 25.79 72.1701C25.79 72.16 25.8 72.1401 25.81 72.1601C26.57 73.6001 27.19 75.1201 27.64 76.6901C27.87 77.4801 28.05 78.2801 28.19 79.09C28.32 79.8801 28.46 80.7001 28.45 81.5101C28.45 81.5601 28.36 81.58 28.36 81.5201V81.5401ZM31.07 79.2201C30.99 79.0301 30.96 78.8301 30.92 78.6401C30.88 78.4201 30.83 78.2001 30.79 77.9801C30.71 77.5501 30.62 77.1201 30.54 76.6901C30.53 76.6301 30.61 76.6101 30.63 76.6701C30.72 77.1001 30.81 77.5301 30.9 77.9601C30.94 78.1701 30.99 78.3801 31.03 78.59C31.07 78.8 31.13 79.0001 31.13 79.2101C31.13 79.2401 31.08 79.2601 31.07 79.2301V79.2201ZM31.91 79.0001C31.85 78.7701 31.82 78.5401 31.76 78.3101C31.7 78.08 31.63 77.8601 31.54 77.6401C31.52 77.5801 31.61 77.5601 31.63 77.6101C31.72 77.8301 31.79 78.0601 31.85 78.2901C31.91 78.5101 31.97 78.7501 31.96 78.9801C31.96 79.0201 31.91 79.0201 31.9 78.9801L31.91 79.0001ZM18.51 116.32C17.76 118.24 16.75 120.05 15.77 121.86C14.77 123.69 13.77 125.52 12.72 127.33C12.71 127.35 12.67 127.33 12.69 127.31C13.7 125.5 14.68 123.68 15.6 121.82C16.52 119.97 17.36 118.07 18.38 116.27C18.42 116.2 18.55 116.25 18.52 116.33L18.51 116.32ZM15.66 125.41C15.56 125.6 15.46 125.79 15.36 125.97C15.15 126.36 14.95 126.75 14.75 127.15C14.35 127.95 13.96 128.76 13.58 129.57C13.55 129.63 13.46 129.57 13.49 129.52C13.86 128.7 14.25 127.89 14.65 127.09C14.85 126.7 15.05 126.3 15.25 125.91C15.44 125.55 15.61 125.09 15.88 124.79C15.9 124.76 15.95 124.79 15.94 124.83C15.88 125.04 15.76 125.23 15.66 125.41ZM14.71 129.35C14.57 129.67 14.42 129.99 14.28 130.32C13.99 130.96 13.7 131.61 13.41 132.25C13.38 132.31 13.29 132.25 13.32 132.2C13.6 131.57 13.88 130.93 14.17 130.3C14.31 129.99 14.45 129.68 14.59 129.37C14.73 129.05 14.86 128.71 15.05 128.42C15.07 128.39 15.12 128.41 15.11 128.44C15.02 128.76 14.86 129.06 14.73 129.36L14.71 129.35ZM58.93 92.7301C58.9 93.5301 58.84 94.3301 58.75 95.1201C58.67 95.8501 58.64 96.6901 58.34 97.3701C58.32 97.4201 58.25 97.3901 58.24 97.34C58.22 96.97 58.3 96.5901 58.35 96.2201C58.41 95.8001 58.47 95.3801 58.52 94.9701C58.61 94.1901 58.67 93.41 58.71 92.6301C58.78 91.05 58.75 89.4601 58.6 87.8801C58.6 87.7701 58.76 87.7701 58.77 87.8801C58.94 89.4901 58.99 91.1101 58.93 92.7301ZM57.87 95.1301C57.71 96.7701 57.57 98.4501 57.23 100.07C57.21 100.17 57.04 100.15 57.05 100.05C57.23 98.3901 57.53 96.7501 57.71 95.09C57.89 93.43 58.03 91.7701 58.12 90.1001C58.12 90.0401 58.22 90.0401 58.22 90.1001C58.15 91.7801 58.04 93.4601 57.88 95.1401L57.87 95.1301ZM55.66 98.7701C55.49 99.8201 55.37 100.89 55.18 101.94C55.18 101.97 55.13 101.96 55.13 101.94C55.19 100.89 55.38 99.8401 55.56 98.8001C55.75 97.7301 55.96 96.6701 56.2 95.6101C56.21 95.5601 56.28 95.58 56.27 95.6301C56.04 96.6701 55.84 97.73 55.67 98.7801L55.66 98.7701ZM66.88 89.9301C66.86 90.1701 66.82 90.4101 66.78 90.6601C66.74 90.9001 66.7 91.1701 66.6 91.3901C66.58 91.4401 66.5 91.4101 66.5 91.3601C66.52 91.1301 66.6 90.9001 66.64 90.6701C66.69 90.4001 66.73 90.1401 66.76 89.8701C66.81 89.3701 66.82 88.8601 66.79 88.3601C66.79 88.2801 66.91 88.2801 66.91 88.3601C66.95 88.8801 66.94 89.4101 66.89 89.9301H66.88ZM67.57 88.6301C67.53 88.8601 67.48 89.09 67.44 89.3101C67.4 89.5201 67.39 89.76 67.31 89.9501C67.29 90.0001 67.22 89.9701 67.22 89.9301C67.22 89.7201 67.29 89.4901 67.33 89.2801C67.37 89.05 67.42 88.8301 67.46 88.6001C67.55 88.1501 67.64 87.69 67.72 87.2401C67.73 87.1701 67.83 87.2001 67.82 87.2701C67.73 87.73 67.65 88.1801 67.56 88.6401L67.57 88.6301ZM68.2 87.7801C68.15 88.0101 68.1 88.2501 68.05 88.4801C68 88.7201 67.95 88.9501 67.84 89.1701C67.82 89.2001 67.78 89.1901 67.78 89.1501C67.78 88.9001 67.85 88.6801 67.91 88.4401C67.96 88.2101 68.01 87.98 68.06 87.7401C68.16 87.26 68.25 86.7701 68.32 86.2801C68.33 86.1901 68.47 86.2301 68.46 86.3201C68.39 86.8101 68.3 87.2901 68.2 87.7801ZM69.31 86.59C69.31 86.69 69.3 86.7901 69.29 86.8801C69.29 86.9601 69.29 87.0501 69.24 87.1101C69.22 87.1501 69.17 87.1401 69.15 87.1001C69.12 87.0201 69.15 86.9201 69.15 86.84C69.15 86.76 69.16 86.6701 69.16 86.59C69.16 86.4 69.16 86.2101 69.16 86.0201C69.14 85.6401 69.09 85.2701 69.01 84.8901C68.99 84.8001 69.13 84.7601 69.15 84.8501C69.23 85.23 69.28 85.6101 69.3 85.9901C69.3 86.19 69.3 86.3801 69.3 86.5801L69.31 86.59ZM70.42 84.9101C70.42 84.9601 70.42 85.01 70.4 85.0601C70.39 85.1101 70.38 85.1801 70.35 85.2201C70.33 85.2501 70.28 85.2501 70.27 85.2101C70.26 85.16 70.27 85.1101 70.27 85.0601C70.27 85.01 70.27 84.9501 70.27 84.9001C70.27 84.7901 70.27 84.6801 70.26 84.5701C70.24 84.3501 70.18 84.1401 70.1 83.9401C70.06 83.8501 70.2 83.8201 70.24 83.9001C70.33 84.1101 70.38 84.3301 70.4 84.5501C70.41 84.6601 70.42 84.7801 70.41 84.8901L70.42 84.9101ZM85.69 10.1101C85.45 10.3401 85.19 10.5301 84.95 10.7601C84.71 10.9901 84.49 11.2301 84.28 11.4901C83.86 12.0101 83.51 12.5901 83.23 13.2001C83.2 13.2601 83.12 13.2001 83.15 13.1501C83.42 12.5401 83.77 11.9601 84.19 11.4301C84.4 11.1701 84.63 10.9201 84.87 10.6801C85.11 10.4501 85.36 10.2201 85.64 10.0501C85.68 10.0301 85.71 10.0801 85.68 10.1101H85.69ZM86.53 10.1001C86.39 10.2701 86.21 10.4201 86.06 10.5801C85.9 10.7401 85.74 10.9201 85.59 11.0901C85.29 11.4501 85.03 11.8301 84.8 12.2301C84.77 12.2901 84.68 12.2301 84.71 12.1801C84.94 11.7801 85.21 11.3901 85.51 11.0301C85.66 10.8501 85.81 10.6801 85.98 10.5201C86.15 10.3501 86.31 10.1801 86.51 10.0601C86.53 10.0501 86.56 10.0801 86.54 10.1001H86.53ZM87.17 10.6401C86.96 10.8501 86.73 11.0401 86.5 11.2401C86.27 11.4401 86.05 11.6301 85.82 11.8201C85.78 11.8501 85.72 11.8001 85.76 11.7601C85.99 11.5601 86.22 11.3601 86.45 11.1701C86.67 10.9801 86.9 10.7801 87.13 10.6001C87.15 10.5801 87.18 10.6201 87.16 10.6401H87.17ZM82.57 8.91005C82.3 8.90005 82.04 8.76005 81.78 8.68005C81.5 8.60005 81.23 8.53005 80.95 8.45005C80.43 8.31005 79.9 8.16005 79.42 7.91005C78.65 7.50005 77.95 6.78005 77.93 5.86005C77.93 5.80005 78.02 5.80005 78.02 5.86005C78.05 6.84005 78.87 7.56005 79.72 7.92005C80.2 8.13005 80.72 8.25005 81.23 8.38005C81.48 8.44005 81.73 8.51005 81.98 8.59005C82.19 8.65005 82.43 8.71005 82.59 8.87005C82.6 8.88005 82.59 8.91005 82.57 8.91005ZM23.91 31.4301C21.55 34.4401 19.04 37.2901 16.55 40.1801C16.52 39.8401 16.49 39.5001 16.47 39.1601C16.47 39.1101 16.39 39.1101 16.39 39.1601C16.41 39.5301 16.43 39.9001 16.46 40.2701C15.74 41.1001 15.03 41.9301 14.32 42.7801C14.23 42.8801 14.37 43.0301 14.47 42.9301C15.16 42.2101 15.84 41.4701 16.5 40.7201C16.54 41.1501 16.59 41.5801 16.66 42.0101C16.63 42.0501 16.6 42.0901 16.56 42.1201C16.56 42.0001 16.57 41.8801 16.58 41.7501C16.58 41.6801 16.48 41.6801 16.48 41.7501C16.47 41.9201 16.46 42.0801 16.45 42.2501C16.02 42.7701 15.58 43.2901 15.16 43.8101C15.09 43.9001 15.21 44.0201 15.28 43.9301C15.66 43.5101 16.04 43.0801 16.42 42.6501C16.4 43.1001 16.38 43.5601 16.38 44.0101C15.95 44.6001 15.52 45.1901 15.11 45.8001C15.06 45.8701 15.17 45.9501 15.22 45.8901C15.61 45.4101 16 44.9201 16.37 44.4201C16.37 45.0401 16.39 45.6501 16.43 46.2701C16.04 46.8801 15.66 47.4901 15.3 48.1201C15.26 48.1901 15.36 48.2501 15.41 48.1801C15.77 47.6601 16.11 47.1301 16.45 46.5901C16.49 47.1801 16.54 47.7801 16.62 48.3801C16.46 48.6801 16.31 48.9801 16.17 49.2901C16.15 49.3301 16.21 49.3701 16.24 49.3301C16.38 49.1001 16.52 48.8601 16.65 48.6201C16.75 49.3301 16.89 50.0401 17.09 50.7201C17.1 50.7601 17.17 50.7501 17.17 50.7101C17.06 49.9201 16.93 49.1301 16.82 48.3401C16.99 48.0301 17.16 47.7201 17.33 47.4101C17.36 48.0501 17.42 48.6901 17.51 49.3201C17.58 49.7901 17.66 50.2701 17.75 50.7301C17.84 51.1501 17.91 51.5901 18.1 51.9801C18.11 52.0101 18.16 51.9901 18.16 51.9601C18.12 51.5301 17.98 51.1101 17.89 50.6901C17.79 50.2601 17.71 49.8201 17.64 49.3801C17.53 48.6701 17.46 47.9601 17.42 47.2401C17.73 46.6701 18.04 46.1101 18.38 45.5601C18.4 45.5301 18.35 45.5101 18.34 45.5401C18.03 46.0301 17.72 46.5201 17.42 47.0201C17.42 46.8801 17.41 46.7401 17.4 46.6001C17.4 46.5401 17.31 46.5401 17.31 46.6001C17.31 46.7901 17.31 46.9801 17.33 47.1701C17.15 47.4801 16.97 47.7801 16.8 48.0901C16.72 47.5201 16.65 46.9501 16.6 46.3801C16.91 45.8901 17.21 45.3901 17.51 44.8901C17.53 45.0401 17.55 45.2001 17.57 45.3501C17.6 45.5801 17.6 45.8401 17.71 46.0501C17.72 46.0701 17.76 46.0701 17.77 46.0501C17.8 45.8401 17.73 45.6301 17.7 45.4301C17.66 45.2101 17.63 44.9801 17.59 44.7601C17.93 44.1901 18.27 43.6301 18.62 43.0701C18.64 43.0301 18.59 43.0001 18.56 43.0401C18.23 43.5501 17.9 44.0601 17.56 44.5701C17.49 44.1201 17.43 43.6601 17.38 43.2101C17.38 43.1801 17.38 43.1401 17.37 43.1101C18.17 42.0101 18.95 40.9001 19.75 39.8101C19.79 39.7501 19.69 39.6901 19.65 39.7501C18.89 40.7601 18.1 41.7701 17.33 42.7801C17.29 42.4401 17.25 42.1001 17.22 41.7501C19.02 39.6401 20.75 37.4701 22.53 35.3501C22.54 35.3401 22.53 35.3201 22.51 35.3301C20.75 37.3601 18.94 39.3501 17.19 41.3901C17.16 41.0101 17.13 40.6201 17.11 40.2401C17.11 40.2101 17.07 40.2101 17.07 40.2401C17.09 40.6501 17.11 41.0501 17.14 41.4601C17.01 41.6101 16.88 41.7701 16.75 41.9201C16.69 41.5001 16.63 41.0701 16.58 40.6501C19.17 37.7101 21.57 34.5701 23.93 31.4801C23.94 31.4701 23.92 31.4501 23.91 31.4601V31.4301ZM17.27 42.8501C17.18 42.9701 17.09 43.0901 16.99 43.2201C16.92 42.8901 16.86 42.5601 16.81 42.2301C16.93 42.0901 17.06 41.9501 17.18 41.8001C17.21 42.1501 17.24 42.5001 17.27 42.8501ZM16.51 44.2501C16.66 44.0501 16.8 43.8601 16.95 43.6601C17.03 44.0601 17.1 44.4701 17.27 44.8401C17.28 44.8601 17.32 44.8501 17.32 44.8301C17.29 44.3901 17.15 43.9501 17.06 43.5201C17.14 43.4101 17.22 43.3001 17.31 43.1801C17.31 43.2001 17.31 43.2101 17.31 43.2301C17.36 43.7001 17.42 44.1801 17.48 44.6501C17.48 44.6601 17.48 44.6701 17.48 44.6801C17.18 45.1401 16.88 45.6001 16.58 46.0601C16.54 45.4601 16.52 44.8501 16.51 44.2501ZM16.71 42.3301C16.76 42.6701 16.82 43.0101 16.89 43.3401C16.76 43.5101 16.64 43.6801 16.51 43.8501C16.51 43.4101 16.52 42.9601 16.54 42.5201C16.6 42.4601 16.65 42.3901 16.71 42.3301ZM20.71 33.5901C19.85 34.6801 18.97 35.7601 18.07 36.8301C17.12 37.9501 16.17 39.2901 15 40.1901C14.96 40.2201 14.9 40.1901 14.93 40.1401C15.61 39.0901 16.6 38.2001 17.43 37.2601C18.39 36.1701 19.33 35.0601 20.26 33.9401C22.14 31.6401 23.94 29.2801 25.66 26.8501C25.66 26.8401 25.68 26.8501 25.68 26.8501C24.1 29.1501 22.45 31.4001 20.72 33.5801L20.71 33.5901ZM37.13 41.4801C37.13 41.0101 37.01 40.5701 36.79 40.1601C36.78 40.1301 36.82 40.1101 36.83 40.1401C37.06 40.5601 37.18 41.0101 37.18 41.4901C37.18 41.5201 37.13 41.5201 37.13 41.4901V41.4801ZM38.15 41.4801C37.99 39.9201 37.74 38.3701 37.39 36.8401C37.39 36.8301 37.41 36.8201 37.41 36.8401C37.76 38.3701 38.03 39.9201 38.2 41.4801C38.2 41.5201 38.15 41.5201 38.14 41.4801H38.15Z" fill="#008440"/>
</g>
<defs>
<clipPath id="clip0_1_418">
<rect width="128.29" height="156.72" fill="white"/>
</clipPath>
</defs>
</svg>
