<svg width="160" height="104" viewBox="0 0 160 104" fill="none" xmlns="http://www.w3.org/2000/svg">
<g clip-path="url(#clip0_1_425)">
<path d="M125.63 18.8C124.63 17.72 123.86 16.42 123.03 15.21C122.11 13.86 121.18 12.52 120.26 11.17C120.17 11.03 120.39 10.91 120.48 11.04C121.37 12.31 122.27 13.58 123.16 14.85C124.04 16.11 125.05 17.34 125.74 18.71C125.77 18.78 125.69 18.86 125.63 18.79V18.8ZM129.93 27.35C129.44 26.01 128.95 24.67 128.46 23.33C128.33 22.97 127.75 23.12 127.87 23.49C128.35 24.91 128.83 26.34 129.31 27.77C129.7 28.92 129.94 30.2 130.73 31.14C130.82 31.25 130.99 31.16 130.99 31.03C131.02 29.77 130.35 28.52 129.92 27.35H129.93ZM145.91 44.65C143.02 41.36 139.6 38.46 136.44 35.44C136.3 35.31 136.08 35.52 136.23 35.65C139.38 38.69 142.42 41.99 145.82 44.75C145.89 44.81 145.98 44.72 145.92 44.65H145.91ZM136.86 33.19C135.84 31.83 134.64 30.76 133.81 29.24C132.97 27.69 132.38 26.02 131.83 24.35C130.8 21.16 129.95 17.89 128.24 14.97C128.15 14.81 127.91 14.95 128 15.11C129.84 18.33 130.63 21.96 131.79 25.45C132.3 26.98 132.88 28.49 133.68 29.9C134.4 31.16 135.37 32.69 136.69 33.36C136.78 33.41 136.93 33.3 136.85 33.2L136.86 33.19ZM104.66 38.41C104.6 38.35 104.52 38.43 104.55 38.49C105.26 40.05 105.65 41.46 105.15 43.17C105.1 43.34 105.37 43.42 105.42 43.24C105.88 41.66 105.77 39.7 104.66 38.41ZM131.33 69.79C130.76 69.88 130.17 70.18 129.62 70.37C129.49 70.41 129.55 70.62 129.68 70.57C130.23 70.37 130.88 70.21 131.39 69.92C131.46 69.88 131.41 69.78 131.34 69.79H131.33ZM102.13 43.99C100.73 44.42 99.46 45.01 97.98 45.15C96.52 45.29 95.08 45.1 93.69 44.65C93.47 44.58 93.39 44.92 93.6 44.99C96.24 45.89 99.94 46.02 102.24 44.17C102.32 44.1 102.24 43.96 102.14 43.99H102.13ZM103.12 44.83C101.61 45.41 100.17 46.24 98.73 46.96C98.6 47.03 98.71 47.23 98.85 47.16C100.29 46.45 101.82 45.81 103.18 44.96C103.24 44.92 103.2 44.8 103.13 44.83H103.12ZM104.29 44.51C103.93 44.72 103.67 45.04 103.38 45.33C103.06 45.65 102.75 45.97 102.43 46.29C102.31 46.41 102.5 46.59 102.61 46.47C102.93 46.15 103.24 45.83 103.56 45.51C103.85 45.21 104.16 44.95 104.37 44.59C104.4 44.54 104.34 44.48 104.29 44.51ZM125.51 22.2C125.48 22.12 125.38 22.14 125.37 22.22C125.24 23.87 125.58 25.59 125.52 27.26C125.45 29.09 125.19 30.9 124.79 32.69C124.77 32.78 124.9 32.82 124.92 32.73C125.34 31.01 125.62 29.26 125.74 27.5C125.85 25.84 126.03 23.81 125.5 22.21L125.51 22.2ZM127.03 24.5C127.03 24.43 126.91 24.39 126.89 24.48C126.64 26.21 126.99 28.15 127.27 29.86C127.29 29.98 127.47 29.93 127.45 29.81C127.18 28.04 127.26 26.26 127.03 24.5ZM68.61 18.06C67.97 17.63 67.25 17.3 66.57 16.93C66.46 16.87 66.35 17.04 66.47 17.1C67.16 17.46 67.85 17.87 68.57 18.15C68.63 18.17 68.66 18.08 68.61 18.05V18.06ZM68.45 19.28C67.93 18.69 67.13 18.28 66.41 17.99C66.33 17.96 66.29 18.09 66.37 18.12C67.14 18.42 67.73 18.88 68.39 19.35C68.44 19.38 68.48 19.31 68.45 19.28ZM103.04 36.99C100.24 34.61 95.44 34.25 91.95 34.56C91.78 34.57 91.78 34.83 91.95 34.82C93.92 34.7 95.88 34.85 97.8 35.31C99.59 35.74 101.21 36.61 102.97 37.11C103.03 37.13 103.09 37.04 103.04 36.99ZM100.78 35.06C98.32 33.03 94.52 32.71 91.5 33.25C91.4 33.27 91.44 33.42 91.54 33.4C93.18 33.14 94.84 33.15 96.47 33.51C97.98 33.84 99.31 34.54 100.71 35.15C100.76 35.17 100.83 35.11 100.78 35.06ZM97.43 32.83C95.78 31.96 93.7 31.81 91.87 31.92C91.75 31.92 91.75 32.11 91.87 32.11C93.82 32.03 95.51 32.5 97.37 32.97C97.45 32.99 97.51 32.87 97.43 32.83ZM159.68 41.05C157.72 42.8 155.48 44.24 153.33 45.74C152.31 46.45 151.35 47.3 150.47 48.18C149.81 48.83 149.18 49.4 148.69 50.1C148.62 50.45 148.52 50.79 148.43 51.08C148.04 52.32 147.39 53.47 146.62 54.51C145.99 55.79 145.21 56.99 144.16 57.98C143.42 58.67 142.58 59.24 141.65 59.63C141.06 59.88 140.46 60.06 139.84 60.2C140.45 60.93 141.01 61.69 141.47 62.55C142.01 63.55 142.61 64.87 142.46 66.06C142.69 68.08 141.72 70.01 139.95 71.21C138.84 71.96 137.54 72.43 136.26 72.8C134.59 73.28 132.86 73.76 131.11 73.79C129.08 73.83 127.1 73.3 125.71 72C125.66 72.02 125.59 72.02 125.53 72C125.04 71.77 124.55 71.52 124.08 71.25C124.27 71.54 124.44 71.83 124.58 72.14C125.34 73.38 126 74.74 125.97 76.17C125.92 78.24 124.45 79.41 122.99 80.63C120.53 82.68 116.67 86.99 113.06 85.4C113.06 85.4 113.05 85.4 113.04 85.39C112.49 85.36 111.92 85.17 111.39 84.93C111.38 84.93 111.37 84.93 111.35 84.92C111.25 84.89 111.15 84.84 111.06 84.81C111.11 84.88 111.15 84.94 111.2 85.01C112.47 86.14 113.32 87.44 112.61 89.21C111.97 90.83 110.06 91.69 108.64 92.48C106.94 93.42 104.81 94.89 102.82 95.04C102.73 95.04 102.63 95.04 102.54 95.04C102.57 95.15 102.6 95.27 102.63 95.38C102.63 95.38 102.64 95.39 102.65 95.4C103.86 96.79 103.16 98.66 101.75 99.6C100.94 100.14 99.98 100.44 99.05 100.73C98.93 100.79 98.81 100.85 98.69 100.91C98.31 101.1 97.93 101.28 97.55 101.46C96.82 101.79 96.08 102.09 95.36 102.45C94.71 102.77 94.04 103.09 93.34 103.28C92.61 103.48 91.88 103.64 91.13 103.74C90.13 103.87 89.18 103.8 88.26 103.55C87.86 103.48 87.46 103.38 87.06 103.2C85.89 102.7 84.75 102.12 83.6 101.57C83.37 101.57 83.14 101.57 82.91 101.58C82.8 101.58 82.68 101.6 82.57 101.6C82.55 101.62 82.53 101.64 82.5 101.66C81.69 102.15 80.84 102.52 79.96 102.81C79.66 102.97 79.35 103.11 79.03 103.24C77.82 103.71 76.49 103.85 75.2 103.87C73.92 103.89 72.59 103.89 71.33 103.68C70.41 103.53 69.59 103.18 68.91 102.61C67.76 101.85 66.6 100.73 66.26 99.57C66.2 99.38 66.17 99.19 66.16 99C65.06 99.01 63.91 99.08 62.78 99.06C62.74 99.17 62.59 99.16 62.56 99.06C62.12 99.04 61.68 99.01 61.24 98.95C60.43 98.93 59.62 98.87 58.86 98.6C57.89 98.25 57.03 97.68 56.36 96.89C56.23 96.74 56.11 96.58 55.98 96.43C55.8 96.28 55.63 96.13 55.47 95.97C55.4 95.89 55.33 95.81 55.26 95.73C54.86 95.36 54.59 94.91 54.41 94.4C54.15 94.52 53.88 94.62 53.6 94.69C53.21 94.92 52.83 95.14 52.41 95.33C51.99 95.52 51.54 95.65 51.1 95.78C50.25 96.04 49.34 96.19 48.47 95.93C47.99 95.79 47.5 95.59 47.03 95.37C46.98 95.35 46.93 95.34 46.88 95.32C45.77 94.91 44.78 94.15 43.82 93.47C42.86 92.79 41.79 92.12 41.02 91.22C40.66 90.8 40.36 90.32 40.22 89.78C40.15 89.51 40.14 89.26 40.19 89.01C40.15 88.8 40.13 88.58 40.14 88.35C40.12 87.12 40.45 85.73 40.65 84.72C39.65 85.09 37.72 84.52 36.98 84.37C34.93 83.95 32.95 83.28 31.18 82.15C29.73 81.22 28.16 80.06 27.94 78.22C27.81 77.1 28 75.95 28 74.82C28 74.26 27.94 73.7 27.84 73.14C27.6 72.47 27.39 71.79 27.24 71.1C27.16 70.73 27.07 70.33 27.05 69.93C26.95 69.94 26.85 69.93 26.76 69.87C26.49 69.71 26.21 69.58 25.93 69.44C25.69 69.32 25.46 69.16 25.22 69.03C25.11 68.97 25.01 68.89 24.9 68.83C24.75 68.75 24.59 68.71 24.44 68.62C24.19 68.46 23.96 68.28 23.72 68.11C22.78 67.45 21.83 66.79 20.87 66.14C17.48 63.82 14.03 61.59 10.53 59.42C8.06 57.89 5.7 56.2 3.26 54.62C2.31 54.08 1.37 53.55 0.410001 53.02C0.300001 52.96 0.250001 52.87 0.240001 52.77C0.190001 52.74 0.150001 52.72 0.110001 52.69C-0.0899993 52.58 0.0900007 52.27 0.290001 52.38C0.330001 52.4 0.370001 52.42 0.410001 52.44C0.500001 52.38 0.630001 52.36 0.750001 52.43C2.03 53.1 3.31 53.78 4.59 54.47C5.26 54.79 5.93 55.11 6.59 55.44C8.82 56.57 11 57.8 13.14 59.09C13.73 59.41 14.32 59.73 14.91 60.05C16.08 60.69 17.25 61.37 18.37 62.09C19.52 62.82 20.46 63.78 21.58 64.55C23.48 65.85 25.65 66.89 27.42 68.37C28.21 67.68 29.27 67.23 30.29 67.15C31.57 67.05 32.84 67.49 33.96 68.06C35.12 68.65 36.21 69.4 37.24 70.2C38.27 71 39.24 71.86 40.15 72.79C40.6 73.25 41.02 73.75 41.43 74.26C41.76 74.68 42.09 75.09 42.37 75.54C42.4 75.4 42.43 75.26 42.47 75.12C42.96 73.22 43.75 71.42 44.96 69.86C45.56 69.09 46.23 68.36 47.01 67.77C47.45 67.44 47.94 67.22 48.49 67.17C49.04 67.12 49.58 67.28 50.08 67.49C51.04 67.9 51.95 68.47 52.85 69C53.78 69.55 54.67 70.18 55.48 70.9C56.74 72.02 57.82 73.37 58.4 74.96C58.69 74.69 59.03 74.46 59.37 74.27C60.22 73.78 61.17 73.47 62.14 73.3C62.66 73.18 63.19 73.12 63.73 73.14C64.74 73.11 65.75 73.24 66.69 73.64C67.81 74.13 68.65 75.05 69.31 76.05C69.99 77.08 70.52 78.23 70.92 79.4C71.32 80.58 71.5 81.86 71.61 83.1C71.7 84.16 71.67 85.23 71.54 86.29C71.89 86.29 72.23 86.32 72.58 86.38C72.59 86.38 72.61 86.38 72.62 86.38C75.82 86.76 78.58 89.41 79.56 92.4C80 93.74 80.07 95.17 79.83 96.56C79.83 96.61 79.83 96.66 79.81 96.71C79.78 96.96 79.75 97.2 79.65 97.43C79.65 97.44 79.64 97.45 79.63 97.46C79.58 97.65 79.52 97.83 79.46 98.02C80.85 98.74 82.25 99.45 83.66 100.15C84.34 100.49 85.02 100.82 85.69 101.17C86.3 101.5 86.91 101.84 87.55 102.13C87.97 102.32 88.4 102.46 88.83 102.55C89.08 100.72 90.09 99.14 91.32 97.77C91.15 97.72 90.97 97.66 90.8 97.6C90.33 97.43 89.88 97.23 89.44 97C88.52 96.51 87.68 95.89 86.95 95.15C86.87 95.07 87 94.94 87.08 95.02C87.8 95.73 88.61 96.33 89.51 96.8C89.97 97.04 90.45 97.25 90.94 97.42C91.12 97.48 91.3 97.53 91.49 97.59C91.77 97.29 92.07 96.99 92.36 96.71C92.42 96.66 92.49 96.74 92.44 96.79C92.19 97.08 91.95 97.37 91.7 97.65C91.89 97.7 92.09 97.74 92.26 97.85C92.29 97.87 92.29 97.92 92.25 97.93C92.02 97.97 91.8 97.91 91.58 97.85C91.57 97.85 91.56 97.85 91.54 97.84C90.34 99.25 89.25 100.69 89.01 102.59C89.26 102.64 89.51 102.66 89.76 102.68C90.42 102.09 91 101.45 91.49 100.75C90.98 100.8 90.47 100.84 89.95 100.88C89.88 100.88 89.88 100.78 89.95 100.77C90.49 100.73 91.03 100.68 91.57 100.62C91.93 100.1 92.24 99.55 92.5 98.97C91.93 98.99 91.36 99.01 90.79 99.03C90.72 99.03 90.72 98.92 90.79 98.92C91.39 98.9 91.98 98.86 92.57 98.81C92.72 98.47 92.86 98.11 92.98 97.74C92.79 97.76 92.59 97.77 92.4 97.79C92.35 97.79 92.35 97.72 92.4 97.71C92.6 97.69 92.81 97.67 93.01 97.65C93.04 97.56 93.08 97.46 93.1 97.37C93.16 97.17 93.23 96.98 93.29 96.78C92.93 96.61 92.58 96.41 92.24 96.24C91.55 95.9 90.87 95.55 90.19 95.19C88.8 94.45 87.44 93.66 86.1 92.83C86.03 92.79 86.1 92.68 86.16 92.72C87.49 93.52 88.85 94.28 90.23 94.99C90.91 95.34 91.6 95.68 92.29 96.01C92.64 96.18 93.01 96.32 93.37 96.48C93.49 96.12 93.63 95.76 93.77 95.42C93.6 95.33 93.42 95.25 93.25 95.15C89.95 93.38 86.89 91.19 84.14 88.64C84.03 88.54 84.19 88.37 84.31 88.47C85.09 89.18 85.9 89.86 86.73 90.51C88.2 91.65 89.74 92.7 91.34 93.65C92.12 94.11 92.93 94.54 93.73 94.96C93.79 94.99 93.85 95.02 93.92 95.06C94.08 94.71 94.24 94.36 94.42 94.02C93.67 93.68 92.93 93.27 92.22 92.88C88 90.54 84.33 87.3 80.71 84.15C80.65 84.1 80.74 84.02 80.79 84.07C81.81 84.94 82.84 85.81 83.87 86.67C85.74 88.21 87.65 89.7 89.67 91.03C90.66 91.68 91.68 92.3 92.72 92.87C93.32 93.2 93.93 93.49 94.55 93.78C94.69 93.54 94.83 93.3 94.99 93.06C94.79 92.94 94.59 92.82 94.4 92.71C93.81 92.36 93.22 92 92.64 91.64C89.06 89.38 85.72 86.76 82.43 84.11C81.15 83.65 79.77 83.45 78.95 84.21C78.83 84.32 78.66 84.15 78.77 84.03C79.26 83.52 79.77 83.15 80.31 82.93C80.81 82.15 81.95 82.36 82.75 82.75C83.99 83.37 85.1 84.36 86.21 85.27C87.05 85.8 87.92 86.28 88.78 86.77C90.99 88.03 93.2 89.3 95.39 90.59C96.52 91.26 97.62 92 98.79 92.58C99.28 92.82 99.78 93.05 100.28 93.3C100.58 93.08 100.87 92.85 101.16 92.62C100.38 92.4 99.63 92.08 98.92 91.66C98.84 91.61 98.92 91.49 98.99 91.53C99.72 91.95 100.5 92.27 101.31 92.48C101.72 92.14 102.11 91.78 102.5 91.41C101.75 91.16 101.02 90.88 100.3 90.55C100.24 90.52 100.3 90.44 100.35 90.47C101.08 90.8 101.83 91.08 102.6 91.32C102.81 91.12 103.02 90.91 103.23 90.7C103.28 90.65 103.36 90.73 103.31 90.78C103.14 90.98 102.95 91.18 102.77 91.37C103.2 91.5 103.63 91.62 104.07 91.72C104.14 91.74 104.21 91.75 104.27 91.76C104.62 91.46 104.95 91.14 105.26 90.8C104.62 90.61 103.99 90.4 103.38 90.14C103.31 90.11 103.34 90 103.41 90.03C104.05 90.29 104.7 90.51 105.36 90.69C105.58 90.45 105.79 90.2 105.98 89.93C106.22 89.62 106.42 89.29 106.62 88.95C105.85 88.63 105.09 88.27 104.36 87.88C104.26 87.82 104.35 87.66 104.45 87.72C105.19 88.11 105.95 88.46 106.72 88.78C106.75 88.73 106.77 88.69 106.8 88.64C106.36 88.38 105.94 88.1 105.52 87.85C102.3 85.89 99.23 83.68 96.35 81.24C96.28 81.18 96.38 81.09 96.45 81.14C98.33 82.69 100.28 84.14 102.3 85.49C103.29 86.15 104.3 86.79 105.32 87.4C105.84 87.71 106.36 88.01 106.89 88.31C106.91 88.32 106.93 88.34 106.96 88.35C107.1 88.09 107.24 87.82 107.38 87.56C106.71 87.25 106.05 86.93 105.39 86.59C105.31 86.55 105.39 86.43 105.46 86.47C106.12 86.8 106.78 87.12 107.45 87.42C107.47 87.38 107.49 87.34 107.51 87.29C106.99 86.98 106.48 86.66 105.97 86.34C102.05 83.82 98.34 80.99 94.86 77.88C94.79 77.82 94.89 77.72 94.96 77.78C95.96 78.65 96.97 79.5 98 80.33C99.82 81.79 101.7 83.17 103.64 84.48C104.59 85.13 105.56 85.75 106.54 86.36C106.9 86.59 107.27 86.81 107.63 87.03C107.78 86.73 107.93 86.44 108.09 86.14C108.02 86.09 107.95 86.04 107.88 85.98C107.55 85.8 107.22 85.62 106.89 85.44C106.81 85.4 106.89 85.28 106.96 85.32C106.98 85.33 107.01 85.35 107.03 85.36C106.52 84.99 106.02 84.63 105.52 84.26C100.97 80.88 96.57 77.3 92.29 73.57C92.25 73.53 92.31 73.47 92.35 73.51C93.57 74.55 94.8 75.58 96.05 76.59C98.27 78.4 100.52 80.16 102.81 81.88C103.95 82.74 105.1 83.58 106.25 84.42C106.82 84.84 107.4 85.26 107.98 85.68C108.07 85.74 108.16 85.8 108.25 85.87C108.43 85.56 108.61 85.25 108.81 84.95C107.97 84.38 107.14 83.81 106.31 83.23C100.72 79.34 95.32 75.18 90.1 70.81C90.06 70.78 90.12 70.72 90.15 70.76C91.64 71.98 93.14 73.19 94.66 74.38C97.35 76.48 100.09 78.52 102.86 80.52C105.48 82.41 108.16 84.22 110.83 86.05C110.03 85.04 108.82 84.05 107.84 83.11C106.04 82.04 104.37 80.74 102.75 79.41C100.5 77.56 98.24 75.73 95.97 73.9C95.11 73.21 93.95 72.11 92.69 71.24C92.2 70.99 91.7 70.75 91.17 70.55C91.14 70.54 91.13 70.5 91.14 70.48C90.15 70.16 89.03 70 87.99 70.12C87.96 70.12 87.93 70.13 87.9 70.13C87.26 70.21 86.66 70.4 86.14 70.73C86.07 70.78 85.98 70.66 86.05 70.61C86.88 69.95 87.64 69.52 88.51 69.35C88.51 69.35 88.52 69.35 88.53 69.35C88.64 69.33 88.76 69.31 88.87 69.3C88.88 69.3 88.89 69.3 88.91 69.3C89.39 69.25 89.9 69.28 90.48 69.4C92.4 69.77 94.06 70.93 95.58 72.1C96.91 73.12 98.16 74.24 99.44 75.34C99.92 75.66 100.39 75.99 100.87 76.31C103.22 77.89 105.51 79.59 107.93 81.06C108.16 81.2 108.39 81.34 108.62 81.47C109.23 81.74 109.85 81.99 110.48 82.23C111.37 82.56 112.28 82.83 113.19 83.11C113.64 83.25 114.11 83.34 114.53 83.54C114.75 83.64 114.96 83.74 115.18 83.85C115.55 83.78 115.9 83.67 116.24 83.53C115.89 83.44 115.55 83.33 115.22 83.22C115.12 83.27 115.03 83.32 114.93 83.37C114.86 83.4 114.81 83.31 114.87 83.27C114.93 83.24 114.99 83.2 115.05 83.17C114.99 83.15 114.93 83.13 114.87 83.11C114.12 82.87 113.38 82.6 112.65 82.32C111.19 81.75 109.78 81.09 108.4 80.34C108.3 80.29 108.39 80.14 108.49 80.19C109.89 80.93 111.34 81.58 112.82 82.14C113 82.21 113.18 82.27 113.37 82.34C113.33 82.31 113.33 82.22 113.39 82.19C114.17 81.87 114.89 81.47 115.58 81.02C114.97 80.82 114.37 80.61 113.78 80.37C112.25 79.77 110.76 79.05 109.33 78.23C109.21 78.16 109.32 77.98 109.44 78.05C110.88 78.84 112.37 79.52 113.91 80.09C114.58 80.34 115.26 80.56 115.94 80.77C116.46 80.41 116.95 80.02 117.43 79.61C117.2 79.52 116.97 79.44 116.74 79.35C115.36 78.79 114.03 78.11 112.76 77.32C112.68 77.27 112.76 77.13 112.84 77.19C114.12 77.96 115.46 78.62 116.85 79.16C117.11 79.26 117.36 79.35 117.62 79.44C118.14 78.99 118.65 78.51 119.15 78.03C119.04 77.99 118.92 77.95 118.81 77.9C117.87 77.54 116.96 77.14 116.06 76.68C115.96 76.63 116.05 76.48 116.15 76.53C117.06 76.98 118 77.39 118.96 77.74C119.08 77.78 119.2 77.82 119.32 77.87C119.39 77.8 119.47 77.73 119.54 77.66C119.75 77.45 119.96 77.24 120.17 77.03C119.5 76.74 118.84 76.42 118.2 76.1C118.08 76.04 118.19 75.87 118.3 75.92C118.97 76.25 119.65 76.55 120.34 76.83C120.66 76.48 120.95 76.12 121.19 75.72C120.78 75.52 120.37 75.3 119.98 75.08C119.87 75.02 119.97 74.85 120.08 74.91C120.48 75.13 120.88 75.34 121.29 75.55C121.46 75.23 121.6 74.88 121.69 74.49C121.71 74.42 121.72 74.35 121.73 74.28C121.62 74.23 121.52 74.17 121.41 74.12C121.36 74.09 121.41 74.02 121.45 74.04C121.55 74.09 121.65 74.14 121.74 74.18C121.76 74.07 121.77 73.96 121.79 73.85C121.54 73.65 121.28 73.45 121.03 73.25C116.97 70.02 112.97 66.72 108.99 63.38C108.96 63.35 109 63.3 109.04 63.33C110.18 64.26 111.32 65.19 112.47 66.11C115.57 68.62 118.7 71.1 121.84 73.57C121.86 73.38 121.89 73.18 121.91 72.99C121.87 72.8 121.82 72.61 121.79 72.41C121.08 71.84 120.36 71.26 119.65 70.69C114.48 66.58 109.22 62.57 103.85 58.73C103.78 58.68 103.85 58.57 103.91 58.62C105.43 59.7 106.94 60.78 108.45 61.88C111.08 63.8 113.68 65.76 116.25 67.75C117.57 68.77 118.87 69.8 120.17 70.84C120.69 71.26 121.21 71.68 121.73 72.1C121.68 71.83 121.64 71.55 121.61 71.27C121.57 70.98 121.49 70.61 121.55 70.3C119.46 68.43 116.86 67.09 114.47 65.48C111.13 63.24 107.95 60.79 104.91 58.15C104.12 57.59 103.32 57.02 102.53 56.46C102.85 57.16 103.17 57.87 103.44 58.61C103.5 58.78 103.28 58.87 103.17 58.77C100.91 56.79 100.54 53.47 100.4 50.63C100.4 50.55 100.51 50.56 100.52 50.63C100.7 52.33 101.3 53.81 101.98 55.27C101.99 55.27 102 55.28 102.01 55.29C102.2 55.42 102.39 55.55 102.58 55.68C102.64 55.65 102.72 55.66 102.79 55.71C103.02 55.91 103.25 56.1 103.47 56.3C106.58 58.46 109.72 60.58 112.89 62.66C114.69 63.84 116.5 65 118.32 66.15C119.2 66.71 120.12 67.24 121.03 67.79C122.24 68.07 123.44 68.37 124.64 68.71C125.72 69.02 127.04 69.16 127.68 70.16C127.71 70.21 127.71 70.27 127.68 70.32C128.43 70.7 129.19 71.07 129.96 71.41C130.88 71.82 131.83 72.16 132.77 72.53C132.92 72.51 133.07 72.49 133.22 72.47C134.68 72.23 136.31 71.88 137.76 71.24C137.67 71.12 137.58 71 137.48 70.89C137.23 70.59 136.97 70.29 136.71 70C136.17 69.4 135.6 68.83 135.01 68.28C134.56 67.86 134.09 67.46 133.61 67.07C133.43 67.32 133.23 67.55 132.99 67.76C132.3 68.36 131.45 68.7 130.79 69.35C130.72 69.42 130.6 69.31 130.67 69.23C131.23 68.66 131.91 68.32 132.54 67.84C132.89 67.57 133.18 67.26 133.43 66.92C132.68 66.31 131.89 65.74 131.08 65.21C131.04 65.18 131.08 65.12 131.12 65.14C131.94 65.66 132.73 66.23 133.49 66.83C133.74 66.48 133.96 66.1 134.17 65.69C134.24 65.56 134.31 65.42 134.37 65.29C133.83 64.75 133.27 64.22 132.71 63.7C132.56 64.03 132.43 64.36 132.33 64.71C132.31 64.77 132.22 64.74 132.24 64.69C132.34 64.32 132.46 63.96 132.61 63.61C132.59 63.59 132.57 63.57 132.55 63.56C132.49 63.51 132.42 63.46 132.36 63.41C132.22 63.3 132.08 63.2 131.94 63.09C131.82 63.32 131.71 63.55 131.6 63.78C131.54 63.91 131.49 64.03 131.43 64.16C131.58 64.27 131.72 64.38 131.87 64.49C131.96 64.56 131.84 64.72 131.75 64.65C131.62 64.55 131.48 64.46 131.35 64.36C130.62 66.07 129.88 67.9 127.95 68.49C127.72 68.56 127.62 68.2 127.85 68.13C129.69 67.57 130.36 65.82 131.07 64.15C129.81 63.24 128.58 62.29 127.34 61.36C125.87 60.26 124.4 59.16 122.93 58.06C122.87 58.02 122.93 57.91 122.99 57.96C124.49 59.06 125.98 60.15 127.48 61.25C128.71 62.15 129.95 63.03 131.16 63.95C131.32 63.58 131.48 63.21 131.66 62.87C131.6 62.82 131.54 62.78 131.48 62.73L129.75 61.42C127.69 59.86 125.65 58.29 123.6 56.72C121.67 55.25 119.77 53.68 117.6 52.59C117.54 52.56 117.6 52.47 117.65 52.5C118.88 53.11 120.02 53.86 121.12 54.67C123.18 56.17 125.2 57.74 127.24 59.28C128.28 60.06 129.32 60.85 130.35 61.64C130.82 62 131.29 62.36 131.75 62.72C131.84 62.56 131.93 62.4 132.03 62.25C132.35 61.77 132.71 61.42 133.1 61.15C132.87 60.98 132.64 60.81 132.42 60.65C131.75 60.17 131.08 59.69 130.4 59.21C128.03 57.52 125.68 55.82 123.29 54.15C121.05 52.58 118.74 51.09 116.24 49.94C116.22 49.93 116.24 49.9 116.26 49.91C117.69 50.54 119.06 51.29 120.39 52.1C122.8 53.57 125.1 55.23 127.42 56.85C128.64 57.7 129.86 58.54 131.07 59.39L132.95 60.7C133.08 60.79 133.22 60.88 133.35 60.98C133.66 60.8 133.98 60.66 134.32 60.53C134.25 60.48 134.18 60.42 134.11 60.37C133.26 59.73 132.41 59.1 131.55 58.48C125.52 54.08 119.31 49.92 112.93 46.04C112.89 46.01 112.93 45.95 112.97 45.97C114.79 47.05 116.61 48.16 118.4 49.28C121.56 51.26 124.68 53.31 127.74 55.44C129.29 56.52 130.82 57.62 132.34 58.73C133.1 59.29 133.86 59.85 134.61 60.41C134.93 60.3 135.27 60.21 135.6 60.1C135.06 59.67 134.53 59.22 134 58.79C133.01 57.98 132 57.19 130.99 56.42C127.39 53.68 123.63 51.14 119.75 48.81C115.87 46.49 111.85 44.38 107.74 42.51C107.69 42.49 107.74 42.41 107.78 42.43C110.11 43.47 112.41 44.57 114.67 45.75C118.7 47.85 122.6 50.18 126.37 52.73C128.25 54 130.1 55.33 131.9 56.71C133.28 57.76 134.69 58.81 135.99 59.98C136.18 59.9 136.37 59.83 136.55 59.79C136.62 59.77 136.68 59.74 136.75 59.72C136.52 59.44 136.3 59.15 136.1 58.86C135.98 58.84 135.87 58.78 135.76 58.69C130.91 54.34 125.44 50.83 119.98 47.3C119.9 47.26 119.83 47.22 119.75 47.18C118.62 46.56 117.51 45.9 116.39 45.27C114.2 44.04 111.99 42.84 109.98 41.33C109.69 41.11 109.4 40.87 109.14 40.61C108.94 40.42 108.79 40.18 108.6 39.98C108.38 39.74 108.13 39.53 107.9 39.29C107.7 39.08 107.51 38.85 107.3 38.65C107.02 38.38 106.75 38.1 106.49 37.82C106.69 38.65 106.78 39.53 106.73 40.35C106.66 41.5 106.42 42.63 106.27 43.76C106.26 43.85 106.12 43.86 106.12 43.76C106.15 43.14 106.16 42.52 106.13 41.9C106.1 41.31 106.02 40.73 105.98 40.14C105.96 39.81 105.92 39.48 105.87 39.15C105.76 38.78 105.62 38.41 105.6 38.04C104.24 36.53 103.04 35 101.37 33.8C99.62 32.55 97.68 31.58 95.79 30.57C91.79 28.44 87.83 26.24 83.86 24.06C83.9 24.18 83.93 24.3 83.93 24.42C83.93 24.43 83.93 24.45 83.93 24.46C84.69 25.3 85.55 26.06 86.46 26.73C86.53 26.78 86.46 26.9 86.39 26.85C85.3 26.17 84.29 25.39 83.36 24.5C82.68 23.86 81.95 23.19 81.36 22.44C81.4 22.8 81.44 23.15 81.54 23.5C81.78 24.36 82.23 25.11 82.84 25.75C82.86 25.77 82.83 25.8 82.81 25.78C82.21 25.22 81.79 24.57 81.4 23.85C81.12 23.32 80.79 22.79 80.55 22.23C80.12 22.41 79.7 22.59 79.28 22.78C79.11 23.04 78.94 23.3 78.77 23.57C78.7 23.67 78.53 23.57 78.6 23.47C78.72 23.29 78.84 23.11 78.95 22.93C78.73 23.03 78.5 23.12 78.28 23.22C77.59 23.54 76.9 23.86 76.2 24.18C74.91 25.73 73.59 27.26 72.23 28.75C72.17 28.89 72.11 29.02 72.05 29.16C71.92 29.81 71.74 30.44 71.53 31.04C72.07 30.43 72.64 29.84 73.2 29.24L75.39 26.87L76.53 25.64C76.87 25.27 77.2 24.8 77.61 24.51C77.66 24.47 77.72 24.54 77.69 24.59C77.44 25 77.01 25.35 76.68 25.71C76.34 26.07 76 26.43 75.66 26.8C74.95 27.56 74.25 28.31 73.54 29.07C72.86 29.8 72.16 30.53 71.49 31.27C71.47 31.29 71.45 31.32 71.43 31.34C71.23 31.86 71 32.36 70.76 32.81C70.44 33.39 70.09 33.93 69.7 34.44C70.03 34.15 70.36 33.85 70.69 33.55C72.23 32.11 73.68 30.56 75.04 28.94C75.74 28.1 76.41 27.23 77.05 26.35C77.36 25.93 77.66 25.5 77.95 25.06C78.22 24.66 78.45 24.18 78.81 23.86C78.84 23.83 78.91 23.86 78.89 23.91C78.72 24.44 78.29 24.94 77.97 25.39C77.63 25.88 77.28 26.36 76.92 26.84C74.71 29.77 72.18 32.46 69.39 34.84C67.49 37.21 64.9 38.97 62.17 40.39C60.76 41.47 59.31 42.32 57.57 42.37C57.51 42.4 57.45 42.42 57.37 42.41C55.24 42.33 51.96 42.11 50.54 40.25C50.42 40.09 50.33 39.93 50.26 39.77C49.6 38.95 49.69 38 50.09 37.08C50.45 36.25 50.94 35.45 51.47 34.72C51.76 34.33 52.05 33.94 52.39 33.6C52.71 33.28 52.96 32.88 53.21 32.51C54.24 31.02 55.21 29.42 55.94 27.75C56.39 26.71 56.77 25.64 57.07 24.56C57.23 23.41 57.38 22.26 57.6 21.12C57.75 20.35 57.86 19.52 58.21 18.81C58.55 18.12 59.21 17.6 59.75 17.07C60.89 15.96 62.06 14.88 63.25 13.82C64.42 12.78 65.61 11.76 66.83 10.76C64.57 11.68 62.31 12.57 60.04 13.47C56.47 14.88 52.9 16.28 49.35 17.73C48.94 17.92 48.52 18.1 48.09 18.25C47.42 18.53 46.75 18.81 46.08 19.09C45.78 19.38 45.5 19.69 45.21 19.97C43.9 21.23 42.65 22.53 41.4 23.85C41.32 23.93 41.21 23.81 41.28 23.73C42.63 22.15 43.91 20.52 45.22 18.92C45 18.94 44.78 18.95 44.57 18.96C43.77 19.4 43.01 19.88 42.3 20.6C41.16 21.76 40.26 23.13 39.17 24.34C39.14 24.37 39.1 24.33 39.13 24.3C40.53 22.67 41.93 20.38 43.79 18.96C43.57 18.95 43.35 18.93 43.13 18.9C42.78 19 42.42 19.09 42.05 19.2C40.47 19.65 39.81 21.17 38.99 22.46C38.96 22.5 38.9 22.46 38.92 22.42C39.51 21.43 40.04 20.06 41.03 19.37C41.49 19.06 42.05 18.94 42.58 18.81C42.21 18.74 41.85 18.64 41.49 18.51C39.63 17.85 37.92 16.68 36.31 15.56C34.67 14.42 33.05 13.44 31.21 12.65C30.7 12.43 31.08 11.55 31.59 11.75C34.87 13.03 38.01 14.7 41.48 15.45C42.36 15.64 43.22 15.88 44.11 16.03C44.84 16.15 45.5 16.49 46.21 16.58C47.93 16.78 49.85 16.56 51.5 15.99C54.09 14.75 56.68 13.5 59.27 12.25C61.58 11.14 63.88 10.01 66.2 8.93C67.25 8.44 68.3 7.95 69.34 7.46C69.93 7.18 70.53 6.84 71.14 6.63C71.52 6.5 71.88 6.44 72.26 6.39C73.68 5.08 75.1 3.73 76.71 2.69C78.55 1.49 80.75 0.889996 82.93 0.719996C86.27 0.459996 89.93 0.849996 92.86 2.53C93.78 2.77 94.72 2.96 95.65 3.16C97.21 3.49 98.78 3.81 100.35 4.08C101.87 4.34 103.4 4.61 104.94 4.8C105.72 4.9 106.51 5.01 107.29 5.11C108.79 4.99 110.29 4.87 111.77 5.06C112.85 5.2 113.88 5.52 114.88 5.96C115.36 6.17 115.81 6.42 116.25 6.72C116.32 6.77 116.4 6.82 116.47 6.87C116.93 6.83 117.39 6.71 117.83 6.45C118.5 6.05 119.26 5.95 120 5.69C120.73 5.44 121.44 5.14 122.16 4.87C125.39 3.66 128.62 2.01 131.48 0.0999957C131.94 -0.210004 132.33 0.509996 131.9 0.829996C130.13 2.13 128.45 3.52 126.73 4.88C125.3 6.01 123.78 7.27 122.17 8.13C121.39 8.55 120.5 8.93 119.64 9.15C119.14 9.28 118.67 9.25 118.2 9.18C119.18 10.47 120.1 11.79 120.93 13.18C121.81 14.65 122.97 16.36 123.32 18.06C123.34 18.18 123.2 18.24 123.13 18.14C122.13 16.78 121.53 15.04 120.66 13.58C119.73 12 118.69 10.5 117.56 9.05C117.32 9 117.08 8.96 116.83 8.93C116.83 8.93 116.82 8.93 116.81 8.93C117.05 9.23 117.27 9.56 117.46 9.91C117.73 10.4 117.02 10.81 116.71 10.35C113.97 6.14 108.32 6.94 104.02 6.73C99.92 6.52 95.98 5.28 92.08 4.1C87.98 2.87 83.29 1.05 79.29 3.41C77.34 4.56 75.47 5.91 73.65 7.33C73.6 7.42 73.52 7.51 73.42 7.59C72.92 7.97 72.54 8.32 72.02 8.61C70.97 9.45 69.93 10.29 68.9 11.11C66.35 13.14 63.84 15.23 61.38 17.37C61.63 17.27 61.89 17.18 62.14 17.09C62.79 16.86 63.67 16.47 64.26 17.05C64.31 17.1 64.23 17.18 64.18 17.13C63.58 16.55 62.59 17.07 61.95 17.31C61.62 17.44 61.29 17.58 60.97 17.73C60.53 18.12 60.08 18.5 59.65 18.89C59.56 19.01 59.48 19.13 59.4 19.25C59.97 18.95 60.59 18.71 61.19 18.46C61.82 18.2 62.44 17.93 63.07 17.67C63.14 17.64 63.2 17.74 63.13 17.77C62.5 18.04 61.86 18.31 61.23 18.59C60.62 18.85 60 19.14 59.37 19.35C59.34 19.4 59.31 19.45 59.29 19.5C59.24 19.6 59.2 19.7 59.16 19.81C59.69 19.63 60.23 19.48 60.76 19.3C60.76 19.3 60.76 19.29 60.77 19.28C60.79 19.26 60.82 19.26 60.84 19.27C61.53 19.04 62.21 18.79 62.89 18.54C62.93 18.53 62.94 18.58 62.91 18.6C62.22 18.87 61.53 19.13 60.83 19.39C60.71 19.69 60.58 19.99 60.46 20.29C60.55 20.29 60.64 20.29 60.72 20.29C61.12 20.29 61.51 20.27 61.88 20.1C62.16 19.97 62.4 19.77 62.63 19.57C62.99 19.25 63.4 18.72 63.89 18.62C64.18 18.56 64.47 18.69 64.74 18.79C65.09 18.91 65.44 19.04 65.79 19.16C65.84 19.18 65.82 19.25 65.77 19.24C65.42 19.13 65.07 19.01 64.72 18.9C64.3 18.76 63.93 18.66 63.56 18.96C63.12 19.31 62.76 19.75 62.3 20.09C61.78 20.46 61.24 20.53 60.61 20.51C60.53 20.51 60.45 20.51 60.38 20.51C60.32 20.66 60.25 20.81 60.19 20.96C60.33 20.96 60.47 20.96 60.61 20.96C61.09 20.94 61.57 20.89 62.05 20.8C62.16 20.55 62.28 20.31 62.42 20.07C62.44 20.03 62.5 20.06 62.49 20.1C62.43 20.32 62.36 20.54 62.28 20.76C62.43 20.73 62.58 20.7 62.73 20.66C62.77 20.66 62.78 20.71 62.75 20.72C62.59 20.76 62.42 20.8 62.26 20.84C62.11 21.24 61.94 21.63 61.77 22.02C61.51 22.65 61.24 23.28 60.98 23.92C60.24 25.68 59.51 27.45 58.77 29.21C59.42 29.3 59.96 29.73 60.25 30.32C61 28.61 61.7 26.89 62.33 25.13C62.69 24.15 63.03 23.16 63.35 22.16C63.51 21.67 63.66 21.18 63.81 20.69C63.95 20.23 64.06 19.76 64.25 19.33C64.27 19.28 64.34 19.32 64.33 19.36C64.25 19.9 64.05 20.43 63.88 20.96C63.73 21.45 63.57 21.94 63.41 22.42C63.09 23.39 62.74 24.36 62.38 25.32C61.74 27.04 61.04 28.73 60.29 30.41C60.37 30.6 60.43 30.81 60.46 31.02C60.65 32.39 59.88 33.96 58.96 34.95C58.52 35.43 57.96 35.8 57.32 35.96C56.84 36.08 56.35 36.11 55.85 36.14C55.71 36.47 55.58 36.79 55.44 37.12C55.43 37.15 55.38 37.14 55.39 37.11C55.52 36.79 55.65 36.47 55.78 36.15C55.42 36.17 55.07 36.19 54.72 36.24C54.64 36.25 54.56 36.27 54.48 36.29C54.1 36.91 53.67 37.49 53.16 38C53.12 38.04 53.05 37.98 53.09 37.93C53.57 37.44 53.96 36.89 54.31 36.32C53.31 36.54 52.33 36.96 51.61 37.66C51.57 37.72 51.52 37.78 51.48 37.85C51.24 38.2 51.1 38.52 51.06 38.81C51.09 38.89 51.13 38.97 51.19 39.04C51.39 39.29 51.67 39.5 51.93 39.69C52.59 40.18 53.3 40.61 54.09 40.85C55.71 41.36 57.36 40.88 58.92 40.39C60.28 39.96 61.56 39.38 62.79 38.65C65.27 37.18 67.4 35.26 69.06 32.9C69.47 32.32 69.84 31.7 70.18 31.07C70.17 31.07 70.16 31.05 70.18 31.04C70.2 31.02 70.21 31 70.23 30.99C70.55 30.38 70.84 29.74 71.09 29.1C71.11 29.05 71.13 29 71.15 28.95C71.27 28.24 71.34 27.52 71.33 26.81C71.33 26.03 71.21 25.3 71.02 24.61C70.92 24.61 70.81 24.57 70.74 24.46C70.42 23.92 70.07 23.39 69.69 22.89C69.42 22.54 68.92 22.13 68.94 21.65C68.94 21.57 69.01 21.5 69.09 21.5C69.6 21.53 69.9 22.07 70.18 22.45C70.18 22.45 70.19 22.47 70.2 22.48C69.93 21.92 69.62 21.36 69.29 20.8C69.17 20.6 69.42 20.32 69.63 20.46C70.53 21.08 71.17 21.89 71.61 22.83C72.02 23.23 72.41 23.65 72.78 24.09C72.86 24.07 72.93 24.05 73.01 24.03C73.16 23.96 73.3 23.89 73.45 23.83C73.02 22.7 72.38 22.11 71.49 21.34C70.74 20.69 70.12 19.97 69.6 19.12C69.56 19.05 69.66 18.99 69.71 19.06C70.42 20.19 71.32 20.95 72.31 21.81C72.88 22.3 73.58 22.98 73.54 23.79C75.92 22.69 78.3 21.58 80.68 20.48C81.88 19.92 83.34 19.38 83.84 18.04C84.2 17.07 84.18 15.73 84.18 14.71C84.18 14.5 84.49 14.46 84.55 14.66C84.75 15.35 84.92 16.1 84.99 16.84C85.05 16.82 85.12 16.84 85.17 16.9C85.24 17 85.31 17.1 85.38 17.21C85.56 16.54 85.66 15.88 85.72 15.22C85.46 14.88 85.16 14.54 84.96 14.16C84.9 14.05 85.05 13.92 85.14 14.02C85.37 14.27 85.56 14.56 85.75 14.84C85.94 11.57 84.76 8.47 82.82 5.63C82.76 5.54 82.89 5.45 82.97 5.52C85.08 7.53 86.07 10.48 86.13 13.42C86.44 13.75 86.72 14.12 87.01 14.46C87.04 13.82 87.04 13.19 87.04 12.54C86.98 12.44 86.91 12.33 86.91 12.22C86.91 12.18 86.95 12.17 86.98 12.18C87 12.19 87.03 12.21 87.05 12.23C87.05 11.91 87.05 11.58 87.05 11.25C87.05 11.15 87.21 11.12 87.23 11.23C87.33 11.7 87.38 12.19 87.4 12.68C87.43 12.73 87.46 12.77 87.49 12.82C87.66 13.05 87.83 13.28 88 13.51C88.36 13.96 88.74 14.39 89.14 14.81C89.22 14.9 89.09 15.02 89.01 14.94C88.59 14.52 88.2 14.08 87.82 13.62C87.68 13.44 87.54 13.26 87.4 13.08C87.4 13.66 87.38 14.25 87.32 14.83C87.63 15.18 87.94 15.53 88.26 15.86C89.1 16.74 89.98 17.57 90.91 18.36C90.99 18.43 90.87 18.54 90.79 18.48C89.85 17.69 88.94 16.85 88.09 15.97C87.82 15.69 87.55 15.4 87.29 15.11C87.23 15.62 87.15 16.12 87.07 16.61C87.53 17.21 88.01 17.8 88.49 18.39C89.66 19.8 90.89 21.15 92.17 22.46C92.23 22.52 92.14 22.62 92.07 22.56C90.76 21.25 89.51 19.9 88.31 18.49C87.87 17.97 87.44 17.44 87.01 16.91C87.01 16.95 86.99 17 86.99 17.04C86.96 17.2 86.71 17.13 86.74 16.97C86.76 16.86 86.78 16.75 86.79 16.63C86.71 16.53 86.63 16.44 86.56 16.34C86.37 16.1 86.18 15.85 86 15.61C85.91 16.27 85.77 16.92 85.59 17.54C85.98 18.12 86.37 18.71 86.78 19.27C87.35 20.04 87.94 20.79 88.56 21.52C89.78 22.95 91.11 24.29 92.52 25.53C92.59 25.59 92.49 25.68 92.42 25.63C90.96 24.39 89.59 23.04 88.32 21.6C87.31 20.45 86.3 19.24 85.45 17.96C85.43 18.03 85.4 18.1 85.38 18.17C85.32 18.34 85.05 18.27 85.11 18.1C85.16 17.95 85.21 17.81 85.25 17.66C85.17 17.53 85.09 17.4 85.01 17.26C85.04 18.04 84.96 18.8 84.66 19.47C85.26 20.29 85.88 21.08 86.54 21.85C88.25 23.84 90.16 25.65 92.23 27.26C93.98 28.15 95.72 29.04 97.46 29.94C98.83 30.65 100.54 31.47 102.1 32.5C103.93 33.62 105.57 35.07 106.3 37.14C106.83 37.57 107.37 38 107.92 38.41C108.02 38.47 108.12 38.53 108.22 38.59C108.52 38.75 108.82 38.93 109.12 39.1C109.43 39.27 109.76 39.36 110.08 39.51C110.33 39.63 110.57 39.75 110.81 39.88C110.84 39.88 110.86 39.88 110.89 39.88C111.63 39.91 112.37 39.98 113.11 39.97C113.86 39.97 114.61 39.95 115.36 39.92C115.43 39.92 115.5 39.92 115.58 39.92C116.46 39.74 117.34 39.51 118.18 39.21C120.67 38.33 122.65 36.75 123.77 34.34C123.89 34.09 124.32 34.27 124.22 34.53C123.2 37.02 121.33 39.32 118.98 40.67C117.73 41.39 116.38 41.8 114.94 41.85C114.73 41.85 114.5 41.85 114.26 41.85C115.38 42.49 116.51 43.12 117.63 43.75C121.41 42.72 123.59 38.41 125.61 35.24C125.64 35.19 125.72 35.24 125.69 35.29C123.88 38.26 121.67 42.76 118.12 44.02C118.24 44.09 118.36 44.15 118.48 44.22C118.48 44.22 118.5 44.22 118.51 44.23C118.58 44.22 118.66 44.21 118.73 44.19C119.28 44.08 119.84 43.92 120.34 43.66C120.86 43.39 121.24 42.99 121.61 42.55C121.99 42.1 122.37 41.65 122.75 41.19C122.78 41.15 122.84 41.21 122.81 41.25C122.4 41.76 122 42.29 121.58 42.79C121.23 43.22 120.84 43.59 120.35 43.85C119.87 44.1 119.34 44.27 118.8 44.4C118.93 44.47 119.06 44.55 119.19 44.62C119.97 44.56 120.73 44.29 121.41 43.9C121.46 43.87 121.51 43.95 121.46 43.98C120.86 44.36 120.19 44.63 119.49 44.78C120.3 45.26 121.09 45.75 121.86 46.3C122.96 47.08 124.06 47.87 125.18 48.63C127.43 50.14 129.65 51.71 131.81 53.35C132.5 53.87 133.18 54.41 133.86 54.94C134.2 55.12 134.54 55.3 134.87 55.5C136.07 56.22 137.02 57.17 137.96 58.17C138.51 58.07 139.05 57.96 139.59 57.82C139.84 57.75 140.1 57.68 140.35 57.6C140.47 57.56 140.59 57.51 140.71 57.47C140.73 57.46 140.88 57.39 140.92 57.37C141.3 57.18 141.64 56.95 141.99 56.72C142.02 56.7 142.05 56.67 142.08 56.65C142.15 56.59 142.23 56.53 142.3 56.46C142.46 56.32 142.61 56.17 142.76 56.02C142.91 55.87 143.05 55.71 143.18 55.55C143.24 55.48 143.3 55.4 143.37 55.32C143.22 55.5 143.39 55.3 143.44 55.22C143.68 54.89 143.9 54.55 144.1 54.19C144.34 53.78 144.54 53.35 144.74 52.92C144.75 52.89 144.76 52.86 144.77 52.85C144.79 52.8 144.81 52.74 144.84 52.69C144.88 52.58 144.92 52.48 144.97 52.37C145.05 52.16 145.13 51.94 145.21 51.72C145.37 51.25 145.52 50.77 145.66 50.3C145.82 49.75 145.91 49 146.35 48.6C146.15 48.31 145.94 48.04 145.69 47.79C145.14 47.24 144.51 46.78 143.95 46.24C143.25 45.57 142.57 44.89 141.95 44.15C141.29 43.37 140.64 42.59 140.02 41.79C138.34 40.19 136.69 38.57 135.06 36.97C134.77 36.69 135.22 36.24 135.51 36.52C139.49 40.46 143.81 44.06 147.8 47.98C147.93 47.64 148.07 47.3 148.25 46.99C148.93 45.74 149.94 44.67 151.04 43.79C153.5 41.81 156.34 40.81 159.46 40.42C159.82 40.37 160.01 40.91 159.76 41.14L159.68 41.05ZM86.01 15.16C86.24 15.47 86.47 15.79 86.71 16.1C86.74 16.14 86.78 16.19 86.81 16.23C86.88 15.71 86.93 15.19 86.96 14.68C86.91 14.62 86.86 14.57 86.81 14.52C86.57 14.24 86.32 13.96 86.1 13.66C86.1 14.17 86.07 14.67 86.02 15.17L86.01 15.16ZM55.93 35.74C56.27 34.91 56.6 34.08 56.94 33.26C57.49 31.91 58.04 30.57 58.58 29.22C58.58 29.22 58.58 29.22 58.57 29.22C58.21 29.22 57.87 29.43 57.57 29.62C57.5 29.66 57.44 29.71 57.37 29.76C57.19 30.25 57.01 30.74 56.82 31.22C56.33 32.46 55.79 33.69 55.2 34.9C55.03 35.25 54.85 35.59 54.66 35.92C55.08 35.84 55.5 35.79 55.92 35.75L55.93 35.74ZM58.72 29.22L56 35.73C56.06 35.73 56.11 35.72 56.17 35.71C56.91 35.65 57.59 35.57 58.22 35.15C58.77 34.78 59.2 34.24 59.54 33.68C59.93 33.03 60.25 32.29 60.31 31.52C60.33 31.19 60.3 30.85 60.2 30.54C60.14 30.68 60.08 30.82 60.01 30.96C59.99 31.01 59.92 30.96 59.94 30.92C60.01 30.76 60.08 30.59 60.16 30.43C60.04 30.12 59.86 29.84 59.6 29.62C59.36 29.41 59.05 29.25 58.72 29.22ZM60.13 21.03C60.09 21.14 60.04 21.24 60 21.35C59.73 22.05 59.5 22.75 59.28 23.47C58.9 24.74 58.58 26.03 58.19 27.3C57.98 28 57.75 28.7 57.51 29.39C57.66 29.32 57.8 29.26 57.96 29.21C58.19 29.14 58.41 29.12 58.62 29.14C58.97 28.29 59.31 27.44 59.66 26.58C60.11 25.47 60.57 24.35 61.02 23.24L61.7 21.57C61.8 21.32 61.9 21.07 62 20.83C61.55 20.92 61.1 20.98 60.64 21C60.47 21 60.3 21.02 60.13 21.02V21.03ZM59 20.21C59.22 20.21 59.45 20.23 59.65 20.24C59.83 20.24 60 20.24 60.18 20.25C60.32 19.96 60.48 19.69 60.65 19.42C60.13 19.61 59.61 19.81 59.08 19.96C59.05 20.04 59.02 20.12 59 20.2V20.21ZM58.83 20.82C59.07 20.85 59.31 20.88 59.56 20.89C59.67 20.89 59.77 20.89 59.88 20.9C59.94 20.75 60.01 20.6 60.08 20.45C59.9 20.45 59.72 20.44 59.53 20.43C59.34 20.43 59.13 20.43 58.93 20.41C58.89 20.54 58.86 20.67 58.83 20.8V20.82ZM55.82 30.68C55.82 30.68 55.9 30.61 55.94 30.57C56.31 30.23 56.73 29.84 57.2 29.56C57.54 28.56 57.86 27.54 58.15 26.52C58.51 25.26 58.84 23.99 59.24 22.75C59.42 22.18 59.62 21.6 59.85 21.03C59.5 21.03 59.16 21.01 58.82 20.96C58.8 21.07 58.77 21.17 58.75 21.28C58.19 24.53 57.22 27.69 55.83 30.69L55.82 30.68ZM52 37.05C52.6 36.59 53.31 36.27 54.04 36.06C54.19 36.02 54.34 35.98 54.5 35.95C54.82 35.39 55.1 34.81 55.36 34.22C55.99 32.84 56.54 31.44 57.04 30.01C56.65 30.32 56.28 30.65 55.94 31.02C55.68 31.3 55.46 31.61 55.23 31.91C54.3 33.74 53.16 35.38 52 37.05ZM72.63 24.05C72.34 23.71 72.04 23.38 71.73 23.07C71.88 23.43 72 23.81 72.1 24.2C72.28 24.15 72.45 24.1 72.63 24.05ZM75.92 24.35L74.74 24.9C74.72 24.97 74.67 25.03 74.59 25.07C74.17 25.27 73.83 25.49 73.45 25.76C73.39 25.8 73.33 25.84 73.27 25.88C73.25 25.99 73.23 26.1 73.2 26.21C73 27 72.71 27.78 72.38 28.53C73.59 27.16 74.77 25.77 75.92 24.35ZM83.16 22.58C82.82 22.24 82.5 21.88 82.2 21.51C82.18 21.52 82.15 21.54 82.13 21.55C82.15 21.57 82.17 21.59 82.18 21.61C82.37 21.86 82.55 22.12 82.74 22.37C82.88 22.44 83.02 22.51 83.16 22.58ZM88.54 25.29C87.81 24.76 87.1 24.19 86.43 23.59C85.8 23.03 85.19 22.45 84.62 21.83C84.28 21.46 83.91 21.09 83.58 20.69C83.49 20.76 83.41 20.82 83.31 20.88C83.05 21.04 82.78 21.2 82.51 21.34C83.02 21.93 83.54 22.5 84.11 23.04C85.59 23.79 87.07 24.53 88.55 25.28L88.54 25.29ZM91.49 26.78C88.86 24.71 86.51 22.31 84.49 19.64C84.32 19.95 84.09 20.24 83.81 20.5C84.15 20.9 84.47 21.32 84.83 21.7C85.38 22.29 85.95 22.86 86.54 23.4C87.48 24.27 88.49 25.06 89.54 25.79C90.19 26.12 90.84 26.45 91.49 26.77V26.78ZM29.32 78.54C29.28 78.14 29.26 77.75 29.23 77.35C29.21 77.04 29.19 76.73 29.17 76.42C29.01 76.06 28.87 75.69 28.75 75.3C28.78 75.51 28.81 75.72 28.83 75.92C28.86 76.14 28.87 76.37 28.88 76.6C28.95 77.11 29.04 77.62 29.17 78.11C29.22 78.26 29.27 78.4 29.32 78.54ZM33.62 79.11C33.62 79.03 33.74 79.03 33.75 79.11C33.79 79.57 33.85 80.03 33.93 80.48C35.66 81.23 38.22 82.1 38.52 81C36.5 80.36 34.56 79.36 32.81 78.2C32.65 78.09 32.48 77.99 32.32 77.88C32.35 78.52 32.41 79.16 32.52 79.79V79.81C32.76 79.94 33.21 80.17 33.77 80.41C33.71 79.98 33.66 79.54 33.62 79.11ZM32.19 77.79C31.68 77.46 31.14 77.12 30.64 76.74C30.67 77.3 30.73 77.86 30.8 78.42C31.21 78.9 31.72 79.33 32.35 79.71C32.26 79.07 32.2 78.43 32.18 77.79H32.19ZM30.52 76.65C30.04 76.27 29.59 75.86 29.24 75.38C29.24 75.5 29.26 75.62 29.27 75.74C29.65 76.66 30.06 77.49 30.65 78.23C30.59 77.7 30.54 77.17 30.52 76.64V76.65ZM31.1 80.82C31.06 80.64 31.01 80.45 30.98 80.27C30.87 79.75 30.79 79.22 30.71 78.69C30.17 78.13 29.71 77.51 29.36 76.8L29.38 77.1C29.43 77.77 29.47 78.45 29.57 79.12C29.73 79.44 29.91 79.75 30.12 80.05C30.4 80.31 30.71 80.54 31.02 80.76C31.05 80.78 31.07 80.8 31.1 80.81V80.82ZM32.81 81.91C32.61 81.29 32.49 80.63 32.39 80C31.82 79.67 31.31 79.29 30.86 78.86C30.93 79.34 31.02 79.82 31.12 80.29C31.17 80.51 31.22 80.73 31.28 80.96C31.76 81.3 32.28 81.62 32.81 81.91ZM34.23 82.62C34.19 82.47 34.16 82.33 34.12 82.19C34.03 81.85 33.96 81.5 33.89 81.16C33.86 81 33.83 80.83 33.8 80.67C33.63 80.6 33.45 80.54 33.29 80.46C33.04 80.35 32.8 80.23 32.57 80.11C32.64 80.47 32.71 80.83 32.8 81.18C32.88 81.47 32.97 81.76 33.06 82.05C33.44 82.25 33.83 82.44 34.22 82.62H34.23ZM41.74 79.21C41.74 79.21 41.74 79.17 41.75 79.15C41.75 79.15 41.75 79.14 41.75 79.13C41.58 78.45 41.36 77.79 41.09 77.15C40.59 76.35 40.07 75.55 39.52 74.78C37.98 72.92 36.25 71.18 34.28 69.83C32.99 68.95 31.36 68.21 29.78 68.46C29.46 68.55 29.17 68.71 28.93 68.95C28.22 69.65 28.34 70.88 28.38 71.79C28.41 72.43 28.44 73.07 28.5 73.71C28.53 73.88 28.55 74.06 28.58 74.23C28.63 74.22 28.69 74.23 28.71 74.3C28.75 74.23 28.89 74.22 28.93 74.32C28.96 74.41 29.01 74.5 29.05 74.59C29.01 73.97 28.97 73.36 28.93 72.74C28.93 72.66 29.04 72.67 29.05 72.74C29.1 73.46 29.16 74.17 29.21 74.89C29.53 75.42 29.99 75.91 30.51 76.35C30.49 75.88 30.49 75.41 30.5 74.95C30.5 74.89 30.6 74.89 30.6 74.95C30.6 75.45 30.6 75.95 30.63 76.45C31.12 76.85 31.65 77.21 32.18 77.54C32.18 77.33 32.18 77.11 32.18 76.9C32.18 76.82 32.3 76.82 32.3 76.9C32.3 77.14 32.3 77.38 32.3 77.62C32.85 77.96 33.4 78.28 33.86 78.56C34.85 79.16 35.88 79.73 36.98 80.1C37.73 80.36 38.53 80.48 39.18 80.96C39.27 81.03 39.22 81.19 39.1 81.16C38.99 81.13 38.88 81.09 38.77 81.06C38.54 81.87 37.81 81.83 37.09 81.66C36.04 81.41 34.98 81.1 33.96 80.71C33.99 80.86 34.02 81.01 34.05 81.17C34.12 81.49 34.19 81.81 34.28 82.12C34.33 82.31 34.4 82.51 34.46 82.7C34.54 82.73 34.61 82.77 34.69 82.8C36.66 83.36 38.78 83.52 40.78 83.36C40.81 83.36 40.84 83.36 40.86 83.36C41.11 81.96 41.4 80.57 41.73 79.19L41.74 79.21ZM42.19 90.4C42.06 90.4 41.93 90.4 41.81 90.39C41.88 90.47 41.96 90.55 42.06 90.62C42.06 90.62 42.06 90.62 42.07 90.63C42.11 90.66 42.15 90.69 42.19 90.72C42.19 90.61 42.19 90.51 42.19 90.4ZM42.61 91.02C42.56 90.99 42.61 90.91 42.66 90.94C42.92 91.07 43.19 91.2 43.45 91.33C43.45 91.11 43.45 90.88 43.44 90.66C43.42 90.65 43.4 90.64 43.38 90.63C43.08 90.49 42.73 90.44 42.38 90.42C42.36 90.56 42.35 90.7 42.33 90.84C42.42 90.9 42.51 90.96 42.61 91.02ZM43.46 91.56C43.46 91.56 43.46 91.49 43.46 91.45C43.18 91.3 42.9 91.16 42.62 91.02C42.9 91.21 43.18 91.38 43.46 91.56ZM45.02 92.32C44.56 92.06 44.11 91.8 43.65 91.56C43.65 91.6 43.65 91.64 43.65 91.68C43.69 91.7 43.73 91.73 43.77 91.75C44.19 92.02 44.6 92.3 45.01 92.58C45.01 92.49 45.02 92.4 45.03 92.31L45.02 92.32ZM45.05 91.81C44.98 91.76 44.92 91.71 44.85 91.66C44.46 91.37 44.08 91.02 43.65 90.77C43.65 90.99 43.65 91.21 43.65 91.43C44.12 91.67 44.58 91.92 45.03 92.19C45.03 92.06 45.04 91.94 45.05 91.81ZM45.2 89.96C45.43 86.9 45.74 83.84 46.13 80.8C45.47 80.33 44.99 79.66 44.69 78.9C44.34 81.03 44.08 83.17 43.93 85.31C43.8 87.06 43.71 88.83 43.67 90.59C44.07 90.82 44.44 91.15 44.8 91.41C44.89 91.48 44.98 91.54 45.07 91.61C45.07 91.48 45.09 91.34 45.1 91.21C44.83 90.99 44.55 90.77 44.28 90.55C44.25 90.53 44.29 90.49 44.32 90.51C44.58 90.72 44.84 90.92 45.11 91.12C45.14 90.73 45.17 90.35 45.2 89.96ZM53.57 78.74C53.72 77.92 53.7 77.37 52.85 76.79C52.53 76.58 52.14 76.45 51.79 76.28C50.94 75.87 50.1 75.46 49.25 75.05C48.05 74.47 46.64 73.99 45.73 72.97C44.74 74.41 44.36 76.21 44.72 77.93C44.98 76.59 45.28 75.26 45.62 73.94C45.62 73.92 45.66 73.93 45.66 73.95C45.35 75.28 45.07 76.62 44.83 77.96C44.82 78.04 44.8 78.13 44.79 78.21C45 79.03 45.36 79.89 45.95 80.51C46.01 80.57 46.07 80.63 46.14 80.68C46.27 79.64 46.42 78.6 46.57 77.57C46.58 77.5 46.68 77.53 46.67 77.6C46.52 78.66 46.39 79.72 46.26 80.78C46.99 81.3 47.94 81.29 48.81 81.39C48.84 81.39 48.85 81.41 48.86 81.43C49.52 81.49 50.18 81.51 50.86 81.43C52.48 81.23 53.24 80.19 53.61 78.83C53.58 78.81 53.55 78.78 53.56 78.73L53.57 78.74ZM46.77 93.08C46.28 92.73 45.8 92.37 45.32 92.01C45.32 92.12 45.31 92.24 45.3 92.35C45.57 92.51 45.83 92.68 46.09 92.86C46.12 92.88 46.09 92.92 46.07 92.9C45.81 92.76 45.56 92.61 45.3 92.47C45.3 92.57 45.29 92.67 45.28 92.77C45.66 93.04 46.04 93.31 46.42 93.58C46.42 93.58 46.44 93.59 46.45 93.6C46.55 93.66 46.66 93.73 46.77 93.79C46.77 93.55 46.77 93.31 46.77 93.07V93.08ZM46.77 92.53C46.29 92.16 45.81 91.78 45.34 91.4C45.34 91.53 45.33 91.66 45.32 91.79C45.8 92.14 46.29 92.49 46.76 92.85C46.76 92.74 46.76 92.63 46.76 92.53H46.77ZM48.09 94.54C48.09 94.2 48.07 93.86 48.07 93.51C47.71 93.24 47.34 92.96 46.98 92.68C46.98 92.79 46.98 92.9 46.98 93.01C47.33 93.28 47.68 93.56 48.02 93.85C48.05 93.87 48.02 93.91 47.98 93.9C47.64 93.69 47.31 93.46 46.98 93.23C46.98 93.47 46.98 93.7 46.98 93.94C47.34 94.17 47.71 94.39 48.09 94.55V94.54ZM49.32 94.55C49.32 94.55 49.32 94.47 49.32 94.43C48.95 94.17 48.59 93.91 48.23 93.64C48.24 93.96 48.25 94.29 48.27 94.61C48.3 94.61 48.33 94.63 48.35 94.64C48.38 94.64 48.42 94.66 48.45 94.67C48.75 94.66 49.04 94.62 49.32 94.55ZM54.1 91.53C54.58 88.82 55.25 86.15 56.01 83.51C56.14 82.78 56.28 82.06 56.42 81.34C56.62 80.31 56.83 79.29 57.04 78.26C57.13 76.83 57.04 75.41 56.65 74.05C55.81 72.85 54.58 71.74 53.69 70.99C53 70.53 52.29 70.1 51.57 69.69C51.14 69.45 50.72 69.21 50.29 68.98C49.95 68.79 49.6 68.61 49.23 68.49C49.02 68.49 48.82 68.5 48.61 68.54C48.17 68.63 47.75 68.81 47.37 69.04C47.19 69.2 47.03 69.36 46.87 69.52C46.26 70.13 45.73 70.81 45.27 71.54C44.17 73.27 43.38 75.16 42.78 77.11C42.46 78.74 42.18 80.38 41.92 82.02C41.67 83.62 41.43 85.23 41.24 86.84C41.1 88 40.95 89.32 41.7 90.27C41.86 90.27 42.03 90.27 42.19 90.27C42.19 89.94 42.21 89.62 42.24 89.29C42.29 88.66 42.34 88.04 42.4 87.41C42.83 82.94 43.54 78.49 44.52 74.11C44.54 74.04 44.64 74.07 44.62 74.14C44.36 75.37 44.11 76.61 43.89 77.85C43.49 80.08 43.16 82.32 42.91 84.57C42.78 85.68 42.68 86.79 42.58 87.9C42.54 88.45 42.49 88.99 42.46 89.54C42.44 89.79 42.42 90.04 42.39 90.29C42.7 90.3 43.01 90.34 43.29 90.43C43.34 90.45 43.39 90.47 43.43 90.49C43.43 89.79 43.43 89.09 43.46 88.39C43.59 85.13 43.98 81.88 44.58 78.67C43.95 76.82 44.26 74.46 45.46 72.81C45.49 72.76 45.54 72.74 45.59 72.74C45.62 72.69 45.68 72.67 45.73 72.72C46.46 73.6 47.51 73.99 48.52 74.47C49.66 75 50.79 75.53 51.93 76.06C53.1 76.61 54.64 77.16 53.87 78.59C53.69 79.71 53.28 81.01 52.25 81.47C50.77 82.13 48.23 81.93 46.77 81.32C46.71 81.3 46.71 81.19 46.79 81.2C46.81 81.2 46.82 81.2 46.84 81.2C46.63 81.11 46.44 81 46.25 80.88C46.24 80.99 46.22 81.09 46.21 81.2C45.97 83.26 45.77 85.32 45.6 87.39C45.52 88.41 45.45 89.44 45.38 90.46C45.36 90.74 45.35 91.03 45.34 91.31C45.81 91.67 46.29 92.03 46.77 92.38C46.83 88.8 47.04 85.23 47.39 81.66C47.39 81.62 47.46 81.62 47.46 81.66C47.15 85.28 46.99 88.9 46.98 92.53C47.34 92.8 47.7 93.06 48.06 93.33C48.04 91.25 48.1 89.16 48.25 87.09C48.25 87.07 48.29 87.06 48.29 87.09C48.17 89.21 48.15 91.33 48.22 93.45C48.58 93.72 48.95 93.99 49.31 94.25C49.31 93.91 49.3 93.57 49.31 93.23C49.34 92.36 49.44 91.49 49.59 90.63C49.61 90.54 49.74 90.58 49.72 90.67C49.57 91.53 49.49 92.41 49.47 93.29C49.47 93.66 49.47 94.03 49.49 94.4C49.52 94.42 49.55 94.44 49.58 94.47C49.74 94.4 49.9 94.32 50.08 94.28C50.34 94.22 50.62 94.17 50.88 94.12C51.45 94.01 52.01 93.91 52.59 93.85C52.66 93.85 52.73 93.83 52.8 93.82C53.25 93.7 53.69 93.58 54.14 93.46C54.08 92.95 54.08 92.42 54.12 91.88C54.12 91.86 54.12 91.84 54.12 91.82C54.12 91.78 54.12 91.74 54.14 91.71C54.14 91.71 54.14 91.69 54.14 91.68C54.1 91.65 54.07 91.61 54.08 91.55L54.1 91.53ZM56.22 95.22C56.04 95.14 55.87 95.06 55.69 94.99C55.72 95.06 55.75 95.13 55.78 95.2C55.92 95.29 56.05 95.38 56.19 95.47C56.19 95.39 56.2 95.3 56.21 95.22H56.22ZM56.27 94.57C55.98 94.43 55.68 94.3 55.38 94.19C55.45 94.41 55.54 94.63 55.63 94.85C55.83 94.94 56.03 95.02 56.22 95.1C56.24 94.92 56.25 94.74 56.26 94.56L56.27 94.57ZM57.76 96.6C57.53 96.5 57.31 96.39 57.08 96.27C56.84 96.15 56.6 96.02 56.36 95.89C56.36 95.94 56.36 95.99 56.35 96.04C56.64 96.29 56.94 96.52 57.27 96.72C57.42 96.81 57.58 96.89 57.74 96.98C57.74 96.85 57.76 96.73 57.77 96.6H57.76ZM57.82 95.89C57.35 95.7 56.88 95.5 56.41 95.3C56.41 95.39 56.4 95.49 56.39 95.58C56.65 95.74 56.9 95.89 57.16 96.04C57.36 96.15 57.57 96.26 57.78 96.37C57.79 96.21 57.81 96.05 57.82 95.9V95.89ZM57.86 95.43C57.4 95.16 56.93 94.89 56.45 94.66C56.43 94.84 56.42 95.01 56.41 95.19C56.88 95.39 57.35 95.58 57.82 95.77C57.83 95.66 57.84 95.55 57.85 95.43H57.86ZM57.88 95.24C57.92 94.81 57.97 94.39 58.02 93.96C58.36 90.66 58.89 87.39 59.59 84.14C59.47 84.05 59.35 83.96 59.25 83.85C59.23 83.85 59.21 83.85 59.2 83.83C58.79 83.49 58.51 83.18 58.32 82.88C57.44 86.71 56.82 90.6 56.48 94.51C56.96 94.73 57.43 94.98 57.89 95.24H57.88ZM61.53 84.13C61.51 84.26 61.48 84.39 61.46 84.53C62 84.58 62.57 84.56 63.11 84.52C64.74 84.39 66.36 84.14 66.76 82.3C66.77 82.24 66.81 82.21 66.85 82.19C66.87 82.06 66.88 81.93 66.9 81.8C66.63 81.44 66.36 81.08 66.09 80.71C65.9 80.56 65.23 80.35 64.93 80.22C64.18 79.89 63.45 79.54 62.72 79.17C61.71 78.66 60.52 78.2 59.84 77.26C59.82 77.29 59.79 77.31 59.74 77.33C58.76 77.63 58.66 79.76 58.51 80.6C58.41 81.15 58.34 81.62 58.42 82.1C58.74 80.85 59.08 79.6 59.46 78.37C59.46 78.35 59.49 78.36 59.49 78.37C59.12 79.66 58.77 80.96 58.46 82.27C58.5 82.43 58.56 82.59 58.65 82.76C58.69 82.84 58.74 82.92 58.79 82.99C58.84 82.96 58.91 82.96 58.94 83.03C59.13 83.39 59.37 83.66 59.64 83.88C59.9 82.68 60.18 81.48 60.48 80.29C60.49 80.24 60.57 80.26 60.55 80.31C60.26 81.52 59.99 82.74 59.74 83.96C60.21 84.29 60.78 84.45 61.37 84.52C61.4 84.38 61.42 84.25 61.45 84.11C61.45 84.07 61.52 84.09 61.52 84.13H61.53ZM59.66 97.29C59.49 97.25 59.32 97.2 59.15 97.15C58.77 97.03 58.39 96.88 58.02 96.72C58.01 96.85 58 96.98 57.99 97.11C58.14 97.19 58.29 97.26 58.44 97.33C58.72 97.44 59 97.54 59.29 97.61C59.4 97.64 59.52 97.66 59.63 97.68C59.63 97.55 59.65 97.41 59.66 97.28V97.29ZM59.72 96.56C59.19 96.26 58.67 95.92 58.17 95.62C58.14 95.6 58.12 95.59 58.09 95.57C58.09 95.67 58.08 95.77 58.07 95.87C58.56 96.07 59.06 96.27 59.55 96.47C59.58 96.48 59.57 96.53 59.54 96.52C59.04 96.36 58.55 96.18 58.07 96C58.06 96.17 58.05 96.33 58.03 96.5C58.41 96.68 58.79 96.85 59.19 96.98C59.35 97.03 59.51 97.08 59.67 97.12C59.69 96.93 59.7 96.75 59.72 96.56ZM59.75 96.28C59.8 95.71 59.85 95.15 59.9 94.58C60.02 93.4 60.15 92.23 60.31 91.06C60.59 88.96 60.93 86.86 61.33 84.78C60.74 84.7 60.17 84.54 59.69 84.22C59.24 86.49 58.87 88.78 58.57 91.08C58.42 92.22 58.29 93.35 58.18 94.5C58.15 94.79 58.13 95.08 58.11 95.37C58.11 95.37 58.13 95.37 58.14 95.38C58.68 95.68 59.21 95.99 59.75 96.28ZM61.43 97.57C60.92 97.53 60.41 97.46 59.91 97.35C59.91 97.48 59.9 97.61 59.89 97.73C60.39 97.81 60.9 97.83 61.41 97.84C61.41 97.75 61.43 97.66 61.43 97.56V97.57ZM61.45 97.26C60.92 97.14 60.42 96.93 59.94 96.67C59.94 96.84 59.92 97.01 59.91 97.18C60.41 97.3 60.92 97.38 61.44 97.43C61.44 97.37 61.44 97.32 61.45 97.26ZM62.69 97.62C62.35 97.62 62.01 97.6 61.67 97.58C61.67 97.67 61.66 97.76 61.65 97.85C61.99 97.85 62.33 97.85 62.66 97.85C62.67 97.77 62.68 97.69 62.69 97.61V97.62ZM62.76 97.05C62.62 97.02 62.48 96.99 62.35 96.95C62.14 96.9 61.94 96.83 61.73 96.77C61.71 96.99 61.69 97.22 61.68 97.44C62.02 97.47 62.36 97.49 62.71 97.5C62.73 97.35 62.75 97.2 62.77 97.04L62.76 97.05ZM66.37 97.27C66.63 96.25 66.91 95.23 67.18 94.21C67.18 94.16 67.19 94.12 67.2 94.07C67.34 92.79 67.45 91.51 67.67 90.24C67.82 89.37 68.05 88.46 68.56 87.73C68.9 87.24 69.35 86.87 69.86 86.62C70.04 86.18 70.21 85.74 70.33 85.29C70.39 84.41 70.36 83.53 70.26 82.66C70.12 81.42 69.71 80.17 69.25 79.01C68.86 78.04 68.36 77.06 67.71 76.24C67.4 75.85 67.05 75.52 66.67 75.25C66.57 75.19 66.47 75.13 66.36 75.08C65.92 74.86 65.24 74.75 64.66 74.54C63.76 74.44 62.8 74.54 61.93 74.7C60.92 74.89 59.78 75.25 59.03 75.99C58.92 76.09 58.84 76.21 58.77 76.33C58.67 76.56 58.58 76.8 58.49 77.04C58.46 77.15 58.43 77.26 58.41 77.38C58.26 78.02 58.11 78.66 57.96 79.31C57.66 80.62 57.34 81.93 57.03 83.24C56.53 85.33 55.95 87.4 55.41 89.48C55.26 90.22 55.13 90.96 55.07 91.7C55 92.59 55.11 93.33 55.33 94.05C55.65 94.16 55.97 94.28 56.28 94.42C56.34 93.75 56.41 93.09 56.49 92.42C56.87 89.16 57.47 85.94 58.25 82.75C57.93 82.13 57.99 81.49 58.18 80.49C58.38 79.39 58.33 77.32 59.62 76.88C59.62 76.88 59.63 76.88 59.64 76.88C59.66 76.79 59.8 76.75 59.85 76.85C60.52 78.01 62.09 78.57 63.25 79.13C64.28 79.63 65.4 79.99 66.4 80.54C67.27 81.02 67.63 82.16 67.02 82.92C66.65 84.2 64.93 84.63 63.73 84.75C62.99 84.82 62.18 84.87 61.43 84.78C61.05 86.9 60.72 89.03 60.47 91.17C60.33 92.32 60.21 93.48 60.11 94.63C60.06 95.2 60.02 95.77 59.98 96.33C59.98 96.34 59.98 96.36 59.98 96.37C60.48 96.63 60.99 96.87 61.49 97.14C61.5 96.99 61.52 96.84 61.53 96.68C61.16 96.55 60.8 96.41 60.44 96.25C60.38 96.22 60.44 96.14 60.49 96.17C60.83 96.32 61.18 96.46 61.54 96.58C61.84 93.39 62.26 90.21 62.78 87.05C62.79 86.98 62.9 87.01 62.89 87.08C62.4 90.26 62.02 93.45 61.76 96.65C61.98 96.72 62.21 96.79 62.43 96.84C62.55 96.87 62.67 96.9 62.79 96.92C63.02 95.05 63.21 93.17 63.38 91.29C63.38 91.22 63.5 91.21 63.5 91.29C63.37 93.18 63.2 95.08 63 96.96C63.14 96.99 63.28 97.01 63.42 97.04C63.75 97.09 64.08 97.1 64.41 97.17C64.45 97.17 64.44 97.23 64.41 97.24C64.08 97.27 63.73 97.2 63.4 97.15C63.27 97.13 63.13 97.1 63 97.08C62.98 97.22 62.97 97.36 62.95 97.5C63.29 97.5 63.63 97.51 63.97 97.51C64.03 97.51 64.03 97.6 63.97 97.6C63.63 97.6 63.28 97.6 62.94 97.6C62.94 97.68 62.92 97.76 62.91 97.84C64.02 97.86 65.13 97.92 66.23 98.01C66.28 97.75 66.34 97.49 66.4 97.24L66.37 97.27ZM72.16 93.11C71.94 93.76 71.75 94.42 71.56 95.08C71.83 95.05 72.11 95 72.4 94.98C73.37 94.89 74.62 94.88 75.4 94.18C76.85 92.88 75 92.2 74.34 92.01C73.98 91.91 73.6 91.89 73.23 91.81C72.71 91.7 72.22 91.56 71.75 91.32C70.84 90.85 70 90.2 69.19 89.56C69.12 89.84 69.05 90.12 68.98 90.38C68.95 90.5 68.92 90.62 68.88 90.74C68.79 91.49 68.79 92.25 68.97 92.95C69.25 92.19 69.56 91.43 69.9 90.69C69.93 90.63 70.02 90.69 69.99 90.74C69.64 91.53 69.32 92.34 69.03 93.16C69.19 93.64 69.45 94.08 69.83 94.46C70.07 93.76 70.32 93.06 70.61 92.38C70.63 92.33 70.72 92.35 70.69 92.4C70.41 93.11 70.15 93.82 69.92 94.55C70.01 94.63 70.1 94.71 70.21 94.79C70.6 95.08 71 95.12 71.42 95.1C71.62 94.43 71.82 93.76 72.06 93.1C72.08 93.05 72.15 93.07 72.14 93.12L72.16 93.11ZM67.51 98.21C67.68 97.34 67.88 96.48 68.12 95.63C68.34 94.83 68.6 94.04 68.88 93.25C68.7 92.77 68.63 92.28 68.63 91.76C68.2 93.36 67.77 94.95 67.35 96.54C67.03 97.74 66.65 98.8 67.22 99.86C67.3 99.3 67.41 98.75 67.51 98.21ZM68.4 101.25C68.51 99.88 68.77 98.51 69.08 97.18C69.28 96.33 69.52 95.5 69.79 94.67C69.41 94.28 69.15 93.87 68.96 93.45C68.7 94.2 68.47 94.96 68.27 95.73C68.05 96.57 67.86 97.41 67.7 98.27C67.58 98.91 67.51 99.56 67.42 100.2C67.48 100.28 67.54 100.35 67.61 100.43C67.86 100.71 68.12 100.98 68.4 101.24V101.25ZM70.34 100.37C70.45 99.56 70.58 98.75 70.75 97.94C70.93 97.06 71.14 96.19 71.39 95.33C70.68 95.41 70.39 95.25 69.9 94.76C69.66 95.53 69.45 96.31 69.27 97.1C68.95 98.54 68.77 99.98 68.63 101.44C68.76 101.54 68.9 101.64 69.05 101.73C69.4 101.95 69.77 102.11 70.14 102.24C70.16 102.01 70.2 101.78 70.22 101.56C70.26 101.16 70.31 100.76 70.36 100.37H70.34ZM81.45 100.63C80.72 100.32 80 100 79.31 99.63C79.3 99.74 79.28 99.85 79.25 99.95C79.18 100.15 79.03 100.31 78.92 100.48C78.82 100.64 78.68 100.78 78.51 100.88C78.46 100.91 78.41 100.83 78.46 100.8C78.62 100.7 78.75 100.55 78.83 100.38C78.9 100.22 78.83 100.03 78.83 99.86C78.82 99.75 78.8 99.64 78.77 99.53C78.75 99.56 78.74 99.59 78.72 99.62C78.23 100.49 77.69 100.74 76.96 101.37C76.81 101.5 76.61 101.3 76.75 101.16C77.32 100.53 77.83 99.46 78.23 98.69C78.57 98.03 78.82 97.31 78.97 96.58C78.98 96.51 78.99 96.44 79 96.37C79.05 95.87 79.05 95.36 79 94.85C78.92 93.87 78.67 92.89 78.25 91.99C77.89 91.23 77.42 90.54 76.85 89.93C76.3 89.34 75.63 88.94 74.93 88.55C73.66 87.86 71.91 87.05 70.46 87.68C70.14 87.82 69.89 88.04 69.69 88.3C69.58 88.51 69.48 88.73 69.41 88.96C70.41 89.97 71.52 91.04 72.89 91.49C73.75 91.77 74.93 91.73 75.63 92.38C76.54 93.22 75.89 94.36 74.89 94.74C73.87 95.13 72.61 95.17 71.53 95.31C71.3 96.17 71.1 97.04 70.93 97.91C70.77 98.77 70.64 99.63 70.54 100.49C70.5 100.88 70.46 101.27 70.43 101.66C70.41 101.87 70.41 102.09 70.4 102.3C70.73 102.4 71.07 102.46 71.41 102.51C71.42 102.02 71.51 101.51 71.57 101.03C71.64 100.49 71.73 99.94 71.82 99.4C72.03 98.24 72.3 97.09 72.62 95.95C72.64 95.89 72.73 95.92 72.71 95.98C72.41 97.1 72.17 98.24 71.98 99.39C71.88 99.97 71.8 100.56 71.74 101.15C71.69 101.61 71.67 102.08 71.61 102.54C71.83 102.57 72.05 102.59 72.28 102.6C72.51 102.61 72.74 102.62 72.97 102.63C73.03 101.09 73.24 99.56 73.6 98.06C73.61 98 73.7 98.03 73.68 98.08C73.36 99.58 73.19 101.1 73.17 102.63C74.07 102.66 74.99 102.67 75.88 102.61C77.02 102.54 78.15 102.31 79.17 101.78C79.67 101.52 80.16 101.22 80.67 100.97C80.91 100.85 81.18 100.71 81.46 100.61L81.45 100.63ZM108.02 87.26C108.28 87.42 108.55 87.57 108.81 87.73C108.97 87.47 109.13 87.21 109.31 86.95C109.01 86.78 108.73 86.59 108.45 86.39C108.32 86.68 108.18 86.97 108.03 87.26H108.02ZM107.85 87.6C108.04 87.68 108.22 87.76 108.41 87.84C108.23 87.74 108.06 87.63 107.89 87.53C107.88 87.55 107.86 87.58 107.85 87.6ZM107.29 88.54C107.56 88.69 107.83 88.86 108.08 89.04C108.24 88.72 108.41 88.41 108.59 88.11C108.54 88.09 108.48 88.06 108.43 88.04C108.21 87.94 107.99 87.85 107.76 87.75C107.61 88.02 107.45 88.29 107.28 88.55L107.29 88.54ZM107.06 88.9C107.29 88.99 107.53 89.08 107.76 89.16C107.83 89.19 107.91 89.21 107.98 89.23C107.98 89.23 107.98 89.22 107.98 89.21C107.68 89.1 107.39 88.96 107.11 88.8C107.09 88.83 107.07 88.86 107.05 88.89L107.06 88.9ZM105.64 90.76C105.96 90.84 106.27 90.92 106.6 90.98C106.77 91.01 106.95 91.04 107.12 91.07C107.2 90.91 107.28 90.75 107.35 90.58C107.52 90.18 107.69 89.79 107.87 89.42C107.77 89.39 107.68 89.36 107.58 89.32C107.36 89.24 107.14 89.15 106.92 89.07C106.59 89.55 106.25 90.01 105.91 90.43C105.82 90.54 105.72 90.65 105.63 90.76H105.64ZM104.58 91.82C105.08 91.92 105.58 92.01 106.08 92.07C106.19 92.08 106.3 92.09 106.41 92.1C106.65 91.84 106.86 91.54 107.05 91.22C106.93 91.2 106.81 91.17 106.68 91.15C106.3 91.07 105.92 90.98 105.55 90.88C105.25 91.22 104.93 91.53 104.59 91.82H104.58ZM101.52 92.53C101.63 92.56 101.75 92.58 101.86 92.6C102.19 92.66 102.53 92.71 102.87 92.74C103.32 92.49 103.74 92.19 104.14 91.87C104.1 91.87 104.07 91.86 104.03 91.85C103.57 91.74 103.12 91.61 102.67 91.46C102.3 91.83 101.92 92.19 101.52 92.53ZM99.12 94.73C98.28 94.77 97.43 94.76 96.58 94.71C96.5 95.08 96.41 95.44 96.33 95.8C97.97 95.78 99.59 95.66 101.24 95.65C101.24 95.65 101.24 95.64 101.23 95.63C101.18 95.63 101.13 95.62 101.08 95.61C100.39 95.44 99.75 95.12 99.13 94.73H99.12ZM95.92 94.54C96.11 94.55 96.31 94.57 96.5 94.58C96.55 94.36 96.59 94.15 96.63 93.93C96.37 93.91 96.12 93.89 95.86 93.86C95.81 94.02 95.76 94.18 95.72 94.34C95.79 94.37 95.85 94.41 95.92 94.44C95.96 94.46 95.95 94.51 95.92 94.54ZM95.63 94.64C95.53 95.01 95.42 95.39 95.32 95.76C95.36 95.78 95.39 95.79 95.43 95.81C95.7 95.81 95.97 95.81 96.24 95.81C96.32 95.44 96.4 95.08 96.48 94.71C96.2 94.69 95.92 94.67 95.64 94.64H95.63ZM95.9 96.07C95.97 96.12 96.04 96.16 96.1 96.22C96.11 96.23 96.12 96.25 96.12 96.26C96.13 96.2 96.15 96.15 96.16 96.09C96.07 96.09 95.99 96.08 95.9 96.07ZM95.22 96.1C95.09 96.55 94.96 97.01 94.81 97.45L95.86 97.35C95.95 97.01 96.03 96.66 96.11 96.32C96.09 96.34 96.07 96.36 96.04 96.36C95.76 96.33 95.49 96.22 95.22 96.1ZM95.94 97.35C97.85 97.17 99.75 97 101.66 96.82C101.58 96.49 101.45 96.17 101.33 95.86C99.71 96.19 97.97 96.19 96.27 96.1C96.17 96.52 96.06 96.94 95.95 97.36L95.94 97.35ZM98.1 94.03C97.65 94 97.2 93.97 96.75 93.93C96.7 94.15 96.66 94.36 96.61 94.58C97.39 94.62 98.16 94.63 98.95 94.63C98.66 94.44 98.38 94.24 98.1 94.04V94.03ZM96.92 93.16C96.88 93.38 96.83 93.6 96.78 93.82C97.17 93.85 97.56 93.89 97.95 93.93C97.6 93.67 97.26 93.41 96.92 93.16ZM95.67 92.31C95.52 92.51 95.37 92.71 95.23 92.91C95.46 93.04 95.69 93.17 95.9 93.32C95.93 93.27 96.02 93.29 96 93.36C96 93.36 96 93.38 96 93.39C96.06 93.43 96.13 93.48 96.18 93.52C96.21 93.54 96.18 93.6 96.14 93.59C96.08 93.57 96.02 93.55 95.96 93.52C95.94 93.59 95.92 93.67 95.89 93.74C96.14 93.76 96.4 93.78 96.65 93.8C96.7 93.55 96.75 93.31 96.8 93.06C96.52 92.86 96.25 92.67 95.97 92.49C95.87 92.43 95.77 92.36 95.67 92.3V92.31ZM95.11 92.85C95.25 92.64 95.4 92.44 95.55 92.24C95.33 92.1 95.11 91.96 94.9 91.82C93.78 91.23 92.67 90.62 91.58 89.97C89.69 88.84 87.84 87.66 86.04 86.38C85.49 85.99 84.84 85.39 84.14 84.84C83.76 84.65 83.34 84.45 82.89 84.26C83.36 84.63 83.84 85 84.31 85.37C86.22 86.86 88.17 88.31 90.16 89.7C91.15 90.39 92.15 91.06 93.18 91.69C93.68 92 94.19 92.31 94.7 92.61C94.83 92.69 94.97 92.76 95.11 92.84V92.85ZM94.65 93.81C94.97 93.96 95.28 94.12 95.59 94.27C95.64 94.13 95.68 93.98 95.73 93.84C95.6 93.83 95.47 93.82 95.34 93.81C95.27 93.81 95.27 93.7 95.34 93.7C95.48 93.71 95.62 93.72 95.76 93.73C95.79 93.64 95.81 93.56 95.84 93.47C95.59 93.36 95.34 93.23 95.09 93.09C94.93 93.32 94.79 93.56 94.64 93.8L94.65 93.81ZM94 95.09C94.33 95.26 94.66 95.43 94.99 95.6C95.05 95.63 95.11 95.66 95.18 95.69C95.29 95.33 95.39 94.98 95.49 94.62C95.16 94.59 94.83 94.55 94.5 94.51C94.43 94.51 94.43 94.39 94.5 94.4C94.84 94.44 95.19 94.47 95.53 94.5C95.53 94.48 95.54 94.46 95.55 94.44C95.2 94.33 94.86 94.19 94.53 94.04C94.34 94.38 94.17 94.73 94.01 95.08L94 95.09ZM93.14 97.61L94.61 97.47C94.77 96.99 94.92 96.51 95.07 96.03C95.05 96.03 95.03 96.01 95.01 96C94.61 95.97 94.21 95.93 93.82 95.9C93.72 95.9 93.72 95.74 93.82 95.74C94.07 95.76 94.31 95.77 94.55 95.78C94.31 95.67 94.07 95.55 93.83 95.44C93.77 95.58 93.71 95.73 93.66 95.87C93.58 96.08 93.52 96.29 93.45 96.5C93.78 96.65 94.1 96.81 94.39 97.01C94.46 97.06 94.42 97.17 94.33 97.15C94 97.07 93.68 96.94 93.36 96.79C93.28 97.06 93.2 97.33 93.12 97.6L93.14 97.61ZM92.74 98.76C93.22 98.72 93.7 98.68 94.18 98.62C94.32 98.28 94.46 97.92 94.58 97.57C94.09 97.61 93.61 97.65 93.12 97.69C93.01 98.05 92.89 98.41 92.74 98.75V98.76ZM91.76 100.56C92.27 100.51 92.77 100.44 93.27 100.38C93.58 99.9 93.84 99.39 94.07 98.87C93.6 98.9 93.13 98.92 92.66 98.94C92.41 99.51 92.1 100.06 91.76 100.57V100.56ZM93.19 100.52C92.69 100.58 92.18 100.64 91.68 100.69C91.19 101.39 90.63 102.03 90 102.61C90.52 102.51 91.03 102.35 91.55 102.18C91.65 102.15 91.75 102.11 91.85 102.08C92.38 101.62 92.82 101.09 93.2 100.52H93.19ZM100.58 99.16C98.22 99.73 95.84 100.18 93.44 100.49C93.1 101.02 92.7 101.51 92.23 101.95C94.09 101.34 95.95 100.73 97.81 100.13C98.72 99.83 99.71 99.59 100.58 99.16ZM101.75 97.82C99.35 98.42 96.81 98.7 94.29 98.85C94.07 99.37 93.82 99.87 93.53 100.34C96.04 100 98.52 99.51 100.98 98.88C101.48 98.64 101.7 98.26 101.75 97.82ZM101.77 97.64C101.77 97.42 101.74 97.2 101.69 96.97C99.76 97.13 97.84 97.3 95.91 97.46C95.87 97.59 95.84 97.72 95.8 97.85C95.79 97.89 95.72 97.87 95.73 97.83C95.76 97.71 95.79 97.58 95.82 97.46L94.77 97.55C94.65 97.9 94.53 98.25 94.39 98.6C96.85 98.33 99.29 97.95 101.76 97.64H101.77ZM104.31 93.58C105.04 93.25 105.7 92.82 106.26 92.25C106.17 92.24 106.09 92.22 106.01 92.21C105.49 92.14 104.97 92.04 104.45 91.93C104.08 92.24 103.69 92.52 103.28 92.76C103.31 92.76 103.35 92.76 103.38 92.76C103.9 92.77 104.41 92.71 104.93 92.73C104.98 92.73 104.99 92.8 104.94 92.82C104.32 93.01 103.62 93.02 102.94 92.95C102.48 93.2 101.99 93.42 101.48 93.59C101.35 93.63 101.3 93.43 101.42 93.39C101.82 93.26 102.19 93.09 102.56 92.91C102.32 92.88 102.09 92.83 101.86 92.79C101.69 92.76 101.52 92.72 101.36 92.67C101.06 92.92 100.76 93.16 100.46 93.39C100.84 93.58 101.2 93.78 101.55 94C102.3 94.16 102.96 94.07 103.61 93.86C103.84 93.78 104.06 93.69 104.28 93.6C104.28 93.6 104.29 93.6 104.3 93.6L104.31 93.58ZM106.81 92.33C106.69 92.31 106.56 92.3 106.44 92.28C106.27 92.46 106.1 92.63 105.91 92.79C106.21 92.64 106.51 92.48 106.8 92.33H106.81ZM108.45 91.43C108.02 91.39 107.59 91.32 107.17 91.25C107.05 91.49 106.91 91.72 106.75 91.93C106.7 91.99 106.64 92.05 106.59 92.11C106.78 92.12 106.98 92.13 107.17 92.14C107.6 91.91 108.03 91.67 108.45 91.42V91.43ZM110.43 90.14C110.05 90.08 109.68 89.97 109.32 89.87C108.85 89.74 108.38 89.59 107.92 89.43C107.69 89.98 107.5 90.55 107.25 91.09C107.76 91.16 108.26 91.21 108.77 91.24C109.29 90.93 109.79 90.61 110.27 90.26C110.33 90.22 110.38 90.18 110.44 90.14H110.43ZM111.41 89.12C110.45 88.93 109.51 88.5 108.61 88.1C108.43 88.41 108.25 88.72 108.1 89.04C108.19 89.1 108.27 89.16 108.35 89.23C108.39 89.26 108.35 89.32 108.3 89.31C108.2 89.28 108.11 89.25 108.01 89.21C108.01 89.21 108.01 89.22 108.01 89.23C108.47 89.38 108.92 89.52 109.39 89.65C109.81 89.76 110.24 89.84 110.66 89.97C111 89.69 111.24 89.4 111.41 89.12ZM111.72 87.91C111.38 87.8 111.05 87.59 110.74 87.45C110.35 87.26 109.97 87.07 109.58 86.88C109.6 86.9 109.62 86.91 109.63 86.93C109.71 87.01 109.61 87.13 109.51 87.08C109.45 87.05 109.4 87.02 109.34 86.99C109.16 87.24 108.99 87.5 108.82 87.76C109.02 87.89 109.21 88.02 109.39 88.17C109.41 88.19 109.41 88.21 109.4 88.23C110.09 88.48 110.79 88.73 111.44 89.05C111.66 88.67 111.74 88.29 111.71 87.91H111.72ZM108.94 85.03C108.84 85.38 108.71 85.73 108.56 86.09C108.69 86.18 108.82 86.28 108.95 86.37C109.13 86.46 109.31 86.56 109.49 86.65C109.66 86.41 109.83 86.16 110.01 85.92C110.04 85.88 110.1 85.92 110.07 85.96C109.89 86.2 109.72 86.44 109.55 86.68C109.97 86.89 110.39 87.09 110.82 87.29C111.09 87.41 111.4 87.52 111.67 87.67C111.59 87.27 111.41 86.88 111.15 86.48C111.13 86.48 111.12 86.48 111.1 86.47C110.37 86.01 109.65 85.53 108.93 85.04L108.94 85.03ZM122.09 74.31C122.09 74.31 122.16 74.34 122.2 74.36C122.2 74.32 122.21 74.28 122.22 74.24C122.22 74.2 122.2 74.15 122.19 74.11C122.17 74.1 122.15 74.08 122.14 74.07C122.13 74.15 122.11 74.23 122.1 74.31H122.09ZM121.63 75.67C121.73 75.72 121.84 75.77 121.94 75.82C122.04 75.37 122.12 74.92 122.18 74.47C122.14 74.45 122.11 74.43 122.07 74.41C122.01 74.71 121.92 75.01 121.81 75.3C121.76 75.43 121.7 75.55 121.63 75.67ZM120.67 76.93C120.81 76.99 120.95 77.04 121.09 77.09C121.22 77.14 121.36 77.19 121.49 77.23C121.65 76.83 121.78 76.42 121.88 76.01C121.76 75.95 121.64 75.89 121.52 75.84C121.28 76.23 120.98 76.59 120.66 76.92L120.67 76.93ZM119.62 77.94C119.86 78.02 120.1 78.1 120.33 78.17C120.52 78.23 120.73 78.28 120.93 78.33C120.96 78.28 120.99 78.24 121.02 78.19C121.16 77.95 121.27 77.71 121.38 77.47C121.07 77.36 120.77 77.24 120.47 77.11C120.23 77.35 119.98 77.58 119.74 77.81C119.7 77.85 119.65 77.89 119.61 77.93L119.62 77.94ZM117.9 79.5C118.24 79.61 118.58 79.72 118.92 79.82C119.15 79.89 119.38 79.94 119.6 80.01C120.05 79.57 120.45 79.09 120.8 78.56C120.62 78.5 120.45 78.43 120.28 78.38C120 78.29 119.73 78.2 119.45 78.1C118.94 78.58 118.43 79.05 117.9 79.5ZM116.2 80.81C116.2 80.81 116.23 80.81 116.25 80.82C116.83 80.99 117.42 81.14 117.99 81.34C118.48 80.99 118.95 80.62 119.39 80.21C119.21 80.16 119.03 80.11 118.85 80.06C118.46 79.94 118.08 79.81 117.7 79.67C117.22 80.07 116.72 80.46 116.2 80.81ZM115.37 82.95C116.14 82.51 116.93 82.06 117.67 81.56C117.15 81.46 116.64 81.32 116.15 81.17C116.04 81.14 115.93 81.1 115.83 81.06C115.08 81.55 114.29 81.97 113.44 82.3C113.43 82.3 113.42 82.3 113.41 82.3C113.96 82.5 114.51 82.68 115.06 82.85C115.16 82.88 115.27 82.91 115.38 82.94L115.37 82.95ZM120.38 80.47C120.24 80.44 120.1 80.4 119.97 80.37C119.89 80.35 119.81 80.32 119.72 80.3C119.26 80.71 118.77 81.09 118.25 81.44C118.34 81.47 118.43 81.5 118.52 81.54C118.58 81.56 118.58 81.67 118.5 81.66C118.33 81.65 118.16 81.63 117.99 81.61C117.2 82.12 116.38 82.57 115.55 83C115.91 83.1 116.27 83.19 116.63 83.31C117 83.12 117.37 82.89 117.76 82.61C118.67 81.95 119.52 81.21 120.37 80.47H120.38ZM123.23 78.03C122.75 77.92 122.27 77.78 121.8 77.62C121.66 77.91 121.5 78.19 121.33 78.45C121.47 78.5 121.6 78.55 121.73 78.62C121.79 78.66 121.76 78.76 121.69 78.76C121.52 78.76 121.35 78.73 121.18 78.68C120.82 79.2 120.4 79.68 119.95 80.11C119.96 80.11 119.98 80.11 119.99 80.12C120.19 80.17 120.41 80.21 120.61 80.28C120.85 80.07 121.09 79.87 121.33 79.66C121.94 79.15 122.65 78.63 123.22 78.03H123.23ZM124.26 75.75C123.98 75.53 123.7 75.3 123.41 75.08C123.19 74.98 122.98 74.87 122.77 74.76C122.68 75.19 122.57 75.62 122.44 76.03C122.64 76.12 122.84 76.21 123.05 76.29C123.36 76.41 123.74 76.51 124.01 76.7C124.05 76.73 124.04 76.8 123.98 76.8C123.64 76.78 123.27 76.6 122.96 76.47C122.76 76.39 122.57 76.3 122.37 76.22C122.24 76.62 122.09 77 121.91 77.37C122.39 77.54 122.87 77.7 123.35 77.87C123.8 77.35 124.14 76.76 124.23 76.05C124.24 75.95 124.25 75.84 124.25 75.74L124.26 75.75ZM123.2 72C123.16 71.95 123.12 71.9 123.08 71.85C123.08 72.25 123.06 72.66 123.02 73.07C123.36 73.35 123.7 73.63 123.97 73.96C124 73.99 123.97 74.04 123.92 74.02C123.59 73.84 123.28 73.61 122.98 73.36C122.95 73.68 122.9 73.99 122.84 74.31C123.31 74.68 123.78 75.05 124.25 75.42C124.23 74.21 123.75 73.06 123.18 71.99L123.2 72ZM130.78 72.6C130.46 72.49 130.14 72.31 129.85 72.19C129.36 71.97 128.87 71.75 128.38 71.53C127.74 71.23 127.11 70.92 126.48 70.61C127.49 71.93 129.11 72.49 130.78 72.61V72.6ZM132.35 72.58C131.55 72.29 130.77 71.93 130.01 71.59C129.2 71.22 128.4 70.83 127.61 70.41C127.61 70.41 127.6 70.42 127.59 70.42C127.2 70.55 126.81 70.54 126.41 70.47C127.05 70.78 127.69 71.08 128.34 71.38C128.83 71.6 129.32 71.82 129.82 72.03C130.24 72.21 130.78 72.35 131.17 72.62C131.57 72.63 131.97 72.62 132.36 72.58H132.35ZM136.37 60.35C136.49 60.46 136.6 60.57 136.72 60.68C136.74 60.68 136.75 60.67 136.77 60.68C136.83 60.56 136.9 60.43 136.96 60.31C137.05 60.14 137.31 60.29 137.22 60.46C137.15 60.6 137.07 60.74 137 60.89C137.13 61.01 137.25 61.13 137.37 61.25C137.42 61.04 137.46 60.83 137.5 60.62C137.31 60.4 137.11 60.18 136.93 59.95C136.89 59.98 136.85 60 136.81 60.02C136.68 60.16 136.54 60.27 136.37 60.36V60.35ZM136.38 64.26C136.62 63.73 136.82 63.19 137 62.63C136.85 62.47 136.7 62.31 136.55 62.16C136.49 62.13 136.44 62.1 136.38 62.07C136.13 62.56 135.88 63.04 135.62 63.52C135.88 63.76 136.13 64.01 136.38 64.26ZM135.56 63.64C135.25 64.24 134.94 64.83 134.62 65.42C134.87 65.67 135.12 65.92 135.37 66.17C135.73 65.59 136.05 65 136.32 64.39C136.07 64.14 135.82 63.88 135.56 63.63V63.64ZM137.04 62.52C137.15 62.16 137.25 61.79 137.34 61.42C137.26 61.34 137.19 61.27 137.11 61.19C137.08 61.21 137.05 61.22 137.01 61.19C136.97 61.16 136.93 61.13 136.89 61.1C136.76 61.36 136.62 61.61 136.49 61.87C136.59 61.96 136.68 62.06 136.77 62.17C136.79 62.19 136.77 62.22 136.76 62.22C136.86 62.32 136.95 62.41 137.05 62.51L137.04 62.52ZM135.18 60.85C135.38 61 135.57 61.15 135.77 61.3C135.78 61.3 135.79 61.32 135.8 61.33C135.8 61.33 135.82 61.33 135.83 61.33C135.85 61.35 135.87 61.37 135.89 61.39C136.01 61.48 136.13 61.58 136.25 61.67C136.38 61.42 136.51 61.17 136.63 60.92C136.44 60.77 136.24 60.63 136.05 60.48C135.9 60.53 135.74 60.57 135.57 60.61C135.53 60.63 135.49 60.65 135.45 60.68C135.36 60.74 135.26 60.8 135.17 60.86L135.18 60.85ZM134.95 61.01C134.7 61.19 134.46 61.4 134.24 61.61C134.4 61.73 134.55 61.85 134.69 61.98C134.78 62.06 134.67 62.18 134.57 62.13C134.39 62.03 134.21 61.92 134.04 61.81C133.99 61.86 133.95 61.91 133.9 61.96C134.41 62.4 134.92 62.86 135.42 63.32C135.66 62.85 135.9 62.38 136.14 61.9C135.87 61.72 135.61 61.51 135.36 61.31C135.23 61.21 135.09 61.11 134.96 61.01H134.95ZM133.63 61.18C133.78 61.28 133.92 61.38 134.06 61.49C134.26 61.29 134.49 61.07 134.74 60.86C134.71 60.83 134.67 60.81 134.64 60.78C134.56 60.8 134.48 60.82 134.41 60.84C134.13 60.92 133.87 61.04 133.64 61.18H133.63ZM133.69 61.92C133.69 61.92 133.69 61.92 133.68 61.91C133.63 61.86 133.7 61.79 133.76 61.83C133.8 61.79 133.84 61.74 133.88 61.7C133.71 61.59 133.55 61.47 133.38 61.35C132.82 61.76 132.4 62.34 132.06 62.96L132.68 63.43C132.68 63.43 132.71 63.45 132.72 63.46C132.98 62.9 133.3 62.38 133.69 61.9V61.92ZM134.44 65.24C134.75 64.64 135.05 64.04 135.36 63.44C134.86 62.96 134.35 62.5 133.83 62.04C133.43 62.5 133.09 63.01 132.82 63.55C132.97 63.67 133.12 63.78 133.24 63.95C133.25 63.97 133.24 63.99 133.21 63.99C133.14 63.97 133.08 63.93 133.01 63.9C133.49 64.34 133.97 64.79 134.44 65.25V65.24ZM139.08 70.55C137.91 69.09 136.68 67.68 135.39 66.33C135.32 66.43 135.25 66.54 135.18 66.64C135.15 66.69 135.07 66.64 135.1 66.59C135.17 66.48 135.24 66.36 135.31 66.25C135.07 66 134.82 65.75 134.57 65.5C134.45 65.72 134.33 65.94 134.21 66.16C134.05 66.45 133.88 66.73 133.69 67C134.16 67.38 134.62 67.76 135.06 68.17C135.68 68.74 136.27 69.33 136.84 69.95C137.12 70.25 137.39 70.56 137.65 70.88C137.73 70.98 137.82 71.08 137.91 71.18C138.31 71 138.7 70.78 139.07 70.55H139.08ZM140.54 69.26C139.27 67.59 137.91 66 136.44 64.51C136.14 65.1 135.81 65.68 135.44 66.24C136.76 67.59 138.01 69 139.2 70.46C139.46 70.29 139.71 70.1 139.94 69.9C140.17 69.69 140.37 69.48 140.54 69.25V69.26ZM141.18 67.84C140.95 67.5 140.72 67.14 140.47 66.81C139.99 66.16 139.5 65.51 138.98 64.88C138.4 64.17 137.79 63.47 137.16 62.8C136.97 63.34 136.75 63.86 136.5 64.38C137.99 65.86 139.37 67.44 140.63 69.12C140.91 68.71 141.08 68.28 141.17 67.84H141.18ZM141.1 65.93C140 64.42 138.83 62.97 137.53 61.63C137.43 61.99 137.33 62.35 137.2 62.7C137.86 63.39 138.5 64.09 139.12 64.82C139.61 65.41 140.1 66.01 140.56 66.63C140.78 66.92 141.01 67.22 141.23 67.53C141.29 67.01 141.23 66.47 141.1 65.94V65.93ZM139.09 62.38C138.64 61.86 138.17 61.36 137.72 60.85C137.68 61.05 137.63 61.24 137.58 61.44C138.76 62.62 139.88 63.88 140.87 65.22C140.47 64.19 139.81 63.21 139.09 62.38ZM78.14 48.79C73.93 47.05 70.09 44.56 66.19 42.23C66.04 42.14 65.9 42.37 66.05 42.47C68.07 43.7 70.09 44.95 72.12 46.17C74 47.29 75.95 48.41 78.1 48.93C78.19 48.95 78.22 48.83 78.14 48.8V48.79ZM78.09 47.8C75.94 46.8 73.75 45.91 71.61 44.87C69.48 43.84 67.38 42.73 65.32 41.55C65.24 41.5 65.17 41.63 65.25 41.68C67.32 42.88 69.43 44.01 71.57 45.06C73.68 46.09 75.83 47.13 78.05 47.88C78.1 47.9 78.13 47.82 78.08 47.8H78.09ZM91.16 56.17C91.12 55.56 91.07 54.95 90.96 54.35C90.85 53.74 90.71 53.13 90.54 52.52C90.39 51.98 90.24 51.4 89.96 50.9C89.76 50.54 89.47 50.27 89.14 50.04C88.34 49.23 87.16 48.72 86.15 48.33C84.4 47.65 82.53 47.32 80.72 46.82C79.56 46.5 78.4 46.15 77.24 45.8C77.17 45.78 77.15 45.88 77.21 45.9C79.62 46.71 82 47.58 84.35 48.53C85.31 48.92 86.27 49.26 87.18 49.75C88.03 50.2 88.78 50.8 89.61 51.29C89.75 51.62 89.85 51.97 89.94 52.31C90.1 52.87 90.23 53.45 90.34 54.02C90.46 54.69 90.57 55.36 90.64 56.03C90.7 56.66 90.71 57.31 90.88 57.93C90.9 58.02 91.03 58.02 91.06 57.93C91.22 57.36 91.21 56.74 91.17 56.15L91.16 56.17ZM92.23 56.28C92.11 55.79 91.98 55.3 91.84 54.82C91.55 53.85 91.21 52.9 90.83 51.96C90.8 51.9 90.7 51.92 90.73 51.99C91.09 52.91 91.41 53.85 91.68 54.81C91.81 55.28 91.93 55.75 92.04 56.23C92.15 56.72 92.2 57.24 92.35 57.71C92.38 57.8 92.52 57.78 92.51 57.69C92.48 57.22 92.34 56.74 92.23 56.29V56.28ZM93.05 55.34C92.74 54.4 92.38 53.48 92 52.57C91.98 52.52 91.89 52.56 91.91 52.61C92.28 53.54 92.61 54.48 92.91 55.44C93.2 56.4 93.42 57.38 93.73 58.33C93.76 58.42 93.87 58.38 93.86 58.29C93.71 57.29 93.38 56.3 93.06 55.34H93.05ZM87.89 60.58C86.13 60.93 84.37 61.33 82.57 61.37C82 61.38 81.42 61.38 80.84 61.37C80.73 61.36 80.62 61.35 80.52 61.34C78.62 61.1 76.85 60.43 75.17 59.52C74.58 59.1 74.01 58.66 73.47 58.21C72.82 57.68 72.21 57.12 71.65 56.49C71.13 55.91 70.72 55.26 70.22 54.67C69.93 54.34 69.64 54 69.27 53.76C68.99 53.57 68.7 53.39 68.41 53.21C68.24 52.93 68.06 52.65 67.86 52.39C67.83 52.35 67.76 52.39 67.78 52.43C67.86 52.62 67.96 52.81 68.06 53C67.34 52.6 66.54 52.32 65.77 52.04C65.72 52.02 65.7 52.1 65.75 52.11C66.54 52.42 67.33 52.73 68.02 53.22C68.14 53.31 68.25 53.4 68.35 53.5C68.55 53.83 68.76 54.15 68.96 54.47C69.27 54.97 69.6 55.45 69.94 55.93C70.16 56.26 70.39 56.58 70.64 56.89C71.46 57.95 72.38 58.92 73.44 59.75C73.5 59.8 73.59 59.71 73.53 59.66C73.19 59.39 72.87 59.1 72.56 58.81C72.61 58.85 72.66 58.9 72.72 58.94C74.01 59.98 75.39 61.03 76.92 61.69C78.52 62.37 80.3 62.51 81.99 62.16C82.52 62.05 83.05 61.94 83.58 61.83C84.46 61.75 85.36 61.59 86.16 61.24C86.76 61.08 87.35 60.9 87.93 60.69C88 60.66 87.97 60.56 87.9 60.58H87.89ZM88 62.53C87.28 62.51 86.54 62.69 85.82 62.77C85.07 62.85 84.32 62.92 83.57 62.97C82.09 63.07 80.6 63.11 79.11 63.08C79.02 63.08 79.02 63.22 79.11 63.23C80.62 63.26 82.12 63.23 83.63 63.14C84.36 63.09 85.09 63.03 85.82 62.95C86.53 62.87 87.33 62.85 88.01 62.62C88.06 62.6 88.05 62.54 88 62.53ZM90.68 62.57C89.81 62.67 88.95 62.98 88.1 63.21C87.22 63.45 86.33 63.7 85.45 63.94C85.35 63.97 85.39 64.13 85.49 64.1C86.37 63.86 87.26 63.62 88.14 63.38C88.99 63.15 89.88 62.98 90.69 62.63C90.72 62.62 90.71 62.56 90.67 62.57H90.68ZM77.58 74.99C76.88 75.03 76.2 75.22 75.5 75.26C74.78 75.3 74.05 75.24 73.34 75.09C71.92 74.78 70.59 74.11 69.53 73.11C69.39 72.98 69.18 73.19 69.32 73.32C70.41 74.37 71.78 75.09 73.25 75.43C73.97 75.59 74.71 75.67 75.45 75.64C76.17 75.61 77 75.53 77.61 75.13C77.67 75.09 77.65 74.99 77.57 74.99H77.58ZM78.59 75.62C77.16 75.8 75.77 76.1 74.31 76.09C72.84 76.09 71.38 75.85 69.97 75.41C69.81 75.36 69.75 75.6 69.9 75.65C71.32 76.11 72.81 76.36 74.3 76.39C75.72 76.41 77.29 76.31 78.6 75.71C78.64 75.69 78.62 75.61 78.58 75.62H78.59ZM79.64 75.87C78.48 76.39 77.36 76.93 76.11 77.2C74.85 77.47 73.55 77.5 72.28 77.3C72.13 77.28 72.07 77.5 72.22 77.53C73.52 77.74 74.84 77.72 76.13 77.47C77.39 77.22 78.7 76.79 79.7 75.96C79.75 75.92 79.69 75.85 79.64 75.88V75.87ZM71.2 59.37C70.09 58.27 69.07 57.09 68.14 55.84C67.7 55.24 67.27 54.62 66.88 53.99C66.68 53.67 66.48 53.34 66.28 53.01C66.09 52.7 65.94 52.34 65.7 52.07C65.67 52.04 65.62 52.07 65.63 52.11C65.72 52.45 65.96 52.78 66.13 53.09C66.32 53.42 66.52 53.75 66.73 54.07C67.15 54.73 67.61 55.37 68.08 55.99C69.01 57.21 70.03 58.36 71.13 59.44C71.18 59.49 71.25 59.41 71.21 59.36L71.2 59.37ZM68.66 58.33C67.35 57.93 66.47 56.74 65.68 55.7C64.81 54.56 64.05 53.35 63.26 52.15C63.24 52.12 63.19 52.15 63.21 52.18C63.9 53.52 64.8 54.76 65.74 55.95C66.52 56.95 67.38 58.03 68.65 58.41C68.7 58.42 68.72 58.35 68.67 58.33H68.66ZM65.49 19.27C65.33 19.54 65.26 19.86 65.15 20.16C65.04 20.47 64.93 20.79 64.82 21.1C64.59 21.76 64.36 22.43 64.13 23.09L62.76 27.02C62.76 27.02 62.8 27.07 62.82 27.04C63.29 25.76 63.76 24.47 64.22 23.19C64.45 22.57 64.67 21.94 64.9 21.32C65.02 20.99 65.14 20.66 65.26 20.33C65.38 20.01 65.55 19.67 65.6 19.33C65.61 19.26 65.52 19.22 65.48 19.28L65.49 19.27ZM66.75 19.78C66.41 20.51 66.21 21.32 65.96 22.09C65.7 22.89 65.44 23.69 65.18 24.48C65.15 24.56 65.28 24.6 65.31 24.52C65.58 23.74 65.84 22.96 66.11 22.18C66.37 21.41 66.7 20.63 66.87 19.83C66.88 19.76 66.79 19.71 66.75 19.78ZM21.45 62.16C20.47 60.77 19.77 59.19 19.38 57.53C19.19 56.71 19.08 55.88 19.05 55.04C19.03 54.63 19.02 54.21 19.03 53.8C19.03 53.4 19.13 52.92 19.03 52.54C19 52.44 18.86 52.42 18.81 52.51C18.62 52.84 18.61 53.33 18.57 53.7C18.52 54.15 18.51 54.59 18.53 55.04C18.57 55.9 18.7 56.77 18.9 57.61C19.31 59.32 20.06 60.95 21.08 62.37C21.24 62.6 21.62 62.38 21.46 62.15L21.45 62.16ZM18.6 59.14C18.09 58.22 17.7 57.24 17.46 56.22C17.34 55.71 17.26 55.18 17.21 54.66C17.16 54.14 17.18 53.62 17.13 53.1C17.13 53.04 17.03 53.01 17.02 53.08C16.83 54.09 17.02 55.23 17.25 56.22C17.5 57.28 17.9 58.29 18.44 59.24C18.5 59.35 18.67 59.25 18.61 59.14H18.6ZM16.31 58.41C15.96 57.43 15.68 56.42 15.47 55.4C15.26 54.38 15.22 53.33 14.98 52.32C14.96 52.25 14.87 52.27 14.87 52.34C14.76 53.36 14.99 54.42 15.19 55.42C15.4 56.46 15.69 57.48 16.05 58.48C16.11 58.64 16.36 58.57 16.3 58.41H16.31ZM13.98 55.54C13.56 55.22 13.23 54.79 13.02 54.31C12.91 54.07 12.84 53.82 12.79 53.57C12.77 53.44 12.76 53.31 12.75 53.18C12.74 53.07 12.75 52.93 12.69 52.84C12.67 52.82 12.64 52.81 12.61 52.84C12.53 52.93 12.54 53.06 12.53 53.17C12.53 53.31 12.54 53.46 12.57 53.6C12.61 53.88 12.7 54.16 12.81 54.42C13.04 54.95 13.4 55.41 13.86 55.76C13.98 55.86 14.11 55.64 13.98 55.55V55.54Z" fill="#0057C2"/>
</g>
<defs>
<clipPath id="clip0_1_425">
<rect width="159.79" height="103.88" fill="white"/>
</clipPath>
</defs>
</svg>
