<svg xmlns="http://www.w3.org/2000/svg" fill="none" viewBox="0 0 150 50">
<g clip-path="url(#b)">
<path fill="currentColor" d="M84.228 47.565c-1.9-.32-4.243-.733-5.913-2.814-1.582-1.972-2.387-4.162-2.926-6.58-1.149-5.097-1.237-13.05-.84-18.239.3-3.925-4.481-4.456-6.69-.606-4.076 7.093-3.616 17.885 1.245 24.852 4.5 6.453 13.922 5.956 16.07 4.558.415-.27.336-1.062-.946-1.171ZM8.362 23.277c.636-.775 2.095-2.081 4.631-2.081 2.537 0 3.996 1.306 4.632 2.072 1.185 1.45 1.556 2.216 1.556 8.753 0 6.538-.371 7.304-1.556 8.753-.645.775-2.095 2.081-4.632 2.081-2.536 0-3.986-1.297-4.631-2.072-1.185-1.458-1.556-2.224-1.556-8.762 0-6.537.371-7.304 1.556-8.744Zm16.034-2.317c-1.741-3.024-5.648-6.25-11.403-6.25-5.754 0-9.67 3.226-11.402 6.25C.407 23.007 0 24.12 0 32.021c0 7.902.407 9.015 1.591 11.07 1.741 3.024 5.648 6.251 11.402 6.251 5.755 0 9.67-3.227 11.403-6.25 1.176-2.048 1.591-3.16 1.591-11.062 0-7.91-.407-9.023-1.591-11.07ZM51.718 38.424l-.222.447c-1.299 2.645-3.243 3.984-5.78 3.984-2.537 0-3.995-1.306-4.632-2.072-1.184-1.45-1.556-2.216-1.556-8.753 0-6.538.372-7.304 1.556-8.753.636-.775 2.095-2.081 4.632-2.081 3.032 0 5.073 2.09 5.736 4.162l.177.547h7.054l-.186-.918c-1.22-6.141-6.364-10.27-12.79-10.27-5.754 0-9.67 3.227-11.403 6.251-1.175 2.056-1.59 3.168-1.59 11.062 0 7.902.406 9.014 1.59 11.061 1.742 3.024 5.649 6.251 11.403 6.251 6.523 0 11.42-3.825 12.781-9.983l.204-.935h-6.974ZM109.225 24.852c0 2.022-1.308 4.39-4.985 4.39h-7v-8.316h7.292c1.75 0 2.581.337 3.305.86.893.615 1.388 1.701 1.388 3.066Zm.23 9.402c3.907-1.651 6.285-5.181 6.285-9.41 0-2.89-1.344-5.636-3.686-7.532-1.927-1.592-4.305-2.342-7.487-2.342H90.424v34.086h6.806V35.172h5.286l7.045 13.892h7.991l-8.097-14.81ZM143.194 25.67c0 2.156-1.529 4.481-4.888 4.481h-6.859v-8.955h6.665c1.476 0 2.333.202 3.243.783 1.238.784 1.839 1.997 1.839 3.69Zm2.802-8.24c-2.731-2.03-5.242-2.451-8.176-2.451h-13.188v34.085h6.806V36.368h7.045c7.478 0 11.508-5.442 11.508-10.555.009-3.42-1.485-6.555-3.995-8.383Z"/>
<path fill="#FFA92E" d="M71.72 11.744c2.175.707 3.598-.96 4.809-2.41 1.759-2.097 1.741-4.355 1.344-6.882-.469-3.016-5.163-3.177-6.568-.818-1.202 2.005-1.918 3.825-1.52 6.184.194 1.205.22 3.37 1.936 3.926Z"/>
</g>
<defs>
<clipPath id="b">
<path fill="currentColor" d="M0 0h150v49.612H0z"/>
</clipPath>
</defs>
</svg>